<?xml version="1.0" encoding="UTF-8" standalone="no"?>
<!-- Created with Inkscape (http://www.inkscape.org/) -->

<svg
   xmlns:dc="http://purl.org/dc/elements/1.1/"
   xmlns:cc="http://creativecommons.org/ns#"
   xmlns:rdf="http://www.w3.org/1999/02/22-rdf-syntax-ns#"
   xmlns:svg="http://www.w3.org/2000/svg"
   xmlns="http://www.w3.org/2000/svg"
   xmlns:sodipodi="http://sodipodi.sourceforge.net/DTD/sodipodi-0.dtd"
   xmlns:inkscape="http://www.inkscape.org/namespaces/inkscape"
   width="800"
   height="200"
   viewBox="0 0 211.66667 52.916668"
   version="1.1"
   id="svg8"
   inkscape:version="0.92.5 (2060ec1f9f, 2020-04-08)"
   sodipodi:docname="logo.svg">
  <defs
     id="defs2">
    <clipPath
       clipPathUnits="userSpaceOnUse"
       id="clipPath6563">
      <g
         id="g6585"
         transform="matrix(3.7795276,0,0,3.7795276,-21.038283,-817.87707)">
        <path
           d="m 48.519886,261.3437 q 0.933231,0 1.555385,-0.27997 0.622154,-0.27997 1.08877,-0.87101 l 1.337631,-5.91047 4.012894,0.0311 -2.550832,11.6965 q -0.902123,4.23065 -2.768586,5.97268 -1.866462,1.77314 -5.194986,1.77314 -1.959786,0 -3.141879,-1.2132 -1.182093,-1.2132 -1.182093,-3.07967 0,-1.80424 1.057662,-3.01744 1.057662,-1.24431 2.737479,-1.24431 1.679816,0 2.364185,0.52883 0.68437,0.49772 0.68437,1.55538 0,0.24887 -0.06222,0.55994 -0.03111,0.34219 -0.12443,0.68437 -0.528831,-0.43551 -0.933232,-0.62215 -0.4044,-0.18665 -0.933231,-0.18665 -0.964339,0 -1.586493,0.68437 -0.591046,0.68437 -0.591046,1.67982 0,0.93323 0.528831,1.52428 0.528831,0.59104 1.430954,0.59104 1.275416,0 1.959786,-0.90212 0.684369,-0.87102 1.150985,-2.92413 l 1.244308,-5.56828 q -0.964339,0.52884 -2.053109,0.83991 -1.088769,0.27997 -1.742031,0.27997 -3.297417,0 -5.008341,-2.022 -1.679816,-2.05311 -1.679816,-5.94157 0,-2.30197 0.777693,-4.47951 0.8088,-2.20865 2.239755,-3.85736 1.524277,-1.77314 3.546278,-2.70637 2.053109,-0.93323 4.448402,-0.93323 2.613047,0 4.19954,1.11988 1.586493,1.08877 1.586493,3.04856 0,1.39984 -0.559938,2.14643 -0.559939,0.71547 -1.617601,0.71547 -0.653262,0 -1.244308,-0.21775 -0.559939,-0.21775 -0.902124,-0.59105 0.528831,-0.15553 0.933231,-0.99544 0.435508,-0.83991 0.435508,-1.55539 0,-0.99544 -0.559938,-1.58649 -0.559939,-0.62216 -1.586493,-0.62216 -1.337632,0 -2.706371,1.11988 -1.337631,1.08877 -2.395293,3.04856 -0.871016,1.52427 -1.337632,3.26631 -0.466615,1.71092 -0.466615,3.32852 0,2.39529 0.933231,3.76403 0.964339,1.36874 2.675263,1.36874 z"
           style="font-style:normal;font-variant:normal;font-weight:normal;font-stretch:normal;font-size:31.10770607px;line-height:125%;font-family:Galada;-inkscape-font-specification:Galada;letter-spacing:0px;word-spacing:0px;fill:#b2b2b2;fill-opacity:1;stroke:none;stroke-width:0.77769262px;stroke-linecap:butt;stroke-linejoin:miter;stroke-opacity:1"
           id="path6565"
           inkscape:connector-curvature="0" />
        <path
           d="m 65.069158,263.98786 q 0,-0.55994 0.124431,-1.39985 0.155538,-0.83991 0.591046,-2.67526 0.435508,-1.77314 0.559939,-2.55083 0.124431,-0.7777 0.124431,-1.30653 0,-0.77769 -0.27997,-1.18209 -0.279969,-0.4044 -0.839908,-0.4044 -0.746585,0 -1.399847,0.77769 -0.622154,0.74659 -1.026554,2.08422 l -2.115324,9.98557 h -4.47951 l 3.297417,-15.55385 h 4.47951 l -0.342185,1.6176 q 0.777693,-0.87102 1.679816,-1.30652 0.902124,-0.43551 1.959786,-0.43551 1.648708,0 2.550832,0.90212 0.902123,0.90213 0.902123,2.61305 0,0.71548 -0.186646,1.71092 -0.155539,0.96434 -0.653262,2.98634 -0.4044,1.5865 -0.528831,2.23976 -0.124431,0.65326 -0.124431,1.08877 0,0.65326 0.311077,0.99544 0.311077,0.31108 0.933231,0.31108 0.777693,0 1.337632,-0.52883 0.559939,-0.52883 1.275416,-2.20865 H 74.5259 q -0.995446,2.89302 -2.426401,4.32397 -1.399846,1.43096 -3.359632,1.43096 -1.742031,0 -2.70637,-0.93323 -0.964339,-0.96434 -0.964339,-2.58194 z"
           style="font-style:normal;font-variant:normal;font-weight:normal;font-stretch:normal;font-size:31.10770607px;line-height:125%;font-family:Galada;-inkscape-font-specification:Galada;letter-spacing:0px;word-spacing:0px;fill:#b2b2b2;fill-opacity:1;stroke:none;stroke-width:0.77769262px;stroke-linecap:butt;stroke-linejoin:miter;stroke-opacity:1"
           id="path6567"
           inkscape:connector-curvature="0" />
        <path
           d="m 72.783841,262.5258 q 0,-1.77314 0.559939,-3.76404 0.591046,-1.99089 1.586493,-3.54628 1.150985,-1.83535 2.768586,-2.76858 1.617601,-0.96434 3.608494,-0.96434 1.990893,0 2.98634,1.24431 0.995446,1.24431 0.995446,3.73292 0.06222,0.0311 0.124431,0.0622 0.09332,0 0.217754,0 0.964339,0 2.30197,-0.52883 1.337632,-0.52883 2.488617,-1.33763 l 0.279969,0.8399 q -0.871016,0.93323 -2.333078,1.6176 -1.430954,0.68437 -3.172986,0.96434 -0.373292,4.19954 -2.426401,6.78148 -2.053109,2.58194 -5.008341,2.58194 -2.426401,0 -3.701817,-1.24431 -1.275416,-1.2443 -1.275416,-3.6707 z m 8.772373,-9.14567 q -1.493169,0 -2.830801,3.01745 -1.306524,3.01744 -1.306524,5.72382 0,1.46206 0.311078,1.99089 0.342184,0.52883 1.275416,0.52883 1.150985,0 2.177539,-1.86646 1.057662,-1.86647 1.430954,-4.60394 -0.435507,-0.0933 -0.653261,-0.4044 -0.186647,-0.34219 -0.186647,-0.90213 0,-0.59104 0.248862,-1.02655 0.248862,-0.43551 0.715477,-0.65326 -0.06221,-0.99545 -0.342185,-1.39985 -0.248861,-0.4044 -0.839908,-0.4044 z"
           style="font-style:normal;font-variant:normal;font-weight:normal;font-stretch:normal;font-size:31.10770607px;line-height:125%;font-family:Galada;-inkscape-font-specification:Galada;letter-spacing:0px;word-spacing:0px;fill:#b2b2b2;fill-opacity:1;stroke:none;stroke-width:0.77769262px;stroke-linecap:butt;stroke-linejoin:miter;stroke-opacity:1"
           id="path6569"
           inkscape:connector-curvature="0" />
        <path
           d="m 103.30042,263.98786 q 0,-0.55994 0.12443,-1.39985 0.15554,-0.83991 0.59105,-2.67526 0.43551,-1.77314 0.55994,-2.55083 0.12443,-0.7777 0.12443,-1.30653 0,-0.77769 -0.27997,-1.18209 -0.27997,-0.4044 -0.83991,-0.4044 -0.74658,0 -1.39985,0.77769 -0.62215,0.74659 -1.02655,2.08422 l -2.115326,9.98557 h -4.479509 l 2.270862,-10.73216 q 0.06222,-0.18664 0.06222,-0.37329 0.03111,-0.18665 0.03111,-0.4044 0,-0.62215 -0.248861,-0.99545 -0.248862,-0.37329 -0.68437,-0.37329 -0.8088,0 -1.462062,0.77769 -0.653262,0.74659 -1.057662,2.11533 l -2.115324,9.98557 h -4.47951 l 3.297417,-15.55385 h 4.47951 l -0.342185,1.6176 q 0.777693,-0.90212 1.710924,-1.33763 0.933231,-0.43551 2.084216,-0.43551 1.368739,0 2.14644,0.68437 0.8088,0.65326 1.05766,1.99089 0.87101,-1.33763 1.92868,-1.99089 1.05766,-0.65326 2.39529,-0.65326 1.64871,0 2.55083,0.90212 0.90213,0.90213 0.90213,2.61305 0,0.71548 -0.18665,1.71092 -0.15554,0.96434 -0.65326,2.98634 -0.4044,1.5865 -0.52883,2.23976 -0.12443,0.65326 -0.12443,1.08877 0,0.65326 0.31107,0.99544 0.31108,0.31108 0.93323,0.31108 0.7777,0 1.33764,-0.52883 0.55993,-0.52883 1.27541,-2.20865 h 1.30652 q -0.99544,2.89302 -2.4264,4.32397 -1.39984,1.43096 -3.35963,1.43096 -1.74203,0 -2.70637,-0.93323 -0.96434,-0.96434 -0.96434,-2.58194 z"
           style="font-style:normal;font-variant:normal;font-weight:normal;font-stretch:normal;font-size:31.10770607px;line-height:125%;font-family:Galada;-inkscape-font-specification:Galada;letter-spacing:0px;word-spacing:0px;fill:#b2b2b2;fill-opacity:1;stroke:none;stroke-width:0.77769262px;stroke-linecap:butt;stroke-linejoin:miter;stroke-opacity:1"
           id="path6571"
           inkscape:connector-curvature="0" />
        <path
           d="m 123.2404,254.4689 q 0,2.58194 -2.11532,4.51062 -2.11533,1.89757 -5.03945,2.05311 -0.0311,0.52883 -0.0622,0.8088 0,0.24886 0,0.4355 0,1.43096 0.46662,2.022 0.49772,0.59105 1.77314,0.59105 1.46206,0 2.67526,-0.65326 1.24431,-0.68437 2.8308,-2.48862 h 1.05767 q -1.80425,2.92413 -3.91958,4.35508 -2.11532,1.39985 -4.63504,1.39985 -2.3953,0 -3.63961,-1.24431 -1.2132,-1.24431 -1.2132,-3.70182 0,-1.77314 0.55994,-3.76403 0.55994,-1.99089 1.49317,-3.54628 1.15099,-1.86646 2.73748,-2.79969 1.6176,-0.96434 3.60849,-0.96434 1.71093,0 2.55084,0.74658 0.87101,0.71548 0.87101,2.23976 z m -3.17298,-1.33763 q -1.05767,0 -2.14644,1.89757 -1.05766,1.86646 -1.58649,4.51062 1.80425,-0.12444 3.14188,-1.64871 1.36874,-1.55539 1.36874,-3.48407 0,-0.65326 -0.18665,-0.96433 -0.18664,-0.31108 -0.59104,-0.31108 z"
           style="font-style:normal;font-variant:normal;font-weight:normal;font-stretch:normal;font-size:31.10770607px;line-height:125%;font-family:Galada;-inkscape-font-specification:Galada;letter-spacing:0px;word-spacing:0px;fill:#b2b2b2;fill-opacity:1;stroke:none;stroke-width:0.77769262px;stroke-linecap:butt;stroke-linejoin:miter;stroke-opacity:1"
           id="path6573"
           inkscape:connector-curvature="0" />
        <path
           d="m 124.36024,260.41047 0.55994,-2.45751 h 6.22154 l -0.52883,2.45751 z"
           style="font-style:normal;font-variant:normal;font-weight:normal;font-stretch:normal;font-size:31.10770607px;line-height:125%;font-family:Galada;-inkscape-font-specification:Galada;letter-spacing:0px;word-spacing:0px;fill:#b2b2b2;fill-opacity:1;stroke:none;stroke-width:0.77769262px;stroke-linecap:butt;stroke-linejoin:miter;stroke-opacity:1"
           id="path6575"
           inkscape:connector-curvature="0" />
        <path
           d="m 140.19404,267.31638 h -4.47951 l 4.23065,-19.7845 4.60394,-0.62215 -2.20865,10.38997 q 2.17754,-0.18665 3.79514,-2.55083 1.64871,-2.36419 1.64871,-5.10167 0,-1.99089 -1.02656,-3.11077 -0.99544,-1.11987 -2.8308,-1.11987 -3.79514,0 -5.94157,2.022 -2.11532,1.99089 -2.11532,5.53717 0,0.59105 0.0622,1.02655 0.0933,0.43551 0.27997,0.83991 0.0622,0.12443 0.0622,0.18665 0.0311,0.0311 0.0311,0.0622 -1.74203,0 -2.55083,-0.71547 -0.77769,-0.74659 -0.77769,-2.30197 0,-1.55539 1.02655,-3.11077 1.05767,-1.55539 2.92413,-2.7997 1.58649,-1.02655 3.39074,-1.58649 1.83535,-0.59105 3.57738,-0.59105 3.42185,0 5.38164,1.67982 1.95978,1.67981 1.95978,4.4484 0,1.64871 -0.74658,3.2352 -0.71548,1.5865 -2.022,2.76859 -1.24431,1.15098 -2.8308,1.74203 -1.5865,0.59105 -3.39074,0.59105 h -0.15554 z"
           style="font-style:normal;font-variant:normal;font-weight:normal;font-stretch:normal;font-size:31.10770607px;line-height:125%;font-family:Galada;-inkscape-font-specification:Galada;letter-spacing:0px;word-spacing:0px;fill:#b2b2b2;fill-opacity:1;stroke:none;stroke-width:0.77769262px;stroke-linecap:butt;stroke-linejoin:miter;stroke-opacity:1"
           id="path6577"
           inkscape:connector-curvature="0" />
        <path
           d="m 158.29872,247.6252 q 0,1.02656 -0.74658,1.74204 -0.71548,0.71547 -1.74203,0.71547 -1.02656,0 -1.74204,-0.71547 -0.71547,-0.71548 -0.71547,-1.74204 0,-1.02655 0.71547,-1.74203 0.71548,-0.74658 1.74204,-0.74658 1.02655,0 1.74203,0.74658 0.74658,0.71548 0.74658,1.74203 z m -7.93246,16.1449 q 0,-0.4044 0.0622,-0.90212 0.0622,-0.52883 0.18665,-1.11988 l 2.11532,-9.98557 h 4.47951 l -2.23975,10.57662 q -0.0622,0.27997 -0.0933,0.52883 -0.0311,0.21775 -0.0311,0.46662 0,0.62215 0.27997,0.90212 0.31107,0.24886 0.99544,0.24886 0.87102,0 1.64871,-0.74658 0.77769,-0.7777 1.15099,-1.9909 h 1.30652 q -0.99545,2.8308 -2.67526,4.29287 -1.67982,1.46206 -3.85736,1.46206 -1.55538,0 -2.45751,-0.96434 -0.87101,-0.99545 -0.87101,-2.76859 z"
           style="font-style:normal;font-variant:normal;font-weight:normal;font-stretch:normal;font-size:31.10770607px;line-height:125%;font-family:Galada;-inkscape-font-specification:Galada;letter-spacing:0px;word-spacing:0px;fill:#b2b2b2;fill-opacity:1;stroke:none;stroke-width:0.77769262px;stroke-linecap:butt;stroke-linejoin:miter;stroke-opacity:1"
           id="path6579"
           inkscape:connector-curvature="0" />
        <path
           d="m 170.33735,254.4689 q 0,2.58194 -2.11533,4.51062 -2.11532,1.89757 -5.03944,2.05311 -0.0311,0.52883 -0.0622,0.8088 0,0.24886 0,0.4355 0,1.43096 0.46662,2.022 0.49772,0.59105 1.77314,0.59105 1.46206,0 2.67526,-0.65326 1.24431,-0.68437 2.8308,-2.48862 h 1.05766 q -1.80425,2.92413 -3.91957,4.35508 -2.11532,1.39985 -4.63505,1.39985 -2.39529,0 -3.6396,-1.24431 -1.2132,-1.24431 -1.2132,-3.70182 0,-1.77314 0.55994,-3.76403 0.55994,-1.99089 1.49317,-3.54628 1.15098,-1.86646 2.73748,-2.79969 1.6176,-0.96434 3.60849,-0.96434 1.71092,0 2.55083,0.74658 0.87102,0.71548 0.87102,2.23976 z m -3.17299,-1.33763 q -1.05766,0 -2.14643,1.89757 -1.05766,1.86646 -1.58649,4.51062 1.80424,-0.12444 3.14188,-1.64871 1.36874,-1.55539 1.36874,-3.48407 0,-0.65326 -0.18665,-0.96433 -0.18665,-0.31108 -0.59105,-0.31108 z"
           style="font-style:normal;font-variant:normal;font-weight:normal;font-stretch:normal;font-size:31.10770607px;line-height:125%;font-family:Galada;-inkscape-font-specification:Galada;letter-spacing:0px;word-spacing:0px;fill:#b2b2b2;fill-opacity:1;stroke:none;stroke-width:0.77769262px;stroke-linecap:butt;stroke-linejoin:miter;stroke-opacity:1"
           id="path6581"
           inkscape:connector-curvature="0" />
        <path
           d="m 181.46065,252.27675 q -1.41537,1.12819 -1.98972,1.72306 -0.55384,0.57435 -0.88204,1.08717 h 0.10256 q 0.30769,0 0.6564,0.041 0.34872,0.0205 1.06666,0.12308 0.84102,0.12307 1.29229,0.1641 0.47179,0.041 0.90256,0.041 0.4923,0 0.86153,-0.0821 0.36922,-0.0821 0.69743,-0.28717 0.10256,-0.0821 0.41025,-0.32821 0.30769,-0.26666 0.77948,-0.71794 0.0205,0.1641 0.0205,0.36923 0,0.18461 0,0.53333 0,1.76408 -0.55384,2.42048 -0.55384,0.65641 -1.88716,0.65641 -0.59487,0 -1.14871,-0.0821 -0.55384,-0.0615 -1.4769,-0.28718 -0.88204,-0.22564 -1.39486,-0.28718 -0.51282,-0.0821 -1.06666,-0.0821 -0.1641,0 -0.41025,0.0821 -0.24615,0.0615 -0.75896,0.30769 -0.20513,0.0821 -0.28718,0.12308 -0.10256,0.041 -0.1641,0.0615 -0.0205,-0.12308 -0.0205,-0.24615 -0.0205,-0.14359 -0.0205,-0.43077 0,-1.12819 0.59487,-2.23587 0.59486,-1.1282 2.54356,-3.13843 1.10768,-1.14871 1.6205,-1.74357 0.51281,-0.61538 0.86153,-1.18973 0.57435,-0.90256 0.84101,-1.80511 0.28718,-0.90256 0.28718,-1.84614 0,-0.69742 -0.38974,-1.18973 -0.36923,-0.4923 -0.86153,-0.4923 -0.88204,0 -1.27178,0.36923 -0.38974,0.36922 -0.38974,1.29229 0,0.4923 0.20513,0.90256 0.22564,0.38974 0.57435,0.4923 -0.38974,0.34871 -0.77948,0.53333 -0.38974,0.1641 -0.77948,0.1641 -0.67691,0 -1.08717,-0.49231 -0.38974,-0.51281 -0.38974,-1.35383 0,-1.33332 1.1282,-2.17433 1.12819,-0.84102 3.0974,-0.84102 1.9487,0 2.91279,0.84102 0.9846,0.8205 0.9846,2.46151 0,0.9846 -0.36922,1.92818 -0.34872,0.92307 -1.06666,1.82563 -0.45127,0.55384 -1.06665,1.1487 -0.61538,0.57435 -1.92819,1.64101 z"
           style="font-style:normal;font-variant:normal;font-weight:normal;font-stretch:normal;font-size:20.51260185px;line-height:125%;font-family:Galada;-inkscape-font-specification:Galada;letter-spacing:0px;word-spacing:0px;fill:#b2b2b2;fill-opacity:1;stroke:none;stroke-width:0.512815px;stroke-linecap:butt;stroke-linejoin:miter;stroke-opacity:1"
           id="path6583"
           inkscape:connector-curvature="0" />
      </g>
    </clipPath>
    <filter
       inkscape:collect="always"
       style="color-interpolation-filters:sRGB"
       id="filter6695"
       x="-0.0036810525"
       width="1.0073621"
       y="-0.01621484"
       height="1.0324297">
      <feGaussianBlur
         inkscape:collect="always"
         stdDeviation="1.1678564"
         id="feGaussianBlur6697" />
    </filter>
  </defs>
  <sodipodi:namedview
     id="base"
     pagecolor="#ffffff"
     bordercolor="#666666"
     borderopacity="1.0"
     inkscape:pageopacity="0.0"
     inkscape:pageshadow="2"
     inkscape:zoom="1.4"
     inkscape:cx="442.82424"
     inkscape:cy="40.09685"
     inkscape:document-units="mm"
     inkscape:current-layer="layer1"
     showgrid="false"
     inkscape:window-width="1920"
     inkscape:window-height="996"
     inkscape:window-x="0"
     inkscape:window-y="0"
     inkscape:window-maximized="1"
     units="px"
     inkscape:snap-global="false" />
  <metadata
     id="metadata5">
    <rdf:RDF>
      <cc:Work
         rdf:about="">
        <dc:format>image/svg+xml</dc:format>
        <dc:type
           rdf:resource="http://purl.org/dc/dcmitype/StillImage" />
        <dc:title></dc:title>
      </cc:Work>
    </rdf:RDF>
  </metadata>
  <g
     inkscape:label="Layer 1"
     inkscape:groupmode="layer"
     id="layer1"
     transform="translate(0,-244.08331)">
    <g
       transform="translate(-8.3066907,13.040179)"
       id="g6376"
       style="fill:#f2f2f2;fill-opacity:1;stroke:none">
      <path
         inkscape:connector-curvature="0"
         id="path6356"
         style="font-style:normal;font-variant:normal;font-weight:normal;font-stretch:normal;font-size:31.10770607px;line-height:125%;font-family:Galada;-inkscape-font-specification:Galada;letter-spacing:0px;word-spacing:0px;fill:#f2f2f2;fill-opacity:1;stroke:none;stroke-width:0.77769262px;stroke-linecap:butt;stroke-linejoin:miter;stroke-opacity:1"
         d="m 48.519886,261.3437 q 0.933231,0 1.555385,-0.27997 0.622154,-0.27997 1.08877,-0.87101 l 1.337631,-5.91047 4.012894,0.0311 -2.550832,11.6965 q -0.902123,4.23065 -2.768586,5.97268 -1.866462,1.77314 -5.194986,1.77314 -1.959786,0 -3.141879,-1.2132 -1.182093,-1.2132 -1.182093,-3.07967 0,-1.80424 1.057662,-3.01744 1.057662,-1.24431 2.737479,-1.24431 1.679816,0 2.364185,0.52883 0.68437,0.49772 0.68437,1.55538 0,0.24887 -0.06222,0.55994 -0.03111,0.34219 -0.12443,0.68437 -0.528831,-0.43551 -0.933232,-0.62215 -0.4044,-0.18665 -0.933231,-0.18665 -0.964339,0 -1.586493,0.68437 -0.591046,0.68437 -0.591046,1.67982 0,0.93323 0.528831,1.52428 0.528831,0.59104 1.430954,0.59104 1.275416,0 1.959786,-0.90212 0.684369,-0.87102 1.150985,-2.92413 l 1.244308,-5.56828 q -0.964339,0.52884 -2.053109,0.83991 -1.088769,0.27997 -1.742031,0.27997 -3.297417,0 -5.008341,-2.022 -1.679816,-2.05311 -1.679816,-5.94157 0,-2.30197 0.777693,-4.47951 0.8088,-2.20865 2.239755,-3.85736 1.524277,-1.77314 3.546278,-2.70637 2.053109,-0.93323 4.448402,-0.93323 2.613047,0 4.19954,1.11988 1.586493,1.08877 1.586493,3.04856 0,1.39984 -0.559938,2.14643 -0.559939,0.71547 -1.617601,0.71547 -0.653262,0 -1.244308,-0.21775 -0.559939,-0.21775 -0.902124,-0.59105 0.528831,-0.15553 0.933231,-0.99544 0.435508,-0.83991 0.435508,-1.55539 0,-0.99544 -0.559938,-1.58649 -0.559939,-0.62216 -1.586493,-0.62216 -1.337632,0 -2.706371,1.11988 -1.337631,1.08877 -2.395293,3.04856 -0.871016,1.52427 -1.337632,3.26631 -0.466615,1.71092 -0.466615,3.32852 0,2.39529 0.933231,3.76403 0.964339,1.36874 2.675263,1.36874 z" />
      <path
         inkscape:connector-curvature="0"
         id="path6358"
         style="font-style:normal;font-variant:normal;font-weight:normal;font-stretch:normal;font-size:31.10770607px;line-height:125%;font-family:Galada;-inkscape-font-specification:Galada;letter-spacing:0px;word-spacing:0px;fill:#f2f2f2;fill-opacity:1;stroke:none;stroke-width:0.77769262px;stroke-linecap:butt;stroke-linejoin:miter;stroke-opacity:1"
         d="m 65.069158,263.98786 q 0,-0.55994 0.124431,-1.39985 0.155538,-0.83991 0.591046,-2.67526 0.435508,-1.77314 0.559939,-2.55083 0.124431,-0.7777 0.124431,-1.30653 0,-0.77769 -0.27997,-1.18209 -0.279969,-0.4044 -0.839908,-0.4044 -0.746585,0 -1.399847,0.77769 -0.622154,0.74659 -1.026554,2.08422 l -2.115324,9.98557 h -4.47951 l 3.297417,-15.55385 h 4.47951 l -0.342185,1.6176 q 0.777693,-0.87102 1.679816,-1.30652 0.902124,-0.43551 1.959786,-0.43551 1.648708,0 2.550832,0.90212 0.902123,0.90213 0.902123,2.61305 0,0.71548 -0.186646,1.71092 -0.155539,0.96434 -0.653262,2.98634 -0.4044,1.5865 -0.528831,2.23976 -0.124431,0.65326 -0.124431,1.08877 0,0.65326 0.311077,0.99544 0.311077,0.31108 0.933231,0.31108 0.777693,0 1.337632,-0.52883 0.559939,-0.52883 1.275416,-2.20865 H 74.5259 q -0.995446,2.89302 -2.426401,4.32397 -1.399846,1.43096 -3.359632,1.43096 -1.742031,0 -2.70637,-0.93323 -0.964339,-0.96434 -0.964339,-2.58194 z" />
      <path
         inkscape:connector-curvature="0"
         id="path6360"
         style="font-style:normal;font-variant:normal;font-weight:normal;font-stretch:normal;font-size:31.10770607px;line-height:125%;font-family:Galada;-inkscape-font-specification:Galada;letter-spacing:0px;word-spacing:0px;fill:#f2f2f2;fill-opacity:1;stroke:none;stroke-width:0.77769262px;stroke-linecap:butt;stroke-linejoin:miter;stroke-opacity:1"
         d="m 72.783841,262.5258 q 0,-1.77314 0.559939,-3.76404 0.591046,-1.99089 1.586493,-3.54628 1.150985,-1.83535 2.768586,-2.76858 1.617601,-0.96434 3.608494,-0.96434 1.990893,0 2.98634,1.24431 0.995446,1.24431 0.995446,3.73292 0.06222,0.0311 0.124431,0.0622 0.09332,0 0.217754,0 0.964339,0 2.30197,-0.52883 1.337632,-0.52883 2.488617,-1.33763 l 0.279969,0.8399 q -0.871016,0.93323 -2.333078,1.6176 -1.430954,0.68437 -3.172986,0.96434 -0.373292,4.19954 -2.426401,6.78148 -2.053109,2.58194 -5.008341,2.58194 -2.426401,0 -3.701817,-1.24431 -1.275416,-1.2443 -1.275416,-3.6707 z m 8.772373,-9.14567 q -1.493169,0 -2.830801,3.01745 -1.306524,3.01744 -1.306524,5.72382 0,1.46206 0.311078,1.99089 0.342184,0.52883 1.275416,0.52883 1.150985,0 2.177539,-1.86646 1.057662,-1.86647 1.430954,-4.60394 -0.435507,-0.0933 -0.653261,-0.4044 -0.186647,-0.34219 -0.186647,-0.90213 0,-0.59104 0.248862,-1.02655 0.248862,-0.43551 0.715477,-0.65326 -0.06221,-0.99545 -0.342185,-1.39985 -0.248861,-0.4044 -0.839908,-0.4044 z" />
      <path
         inkscape:connector-curvature="0"
         id="path6362"
         style="font-style:normal;font-variant:normal;font-weight:normal;font-stretch:normal;font-size:31.10770607px;line-height:125%;font-family:Galada;-inkscape-font-specification:Galada;letter-spacing:0px;word-spacing:0px;fill:#f2f2f2;fill-opacity:1;stroke:none;stroke-width:0.77769262px;stroke-linecap:butt;stroke-linejoin:miter;stroke-opacity:1"
         d="m 103.30042,263.98786 q 0,-0.55994 0.12443,-1.39985 0.15554,-0.83991 0.59105,-2.67526 0.43551,-1.77314 0.55994,-2.55083 0.12443,-0.7777 0.12443,-1.30653 0,-0.77769 -0.27997,-1.18209 -0.27997,-0.4044 -0.83991,-0.4044 -0.74658,0 -1.39985,0.77769 -0.62215,0.74659 -1.02655,2.08422 l -2.115326,9.98557 h -4.479509 l 2.270862,-10.73216 q 0.06222,-0.18664 0.06222,-0.37329 0.03111,-0.18665 0.03111,-0.4044 0,-0.62215 -0.248861,-0.99545 -0.248862,-0.37329 -0.68437,-0.37329 -0.8088,0 -1.462062,0.77769 -0.653262,0.74659 -1.057662,2.11533 l -2.115324,9.98557 h -4.47951 l 3.297417,-15.55385 h 4.47951 l -0.342185,1.6176 q 0.777693,-0.90212 1.710924,-1.33763 0.933231,-0.43551 2.084216,-0.43551 1.368739,0 2.14644,0.68437 0.8088,0.65326 1.05766,1.99089 0.87101,-1.33763 1.92868,-1.99089 1.05766,-0.65326 2.39529,-0.65326 1.64871,0 2.55083,0.90212 0.90213,0.90213 0.90213,2.61305 0,0.71548 -0.18665,1.71092 -0.15554,0.96434 -0.65326,2.98634 -0.4044,1.5865 -0.52883,2.23976 -0.12443,0.65326 -0.12443,1.08877 0,0.65326 0.31107,0.99544 0.31108,0.31108 0.93323,0.31108 0.7777,0 1.33764,-0.52883 0.55993,-0.52883 1.27541,-2.20865 h 1.30652 q -0.99544,2.89302 -2.4264,4.32397 -1.39984,1.43096 -3.35963,1.43096 -1.74203,0 -2.70637,-0.93323 -0.96434,-0.96434 -0.96434,-2.58194 z" />
      <path
         inkscape:connector-curvature="0"
         id="path6364"
         style="font-style:normal;font-variant:normal;font-weight:normal;font-stretch:normal;font-size:31.10770607px;line-height:125%;font-family:Galada;-inkscape-font-specification:Galada;letter-spacing:0px;word-spacing:0px;fill:#f2f2f2;fill-opacity:1;stroke:none;stroke-width:0.77769262px;stroke-linecap:butt;stroke-linejoin:miter;stroke-opacity:1"
         d="m 123.2404,254.4689 q 0,2.58194 -2.11532,4.51062 -2.11533,1.89757 -5.03945,2.05311 -0.0311,0.52883 -0.0622,0.8088 0,0.24886 0,0.4355 0,1.43096 0.46662,2.022 0.49772,0.59105 1.77314,0.59105 1.46206,0 2.67526,-0.65326 1.24431,-0.68437 2.8308,-2.48862 h 1.05767 q -1.80425,2.92413 -3.91958,4.35508 -2.11532,1.39985 -4.63504,1.39985 -2.3953,0 -3.63961,-1.24431 -1.2132,-1.24431 -1.2132,-3.70182 0,-1.77314 0.55994,-3.76403 0.55994,-1.99089 1.49317,-3.54628 1.15099,-1.86646 2.73748,-2.79969 1.6176,-0.96434 3.60849,-0.96434 1.71093,0 2.55084,0.74658 0.87101,0.71548 0.87101,2.23976 z m -3.17298,-1.33763 q -1.05767,0 -2.14644,1.89757 -1.05766,1.86646 -1.58649,4.51062 1.80425,-0.12444 3.14188,-1.64871 1.36874,-1.55539 1.36874,-3.48407 0,-0.65326 -0.18665,-0.96433 -0.18664,-0.31108 -0.59104,-0.31108 z" />
      <path
         inkscape:connector-curvature="0"
         id="path6366"
         style="font-style:normal;font-variant:normal;font-weight:normal;font-stretch:normal;font-size:31.10770607px;line-height:125%;font-family:Galada;-inkscape-font-specification:Galada;letter-spacing:0px;word-spacing:0px;fill:#f2f2f2;fill-opacity:1;stroke:none;stroke-width:0.77769262px;stroke-linecap:butt;stroke-linejoin:miter;stroke-opacity:1"
         d="m 124.36024,260.41047 0.55994,-2.45751 h 6.22154 l -0.52883,2.45751 z" />
      <path
         inkscape:connector-curvature="0"
         id="path6368"
         style="font-style:normal;font-variant:normal;font-weight:normal;font-stretch:normal;font-size:31.10770607px;line-height:125%;font-family:Galada;-inkscape-font-specification:Galada;letter-spacing:0px;word-spacing:0px;fill:#f2f2f2;fill-opacity:1;stroke:none;stroke-width:0.77769262px;stroke-linecap:butt;stroke-linejoin:miter;stroke-opacity:1"
         d="m 140.19404,267.31638 h -4.47951 l 4.23065,-19.7845 4.60394,-0.62215 -2.20865,10.38997 q 2.17754,-0.18665 3.79514,-2.55083 1.64871,-2.36419 1.64871,-5.10167 0,-1.99089 -1.02656,-3.11077 -0.99544,-1.11987 -2.8308,-1.11987 -3.79514,0 -5.94157,2.022 -2.11532,1.99089 -2.11532,5.53717 0,0.59105 0.0622,1.02655 0.0933,0.43551 0.27997,0.83991 0.0622,0.12443 0.0622,0.18665 0.0311,0.0311 0.0311,0.0622 -1.74203,0 -2.55083,-0.71547 -0.77769,-0.74659 -0.77769,-2.30197 0,-1.55539 1.02655,-3.11077 1.05767,-1.55539 2.92413,-2.7997 1.58649,-1.02655 3.39074,-1.58649 1.83535,-0.59105 3.57738,-0.59105 3.42185,0 5.38164,1.67982 1.95978,1.67981 1.95978,4.4484 0,1.64871 -0.74658,3.2352 -0.71548,1.5865 -2.022,2.76859 -1.24431,1.15098 -2.8308,1.74203 -1.5865,0.59105 -3.39074,0.59105 h -0.15554 z" />
      <path
         inkscape:connector-curvature="0"
         id="path6370"
         style="font-style:normal;font-variant:normal;font-weight:normal;font-stretch:normal;font-size:31.10770607px;line-height:125%;font-family:Galada;-inkscape-font-specification:Galada;letter-spacing:0px;word-spacing:0px;fill:#f2f2f2;fill-opacity:1;stroke:none;stroke-width:0.77769262px;stroke-linecap:butt;stroke-linejoin:miter;stroke-opacity:1"
         d="m 158.29872,247.6252 q 0,1.02656 -0.74658,1.74204 -0.71548,0.71547 -1.74203,0.71547 -1.02656,0 -1.74204,-0.71547 -0.71547,-0.71548 -0.71547,-1.74204 0,-1.02655 0.71547,-1.74203 0.71548,-0.74658 1.74204,-0.74658 1.02655,0 1.74203,0.74658 0.74658,0.71548 0.74658,1.74203 z m -7.93246,16.1449 q 0,-0.4044 0.0622,-0.90212 0.0622,-0.52883 0.18665,-1.11988 l 2.11532,-9.98557 h 4.47951 l -2.23975,10.57662 q -0.0622,0.27997 -0.0933,0.52883 -0.0311,0.21775 -0.0311,0.46662 0,0.62215 0.27997,0.90212 0.31107,0.24886 0.99544,0.24886 0.87102,0 1.64871,-0.74658 0.77769,-0.7777 1.15099,-1.9909 h 1.30652 q -0.99545,2.8308 -2.67526,4.29287 -1.67982,1.46206 -3.85736,1.46206 -1.55538,0 -2.45751,-0.96434 -0.87101,-0.99545 -0.87101,-2.76859 z" />
      <path
         inkscape:connector-curvature="0"
         id="path6372"
         style="font-style:normal;font-variant:normal;font-weight:normal;font-stretch:normal;font-size:31.10770607px;line-height:125%;font-family:Galada;-inkscape-font-specification:Galada;letter-spacing:0px;word-spacing:0px;fill:#f2f2f2;fill-opacity:1;stroke:none;stroke-width:0.77769262px;stroke-linecap:butt;stroke-linejoin:miter;stroke-opacity:1"
         d="m 170.33735,254.4689 q 0,2.58194 -2.11533,4.51062 -2.11532,1.89757 -5.03944,2.05311 -0.0311,0.52883 -0.0622,0.8088 0,0.24886 0,0.4355 0,1.43096 0.46662,2.022 0.49772,0.59105 1.77314,0.59105 1.46206,0 2.67526,-0.65326 1.24431,-0.68437 2.8308,-2.48862 h 1.05766 q -1.80425,2.92413 -3.91957,4.35508 -2.11532,1.39985 -4.63505,1.39985 -2.39529,0 -3.6396,-1.24431 -1.2132,-1.24431 -1.2132,-3.70182 0,-1.77314 0.55994,-3.76403 0.55994,-1.99089 1.49317,-3.54628 1.15098,-1.86646 2.73748,-2.79969 1.6176,-0.96434 3.60849,-0.96434 1.71092,0 2.55083,0.74658 0.87102,0.71548 0.87102,2.23976 z m -3.17299,-1.33763 q -1.05766,0 -2.14643,1.89757 -1.05766,1.86646 -1.58649,4.51062 1.80424,-0.12444 3.14188,-1.64871 1.36874,-1.55539 1.36874,-3.48407 0,-0.65326 -0.18665,-0.96433 -0.18665,-0.31108 -0.59105,-0.31108 z" />
      <path
         inkscape:connector-curvature="0"
         id="path6374"
         style="font-style:normal;font-variant:normal;font-weight:normal;font-stretch:normal;font-size:20.51260185px;line-height:125%;font-family:Galada;-inkscape-font-specification:Galada;letter-spacing:0px;word-spacing:0px;fill:#f2f2f2;fill-opacity:1;stroke:none;stroke-width:0.512815px;stroke-linecap:butt;stroke-linejoin:miter;stroke-opacity:1"
         d="m 181.46065,252.27675 q -1.41537,1.12819 -1.98972,1.72306 -0.55384,0.57435 -0.88204,1.08717 h 0.10256 q 0.30769,0 0.6564,0.041 0.34872,0.0205 1.06666,0.12308 0.84102,0.12307 1.29229,0.1641 0.47179,0.041 0.90256,0.041 0.4923,0 0.86153,-0.0821 0.36922,-0.0821 0.69743,-0.28717 0.10256,-0.0821 0.41025,-0.32821 0.30769,-0.26666 0.77948,-0.71794 0.0205,0.1641 0.0205,0.36923 0,0.18461 0,0.53333 0,1.76408 -0.55384,2.42048 -0.55384,0.65641 -1.88716,0.65641 -0.59487,0 -1.14871,-0.0821 -0.55384,-0.0615 -1.4769,-0.28718 -0.88204,-0.22564 -1.39486,-0.28718 -0.51282,-0.0821 -1.06666,-0.0821 -0.1641,0 -0.41025,0.0821 -0.24615,0.0615 -0.75896,0.30769 -0.20513,0.0821 -0.28718,0.12308 -0.10256,0.041 -0.1641,0.0615 -0.0205,-0.12308 -0.0205,-0.24615 -0.0205,-0.14359 -0.0205,-0.43077 0,-1.12819 0.59487,-2.23587 0.59486,-1.1282 2.54356,-3.13843 1.10768,-1.14871 1.6205,-1.74357 0.51281,-0.61538 0.86153,-1.18973 0.57435,-0.90256 0.84101,-1.80511 0.28718,-0.90256 0.28718,-1.84614 0,-0.69742 -0.38974,-1.18973 -0.36923,-0.4923 -0.86153,-0.4923 -0.88204,0 -1.27178,0.36923 -0.38974,0.36922 -0.38974,1.29229 0,0.4923 0.20513,0.90256 0.22564,0.38974 0.57435,0.4923 -0.38974,0.34871 -0.77948,0.53333 -0.38974,0.1641 -0.77948,0.1641 -0.67691,0 -1.08717,-0.49231 -0.38974,-0.51281 -0.38974,-1.35383 0,-1.33332 1.1282,-2.17433 1.12819,-0.84102 3.0974,-0.84102 1.9487,0 2.91279,0.84102 0.9846,0.8205 0.9846,2.46151 0,0.9846 -0.36922,1.92818 -0.34872,0.92307 -1.06666,1.82563 -0.45127,0.55384 -1.06665,1.1487 -0.61538,0.57435 -1.92819,1.64101 z" />
    </g>
    <path
       style="opacity:0.26199999;vector-effect:none;fill:#101010;fill-opacity:1;stroke:none;stroke-width:7.26481485;stroke-linecap:round;stroke-linejoin:miter;stroke-miterlimit:4;stroke-dasharray:none;stroke-dashoffset:0;stroke-opacity:1;paint-order:markers fill stroke;filter:url(#filter6695)"
       d="M 27.123047,69.285156 C 23.176423,69.285156 20,72.21988 20,75.865234 V 235.5625 c 0,3.64535 3.176423,6.58008 7.123047,6.58008 H 774.30469 c 3.94662,0 7.12304,-2.93473 7.12304,-6.58008 V 75.865234 c 0,-3.645354 -3.17642,-6.580078 -7.12304,-6.580078 z M 667.88477,100.18164 c 4.91011,0 8.5786,1.06058 11.00781,3.17969 2.48088,2.0674 3.72265,5.1679 3.72265,9.30273 0,2.48088 -0.46616,4.90959 -1.39648,7.28711 -0.87866,2.32585 -2.22227,4.62623 -4.03125,6.90039 -1.13706,1.3955 -2.48069,2.84294 -4.03125,4.3418 -1.55056,1.44718 -3.97924,3.51352 -7.28711,6.20117 v 0.002 c -3.56629,2.84269 -6.0743,5.01284 -7.52148,6.51172 -1.39551,1.44718 -2.50507,2.81723 -3.33204,4.10938 h 0.38672 c 0.77529,0 1.60183,0.051 2.48047,0.1543 0.87867,0.0517 2.22227,0.20637 4.03125,0.46484 2.11911,0.3101 3.74771,0.51771 4.88477,0.62109 1.18876,0.10331 2.3267,0.1543 3.41211,0.1543 1.24044,0 2.32551,-0.10368 3.25586,-0.31055 0.93031,-0.20686 1.80778,-0.56727 2.63476,-1.08398 0.25842,-0.20687 0.7755,-0.62012 1.55078,-1.24024 0.77529,-0.6719 1.75851,-1.57776 2.94727,-2.71484 0.0516,0.41348 0.0762,0.87962 0.0762,1.39648 v 2.01563 c 0,4.44493 -0.69629,7.49452 -2.0918,9.14844 -1.3955,1.65394 -3.77326,2.48047 -7.13281,2.48047 -1.49888,0 -2.94629,-0.10369 -4.34179,-0.31055 -1.39551,-0.15496 -3.25622,-0.5173 -5.58204,-1.08594 -2.22246,-0.56854 -3.97934,-0.92892 -5.27148,-1.08398 -1.29215,-0.20687 -2.63575,-0.31055 -4.03125,-0.31055 -0.41348,0 -0.93056,0.10368 -1.55078,0.31055 -0.62022,0.15496 -1.57702,0.54178 -2.86914,1.16211 -0.51687,0.20686 -0.8792,0.36158 -1.08594,0.46484 -0.25842,0.10331 -0.46408,0.18077 -0.61914,0.23242 -0.0516,-0.31012 -0.0781,-0.61959 -0.0781,-0.92969 -0.0516,-0.3618 -0.0781,-0.9053 -0.0781,-1.6289 0,-2.84269 0.75111,-5.65822 2.25,-8.44922 1.49886,-2.84271 4.70317,-6.79814 9.61328,-11.86328 2.79101,-2.89439 4.8309,-5.09099 6.12305,-6.58985 1.29212,-1.55056 2.37915,-3.04891 3.25781,-4.49609 1.44718,-2.27417 2.50584,-4.54812 3.17773,-6.82227 0.72361,-2.27416 1.08594,-4.60099 1.08594,-6.97851 0,-1.75728 -0.49063,-3.25563 -1.47265,-4.49609 -0.93035,-1.24045 -2.01738,-1.85938 -3.25782,-1.85938 -2.22246,0 -3.82462,0.46419 -4.80664,1.39453 -0.98202,0.93032 -1.47265,2.55892 -1.47265,4.88477 0,1.24044 0.25852,2.37643 0.77539,3.41015 0.56854,0.98203 1.29323,1.60291 2.17187,1.86133 -0.98202,0.87864 -1.96524,1.55044 -2.94726,2.01563 -0.98203,0.41348 -1.96329,0.62109 -2.94532,0.62109 -1.7056,0 -3.07565,-0.62086 -4.10937,-1.86133 -0.98202,-1.29212 -1.47266,-2.99808 -1.47266,-5.11719 0,-3.35954 1.42097,-6.09771 4.26367,-8.21679 2.84269,-2.11911 6.74525,-3.17969 11.70704,-3.17969 z m -494.59375,5.87695 c 6.58405,0 11.87558,1.41068 15.87304,4.23243 3.99747,2.74335 5.9961,6.58538 5.9961,11.52343 0,3.52716 -0.70632,6.23016 -2.11719,8.11133 -1.41087,1.80276 -3.44831,2.70508 -6.11328,2.70508 -1.64602,0 -3.21388,-0.27556 -4.70313,-0.82422 -1.41087,-0.54866 -2.546,-1.29182 -3.4082,-2.23242 1.33249,-0.39189 2.50643,-1.64736 3.52539,-3.76367 1.09734,-2.11631 1.64648,-4.07417 1.64648,-5.87696 0,-2.50819 -0.70436,-4.50683 -2.11523,-5.99609 -1.41087,-1.56765 -3.4095,-2.35156 -5.99609,-2.35156 -3.37042,0 -6.78168,1.41067 -10.23047,4.23242 -3.37041,2.74336 -6.38776,6.58343 -9.05274,11.52148 -2.19468,3.84068 -3.87896,7.95631 -5.05468,12.34571 -1.17573,4.31098 -1.76368,8.50432 -1.76368,12.58007 0,6.03538 1.1759,10.77777 3.52735,14.22657 2.42983,3.44879 5.80034,5.17187 10.11133,5.17187 2.35144,0 4.31127,-0.3512 5.8789,-1.05664 1.56763,-0.70543 2.93756,-1.80373 4.11328,-3.29297 l 5.05664,-22.33789 15.16602,0.11719 -9.64063,44.20703 c -2.27306,10.65991 -5.75999,18.18485 -10.46289,22.57422 -4.70289,4.46775 -11.24793,6.70117 -19.63476,6.70117 -4.93805,0 -8.8965,-1.52905 -11.875,-4.58594 -2.9785,-3.05688 -4.46875,-6.93575 -4.46875,-11.63867 0,-4.54611 1.33307,-8.34741 3.99805,-11.40429 2.66488,-3.13527 6.11309,-4.70313 10.3457,-4.70313 4.23261,0 7.21124,0.66556 8.93554,1.99805 1.7244,1.2541 2.5879,3.21393 2.5879,5.8789 0,0.62708 -0.0796,1.33144 -0.23633,2.11524 -0.0784,0.86221 -0.23362,1.7257 -0.46875,2.58789 -1.33249,-1.09735 -2.50838,-1.88129 -3.52735,-2.35156 -1.01896,-0.4703 -2.19485,-0.70508 -3.52734,-0.70508 -2.42983,0 -4.42846,0.86154 -5.99609,2.58594 -1.48925,1.72439 -2.23438,3.84147 -2.23438,6.3496 0,2.35145 0.66556,4.27051 1.99805,5.75977 1.33249,1.48924 3.13514,2.23438 5.4082,2.23438 3.21365,0 5.68381,-1.1371 7.4082,-3.41016 1.7244,-2.1947 3.17389,-5.87759 4.34961,-11.05078 l 4.70313,-21.04492 c -2.42983,1.33251 -5.01641,2.39003 -7.75977,3.17382 -2.74335,0.70544 -4.93797,1.0586 -6.58398,1.0586 -8.30845,0 -14.6187,-2.54778 -18.92969,-7.64258 -4.23261,-5.17319 -6.34961,-12.65934 -6.34961,-22.45703 0,-5.80024 0.97991,-11.44297 2.93946,-16.92969 2.03783,-5.5651 4.86124,-10.42585 8.46679,-14.58008 3.8407,-4.46775 8.30754,-7.87707 13.40235,-10.22851 5.17318,-2.35145 10.77711,-3.52735 16.8125,-3.52735 z m 350.5996,0 c 8.62199,0 15.40375,2.117 20.3418,6.34961 4.93803,4.2326 7.40625,9.83653 7.40625,16.8125 0,4.15423 -0.94112,8.23106 -2.82226,12.22852 -1.80279,3.99748 -4.35056,7.48439 -7.64258,10.46289 -3.13527,2.90011 -6.70177,5.09472 -10.69922,6.58398 -3.99748,1.48926 -8.26834,2.23438 -12.81445,2.23438 h -0.58789 l -7.17188,33.50781 H 492.9707 l 15.98828,-74.77539 17.40235,-2.35156 -8.34766,39.26953 c 5.48672,-0.4703 10.26791,-3.68364 14.34375,-9.64063 4.15423,-5.95701 6.23047,-12.38561 6.23047,-19.2832 0,-5.01641 -1.2923,-8.93607 -3.87891,-11.75781 -2.50819,-2.82172 -6.07469,-4.23242 -10.69921,-4.23242 -9.56256,0 -17.04871,2.54777 -22.45704,7.64258 -5.32994,5.01638 -7.99414,11.99222 -7.99414,20.92773 0,1.48926 0.0777,2.78354 0.23438,3.88086 0.23509,1.09735 0.58824,2.15487 1.05859,3.17383 0.15673,0.31352 0.23438,0.5483 0.23438,0.70508 0.0784,0.0783 0.1172,0.15796 0.11718,0.23632 -4.38933,0 -7.6027,-0.90232 -9.64062,-2.70508 -1.95953,-1.88114 -2.93945,-4.78015 -2.93945,-8.69921 0,-3.9191 1.29427,-7.83875 3.88086,-11.75782 2.66499,-3.91909 6.34789,-7.44676 11.05078,-10.58203 3.99745,-2.58658 8.27026,-4.58522 12.8164,-5.99609 4.62451,-1.48926 9.1302,-2.23438 13.51953,-2.23438 z m 45.03126,4.35157 c 2.58656,0 4.7812,0.93916 6.58398,2.82031 1.88115,1.80278 2.82227,3.9974 2.82226,6.58398 0,2.58661 -0.94111,4.7812 -2.82226,6.58399 -1.80278,1.80276 -3.99742,2.70508 -6.58398,2.70508 -2.58661,0 -4.78121,-0.90232 -6.58399,-2.70508 -1.80276,-1.80279 -2.70508,-3.99738 -2.70508,-6.58399 0,-2.58658 0.90232,-4.7812 2.70508,-6.58398 1.80278,-1.88115 3.99738,-2.82031 6.58399,-2.82031 z m -281.58594,23.98437 c 5.01642,0 8.77889,1.56786 11.28711,4.70313 2.50821,3.13527 3.76367,7.8369 3.76367,14.10742 0.15677,0.0784 0.312,0.15796 0.46875,0.23633 h 0.82422 c 2.42983,0 5.32881,-0.66752 8.69922,-2 1.96617,-0.77733 3.84218,-1.68996 5.64843,-2.70703 l 2.81641,-13.28126 h 16.93164 l -1.29297,6.11329 c 1.95954,-2.27306 4.1134,-3.9593 6.46485,-5.05664 2.35144,-1.09735 4.97878,-1.64454 7.8789,-1.64454 3.44879,0 6.15177,0.86155 8.11133,2.58594 2.03792,1.64601 3.371,4.15499 3.99805,7.52539 2.19467,-3.3704 4.62406,-5.87938 7.28906,-7.52539 2.66497,-1.64601 5.68232,-2.46875 9.05273,-2.46875 4.15423,0 7.36757,1.1371 9.64063,3.41016 2.27308,2.27308 3.41016,5.56402 3.41015,9.875 0,1.80278 -0.23477,3.9586 -0.70507,6.4668 -0.39191,2.42977 -1.21466,6.1923 -2.46875,11.2871 -1.01896,3.99748 -1.68453,6.81884 -1.99805,8.46485 -0.31352,1.64601 -0.4707,3.01788 -0.4707,4.11523 0,1.64601 0.39198,2.89954 1.17578,3.76172 0.78382,0.78382 1.95972,1.17578 3.52734,1.17578 1.95956,0 3.64382,-0.66556 5.05469,-1.99804 1.4094,-1.33113 3.01393,-4.11065 4.81445,-8.33594 0.2452,-3.56259 0.90899,-7.28862 2.00391,-11.18164 1.41087,-5.01642 3.29308,-9.48325 5.64453,-13.40235 2.90013,-4.70289 6.34825,-8.23058 10.3457,-10.58203 4.07585,-2.42983 8.62231,-3.64453 13.63867,-3.64453 4.31101,0 7.52432,0.94112 9.64063,2.82227 2.19467,1.80278 3.29297,4.62414 3.29297,8.46484 0,6.50568 -2.66615,12.18721 -7.9961,17.04688 -5.32991,4.78127 -11.67901,7.36785 -19.04687,7.75976 -0.0784,1.33249 -0.15606,2.35121 -0.23437,3.05664 v 1.64649 c 0,3.60556 0.58793,6.15334 1.76367,7.64257 1.25409,1.48926 3.48751,2.23438 6.70117,2.23438 3.68393,0 7.05444,-0.82274 10.11133,-2.46875 3.13527,-1.7244 6.70176,-4.86011 10.69922,-9.40625 h 3.99804 c -4.54614,7.36789 -9.48449,12.85344 -14.81445,16.45898 -5.32994,3.52718 -11.16868,5.29102 -17.51758,5.29102 -6.0354,0 -10.62059,-1.56786 -13.75586,-4.70313 -1.82895,-1.87585 -3.0993,-4.30917 -3.83398,-7.27929 -1.4936,2.62411 -3.11395,4.82098 -4.86719,6.57422 -3.52716,3.60556 -7.75921,5.4082 -12.69727,5.4082 -4.38937,0 -7.79868,-1.1759 -10.22851,-3.52734 -2.42983,-2.42984 -3.64453,-5.68197 -3.64453,-9.75782 0,-1.41087 0.15522,-3.1747 0.46875,-5.29101 0.39191,-2.11631 1.13702,-5.48683 2.23437,-10.11133 1.09735,-4.46775 1.80367,-7.68109 2.11719,-9.64063 0.31352,-1.95955 0.46875,-3.60501 0.46875,-4.9375 0,-1.95953 -0.3512,-3.44978 -1.05664,-4.46875 -0.70544,-1.01896 -1.76491,-1.52734 -3.17578,-1.52734 -1.88115,0 -3.64498,0.97992 -5.29102,2.93945 -1.56762,1.88118 -2.85994,4.50655 -3.8789,7.87696 l -7.99414,37.74023 h -16.93164 l 8.58398,-40.5625 c 0.15677,-0.47027 0.23437,-0.93986 0.23437,-1.41016 0.0784,-0.47023 0.11719,-0.98063 0.11719,-1.52929 0,-1.56762 -0.3124,-2.82112 -0.93945,-3.76172 -0.62706,-0.94057 -1.49055,-1.41016 -2.58789,-1.41016 -2.03792,0 -3.87938,0.97797 -5.52539,2.9375 -1.64602,1.88117 -2.97909,4.5473 -3.99805,7.9961 l -7.99414,37.74023 h -16.93164 l 8.49023,-40.04883 c -0.89491,0.51755 -1.83979,1.01353 -2.8457,1.48438 -3.60555,1.72439 -7.60281,2.94105 -11.99219,3.64648 -0.94058,10.58152 -3.99673,19.12519 -9.16992,25.63086 -5.17319,6.50568 -11.48343,9.75781 -18.92969,9.75781 -6.11376,0 -10.77854,-1.56785 -13.99218,-4.70312 -1.52477,-1.48756 -2.67525,-3.32239 -3.47657,-5.48047 -1.22877,1.94205 -2.53707,3.61715 -3.92968,5.00977 -3.52717,3.60556 -7.75923,5.4082 -12.69727,5.4082 -4.38937,0 -7.79876,-1.1759 -10.22851,-3.52734 -2.42984,-2.42984 -3.64454,-5.68197 -3.64454,-9.75782 0,-1.41087 0.15523,-3.1747 0.46875,-5.29101 0.39191,-2.11631 1.13704,-5.48683 2.23438,-10.11133 1.09734,-4.46775 1.80366,-7.68109 2.11719,-9.64063 0.31352,-1.95955 0.46875,-3.60501 0.46875,-4.9375 0,-1.95953 -0.35121,-3.44978 -1.05664,-4.46875 -0.70544,-1.01896 -1.76492,-1.52734 -3.17579,-1.52734 -1.88115,0 -3.645,0.97992 -5.29101,2.93945 -1.56763,1.88118 -2.85995,4.50655 -3.87891,7.87696 l -7.99414,37.74023 h -16.93164 l 12.46289,-58.78516 h 16.92969 l -1.29297,6.11329 c 1.95954,-2.1947 4.07654,-3.84018 6.34961,-4.9375 2.27307,-1.09735 4.74127,-1.64649 7.40625,-1.64649 4.15422,0 7.36756,1.1371 9.64063,3.41016 2.27298,2.27308 3.41015,5.56402 3.41015,9.875 0,1.80278 -0.23479,3.9586 -0.70508,6.4668 -0.39191,2.42975 -1.21464,6.1923 -2.46875,11.2871 -1.01896,3.99748 -1.68647,6.81884 -2,8.46485 -0.31352,1.64601 -0.46875,3.01788 -0.46875,4.11523 0,1.64601 0.39197,2.89954 1.17578,3.76172 0.78382,0.78382 1.95972,1.17578 3.52735,1.17578 1.95954,0 3.64382,-0.66556 5.05469,-1.99804 0.96939,-0.91555 2.03906,-2.56689 3.19335,-4.85157 -0.003,-0.18847 -0.0195,-0.36524 -0.0195,-0.55664 0,-4.46775 0.70632,-9.21012 2.11719,-14.22656 1.48925,-5.01642 3.48788,-9.4852 5.9961,-13.4043 2.90004,-4.6245 6.38704,-8.11144 10.46289,-10.46289 4.07584,-2.42983 8.62224,-3.64453 13.63867,-3.64453 z m 323.55859,0 c 4.31098,0 7.52432,0.94112 9.64063,2.82227 2.19469,1.80278 3.29296,4.62414 3.29296,8.46484 0,6.50568 -2.66612,12.18721 -7.99609,17.04688 -5.32994,4.78127 -11.67706,7.36785 -19.04492,7.75976 -0.0784,1.33249 -0.15797,2.35121 -0.23633,3.05664 v 1.64649 c 0,3.60556 0.58794,6.15334 1.76367,7.64257 1.2541,1.48926 3.48753,2.23438 6.70117,2.23438 3.68394,0 7.05445,-0.82274 10.11133,-2.46875 3.13527,-1.7244 6.70177,-4.86011 10.69922,-9.40625 h 3.99805 c -4.54614,7.36789 -9.48451,12.85344 -14.81445,16.45898 -5.32994,3.52718 -11.16866,5.29102 -17.51758,5.29102 -6.03538,0 -10.62059,-1.56786 -13.75586,-4.70313 -1.59278,-1.63362 -2.76057,-3.69076 -3.52344,-6.15429 -1.43019,2.0549 -2.9946,3.84157 -4.70703,5.33203 -4.23262,3.68393 -9.09141,5.52539 -14.57813,5.52539 -3.91906,0 -7.01597,-1.2147 -9.28906,-3.64453 -2.19467,-2.50822 -3.29101,-5.99514 -3.29101,-10.46289 h -0.002 c 0,-1.01896 0.0796,-2.15606 0.23633,-3.41016 0.15673,-1.33248 0.3915,-2.74316 0.70508,-4.23242 l 7.99414,-37.74024 h 16.93164 l -8.46484,39.97461 c -0.15673,0.70544 -0.27516,1.371 -0.35352,1.99805 -0.0784,0.54866 -0.11719,1.1366 -0.11719,1.76367 0,1.56763 0.35316,2.70472 1.0586,3.41016 0.7838,0.62705 2.03732,0.93945 3.76172,0.93945 2.19469,0 4.27095,-0.94112 6.23046,-2.82226 1.11298,-1.11299 2.05716,-2.40837 2.8418,-3.875 -0.003,-0.20029 -0.0195,-0.38821 -0.0195,-0.5918 0,-4.46775 0.70632,-9.21015 2.11719,-14.22656 1.41087,-5.01642 3.29113,-9.48325 5.64258,-13.40235 2.9001,-4.70289 6.34822,-8.23058 10.3457,-10.58203 4.07584,-2.42983 8.62226,-3.64453 13.63867,-3.64453 z m -177.0625,6.23047 c -2.66499,0 -5.36992,2.3906 -8.11328,7.17188 -2.66497,4.70284 -4.66361,10.38637 -5.99609,17.04882 4.54614,-0.31355 8.50459,-2.39174 11.875,-6.23242 3.44879,-3.91909 5.17382,-8.3083 5.17382,-13.16797 0,-1.64601 -0.23673,-2.86073 -0.70703,-3.64453 -0.47027,-0.78382 -1.21346,-1.17578 -2.23242,-1.17578 z m 178.00391,0 c -2.66497,0 -5.36993,2.3906 -8.11328,7.17188 -2.66497,4.70288 -4.66361,10.38637 -5.9961,17.04882 4.54612,-0.31355 8.50457,-2.39174 11.875,-6.23242 3.4488,-3.91909 5.17383,-8.3083 5.17383,-13.16797 0,-1.64601 -0.23478,-2.86073 -0.70508,-3.64453 -0.4703,-0.78382 -1.21541,-1.17578 -2.23437,-1.17578 z m -323.5586,0.94141 c -3.76231,0 -7.3288,3.80127 -10.69922,11.40429 -3.29195,7.603 -4.9375,14.81359 -4.9375,21.63282 0,3.68393 0.39197,6.1929 1.17579,7.52539 0.86219,1.33248 2.46886,1.99804 4.82031,1.99804 2.90012,0 5.64387,-2.35179 8.23047,-7.05468 2.66497,-4.70292 4.46762,-10.5029 5.4082,-17.40039 -1.09734,-0.23509 -1.92203,-0.74347 -2.4707,-1.52735 -0.47029,-0.86221 -0.70508,-1.99935 -0.70508,-3.41015 0,-1.48924 0.31435,-2.78352 0.94141,-3.88086 0.62705,-1.09735 1.5274,-1.92009 2.70312,-2.46875 -0.15675,-2.50822 -0.58752,-4.27206 -1.29297,-5.29102 -0.62705,-1.01896 -1.68457,-1.52734 -3.17383,-1.52734 z m 163.89454,17.2832 h 23.51562 l -2,9.28711 h -23.63086 z"
       transform="matrix(0.26458333,0,0,0.26458333,-2.7403117,229.43681)"
       id="rect4932"
       inkscape:connector-curvature="0"
       clip-path="url(#clipPath6563)" />
  </g>
</svg>
