<?xml version="1.0" encoding="UTF-8" standalone="no"?>
<svg
   xmlns:dc="http://purl.org/dc/elements/1.1/"
   xmlns:cc="http://creativecommons.org/ns#"
   xmlns:rdf="http://www.w3.org/1999/02/22-rdf-syntax-ns#"
   xmlns:svg="http://www.w3.org/2000/svg"
   xmlns="http://www.w3.org/2000/svg"
   xmlns:sodipodi="http://sodipodi.sourceforge.net/DTD/sodipodi-0.dtd"
   xmlns:inkscape="http://www.inkscape.org/namespaces/inkscape"
   width="4.2333331mm"
   height="4.2333331mm"
   viewBox="0 0 4.2333332 4.2333332"
   version="1.1"
   id="svg39259"
   inkscape:version="1.0.2 (e86c870879, 2021-01-15)"
   sodipodi:docname="flypie-menu-system-lock-symbolic.svg">
  <defs
     id="defs39253" />
  <sodipodi:namedview
     id="base"
     pagecolor="#ffffff"
     bordercolor="#666666"
     borderopacity="1.0"
     inkscape:pageopacity="0.0"
     inkscape:pageshadow="2"
     inkscape:zoom="9.1148858"
     inkscape:cx="0.14101295"
     inkscape:cy="-1.2910927"
     inkscape:document-units="mm"
     inkscape:current-layer="layer1"
     inkscape:document-rotation="0"
     showgrid="false"
     fit-margin-top="0"
     fit-margin-left="0"
     fit-margin-right="0"
     fit-margin-bottom="0"
     inkscape:window-width="1022"
     inkscape:window-height="1131"
     inkscape:window-x="898"
     inkscape:window-y="32"
     inkscape:window-maximized="0"
     inkscape:snap-global="false" />
  <metadata
     id="metadata39256">
    <rdf:RDF>
      <cc:Work
         rdf:about="">
        <dc:format>image/svg+xml</dc:format>
        <dc:type
           rdf:resource="http://purl.org/dc/dcmitype/StillImage" />
        <dc:title />
      </cc:Work>
    </rdf:RDF>
  </metadata>
  <g
     inkscape:label="Layer 1"
     inkscape:groupmode="layer"
     id="layer1"
     transform="translate(-103.2884,-152.65667)">
    <path
       id="path7413"
       d="m 104.08215,152.92125 c -0.43974,0 -0.79375,0.35401 -0.79375,0.79375 v 1.85208 c 0,0.43974 0.35401,0.79375 0.79375,0.79375 h 2.64583 c 0.43974,0 0.79375,-0.35401 0.79375,-0.79375 V 153.715 c 0,-0.43974 -0.35401,-0.79375 -0.79375,-0.79375 z m 0,0.52917 h 2.64583 c 0.14658,0 0.26458,0.118 0.26458,0.26458 v 1.85208 c 0,0.14658 -0.118,0.26459 -0.26458,0.26459 h -2.64583 c -0.14658,0 -0.26459,-0.11801 -0.26459,-0.26459 V 153.715 c 0,-0.14658 0.11801,-0.26458 0.26459,-0.26458 z"
       style="fill:#2e3436;fill-opacity:1;stroke:none;stroke-width:0.264583"
       inkscape:connector-curvature="0"
       sodipodi:nodetypes="ssssssssssssssssss" />
    <path
       sodipodi:nodetypes="sccccs"
       inkscape:connector-curvature="0"
       id="path7415"
       d="m 105.40506,156.89 c 0.79375,0 1.05834,-0.26458 1.05834,-0.26458 h -0.26459 -1.5875 -0.26458 c 0,0 0.26458,0.26458 1.05833,0.26458 z"
       style="fill:#2e3436;fill-opacity:1;stroke:none;stroke-width:0.264583" />
    <path
       style="display:inline;vector-effect:none;fill:#2e3436;fill-opacity:1;fill-rule:nonzero;stroke:none;stroke-width:5.79673;stroke-linecap:butt;stroke-linejoin:miter;stroke-miterlimit:4;stroke-dasharray:none;stroke-dashoffset:0;stroke-opacity:1;marker:none;marker-start:none;marker-mid:none;marker-end:none;paint-order:normal;enable-background:new"
       d="m 105.40496,153.715 c -0.29069,0 -0.52917,0.23848 -0.52917,0.52917 v 0.26458 h -0.11989 c -0.0828,0 -0.14469,0.0455 -0.14469,0.13229 v 0.92604 h 1.5875 v -0.92604 c 0,-0.0682 -0.0556,-0.13229 -0.13229,-0.13229 h -0.1323 v -0.26458 c 0,-0.29069 -0.23848,-0.52917 -0.52916,-0.52917 z m 0,0.26458 c 0.14769,0 0.26458,0.11689 0.26458,0.26459 v 0.26458 h -0.52917 v -0.26458 c 0,-0.1477 0.11689,-0.26459 0.26459,-0.26459 z"
       id="rect9382-3"
       inkscape:connector-curvature="0"
       sodipodi:nodetypes="ssccccccccssssccss" />
  </g>
</svg>
