<svg xmlns="http://www.w3.org/2000/svg" width="16.018" height="16.005" viewBox="0 0 4.238 4.235"><path d="M2.123 0a.265.265 0 0 0-.265.307v.75h.53V.551c.629.106 1.143.58 1.285 1.221a1.585 1.585 0 0 1-.88 1.782 1.585 1.585 0 0 1-1.93-.472 1.585 1.585 0 0 1 .044-1.987.265.265 0 1 0-.406-.34 2.119 2.119 0 0 0-.057 2.65 2.119 2.119 0 0 0 2.574.629A2.12 2.12 0 0 0 4.19 1.657 2.119 2.119 0 0 0 2.123 0Zm-.796 1.055a.265.265 0 0 0-.185.454l.47.47a.53.53 0 0 0 .137.51.53.53 0 0 0 .748 0 .53.53 0 0 0 0-.747.53.53 0 0 0-.51-.137l-.47-.47a.265.265 0 0 0-.19-.08z" color="#000" fill="#2e3436" style="font-variant-ligatures:normal;font-variant-position:normal;font-variant-caps:normal;font-variant-numeric:normal;font-variant-alternates:normal;font-feature-settings:normal;text-indent:0;text-decoration:none;text-decoration-line:none;text-decoration-style:solid;text-decoration-color:#000;text-transform:none;text-orientation:mixed;white-space:normal;shape-padding:0;isolation:auto;mix-blend-mode:normal;stroke-width:.26458"/></svg>