<svg xmlns="http://www.w3.org/2000/svg" width="16" height="16" viewBox="0 0 4.233 4.233"><path d="M104.082 152.921a.792.792 0 0 0-.794.794v1.852c0 .44.354.794.794.794h2.646c.44 0 .794-.354.794-.794v-1.852a.792.792 0 0 0-.794-.794zm0 .53h2.646c.147 0 .265.117.265.264v1.852a.264.264 0 0 1-.265.265h-2.646a.264.264 0 0 1-.264-.265v-1.852c0-.147.118-.265.264-.265zM105.405 156.89c.794 0 1.058-.265 1.058-.265h-2.116s.264.265 1.058.265z" style="fill:#2e3436;fill-opacity:1;stroke:none;stroke-width:.264583" transform="translate(-103.288 -152.657)"/><path style="display:inline;vector-effect:none;fill:#2e3436;fill-opacity:1;fill-rule:nonzero;stroke:none;stroke-width:5.79673;stroke-linecap:butt;stroke-linejoin:miter;stroke-miterlimit:4;stroke-dasharray:none;stroke-dashoffset:0;stroke-opacity:1;marker:none;marker-start:none;marker-mid:none;marker-end:none;paint-order:normal;enable-background:new" d="M105.405 153.715c-.29 0-.53.238-.53.53v.264h-.12c-.082 0-.144.045-.144.132v.926h1.588v-.926a.133.133 0 0 0-.133-.132h-.132v-.265c0-.29-.238-.529-.529-.529zm0 .265c.148 0 .265.116.265.264v.265h-.53v-.265c0-.148.117-.264.265-.264z" transform="translate(-103.288 -152.657)"/></svg>