<svg xmlns="http://www.w3.org/2000/svg" width="16" height="16"><path d="M11.463 8.785c-.227-.377-.281-.801-.163-1.27.185-.454.466-.793.844-1.02.42-.25.898-.31 1.435-.175.579.11.994.374 1.245.794.201.336.213.784.038 1.346-.135.537-.391.919-.769 1.145-1.05.629-1.926.355-2.63-.82zM6.332 7.4c-.226.376-.28.799-.162 1.267.184.452.464.79.841 1.016.42.25.896.31 1.43.175.578-.11.992-.373 1.243-.791.2-.335.212-.783.037-1.343-.134-.535-.39-.916-.766-1.141-1.046-.627-1.92-.354-2.622.817ZM4.639 7.38c.232.387.288.822.167 1.303-.19.464-.478.813-.865 1.045-.43.257-.92.318-1.47.18-.594-.113-1.02-.384-1.277-.814-.207-.345-.219-.804-.039-1.38.139-.55.4-.942.788-1.174 1.075-.644 1.974-.364 2.695.84Z" style="font-style:normal;font-variant:normal;font-weight:400;font-stretch:normal;font-size:10.5833px;line-height:125%;font-family:'Amatic SC';-inkscape-font-specification:'Amatic SC';letter-spacing:0;word-spacing:0;opacity:1;fill:#2c2c2c;fill-opacity:1;stroke:none;stroke-width:5.87708px;stroke-linecap:butt;stroke-linejoin:miter;stroke-opacity:1"/></svg>