<svg width="16" height="16" xmlns="http://www.w3.org/2000/svg"><path d="M.63 13.137c-.265-.186-.43-.455-.492-.808-.01-.36.075-.674.26-.94.208-.296.512-.48.914-.551.423-.101.783-.048 1.079.159.237.165.38.464.431.896.07.402.014.736-.172 1.003-.517.74-1.19.82-2.019.24z" style="font-style:normal;font-variant:normal;font-weight:400;font-stretch:normal;font-size:10.5833px;line-height:125%;font-family:'Amatic SC';-inkscape-font-specification:'Amatic SC';letter-spacing:0;word-spacing:0;opacity:.25;fill:#2c2c2c;fill-opacity:1;stroke:none;stroke-width:5.24781px;stroke-linecap:butt;stroke-linejoin:miter;stroke-opacity:1"/><path style="font-style:normal;font-variant:normal;font-weight:400;font-stretch:normal;font-size:10.5833px;line-height:125%;font-family:'Amatic SC';-inkscape-font-specification:'Amatic SC';letter-spacing:0;word-spacing:0;opacity:.25;fill:#2c2c2c;fill-opacity:1;stroke:none;stroke-width:5.18558px;stroke-linecap:butt;stroke-linejoin:miter;stroke-opacity:1" d="M9.456 11.208c-.324.033-.624-.067-.9-.296a1.515 1.515 0 0 1-.412-.886c-.035-.36.078-.698.339-1.013.257-.352.565-.545.925-.58.288-.024.591.107.91.404.316.26.489.552.52.876.083.9-.375 1.398-1.383 1.494z"/><path d="M9.906 4.493c-.385-.642-.477-1.361-.276-2.16.313-.768.79-1.345 1.433-1.73.713-.426 1.525-.526 2.437-.297.983.185 1.688.635 2.115 1.347.342.571.362 1.333.063 2.287-.229.912-.663 1.56-1.305 1.945-1.782 1.067-3.27.603-4.466-1.393Z" style="font-style:normal;font-variant:normal;font-weight:400;font-stretch:normal;font-size:10.5833px;line-height:125%;font-family:'Amatic SC';-inkscape-font-specification:'Amatic SC';letter-spacing:0;word-spacing:0;opacity:.25;fill:#2c2c2c;fill-opacity:1;stroke:none;stroke-width:5.87708px;stroke-linecap:butt;stroke-linejoin:miter;stroke-opacity:1"/><path d="M2.68 12.306a1.375 1.375 0 0 1-.662-.037c-.185-.072-.287-.18-.307-.325-.029-.206.84-.567 2.606-1.083 1.79-.541 3.895-1.097 5.233-1.652.227-.041-.223.465-.01.531.214.067.33.172.35.317.03.206-.838.577-2.6 1.114-1.766.515-3.303.893-4.61 1.134Z" style="font-style:normal;font-variant:normal;font-weight:400;font-stretch:normal;font-size:10.5833px;line-height:125%;font-family:'Amatic SC';-inkscape-font-specification:'Amatic SC';letter-spacing:0;word-spacing:0;fill:#2c2c2c;fill-opacity:1;stroke:none;stroke-width:4.2528px;stroke-linecap:butt;stroke-linejoin:miter;stroke-opacity:1"/><path d="M10.233 9.724a1.32 1.32 0 0 1-.445.48c-.171.093-.37-.27-.493-.351-.175-.117.148-.654.867-2.347.715-1.73 1.378-3.149 1.99-4.258.113-.201.26-.361.445-.48.186-.118.34-.136.462-.054.176.116-.087 1.027-.788 2.732-.719 1.693-1.398 3.119-2.038 4.278z" style="font-style:normal;font-variant:normal;font-weight:400;font-stretch:normal;font-size:10.5833px;line-height:125%;font-family:'Amatic SC';-inkscape-font-specification:'Amatic SC';letter-spacing:0;word-spacing:0;fill:#2c2c2c;fill-opacity:1;stroke:none;stroke-width:4.2528px;stroke-linecap:butt;stroke-linejoin:miter;stroke-opacity:1"/></svg>