<svg xmlns="http://www.w3.org/2000/svg" width="16" height="16" viewBox="0 0 4.233 4.233"><path d="M.692.283a.546.546 0 0 0-.54.542v2.598c0 .296.244.543.54.543h2.849c.296 0 .54-.247.54-.543V.825a.546.546 0 0 0-.54-.542zm0 .49h2.849c.03 0 .049.018.049.052v2.598c0 .034-.019.052-.049.052H.692c-.03 0-.049-.018-.049-.052V.825c0-.034.02-.051.05-.051z" color="#bebebe" fill="#2e3436" style="font-variant-ligatures:normal;font-variant-position:normal;font-variant-caps:normal;font-variant-numeric:normal;font-variant-alternates:normal;font-variant-east-asian:normal;font-feature-settings:normal;font-variation-settings:normal;text-indent:0;text-decoration:none;text-decoration-line:none;text-decoration-style:solid;text-decoration-color:#000;text-transform:none;text-orientation:mixed;white-space:normal;shape-padding:0;shape-margin:0;inline-size:0;isolation:auto;mix-blend-mode:normal;stroke-width:.26458"/><path d="M1.262 1.731a.147.147 0 0 0-.108.044.147.147 0 0 0 0 .208l.387.387-.387.387a.147.147 0 0 0 0 .208.147.147 0 0 0 .208 0l.491-.491a.147.147 0 0 0 0-.208l-.49-.491a.147.147 0 0 0-.101-.044z" color="#bebebe" fill="#2e3436" style="font-variant-ligatures:normal;font-variant-position:normal;font-variant-caps:normal;font-variant-numeric:normal;font-variant-alternates:normal;font-variant-east-asian:normal;font-feature-settings:normal;font-variation-settings:normal;text-indent:0;text-decoration:none;text-decoration-line:none;text-decoration-style:solid;text-decoration-color:#000;text-transform:none;text-orientation:mixed;white-space:normal;shape-padding:0;shape-margin:0;inline-size:0;isolation:auto;mix-blend-mode:normal;stroke-width:.26458"/><path color="#bebebe" fill="#2e3436" style="stroke-width:.26458" d="M2.116 2.738h.737v.246h-.737z"/></svg>