<svg xmlns="http://www.w3.org/2000/svg" width="16.006" height="16" viewBox="0 0 4.235 4.233"><path d="M1.055.262V1.32c0 .41.082.738.238 1.017.105.189.238.352.393.518l.177-.61a1.54 1.54 0 0 1-.109-.166c-.112-.2-.17-.414-.17-.759V.262Z" color="#000" fill="#241f31" style="stroke-width:.26458;fill:#2e3436;fill-opacity:1"/><path d="m2.44.526-.85 3.44h.528l.207-.794h1.174l.207.794h.529L3.383.526Zm.414.53h.116l.397 1.587h-.91ZM1.06.262V1.32c0 .345-.059.559-.17.76-.113.2-.292.394-.546.648l.374.374c.26-.26.477-.485.633-.765.157-.28.238-.606.238-1.017V.262Z" color="#000" style="fill:#2e3436;stroke-width:.26458;fill-opacity:1"/><path d="M.266 1.055v.53h1.737l.135-.53z" color="#000" style="fill:#2e3436;stroke-width:.26458;fill-opacity:1"/></svg>