<svg xmlns="http://www.w3.org/2000/svg" width="16" height="16"><path d="M8.05 10.782c-.66.042-1.265-.179-1.811-.66-.478-.561-.737-1.172-.779-1.833-.046-.735.207-1.415.758-2.04.546-.697 1.187-1.07 1.921-1.116.588-.037 1.197.257 1.826.881.625.552.958 1.158 1 1.819.115 1.837-.856 2.82-2.914 2.949Z" style="font-style:normal;font-variant:normal;font-weight:400;font-stretch:normal;font-size:10.5833px;line-height:125%;font-family:'Amatic SC';-inkscape-font-specification:'Amatic SC';letter-spacing:0;word-spacing:0;opacity:.25;fill:#2c2c2c;fill-opacity:1;stroke:none;stroke-width:8.05286px;stroke-linecap:butt;stroke-linejoin:miter;stroke-opacity:1"/><path style="font-style:normal;font-variant:normal;font-weight:400;font-stretch:normal;font-size:10.5833px;line-height:125%;font-family:'Amatic SC';-inkscape-font-specification:'Amatic SC';letter-spacing:0;word-spacing:0;opacity:.25;fill:#2c2c2c;fill-opacity:1;stroke:none;stroke-width:5.43042px;stroke-linecap:butt;stroke-linejoin:miter;stroke-opacity:1" d="M2.878 3.934c-.265-.185-.428-.451-.49-.8-.01-.359.075-.67.26-.934.204-.294.506-.476.906-.547.42-.1.776-.047 1.07.158.234.164.376.46.427.889.068.399.015.73-.171.994-.513.734-1.18.814-2.003.24Z"/><path d="M9.111 2.765a1.029 1.029 0 0 1-.426-.697 1.314 1.314 0 0 1 .226-.813C9.089 1 9.352.841 9.699.78c.366-.088.676-.042.932.137.204.143.328.4.372.774.06.347.012.636-.149.866-.446.639-1.027.708-1.743.208Z" style="font-style:normal;font-variant:normal;font-weight:400;font-stretch:normal;font-size:10.5833px;line-height:125%;font-family:'Amatic SC';-inkscape-font-specification:'Amatic SC';letter-spacing:0;word-spacing:0;opacity:.25;fill:#2c2c2c;fill-opacity:1;stroke:none;stroke-width:5.24781px;stroke-linecap:butt;stroke-linejoin:miter;stroke-opacity:1"/><path style="font-style:normal;font-variant:normal;font-weight:400;font-stretch:normal;font-size:10.5833px;line-height:125%;font-family:'Amatic SC';-inkscape-font-specification:'Amatic SC';letter-spacing:0;word-spacing:0;opacity:.25;fill:#2c2c2c;fill-opacity:1;stroke:none;stroke-width:5.18558px;stroke-linecap:butt;stroke-linejoin:miter;stroke-opacity:1" d="M13.461 7.313c-.306.031-.59-.063-.851-.28a1.433 1.433 0 0 1-.39-.838c-.033-.34.074-.66.32-.958.243-.333.535-.516.876-.548.272-.024.56.1.86.38.3.247.463.524.492.83.079.851-.354 1.322-1.307 1.414z"/><path d="M11.372 13.314c-.18-.299-.223-.635-.13-1.007.147-.359.37-.628.67-.807.332-.2.71-.246 1.136-.14.459.087.788.297.987.63.16.266.169.621.03 1.067-.107.425-.31.727-.61.907-.83.498-1.525.281-2.083-.65z" style="font-style:normal;font-variant:normal;font-weight:400;font-stretch:normal;font-size:10.5833px;line-height:125%;font-family:'Amatic SC';-inkscape-font-specification:'Amatic SC';letter-spacing:0;word-spacing:0;opacity:.25;fill:#2c2c2c;fill-opacity:1;stroke:none;stroke-width:5.87708px;stroke-linecap:butt;stroke-linejoin:miter;stroke-opacity:1"/><path style="font-style:normal;font-variant:normal;font-weight:400;font-stretch:normal;font-size:10.5833px;line-height:125%;font-family:'Amatic SC';-inkscape-font-specification:'Amatic SC';letter-spacing:0;word-spacing:0;opacity:.25;fill:#2c2c2c;fill-opacity:1;stroke:none;stroke-width:6.30119px;stroke-linecap:butt;stroke-linejoin:miter;stroke-opacity:1" d="M6.448 14.583c.277-.251.426-.582.447-.993a1.736 1.736 0 0 0-.434-1.037c-.279-.309-.653-.474-1.122-.498-.498-.054-.9.058-1.209.337-.247.223-.367.585-.363 1.085-.02.47.09.843.34 1.12.698.771 1.478.766 2.34-.014z"/><path style="font-style:normal;font-variant:normal;font-weight:400;font-stretch:normal;font-size:10.5833px;line-height:125%;font-family:'Amatic SC';-inkscape-font-specification:'Amatic SC';letter-spacing:0;word-spacing:0;opacity:.25;fill:#2c2c2c;fill-opacity:1;stroke:none;stroke-width:5.18558px;stroke-linecap:butt;stroke-linejoin:miter;stroke-opacity:1" d="M2.501 10.124c-.351.036-.677-.073-.978-.32a1.646 1.646 0 0 1-.447-.964c-.039-.391.085-.758.368-1.1.279-.383.614-.593 1.005-.63.313-.027.643.116.99.438.342.283.53.6.564.952.09.978-.408 1.519-1.502 1.624Z"/><g style="stroke-width:.808965"><path style="font-style:normal;font-variant:normal;font-weight:400;font-stretch:normal;font-size:10.5833px;line-height:125%;font-family:'Amatic SC';-inkscape-font-specification:'Amatic SC';letter-spacing:0;word-spacing:0;fill:#2c2c2c;fill-opacity:1;stroke:none;stroke-width:4.39303px;stroke-linecap:butt;stroke-linejoin:miter;stroke-opacity:1" d="M8.38 1.856a.398.398 0 0 1-.165-.27.507.507 0 0 1 .087-.314.45.45 0 0 1 .305-.185.428.428 0 0 1 .36.054c.08.055.127.155.144.299a.434.434 0 0 1-.057.335c-.173.247-.398.274-.675.08z" transform="scale(1.23615) rotate(4.303 19.245 -18.172)"/><path d="M9.604 1.497a.347.347 0 0 1-.143-.235.443.443 0 0 1 .076-.273.392.392 0 0 1 .265-.16.373.373 0 0 1 .314.046c.069.048.11.135.125.26a.378.378 0 0 1-.05.292c-.15.215-.346.238-.587.07z" style="font-style:normal;font-variant:normal;font-weight:400;font-stretch:normal;font-size:10.5833px;line-height:125%;font-family:'Amatic SC';-inkscape-font-specification:'Amatic SC';letter-spacing:0;word-spacing:0;fill:#2c2c2c;fill-opacity:1;stroke:none;stroke-width:4.24531px;stroke-linecap:butt;stroke-linejoin:miter;stroke-opacity:1" transform="scale(1.23615) rotate(4.303 19.245 -18.172)"/><path style="font-style:normal;font-variant:normal;font-weight:400;font-stretch:normal;font-size:10.5833px;line-height:125%;font-family:'Amatic SC';-inkscape-font-specification:'Amatic SC';letter-spacing:0;word-spacing:0;fill:#2c2c2c;fill-opacity:1;stroke:none;stroke-width:4.19496px;stroke-linecap:butt;stroke-linejoin:miter;stroke-opacity:1" d="M10.72 2.608a.378.378 0 0 1-.286-.094.483.483 0 0 1-.131-.283.428.428 0 0 1 .108-.322.41.41 0 0 1 .295-.185c.091-.008.188.034.29.128.1.083.155.177.165.28.027.286-.12.445-.44.476z" transform="scale(1.23615) rotate(4.303 19.245 -18.172)"/><path d="M9.827 3.555a.43.43 0 0 1-.044-.34.545.545 0 0 1 .225-.271.487.487 0 0 1 .383-.047c.155.029.265.1.332.211.054.09.057.21.01.36a.468.468 0 0 1-.205.305c-.28.168-.513.095-.701-.218z" style="font-style:normal;font-variant:normal;font-weight:400;font-stretch:normal;font-size:10.5833px;line-height:125%;font-family:'Amatic SC';-inkscape-font-specification:'Amatic SC';letter-spacing:0;word-spacing:0;fill:#2c2c2c;fill-opacity:1;stroke:none;stroke-width:4.75436px;stroke-linecap:butt;stroke-linejoin:miter;stroke-opacity:1" transform="scale(1.23615) rotate(4.303 19.245 -18.172)"/><path style="font-style:normal;font-variant:normal;font-weight:400;font-stretch:normal;font-size:10.5833px;line-height:125%;font-family:'Amatic SC';-inkscape-font-specification:'Amatic SC';letter-spacing:0;word-spacing:0;fill:#2c2c2c;fill-opacity:1;stroke:none;stroke-width:4.19496px;stroke-linecap:butt;stroke-linejoin:miter;stroke-opacity:1" d="M8.452 3.469a.434.434 0 0 1-.33-.108.554.554 0 0 1-.15-.325.492.492 0 0 1 .124-.37.47.47 0 0 1 .338-.212c.106-.01.217.039.333.147a.474.474 0 0 1 .19.321c.03.33-.137.511-.505.547z" transform="scale(1.23615) rotate(4.303 19.245 -18.172)"/></g><g style="stroke-width:.734809"><path style="font-style:normal;font-variant:normal;font-weight:400;font-stretch:normal;font-size:10.5833px;line-height:125%;font-family:'Amatic SC';-inkscape-font-specification:'Amatic SC';letter-spacing:0;word-spacing:0;fill:#2c2c2c;fill-opacity:1;stroke:none;stroke-width:3.99032px;stroke-linecap:butt;stroke-linejoin:miter;stroke-opacity:1" d="M8.38 1.856a.398.398 0 0 1-.165-.27.507.507 0 0 1 .087-.314.45.45 0 0 1 .305-.185.428.428 0 0 1 .36.054c.08.055.127.155.144.299a.434.434 0 0 1-.057.335c-.173.247-.398.274-.675.08z" transform="scale(1.3609) rotate(49.43 7.387 3.846)"/><path d="M9.604 1.497a.347.347 0 0 1-.143-.235.443.443 0 0 1 .076-.273.392.392 0 0 1 .265-.16.373.373 0 0 1 .314.046c.069.048.11.135.125.26a.378.378 0 0 1-.05.292c-.15.215-.346.238-.587.07z" style="font-style:normal;font-variant:normal;font-weight:400;font-stretch:normal;font-size:10.5833px;line-height:125%;font-family:'Amatic SC';-inkscape-font-specification:'Amatic SC';letter-spacing:0;word-spacing:0;fill:#2c2c2c;fill-opacity:1;stroke:none;stroke-width:3.85614px;stroke-linecap:butt;stroke-linejoin:miter;stroke-opacity:1" transform="scale(1.3609) rotate(49.43 7.387 3.846)"/><path style="font-style:normal;font-variant:normal;font-weight:400;font-stretch:normal;font-size:10.5833px;line-height:125%;font-family:'Amatic SC';-inkscape-font-specification:'Amatic SC';letter-spacing:0;word-spacing:0;fill:#2c2c2c;fill-opacity:1;stroke:none;stroke-width:3.81042px;stroke-linecap:butt;stroke-linejoin:miter;stroke-opacity:1" d="M10.72 2.608a.378.378 0 0 1-.286-.094.483.483 0 0 1-.131-.283.428.428 0 0 1 .108-.322.41.41 0 0 1 .295-.185c.091-.008.188.034.29.128.1.083.155.177.165.28.027.286-.12.445-.44.476z" transform="scale(1.3609) rotate(49.43 7.387 3.846)"/><path d="M9.827 3.555a.43.43 0 0 1-.044-.34.545.545 0 0 1 .225-.271.487.487 0 0 1 .383-.047c.155.029.265.1.332.211.054.09.057.21.01.36a.468.468 0 0 1-.205.305c-.28.168-.513.095-.701-.218z" style="font-style:normal;font-variant:normal;font-weight:400;font-stretch:normal;font-size:10.5833px;line-height:125%;font-family:'Amatic SC';-inkscape-font-specification:'Amatic SC';letter-spacing:0;word-spacing:0;fill:#2c2c2c;fill-opacity:1;stroke:none;stroke-width:4.31853px;stroke-linecap:butt;stroke-linejoin:miter;stroke-opacity:1" transform="scale(1.3609) rotate(49.43 7.387 3.846)"/><path style="font-style:normal;font-variant:normal;font-weight:400;font-stretch:normal;font-size:10.5833px;line-height:125%;font-family:'Amatic SC';-inkscape-font-specification:'Amatic SC';letter-spacing:0;word-spacing:0;fill:#2c2c2c;fill-opacity:1;stroke:none;stroke-width:3.81042px;stroke-linecap:butt;stroke-linejoin:miter;stroke-opacity:1" d="M8.452 3.469a.434.434 0 0 1-.33-.108.554.554 0 0 1-.15-.325.492.492 0 0 1 .124-.37.47.47 0 0 1 .338-.212c.106-.01.217.039.333.147a.474.474 0 0 1 .19.321c.03.33-.137.511-.505.547z" transform="scale(1.3609) rotate(49.43 7.387 3.846)"/></g><g style="stroke-width:.633178"><path style="font-style:normal;font-variant:normal;font-weight:400;font-stretch:normal;font-size:10.5833px;line-height:125%;font-family:'Amatic SC';-inkscape-font-specification:'Amatic SC';letter-spacing:0;word-spacing:0;fill:#2c2c2c;fill-opacity:1;stroke:none;stroke-width:3.43843px;stroke-linecap:butt;stroke-linejoin:miter;stroke-opacity:1" d="M8.38 1.856a.398.398 0 0 1-.165-.27.507.507 0 0 1 .087-.314.45.45 0 0 1 .305-.185.428.428 0 0 1 .36.054c.08.055.127.155.144.299a.434.434 0 0 1-.057.335c-.173.247-.398.274-.675.08z" transform="matrix(-.8972 1.29974 -1.29974 -.8972 24.197 2.55)"/><path d="M9.604 1.497a.347.347 0 0 1-.143-.235.443.443 0 0 1 .076-.273.392.392 0 0 1 .265-.16.373.373 0 0 1 .314.046c.069.048.11.135.125.26a.378.378 0 0 1-.05.292c-.15.215-.346.238-.587.07z" style="font-style:normal;font-variant:normal;font-weight:400;font-stretch:normal;font-size:10.5833px;line-height:125%;font-family:'Amatic SC';-inkscape-font-specification:'Amatic SC';letter-spacing:0;word-spacing:0;fill:#2c2c2c;fill-opacity:1;stroke:none;stroke-width:3.32281px;stroke-linecap:butt;stroke-linejoin:miter;stroke-opacity:1" transform="matrix(-.8972 1.29974 -1.29974 -.8972 24.197 2.55)"/><path style="font-style:normal;font-variant:normal;font-weight:400;font-stretch:normal;font-size:10.5833px;line-height:125%;font-family:'Amatic SC';-inkscape-font-specification:'Amatic SC';letter-spacing:0;word-spacing:0;fill:#2c2c2c;fill-opacity:1;stroke:none;stroke-width:3.2834px;stroke-linecap:butt;stroke-linejoin:miter;stroke-opacity:1" d="M10.72 2.608a.378.378 0 0 1-.286-.094.483.483 0 0 1-.131-.283.428.428 0 0 1 .108-.322.41.41 0 0 1 .295-.185c.091-.008.188.034.29.128.1.083.155.177.165.28.027.286-.12.445-.44.476z" transform="matrix(-.8972 1.29974 -1.29974 -.8972 24.197 2.55)"/><path d="M9.827 3.555a.43.43 0 0 1-.044-.34.545.545 0 0 1 .225-.271.487.487 0 0 1 .383-.047c.155.029.265.1.332.211.054.09.057.21.01.36a.468.468 0 0 1-.205.305c-.28.168-.513.095-.701-.218z" style="font-style:normal;font-variant:normal;font-weight:400;font-stretch:normal;font-size:10.5833px;line-height:125%;font-family:'Amatic SC';-inkscape-font-specification:'Amatic SC';letter-spacing:0;word-spacing:0;fill:#2c2c2c;fill-opacity:1;stroke:none;stroke-width:3.72124px;stroke-linecap:butt;stroke-linejoin:miter;stroke-opacity:1" transform="matrix(-.8972 1.29974 -1.29974 -.8972 24.197 2.55)"/><path style="font-style:normal;font-variant:normal;font-weight:400;font-stretch:normal;font-size:10.5833px;line-height:125%;font-family:'Amatic SC';-inkscape-font-specification:'Amatic SC';letter-spacing:0;word-spacing:0;fill:#2c2c2c;fill-opacity:1;stroke:none;stroke-width:3.2834px;stroke-linecap:butt;stroke-linejoin:miter;stroke-opacity:1" d="M8.452 3.469a.434.434 0 0 1-.33-.108.554.554 0 0 1-.15-.325.492.492 0 0 1 .124-.37.47.47 0 0 1 .338-.212c.106-.01.217.039.333.147a.474.474 0 0 1 .19.321c.03.33-.137.511-.505.547z" transform="matrix(-.8972 1.29974 -1.29974 -.8972 24.197 2.55)"/></g><g style="stroke-width:.668346"><path style="font-style:normal;font-variant:normal;font-weight:400;font-stretch:normal;font-size:10.5833px;line-height:125%;font-family:'Amatic SC';-inkscape-font-specification:'Amatic SC';letter-spacing:0;word-spacing:0;fill:#2c2c2c;fill-opacity:1;stroke:none;stroke-width:3.62941px;stroke-linecap:butt;stroke-linejoin:miter;stroke-opacity:1" d="M8.38 1.856a.398.398 0 0 1-.165-.27.507.507 0 0 1 .087-.314.45.45 0 0 1 .305-.185.428.428 0 0 1 .36.054c.08.055.127.155.144.299a.434.434 0 0 1-.057.335c-.173.247-.398.274-.675.08z" transform="rotate(-161.473 10.493 9.36) scale(1.49623)"/><path d="M9.604 1.497a.347.347 0 0 1-.143-.235.443.443 0 0 1 .076-.273.392.392 0 0 1 .265-.16.373.373 0 0 1 .314.046c.069.048.11.135.125.26a.378.378 0 0 1-.05.292c-.15.215-.346.238-.587.07z" style="font-style:normal;font-variant:normal;font-weight:400;font-stretch:normal;font-size:10.5833px;line-height:125%;font-family:'Amatic SC';-inkscape-font-specification:'Amatic SC';letter-spacing:0;word-spacing:0;fill:#2c2c2c;fill-opacity:1;stroke:none;stroke-width:3.50736px;stroke-linecap:butt;stroke-linejoin:miter;stroke-opacity:1" transform="rotate(-161.473 10.493 9.36) scale(1.49623)"/><path style="font-style:normal;font-variant:normal;font-weight:400;font-stretch:normal;font-size:10.5833px;line-height:125%;font-family:'Amatic SC';-inkscape-font-specification:'Amatic SC';letter-spacing:0;word-spacing:0;fill:#2c2c2c;fill-opacity:1;stroke:none;stroke-width:3.46577px;stroke-linecap:butt;stroke-linejoin:miter;stroke-opacity:1" d="M10.72 2.608a.378.378 0 0 1-.286-.094.483.483 0 0 1-.131-.283.428.428 0 0 1 .108-.322.41.41 0 0 1 .295-.185c.091-.008.188.034.29.128.1.083.155.177.165.28.027.286-.12.445-.44.476z" transform="rotate(-161.473 10.493 9.36) scale(1.49623)"/><path d="M9.827 3.555a.43.43 0 0 1-.044-.34.545.545 0 0 1 .225-.271.487.487 0 0 1 .383-.047c.155.029.265.1.332.211.054.09.057.21.01.36a.468.468 0 0 1-.205.305c-.28.168-.513.095-.701-.218z" style="font-style:normal;font-variant:normal;font-weight:400;font-stretch:normal;font-size:10.5833px;line-height:125%;font-family:'Amatic SC';-inkscape-font-specification:'Amatic SC';letter-spacing:0;word-spacing:0;fill:#2c2c2c;fill-opacity:1;stroke:none;stroke-width:3.92792px;stroke-linecap:butt;stroke-linejoin:miter;stroke-opacity:1" transform="rotate(-161.473 10.493 9.36) scale(1.49623)"/><path style="font-style:normal;font-variant:normal;font-weight:400;font-stretch:normal;font-size:10.5833px;line-height:125%;font-family:'Amatic SC';-inkscape-font-specification:'Amatic SC';letter-spacing:0;word-spacing:0;fill:#2c2c2c;fill-opacity:1;stroke:none;stroke-width:3.46577px;stroke-linecap:butt;stroke-linejoin:miter;stroke-opacity:1" d="M8.452 3.469a.434.434 0 0 1-.33-.108.554.554 0 0 1-.15-.325.492.492 0 0 1 .124-.37.47.47 0 0 1 .338-.212c.106-.01.217.039.333.147a.474.474 0 0 1 .19.321c.03.33-.137.511-.505.547z" transform="rotate(-161.473 10.493 9.36) scale(1.49623)"/></g><g style="stroke-width:.688715"><path style="font-style:normal;font-variant:normal;font-weight:400;font-stretch:normal;font-size:10.5833px;line-height:125%;font-family:'Amatic SC';-inkscape-font-specification:'Amatic SC';letter-spacing:0;word-spacing:0;fill:#2c2c2c;fill-opacity:1;stroke:none;stroke-width:3.74002px;stroke-linecap:butt;stroke-linejoin:miter;stroke-opacity:1" d="M8.38 1.856a.398.398 0 0 1-.165-.27.507.507 0 0 1 .087-.314.45.45 0 0 1 .305-.185.428.428 0 0 1 .36.054c.08.055.127.155.144.299a.434.434 0 0 1-.057.335c-.173.247-.398.274-.675.08z" transform="rotate(-105.934 10.14 10.33) scale(1.45198)"/><path d="M9.604 1.497a.347.347 0 0 1-.143-.235.443.443 0 0 1 .076-.273.392.392 0 0 1 .265-.16.373.373 0 0 1 .314.046c.069.048.11.135.125.26a.378.378 0 0 1-.05.292c-.15.215-.346.238-.587.07z" style="font-style:normal;font-variant:normal;font-weight:400;font-stretch:normal;font-size:10.5833px;line-height:125%;font-family:'Amatic SC';-inkscape-font-specification:'Amatic SC';letter-spacing:0;word-spacing:0;fill:#2c2c2c;fill-opacity:1;stroke:none;stroke-width:3.61425px;stroke-linecap:butt;stroke-linejoin:miter;stroke-opacity:1" transform="rotate(-105.934 10.14 10.33) scale(1.45198)"/><path style="font-style:normal;font-variant:normal;font-weight:400;font-stretch:normal;font-size:10.5833px;line-height:125%;font-family:'Amatic SC';-inkscape-font-specification:'Amatic SC';letter-spacing:0;word-spacing:0;fill:#2c2c2c;fill-opacity:1;stroke:none;stroke-width:3.57139px;stroke-linecap:butt;stroke-linejoin:miter;stroke-opacity:1" d="M10.72 2.608a.378.378 0 0 1-.286-.094.483.483 0 0 1-.131-.283.428.428 0 0 1 .108-.322.41.41 0 0 1 .295-.185c.091-.008.188.034.29.128.1.083.155.177.165.28.027.286-.12.445-.44.476z" transform="rotate(-105.934 10.14 10.33) scale(1.45198)"/><path d="M9.827 3.555a.43.43 0 0 1-.044-.34.545.545 0 0 1 .225-.271.487.487 0 0 1 .383-.047c.155.029.265.1.332.211.054.09.057.21.01.36a.468.468 0 0 1-.205.305c-.28.168-.513.095-.701-.218z" style="font-style:normal;font-variant:normal;font-weight:400;font-stretch:normal;font-size:10.5833px;line-height:125%;font-family:'Amatic SC';-inkscape-font-specification:'Amatic SC';letter-spacing:0;word-spacing:0;fill:#2c2c2c;fill-opacity:1;stroke:none;stroke-width:4.04763px;stroke-linecap:butt;stroke-linejoin:miter;stroke-opacity:1" transform="rotate(-105.934 10.14 10.33) scale(1.45198)"/><path style="font-style:normal;font-variant:normal;font-weight:400;font-stretch:normal;font-size:10.5833px;line-height:125%;font-family:'Amatic SC';-inkscape-font-specification:'Amatic SC';letter-spacing:0;word-spacing:0;fill:#2c2c2c;fill-opacity:1;stroke:none;stroke-width:3.57139px;stroke-linecap:butt;stroke-linejoin:miter;stroke-opacity:1" d="M8.452 3.469a.434.434 0 0 1-.33-.108.554.554 0 0 1-.15-.325.492.492 0 0 1 .124-.37.47.47 0 0 1 .338-.212c.106-.01.217.039.333.147a.474.474 0 0 1 .19.321c.03.33-.137.511-.505.547z" transform="rotate(-105.934 10.14 10.33) scale(1.45198)"/></g><g style="stroke-width:.734809"><path style="font-style:normal;font-variant:normal;font-weight:400;font-stretch:normal;font-size:10.5833px;line-height:125%;font-family:'Amatic SC';-inkscape-font-specification:'Amatic SC';letter-spacing:0;word-spacing:0;fill:#2c2c2c;fill-opacity:1;stroke:none;stroke-width:3.99032px;stroke-linecap:butt;stroke-linejoin:miter;stroke-opacity:1" d="M8.38 1.856a.398.398 0 0 1-.165-.27.507.507 0 0 1 .087-.314.45.45 0 0 1 .305-.185.428.428 0 0 1 .36.054c.08.055.127.155.144.299a.434.434 0 0 1-.057.335c-.173.247-.398.274-.675.08z" transform="scale(1.3609) rotate(-60.772 5.977 8.15)"/><path d="M9.604 1.497a.347.347 0 0 1-.143-.235.443.443 0 0 1 .076-.273.392.392 0 0 1 .265-.16.373.373 0 0 1 .314.046c.069.048.11.135.125.26a.378.378 0 0 1-.05.292c-.15.215-.346.238-.587.07z" style="font-style:normal;font-variant:normal;font-weight:400;font-stretch:normal;font-size:10.5833px;line-height:125%;font-family:'Amatic SC';-inkscape-font-specification:'Amatic SC';letter-spacing:0;word-spacing:0;fill:#2c2c2c;fill-opacity:1;stroke:none;stroke-width:3.85614px;stroke-linecap:butt;stroke-linejoin:miter;stroke-opacity:1" transform="scale(1.3609) rotate(-60.772 5.977 8.15)"/><path style="font-style:normal;font-variant:normal;font-weight:400;font-stretch:normal;font-size:10.5833px;line-height:125%;font-family:'Amatic SC';-inkscape-font-specification:'Amatic SC';letter-spacing:0;word-spacing:0;fill:#2c2c2c;fill-opacity:1;stroke:none;stroke-width:3.81042px;stroke-linecap:butt;stroke-linejoin:miter;stroke-opacity:1" d="M10.72 2.608a.378.378 0 0 1-.286-.094.483.483 0 0 1-.131-.283.428.428 0 0 1 .108-.322.41.41 0 0 1 .295-.185c.091-.008.188.034.29.128.1.083.155.177.165.28.027.286-.12.445-.44.476z" transform="scale(1.3609) rotate(-60.772 5.977 8.15)"/><path d="M9.827 3.555a.43.43 0 0 1-.044-.34.545.545 0 0 1 .225-.271.487.487 0 0 1 .383-.047c.155.029.265.1.332.211.054.09.057.21.01.36a.468.468 0 0 1-.205.305c-.28.168-.513.095-.701-.218z" style="font-style:normal;font-variant:normal;font-weight:400;font-stretch:normal;font-size:10.5833px;line-height:125%;font-family:'Amatic SC';-inkscape-font-specification:'Amatic SC';letter-spacing:0;word-spacing:0;fill:#2c2c2c;fill-opacity:1;stroke:none;stroke-width:4.31853px;stroke-linecap:butt;stroke-linejoin:miter;stroke-opacity:1" transform="scale(1.3609) rotate(-60.772 5.977 8.15)"/><path style="font-style:normal;font-variant:normal;font-weight:400;font-stretch:normal;font-size:10.5833px;line-height:125%;font-family:'Amatic SC';-inkscape-font-specification:'Amatic SC';letter-spacing:0;word-spacing:0;fill:#2c2c2c;fill-opacity:1;stroke:none;stroke-width:3.81042px;stroke-linecap:butt;stroke-linejoin:miter;stroke-opacity:1" d="M8.452 3.469a.434.434 0 0 1-.33-.108.554.554 0 0 1-.15-.325.492.492 0 0 1 .124-.37.47.47 0 0 1 .338-.212c.106-.01.217.039.333.147a.474.474 0 0 1 .19.321c.03.33-.137.511-.505.547z" transform="scale(1.3609) rotate(-60.772 5.977 8.15)"/></g></svg>