<?xml version="1.0" encoding="UTF-8" standalone="no"?>
<svg
   xmlns:dc="http://purl.org/dc/elements/1.1/"
   xmlns:cc="http://creativecommons.org/ns#"
   xmlns:rdf="http://www.w3.org/1999/02/22-rdf-syntax-ns#"
   xmlns:svg="http://www.w3.org/2000/svg"
   xmlns="http://www.w3.org/2000/svg"
   xmlns:sodipodi="http://sodipodi.sourceforge.net/DTD/sodipodi-0.dtd"
   xmlns:inkscape="http://www.inkscape.org/namespaces/inkscape"
   width="4.2333mm"
   height="4.2333mm"
   version="1.1"
   viewBox="0 0 4.2333 4.2333"
   id="svg9236"
   sodipodi:docname="flypie-menu-main-menu-symbolic.svg"
   inkscape:version="1.0.2 (e86c870879, 2021-01-15)">
  <defs
     id="defs9240" />
  <sodipodi:namedview
     pagecolor="#ffffff"
     bordercolor="#666666"
     borderopacity="1"
     objecttolerance="10"
     gridtolerance="10"
     guidetolerance="10"
     inkscape:pageopacity="0"
     inkscape:pageshadow="2"
     inkscape:window-width="1816"
     inkscape:window-height="1028"
     id="namedview9238"
     showgrid="false"
     inkscape:zoom="45.937859"
     inkscape:cx="7.9999374"
     inkscape:cy="7.9999374"
     inkscape:window-x="0"
     inkscape:window-y="32"
     inkscape:window-maximized="0"
     inkscape:current-layer="svg9236" />
  <metadata
     id="metadata9216">
    <rdf:RDF>
      <cc:Work
         rdf:about="">
        <dc:format>image/svg+xml</dc:format>
        <dc:type
           rdf:resource="http://purl.org/dc/dcmitype/StillImage" />
        <dc:title />
      </cc:Work>
    </rdf:RDF>
  </metadata>
  <path
     d="m 2.9068382,0.248962 c -0.2885774,0 -0.52916,0.24058259 -0.52916,0.52916 v 0.52916 c 0,0.2885774 0.2405826,0.52916 0.52916,0.52916 h 0.52916 c 0.2885774,0 0.52916,-0.2405826 0.52916,-0.52916 v -0.52916 c 0,-0.28857741 -0.2405826,-0.52916 -0.52916,-0.52916 z"
     color="#bebebe"
     id="path9222"
     style="fill:#2e3436;stroke-width:0.26458" />
  <path
     d="m 0.7901982,0.248962 c -0.28857741,0 -0.52916,0.24058259 -0.52916,0.52916 v 0.52916 c 0,0.2885774 0.24058259,0.52916 0.52916,0.52916 h 0.52916 c 0.2885774,0 0.52916,-0.2405826 0.52916,-0.52916 v -0.52916 c 0,-0.28857741 -0.2405826,-0.52916 -0.52916,-0.52916 z"
     color="#bebebe"
     id="path9224"
     style="fill:#2e3436;stroke-width:0.26458" />
  <path
     d="m 0.7901982,2.365602 c -0.28857741,0 -0.52916,0.2405826 -0.52916,0.52916 v 0.52916 c 0,0.2885774 0.24058259,0.52916 0.52916,0.52916 h 0.52916 c 0.2885774,0 0.52916,-0.2405826 0.52916,-0.52916 v -0.52916 c 0,-0.2885774 -0.2405826,-0.52916 -0.52916,-0.52916 z"
     color="#bebebe"
     id="path9226"
     style="fill:#2e3436;stroke-width:0.26458" />
  <path
     d="m 2.9068382,2.365602 c -0.2885774,0 -0.52916,0.2405826 -0.52916,0.52916 v 0.52916 c 0,0.2885774 0.2405826,0.52916 0.52916,0.52916 h 0.52916 c 0.2885774,0 0.52916,-0.2405826 0.52916,-0.52916 v -0.52916 c 0,-0.2885774 -0.2405826,-0.52916 -0.52916,-0.52916 z"
     color="#bebebe"
     id="path9228"
     style="fill:#2e3436;stroke-width:0.26458" />
</svg>
