<svg xmlns="http://www.w3.org/2000/svg" width="16" height="16" viewBox="0 0 4.233 4.233"><path d="M3.91.679v2.81h-.25a.227.227 0 0 1-.124-.034L1.794 2.33c-.077-.048-.117-.147-.117-.246s.04-.197.117-.246L3.536.714a.226.226 0 0 1 .125-.035h.023z" color="#000" fill="#2e3436" style="text-indent:0;text-decoration:none;text-decoration-line:none;text-transform:none;stroke-width:.264591"/><path d="M2.27.679v2.81h-.25a.227.227 0 0 1-.124-.034L.154 2.33c-.077-.048-.117-.147-.117-.246s.04-.197.117-.246L1.896.714a.226.226 0 0 1 .125-.035h.023z" color="#000" fill="#2e3436" style="text-indent:0;text-decoration:none;text-decoration-line:none;text-transform:none;stroke-width:.264591"/></svg>