<?xml version="1.0" encoding="UTF-8" standalone="no"?>
<svg
   xmlns:dc="http://purl.org/dc/elements/1.1/"
   xmlns:cc="http://creativecommons.org/ns#"
   xmlns:rdf="http://www.w3.org/1999/02/22-rdf-syntax-ns#"
   xmlns:svg="http://www.w3.org/2000/svg"
   xmlns="http://www.w3.org/2000/svg"
   xmlns:sodipodi="http://sodipodi.sourceforge.net/DTD/sodipodi-0.dtd"
   xmlns:inkscape="http://www.inkscape.org/namespaces/inkscape"
   width="4.2333331mm"
   height="4.2345443mm"
   viewBox="0 0 4.2333332 4.2345443"
   version="1.1"
   id="svg39259"
   inkscape:version="1.0.2 (e86c870879, 2021-01-15)"
   sodipodi:docname="flypie-action-uri-symbolic.svg">
  <defs
     id="defs39253" />
  <sodipodi:namedview
     id="base"
     pagecolor="#ffffff"
     bordercolor="#666666"
     borderopacity="1.0"
     inkscape:pageopacity="0.0"
     inkscape:pageshadow="2"
     inkscape:zoom="8.0462224"
     inkscape:cx="11.671258"
     inkscape:cy="22.326404"
     inkscape:document-units="mm"
     inkscape:current-layer="layer1"
     inkscape:document-rotation="0"
     showgrid="false"
     fit-margin-top="0"
     fit-margin-left="0"
     fit-margin-right="0"
     fit-margin-bottom="0"
     inkscape:window-width="1020"
     inkscape:window-height="1131"
     inkscape:window-x="898"
     inkscape:window-y="32"
     inkscape:window-maximized="0" />
  <metadata
     id="metadata39256">
    <rdf:RDF>
      <cc:Work
         rdf:about="">
        <dc:format>image/svg+xml</dc:format>
        <dc:type
           rdf:resource="http://purl.org/dc/dcmitype/StillImage" />
        <dc:title />
      </cc:Work>
    </rdf:RDF>
  </metadata>
  <g
     inkscape:label="Layer 1"
     inkscape:groupmode="layer"
     id="layer1"
     transform="translate(-102.27699,-151.35448)">
    <path
       id="path832"
       d="m 104.38295,151.35448 c -1.15707,0 -2.10107,0.944 -2.10107,2.10107 0,1.15707 0.944,2.10107 2.10107,2.10107 1.15707,0 2.10107,-0.944 2.10107,-2.10107 0,-1.15707 -0.944,-2.10107 -2.10107,-2.10107 z m 0,0.56028 c 0.0717,0 0.14162,0.007 0.21065,0.0159 0.0534,0.0729 0.10689,0.1654 0.15375,0.28726 0.0298,0.0775 0.0569,0.16389 0.081,0.25716 h -0.89076 c 0.0241,-0.0933 0.0512,-0.17965 0.081,-0.25716 0.0469,-0.12186 0.10035,-0.21438 0.15375,-0.28726 0.069,-0.009 0.13894,-0.0159 0.21065,-0.0159 z m -0.58491,0.11436 c -0.0133,0.0301 -0.0287,0.056 -0.041,0.0881 -0.0415,0.10793 -0.0759,0.22982 -0.10614,0.35784 h -0.45359 c 0.16017,-0.19363 0.36409,-0.3494 0.60077,-0.44593 z m 1.16982,0 c 0.23668,0.0965 0.4406,0.2523 0.60077,0.44593 h -0.45359 c -0.0303,-0.12802 -0.0646,-0.24991 -0.10614,-0.35784 -0.0124,-0.0321 -0.0278,-0.0579 -0.041,-0.0881 z m -1.95662,0.72607 h 0.58381 c -0.0272,0.17564 -0.0415,0.36443 -0.0471,0.56029 h -0.69543 c 0.018,-0.20047 0.0718,-0.38981 0.15868,-0.56029 z m 0.86778,0 h 1.00786 c 0.0288,0.17266 0.0447,0.36263 0.0509,0.56029 h -1.10962 c 0.006,-0.19766 0.0221,-0.38763 0.0509,-0.56029 z m 1.29183,0 h 0.58381 c 0.0869,0.17048 0.14063,0.35982 0.15868,0.56029 h -0.69543 c -0.006,-0.19586 -0.0199,-0.38465 -0.0471,-0.56029 z m -2.31829,0.84043 h 0.69543 c 0.006,0.19582 0.0199,0.38475 0.0471,0.56029 h -0.58381 c -0.0869,-0.17048 -0.14063,-0.35982 -0.15868,-0.56029 z m 0.97558,0 h 1.10962 c -0.006,0.19763 -0.0221,0.38773 -0.0509,0.56029 H 103.879 c -0.0288,-0.17256 -0.0447,-0.36266 -0.0509,-0.56029 z m 1.38977,0 h 0.69543 c -0.018,0.20047 -0.0718,0.38981 -0.15868,0.56029 h -0.58381 c 0.0272,-0.17554 0.0415,-0.36447 0.0471,-0.56029 z m -2.02064,0.84043 h 0.45359 c 0.0303,0.1278 0.0647,0.24947 0.10614,0.35729 0.0124,0.0323 0.0277,0.0583 0.041,0.0886 -0.23668,-0.0965 -0.4406,-0.2523 -0.60077,-0.44593 z m 0.7403,0 h 0.89076 c -0.024,0.093 -0.0512,0.17923 -0.081,0.25661 -0.047,0.12219 -0.10075,0.21487 -0.15429,0.28781 -0.0689,0.009 -0.13859,0.0159 -0.21011,0.0159 -0.0715,0 -0.14125,-0.007 -0.21011,-0.0159 -0.0535,-0.0729 -0.1073,-0.16562 -0.15429,-0.28781 -0.0298,-0.0774 -0.057,-0.16358 -0.081,-0.25661 z m 1.17747,0 h 0.45359 c -0.16017,0.19363 -0.36409,0.3494 -0.60077,0.44593 0.0134,-0.0303 0.0286,-0.0564 0.041,-0.0886 0.0415,-0.10782 0.0759,-0.22949 0.10614,-0.35729 z"
       style="color:#000000;font-style:normal;font-variant:normal;font-weight:normal;font-stretch:normal;font-size:medium;line-height:normal;font-family:sans-serif;font-variant-ligatures:normal;font-variant-position:normal;font-variant-caps:normal;font-variant-numeric:normal;font-variant-alternates:normal;font-feature-settings:normal;text-indent:0;text-align:start;text-decoration:none;text-decoration-line:none;text-decoration-style:solid;text-decoration-color:#000000;letter-spacing:normal;word-spacing:normal;text-transform:none;writing-mode:lr-tb;direction:ltr;text-orientation:mixed;dominant-baseline:auto;baseline-shift:baseline;text-anchor:start;white-space:normal;shape-padding:0;clip-rule:nonzero;display:inline;overflow:visible;visibility:visible;isolation:auto;mix-blend-mode:normal;color-interpolation:sRGB;color-interpolation-filters:linearRGB;solid-color:#000000;solid-opacity:1;vector-effect:none;fill:#2e3436;fill-opacity:1;fill-rule:nonzero;stroke:none;stroke-width:0.264583px;stroke-linecap:butt;stroke-linejoin:miter;stroke-miterlimit:4;stroke-dasharray:none;stroke-dashoffset:0;stroke-opacity:1;color-rendering:auto;image-rendering:auto;shape-rendering:auto;text-rendering:auto;enable-background:accumulate" />
  </g>
</svg>
