<svg xmlns="http://www.w3.org/2000/svg" width="16" height="16" viewBox="0 0 4.233 4.233"><path style="font-variation-settings:normal;opacity:1;vector-effect:none;fill:#2e3436;fill-opacity:1;stroke:none;stroke-width:.264582px;stroke-linecap:butt;stroke-linejoin:miter;stroke-miterlimit:4;stroke-dasharray:none;stroke-dashoffset:0;stroke-opacity:1;stop-color:#000;stop-opacity:1" d="M3.338 2.13V.95h-.524v1.17ZM3.258.74c.118-.12.106-.255-.036-.398a.54.54 0 0 1-.135-.21c-.016-.08-.029-.09-.077-.064-.08.043-.196.292-.196.421 0 .286.26.434.443.251z"/><path style="font-variation-settings:normal;opacity:1;vector-effect:none;fill:#2e3436;fill-opacity:1;stroke:none;stroke-width:.264582px;stroke-linecap:butt;stroke-linejoin:miter;stroke-miterlimit:4;stroke-dasharray:none;stroke-dashoffset:0;stroke-opacity:1;stop-color:#000;stop-opacity:1" d="M.713 4.14C.617 4.05.68 4.055.67 3.705.665 3.5.624 3.311.631 3.311c.008 0 .063.027.122.06.234.13.46.048.687-.249l.142-.185.06.103c.116.196.325.345.465.373.197.039.366-.042.54-.26L2.8 2.96l.135.161c.247.294.482.377.71.25a.809.809 0 0 1 .122-.06c.008 0-.03.15-.036.347.005.213.062.395-.038.468-.1.074-2.884.103-2.98.014zm.043-1.057C.642 2.999.45 2.87.442 2.539c-.01-.347.31-.448.604-.516l2.292-.003c.235.054.518.16.55.418.024.344-.272.555-.491.623-.123-.019-.163-.053-.36-.313l-.22-.292-.221.285c-.343.442-.46.442-.795 0l-.217-.287-.203.264c-.112.146-.186.245-.268.309-.083.063-.243.14-.357.056Z"/><path style="font-variation-settings:normal;opacity:1;vector-effect:none;fill:#2e3436;fill-opacity:1;stroke:none;stroke-width:.264582px;stroke-linecap:butt;stroke-linejoin:miter;stroke-miterlimit:4;stroke-dasharray:none;stroke-dashoffset:0;stroke-opacity:1;stop-color:#000;stop-opacity:1" d="M2.464 2.13V.95H1.94v1.17ZM2.384.74c.119-.12.107-.255-.036-.398a.54.54 0 0 1-.134-.21c-.016-.08-.03-.09-.078-.064-.08.043-.196.292-.196.421 0 .286.261.434.444.251zM1.586 2.13V.95h-.524v1.17ZM1.506.74c.119-.12.107-.255-.036-.398a.54.54 0 0 1-.135-.21c-.015-.08-.028-.09-.077-.064-.08.043-.196.292-.196.421 0 .286.261.434.444.251z"/></svg>