<?xml version="1.0" encoding="UTF-8" standalone="no"?>
<svg
   width="4.2333mm"
   height="4.2333mm"
   version="1.1"
   viewBox="0 0 4.2333 4.2333"
   id="svg14"
   sodipodi:docname="flypie-clipboard-symbolic.svg"
   inkscape:version="1.1.1 (3bf5ae0d25, 2021-09-20)"
   xmlns:inkscape="http://www.inkscape.org/namespaces/inkscape"
   xmlns:sodipodi="http://sodipodi.sourceforge.net/DTD/sodipodi-0.dtd"
   xmlns="http://www.w3.org/2000/svg"
   xmlns:svg="http://www.w3.org/2000/svg"
   xmlns:rdf="http://www.w3.org/1999/02/22-rdf-syntax-ns#"
   xmlns:cc="http://creativecommons.org/ns#"
   xmlns:dc="http://purl.org/dc/elements/1.1/">
  <defs
     id="defs18">
    <inkscape:path-effect
       effect="fillet_chamfer"
       id="path-effect981"
       is_visible="true"
       lpeversion="1"
       satellites_param="F,0,0,1,0,0.1,0,1 @ F,0,0,1,0,0.1,0,1 @ F,0,0,1,0,0.1,0,1 @ F,0,0,1,0,0.1,0,1 @ F,0,0,1,0,0.1,0,1 @ F,0,0,1,0,0.1,0,1"
       unit="px"
       method="auto"
       mode="F"
       radius="0.1"
       chamfer_steps="1"
       flexible="false"
       use_knot_distance="true"
       apply_no_radius="true"
       apply_with_radius="true"
       only_selected="false"
       hide_knots="false" />
    <inkscape:path-effect
       effect="fillet_chamfer"
       id="path-effect975"
       is_visible="true"
       lpeversion="1"
       satellites_param="F,0,0,1,0,0.1,0,1 @ F,0,0,1,0,0.1,0,1 @ F,0,0,1,0,0.1,0,1 @ F,0,0,1,0,0.1,0,1 @ F,0,0,1,0,0.1,0,1 @ F,0,0,1,0,0.1,0,1"
       unit="px"
       method="auto"
       mode="F"
       radius="0.1"
       chamfer_steps="1"
       flexible="false"
       use_knot_distance="true"
       apply_no_radius="true"
       apply_with_radius="true"
       only_selected="false"
       hide_knots="false" />
    <inkscape:perspective
       sodipodi:type="inkscape:persp3d"
       inkscape:vp_x="-5.4065435 : 7.3003591 : 1"
       inkscape:vp_y="0 : 1000 : 0"
       inkscape:vp_z="11.931435 : 7.2381679 : 1"
       inkscape:persp3d-origin="2.11665 : 1.4111 : 1"
       id="perspective929" />
  </defs>
  <sodipodi:namedview
     pagecolor="#ffffff"
     bordercolor="#666666"
     borderopacity="1"
     objecttolerance="10"
     gridtolerance="10"
     guidetolerance="10"
     inkscape:pageopacity="0"
     inkscape:pageshadow="2"
     inkscape:window-width="1920"
     inkscape:window-height="1131"
     id="namedview16"
     showgrid="false"
     inkscape:zoom="22.061268"
     inkscape:cx="0.86123789"
     inkscape:cy="8.0231109"
     inkscape:window-x="0"
     inkscape:window-y="0"
     inkscape:window-maximized="1"
     inkscape:current-layer="svg14"
     inkscape:document-rotation="0"
     inkscape:pagecheckerboard="0"
     inkscape:document-units="mm" />
  <metadata
     id="metadata2">
    <rdf:RDF>
      <cc:Work
         rdf:about="">
        <dc:format>image/svg+xml</dc:format>
        <dc:type
           rdf:resource="http://purl.org/dc/dcmitype/StillImage" />
      </cc:Work>
    </rdf:RDF>
  </metadata>
  <filter
     id="a"
     height="1"
     width="1"
     x="0"
     y="0">
    <feColorMatrix
       in="SourceGraphic"
       type="matrix"
       values="0 0 0 0 1 0 0 0 0 1 0 0 0 0 1 0 0 0 1 0"
       id="feColorMatrix10" />
  </filter>
  <mask
     id="b">
    <g
       filter="url(#a)"
       id="g15">
      <path
         d="m 0 0 h 16 v 16 h -16 z"
         fill-opacity="0.3"
         id="path13" />
    </g>
  </mask>
  <clipPath
     id="c">
    <path
       d="m 0 0 h 1024 v 800 h -1024 z"
       id="path18" />
  </clipPath>
  <mask
     id="d">
    <g
       filter="url(#a)"
       id="g23">
      <path
         d="m 0 0 h 16 v 16 h -16 z"
         fill-opacity="0.05"
         id="path21" />
    </g>
  </mask>
  <clipPath
     id="e">
    <path
       d="m 0 0 h 1024 v 800 h -1024 z"
       id="path26" />
  </clipPath>
  <mask
     id="f">
    <g
       filter="url(#a)"
       id="g31">
      <path
         d="m 0 0 h 16 v 16 h -16 z"
         fill-opacity="0.05"
         id="path29" />
    </g>
  </mask>
  <clipPath
     id="g">
    <path
       d="m 0 0 h 1024 v 800 h -1024 z"
       id="path34" />
  </clipPath>
  <mask
     id="h">
    <g
       filter="url(#a)"
       id="g39">
      <path
         d="m 0 0 h 16 v 16 h -16 z"
         fill-opacity="0.05"
         id="path37" />
    </g>
  </mask>
  <clipPath
     id="i">
    <path
       d="m 0 0 h 1024 v 800 h -1024 z"
       id="path42" />
  </clipPath>
  <mask
     id="j">
    <g
       filter="url(#a)"
       id="g47">
      <path
         d="m 0 0 h 16 v 16 h -16 z"
         fill-opacity="0.05"
         id="path45" />
    </g>
  </mask>
  <clipPath
     id="k">
    <path
       d="m 0 0 h 1024 v 800 h -1024 z"
       id="path50" />
  </clipPath>
  <mask
     id="l">
    <g
       filter="url(#a)"
       id="g55">
      <path
         d="m 0 0 h 16 v 16 h -16 z"
         fill-opacity="0.05"
         id="path53" />
    </g>
  </mask>
  <clipPath
     id="m">
    <path
       d="m 0 0 h 1024 v 800 h -1024 z"
       id="path58" />
  </clipPath>
  <mask
     id="n">
    <g
       filter="url(#a)"
       id="g63">
      <path
         d="m 0 0 h 16 v 16 h -16 z"
         fill-opacity="0.05"
         id="path61" />
    </g>
  </mask>
  <clipPath
     id="o">
    <path
       d="m 0 0 h 1024 v 800 h -1024 z"
       id="path66" />
  </clipPath>
  <mask
     id="p">
    <g
       filter="url(#a)"
       id="g71">
      <path
         d="m 0 0 h 16 v 16 h -16 z"
         fill-opacity="0.3"
         id="path69" />
    </g>
  </mask>
  <clipPath
     id="q">
    <path
       d="m 0 0 h 1024 v 800 h -1024 z"
       id="path74" />
  </clipPath>
  <mask
     id="r">
    <g
       filter="url(#a)"
       id="g79">
      <path
         d="m 0 0 h 16 v 16 h -16 z"
         fill-opacity="0.5"
         id="path77" />
    </g>
  </mask>
  <clipPath
     id="s">
    <path
       d="m 0 0 h 1024 v 800 h -1024 z"
       id="path82" />
  </clipPath>
  <mask
     id="t">
    <g
       filter="url(#a)"
       id="g87">
      <path
         d="m 0 0 h 16 v 16 h -16 z"
         fill-opacity="0.4"
         id="path85" />
    </g>
  </mask>
  <clipPath
     id="u">
    <path
       d="m 0 0 h 1024 v 800 h -1024 z"
       id="path90" />
  </clipPath>
  <mask
     id="v">
    <g
       filter="url(#a)"
       id="g95">
      <path
         d="m 0 0 h 16 v 16 h -16 z"
         fill-opacity="0.4"
         id="path93" />
    </g>
  </mask>
  <clipPath
     id="w">
    <path
       d="m 0 0 h 1024 v 800 h -1024 z"
       id="path98" />
  </clipPath>
  <mask
     id="x">
    <g
       filter="url(#a)"
       id="g103">
      <path
         d="m 0 0 h 16 v 16 h -16 z"
         fill-opacity="0.5"
         id="path101" />
    </g>
  </mask>
  <clipPath
     id="y">
    <path
       d="m 0 0 h 1024 v 800 h -1024 z"
       id="path106" />
  </clipPath>
  <mask
     id="z">
    <g
       filter="url(#a)"
       id="g111">
      <path
         d="m 0 0 h 16 v 16 h -16 z"
         fill-opacity="0.5"
         id="path109" />
    </g>
  </mask>
  <clipPath
     id="A">
    <path
       d="m 0 0 h 1024 v 800 h -1024 z"
       id="path114" />
  </clipPath>
  <path
     d="m 1.2009906,1.3417986 v 1.8438151 h 1.3229166 l 0.5270997,-0.526066 -0.0062,-1.3177491 z m 0,0"
     id="path117"
     style="font-variation-settings:normal;opacity:1;vector-effect:none;fill:#2e3436;fill-opacity:1;stroke:none;stroke-width:0.264582px;stroke-linecap:butt;stroke-linejoin:miter;stroke-miterlimit:4;stroke-dasharray:none;stroke-dashoffset:0;stroke-opacity:1;-inkscape-stroke:none;stop-color:#000000;stop-opacity:1" />
  <path
     d="m 1.5978655,0.01061378 h 1.0593671 c 0.077515,0 0.1395262,0.06201167 0.1395262,0.13952638 v 0.77824699 c 0,0.0775145 -0.062011,0.14055985 -0.1395262,0.14055985 H 1.5978655 c -0.077514,0 -0.1405598,-0.063045 -0.1405598,-0.14055985 V 0.15014016 c 0,-0.07751471 0.063045,-0.13952638 0.1405598,-0.13952638 z m 0,0"
     id="path119"
     style="font-variation-settings:normal;opacity:1;vector-effect:none;fill:#2e3436;fill-opacity:1;stroke:none;stroke-width:0.264582px;stroke-linecap:butt;stroke-linejoin:miter;stroke-miterlimit:4;stroke-dasharray:none;stroke-dashoffset:0;stroke-opacity:1;-inkscape-stroke:none;stop-color:#000000;stop-opacity:1" />
  <path
     d="m 0.79584727,0.27519706 c -0.0775145,0 -0.17363281,0.009302 -0.26768372,0.0826823 -0.0930177,0.0733806 -0.1374595,0.20257161 -0.1374595,0.29765624 v 3.1832682 c 0,0.1012859 0.0351401,0.2118733 0.11678893,0.2945556 0.0826823,0.081649 0.20670573,0.1198896 0.31522617,0.1085207 l -0.0268719,0.00206 H 3.4334124 c 0.096118,0 0.197404,-0.033073 0.2780194,-0.1064532 0.079582,-0.073381 0.1271238,-0.1891358 0.1271238,-0.29869 V 0.63899914 c 0,-0.0888833 -0.03514,-0.19637031 -0.1105873,-0.26768399 C 3.651487,0.30000175 3.5543355,0.27519706 3.4747535,0.27519706 H 3.0365374 V 0.80436372 H 3.309389 V 3.7147803 H 0.91987071 V 0.80436372 H 1.1761859 V 0.27519706 Z m 0,0"
     id="path121"
     style="font-variation-settings:normal;opacity:1;vector-effect:none;fill:#2e3436;fill-opacity:1;stroke:none;stroke-width:0.264582px;stroke-linecap:butt;stroke-linejoin:miter;stroke-miterlimit:4;stroke-dasharray:none;stroke-dashoffset:0;stroke-opacity:1;-inkscape-stroke:none;stop-color:#000000;stop-opacity:1" />
  <g
     clip-path="url(#c)"
     mask="url(#b)"
     transform="matrix(0.26458333,0,0,0.26458333,-142.69843,-196.83628)"
     id="g127">
    <path
       d="m 562.46094,212.05859 h 10.44922 c -1.1836,0.49219 -1.29688,2.46094 0,3 h -10.44922 z m 0,0"
       fill="#2e3436"
       id="path125" />
  </g>
  <g
     clip-path="url(#e)"
     mask="url(#d)"
     transform="matrix(0.26458333,0,0,0.26458333,-142.69843,-196.83628)"
     id="g131">
    <path
       d="m 16,632 h 1 v 1 h -1 z m 0,0"
       fill="#2e3436"
       fill-rule="evenodd"
       id="path129" />
  </g>
  <g
     clip-path="url(#g)"
     mask="url(#f)"
     transform="matrix(0.26458333,0,0,0.26458333,-142.69843,-196.83628)"
     id="g135">
    <path
       d="m 17,631 h 1 v 1 h -1 z m 0,0"
       fill="#2e3436"
       fill-rule="evenodd"
       id="path133" />
  </g>
  <g
     clip-path="url(#i)"
     mask="url(#h)"
     transform="matrix(0.26458333,0,0,0.26458333,-142.69843,-196.83628)"
     id="g139">
    <path
       d="m 18,634 h 1 v 1 h -1 z m 0,0"
       fill="#2e3436"
       fill-rule="evenodd"
       id="path137" />
  </g>
  <g
     clip-path="url(#k)"
     mask="url(#j)"
     transform="matrix(0.26458333,0,0,0.26458333,-142.69843,-196.83628)"
     id="g143">
    <path
       d="m 16,634 h 1 v 1 h -1 z m 0,0"
       fill="#2e3436"
       fill-rule="evenodd"
       id="path141" />
  </g>
  <g
     clip-path="url(#m)"
     mask="url(#l)"
     transform="matrix(0.26458333,0,0,0.26458333,-142.69843,-196.83628)"
     id="g147">
    <path
       d="m 17,635 h 1 v 1 h -1 z m 0,0"
       fill="#2e3436"
       fill-rule="evenodd"
       id="path145" />
  </g>
  <g
     clip-path="url(#o)"
     mask="url(#n)"
     transform="matrix(0.26458333,0,0,0.26458333,-142.69843,-196.83628)"
     id="g151">
    <path
       d="m 19,635 h 1 v 1 h -1 z m 0,0"
       fill="#2e3436"
       fill-rule="evenodd"
       id="path149" />
  </g>
  <g
     clip-path="url(#q)"
     mask="url(#p)"
     transform="matrix(0.26458333,0,0,0.26458333,-142.69843,-196.83628)"
     id="g155">
    <path
       d="m 136,660 v 7 h 7 v -7 z m 0,0"
       fill="#2e3436"
       id="path153" />
  </g>
  <g
     clip-path="url(#s)"
     mask="url(#r)"
     transform="matrix(0.26458333,0,0,0.26458333,-142.69843,-196.83628)"
     id="g159">
    <path
       d="m 199,642 h 3 v 12 h -3 z m 0,0"
       fill="#2e3436"
       id="path157" />
  </g>
  <g
     clip-path="url(#u)"
     mask="url(#t)"
     transform="matrix(0.26458333,0,0,0.26458333,-142.69843,-196.83628)"
     id="g163">
    <path
       d="m 209.5,144.16016 c 0.27734,0 0.5,0.22265 0.5,0.5 v 1 c 0,0.27734 -0.22266,0.5 -0.5,0.5 -0.27734,0 -0.5,-0.22266 -0.5,-0.5 v -1 c 0,-0.27735 0.22266,-0.5 0.5,-0.5 z m 0,0"
       fill="#2e3436"
       id="path161" />
  </g>
  <g
     clip-path="url(#w)"
     mask="url(#v)"
     transform="matrix(0.26458333,0,0,0.26458333,-142.69843,-196.83628)"
     id="g167">
    <path
       d="m 206.5,144.16016 c 0.27734,0 0.5,0.22265 0.5,0.5 v 1 c 0,0.27734 -0.22266,0.5 -0.5,0.5 -0.27734,0 -0.5,-0.22266 -0.5,-0.5 v -1 c 0,-0.27735 0.22266,-0.5 0.5,-0.5 z m 0,0"
       fill="#2e3436"
       id="path165" />
  </g>
  <g
     clip-path="url(#y)"
     mask="url(#x)"
     transform="matrix(0.26458333,0,0,0.26458333,-142.69843,-196.83628)"
     id="g171">
    <path
       d="m 229.5,143.16016 c -0.54688,0 -1,0.45703 -1,1 0,0.54687 0.45312,1 1,1 0.54687,0 1,-0.45313 1,-1 0,-0.54297 -0.45313,-1 -1,-1 z m 0,0"
       fill="#2e3436"
       id="path169" />
  </g>
  <g
     clip-path="url(#A)"
     mask="url(#z)"
     transform="matrix(0.26458333,0,0,0.26458333,-142.69843,-196.83628)"
     id="g175">
    <path
       d="m 226.45312,143.16016 c -0.51953,0 -0.95312,0.43359 -0.95312,0.95312 v 0.0937 c 0,0.51953 0.43359,0.95313 0.95312,0.95313 h 0.0937 c 0.51954,0 0.95313,-0.4336 0.95313,-0.95313 v -0.0937 c 0,-0.51953 -0.43359,-0.95312 -0.95313,-0.95312 z m 0,0"
       fill="#2e3436"
       id="path173" />
  </g>
</svg>
