<svg xmlns="http://www.w3.org/2000/svg" width="16" height="16" viewBox="0 0 4.233 4.233"><path style="fill:#2e3436;fill-opacity:1;stroke:none;stroke-width:.264582px;stroke-linecap:butt;stroke-linejoin:miter;stroke-opacity:1" d="M2.444.5a.146.146 0 0 0-.07.018l-1.688.947a.206.206 0 0 0-.093.11L.165 2.785a.103.103 0 0 0 .036.118l1.486 1.063a.117.117 0 0 0 .128.004l2.23-1.364a.102.102 0 0 0 .044-.115l-.378-1.307a.178.178 0 0 0-.09-.11L2.51.517A.146.146 0 0 0 2.444.5Zm.978.76c.005 0 .007.008.002.01l-1.433.84a.153.153 0 0 0-.074.117L1.77 3.676c-.001.009-.014.009-.015 0l-.128-1.49a.152.152 0 0 0-.073-.118L.817 1.62c-.008-.005-.002-.018.007-.014l.934.32a.204.204 0 0 0 .145-.004l1.516-.663h.003z"/></svg>