<svg xmlns="http://www.w3.org/2000/svg" width="16" height="16" viewBox="0 0 4.233 4.233"><path style="font-variation-settings:normal;opacity:1;vector-effect:none;fill:#2e3436;fill-opacity:1;stroke-width:.264579;stroke-linecap:butt;stroke-linejoin:miter;stroke-miterlimit:4;stroke-dasharray:none;stroke-dashoffset:0;stroke-opacity:1;stop-color:#000;stop-opacity:1" d="M1.583 4.046c-.188-.087-.282-.192-.399-.446-.114-.251-.129-.571-.034-.771a.563.563 0 0 1 .695-.297c.081.03.082.027.082-.326 0-.58.13-1.286.295-1.614.078-.154.07-.15.188-.096.071.032.092.075.11.234.03.25.18.633.373.972.084.148.158.268.165.268.006-.001.062-.039.124-.084.228-.17.57-.088.761.18.237.332.168.95-.135 1.214-.147.128-.425.234-.555.213-.067-.012-.073-.028-.054-.13.013-.064.014-.219.002-.343-.035-.4-.281-.688-.639-.75-.086-.015-.158-.041-.16-.059-.005-.062.23-.203.356-.215l.13-.011-.167-.291C2.534 1.367 2.363.958 2.36.84c-.004-.121-.123.173-.197.486a4.987 4.987 0 0 0-.081.744l-.018.474.194-.015c.245-.02.41.08.53.316.14.275.08.688-.135.948-.241.293-.731.408-1.07.252zM.587 1.18a3.266 3.266 0 0 1-.357-.07l-.156-.043.085-.08C.206.945.3.828.367.728c.3-.446.561-.613.962-.613.19 0 .29.02.402.078.135.072.399.326.369.357a.552.552 0 0 1-.175-.044c-.254-.089-.59-.05-.91.105C.63.794.551.87.857.757c.305-.111.869-.156 1.084-.085l.134.044-.283.18c-.403.254-.774.342-1.206.284Z"/></svg>