<svg xmlns="http://www.w3.org/2000/svg" width="16" height="16" viewBox="0 0 4.233 4.233"><path style="font-variation-settings:normal;opacity:1;vector-effect:none;fill:#2e3436;fill-opacity:1;stroke:none;stroke-width:.999995px;stroke-linecap:butt;stroke-linejoin:miter;stroke-miterlimit:4;stroke-dasharray:none;stroke-dashoffset:0;stroke-opacity:1;stop-color:#000;stop-opacity:1" d="M8.123.096a8.184 8.184 0 0 0-4.43 1.326C1.788 2.682.563 4.61.207 6.906c-.08.516-.08 1.647 0 2.162.24 1.547.86 2.904 1.855 4.051a8.007 8.007 0 0 0 5.458 2.729 8.188 8.188 0 0 0 3.513-.537c1.868-.742 3.32-2.068 4.203-3.838.266-.533.589-1.417.596-1.631.005-.16-.082-.278-.24-.324-.127-.038-.143-.034-.416.107-.52.269-.953.354-1.428.283-.985-.147-1.702-.876-1.766-1.79a1.836 1.836 0 0 1 .022-.452c.08-.38.08-.448-.012-.535-.08-.076-.098-.079-.582-.08-.46-.001-.52-.01-.76-.092-.535-.184-.929-.51-1.154-.955a1.602 1.602 0 0 1-.086-1.336c.137-.392.112-.483-.193-.684a2.28 2.28 0 0 1-.733-.828 2.456 2.456 0 0 1-.164-.44 2.449 2.449 0 0 1 .016-.892c.105-.398.323-.714.74-1.068C9.215.638 9.23.61 9.23.49A.304.304 0 0 0 9.14.254C9.055.16 9.026.15 8.773.127a7.068 7.068 0 0 0-.65-.031zm4.604.935c-.3-.071-1.067.167-2.323.721-.41.181-.498.26-.49.437.004.094.978 1.772 1.06 1.829.542.148 1.119.323 1.614-.106.336-.31.564-.87.613-1.508.057-.735-.135-1.292-.474-1.373zM5.184 2.707a.983.983 0 0 1 .982.984.983.983 0 0 1-.982.983.983.983 0 0 1-.985-.983.983.983 0 0 1 .985-.984zm8.789 2.008a.47.47 0 0 0-.145.047c-.224.114-.506.703-.9 1.88-.172.514-.237.75-.223.813.043.192.103.213 1.111.416.52.105.979.192 1.02.193.094.004.229-.063.32-.162.369-.396.324-1.232-.117-2.148-.353-.733-.724-1.091-1.066-1.04zM3.467 6.735A1.334 1.334 0 0 1 4.8 8.067a1.334 1.334 0 0 1-1.334 1.334 1.334 1.334 0 0 1-1.334-1.334 1.334 1.334 0 0 1 1.334-1.334zm3.713.87a.754.754 0 0 1 .015 0 .754.754 0 0 1 .756.754.754.754 0 0 1-.756.754.754.754 0 0 1-.754-.754.754.754 0 0 1 .739-.754zm3.386 2.215a.946.946 0 0 1 .014 0 .946.946 0 0 1 .945.946.946.946 0 0 1-.945.945.946.946 0 0 1-.947-.945.946.946 0 0 1 .933-.946zm-3.603 1.584a1.317 1.317 0 0 1 1.316 1.317 1.317 1.317 0 0 1-1.316 1.318 1.317 1.317 0 0 1-1.317-1.318 1.317 1.317 0 0 1 1.317-1.317z" transform="scale(.26458)"/></svg>