<?xml version="1.0" encoding="UTF-8" standalone="no"?>
<svg
    width="16"
    height="16"
    viewBox="0 0 4.233 4.233"
    version="1.1"
    id="svg6"
    inkscape:version="1.4.3 (0d15f75042, 2025-12-25)"
    xmlns:inkscape="http://www.inkscape.org/namespaces/inkscape"
    xmlns:sodipodi="http://sodipodi.sourceforge.net/DTD/sodipodi-0.dtd"
    xmlns="http://www.w3.org/2000/svg"
    xmlns:svg="http://www.w3.org/2000/svg">
    <defs
        id="defs10" />
    <path
        d="m 1.9845,0.26949905 a 0.264,0.264 0 0 0 -0.264,0.265 v 0.12 a 1.517,1.517 0 0 0 -0.359,0.15 l -0.085,-0.087 a 0.263,0.263 0 0 0 -0.373,0 l -0.187,0.187 a 0.263,0.263 0 0 0 0,0.37299995 l 0.085,0.085 a 1.517,1.517 0 0 0 -0.148,0.359 h -0.12 a 0.263,0.263 0 0 0 -0.264,0.263 v 0.264 c 0,0.147 0.118,0.264 0.264,0.264 h 0.119 a 1.517,1.517 0 0 0 0.15,0.359 l -0.086,0.085 a 0.263,0.263 0 0 0 0,0.373 l 0.187,0.187 c 0.103,0.103 0.27,0.103 0.373,0 l 0.085,-0.085 a 1.517,1.517 0 0 0 0.359,0.148 v 0.12 c 0,0.147 0.118,0.264 0.264,0.264 h 0.264 a 0.263,0.263 0 0 0 0.264,-0.263 v -0.12 a 1.517,1.517 0 0 0 0.358,-0.15 l 0.086,0.086 c 0.103,0.103 0.27,0.103 0.373,0 l 0.186,-0.187 a 0.263,0.263 0 0 0 0,-0.373 l -0.085,-0.085 a 1.517,1.517 0 0 0 0.149,-0.359 h 0.12 a 0.263,0.263 0 0 0 0.264,-0.263 v -0.265 a 0.263,0.263 0 0 0 -0.264,-0.263 h -0.12 a 1.517,1.517 0 0 0 -0.15,-0.359 l 0.086,-0.085 a 0.263,0.263 0 0 0 0,-0.37299995 l -0.185,-0.187 a 0.263,0.263 0 0 0 -0.373,0 l -0.087,0.085 a 1.517,1.517 0 0 0 -0.36,-0.148 v -0.12 a 0.264,0.264 0 0 0 -0.263,-0.265 z M 2.1205,1.321499 a 0.794,0.794 0 0 1 0.794,0.794 0.794,0.794 0 0 1 -0.794,0.794 0.794,0.794 0 0 1 -0.793,-0.794 0.794,0.794 0 0 1 0.793,-0.794 z"
        fill="#2e3436"
        style="stroke-width:0.26458;paint-order:normal"
        id="path1" />
</svg>