<svg xmlns="http://www.w3.org/2000/svg" width="16" height="16" viewBox="0 0 4.233 4.233"><path d="M.269.526a.264.264 0 0 0-.265.265v2.645c0 .147.118.265.265.265h3.704a.264.264 0 0 0 .264-.265V.791a.264.264 0 0 0-.264-.265zm.33.53h.397c.037 0 .067.029.067.065v.397c0 .037-.03.066-.067.066H.6a.066.066 0 0 1-.066-.066v-.397c0-.036.03-.066.066-.066zm.794 0h.397c.037 0 .066.029.066.065v.397c0 .037-.03.066-.066.066h-.397a.066.066 0 0 1-.066-.066v-.397c0-.036.03-.066.066-.066zm.794 0h.397c.036 0 .066.029.066.065v.397c0 .037-.03.066-.066.066h-.397a.066.066 0 0 1-.066-.066v-.397c0-.036.03-.066.066-.066zm.794 0h.397c.036 0 .066.029.066.065v.397c0 .037-.03.066-.066.066H2.98a.066.066 0 0 1-.066-.066v-.397c0-.036.03-.066.066-.066zm-2.117.793h.397c.037 0 .066.03.066.066v.397c0 .037-.03.066-.066.066H.864a.066.066 0 0 1-.066-.066v-.397c0-.036.03-.066.066-.066zm.794 0h.397c.036 0 .066.03.066.066v.397c0 .037-.03.066-.066.066h-.397a.066.066 0 0 1-.066-.066v-.397c0-.036.03-.066.066-.066zm.794 0h.396c.037 0 .067.03.067.066v.397c0 .037-.03.066-.067.066h-.396a.066.066 0 0 1-.067-.066v-.397c0-.036.03-.066.067-.066zm.793 0h.397c.037 0 .066.03.066.066v.397c0 .037-.03.066-.066.066h-.397a.066.066 0 0 1-.066-.066v-.397c0-.036.03-.066.066-.066zM.6 2.643h.397c.037 0 .067.03.067.066v.397c0 .036-.03.066-.067.066H.6a.066.066 0 0 1-.066-.066v-.397c0-.037.03-.066.066-.066zm.794 0h1.455c.037 0 .067.03.067.066v.397c0 .036-.03.066-.067.066H1.393a.066.066 0 0 1-.066-.066v-.397c0-.037.03-.066.066-.066zm1.852 0h.662c.036 0 .066.03.066.066v.397c0 .036-.03.066-.066.066h-.662a.066.066 0 0 1-.066-.066v-.397c0-.037.03-.066.066-.066z" color="#bebebe" fill="#2e3436" style="stroke-width:.26458"/></svg>