<svg xmlns="http://www.w3.org/2000/svg" width="16" height="16" viewBox="0 0 4.233 4.233"><path style="color:#000;font-style:normal;font-variant:normal;font-weight:400;font-stretch:normal;font-size:medium;line-height:normal;font-family:sans-serif;font-variant-ligatures:normal;font-variant-position:normal;font-variant-caps:normal;font-variant-numeric:normal;font-variant-alternates:normal;font-feature-settings:normal;text-indent:0;text-align:start;text-decoration:none;text-decoration-line:none;text-decoration-style:solid;text-decoration-color:#000;letter-spacing:normal;word-spacing:normal;text-transform:none;writing-mode:lr-tb;direction:ltr;text-orientation:mixed;dominant-baseline:auto;baseline-shift:baseline;text-anchor:start;white-space:normal;shape-padding:0;clip-rule:nonzero;display:inline;overflow:visible;visibility:visible;isolation:auto;mix-blend-mode:normal;color-interpolation:sRGB;color-interpolation-filters:linearRGB;solid-color:#000;solid-opacity:1;vector-effect:none;fill:#2e3436;fill-opacity:1;fill-rule:nonzero;stroke:none;stroke-width:.264583;stroke-linecap:butt;stroke-linejoin:miter;stroke-miterlimit:4;stroke-dasharray:none;stroke-dashoffset:0;stroke-opacity:1;marker:none;paint-order:normal;color-rendering:auto;image-rendering:auto;shape-rendering:auto;text-rendering:auto;enable-background:accumulate" d="M2.122.1 1.887.7c-.233.594-.533.72-.88.922-.174.1-.366.218-.512.424-.146.206-.228.484-.23.849-.003.48.318.842.686 1.052.369.209.8.302 1.175.288a2.447 2.447 0 0 0 1.152-.348c.355-.215.665-.549.69-.992.02-.327-.05-.594-.186-.795-.136-.201-.318-.327-.49-.442-.345-.23-.676-.41-.915-.966Zm.015 1.267c.107.154.22.216.333.333.14.422.241.832.187 1.139-.042.232-.092.494-.18.681a.71.71 0 0 1-.091.148 1.7 1.7 0 0 1-.278.038 1.476 1.476 0 0 1-.208-.009.629.629 0 0 1-.104-.182c-.073-.192-.108-.457-.148-.69-.053-.312.045-.723.178-1.144.106-.11.212-.166.31-.314Zm-.679.589c-.075.316-.118.634-.071.912.038.224.07.503.161.741l.007.014c-.12-.036-.24-.08-.342-.138-.267-.152-.42-.339-.419-.588.002-.293.059-.442.132-.546.074-.104.185-.18.346-.273.058-.034.121-.075.186-.122Zm1.387.03c.053.04.106.079.154.11.16.108.275.198.344.3.068.1.111.224.098.468-.012.207-.17.408-.437.57a1.79 1.79 0 0 1-.257.125c.087-.219.133-.463.17-.673.049-.273.006-.588-.072-.9z"/></svg>