<?xml version="1.0" encoding="UTF-8" standalone="no"?>
<svg
   xmlns:dc="http://purl.org/dc/elements/1.1/"
   xmlns:cc="http://creativecommons.org/ns#"
   xmlns:rdf="http://www.w3.org/1999/02/22-rdf-syntax-ns#"
   xmlns:svg="http://www.w3.org/2000/svg"
   xmlns="http://www.w3.org/2000/svg"
   xmlns:sodipodi="http://sodipodi.sourceforge.net/DTD/sodipodi-0.dtd"
   xmlns:inkscape="http://www.inkscape.org/namespaces/inkscape"
   width="16"
   height="16"
   version="1.1"
   id="svg3718"
   sodipodi:docname="flypie-saturation-symbolic.svg"
   inkscape:version="1.0.2 (e86c870879, 2021-01-15)">
  <metadata
     id="metadata3724">
    <rdf:RDF>
      <cc:Work
         rdf:about="">
        <dc:format>image/svg+xml</dc:format>
        <dc:type
           rdf:resource="http://purl.org/dc/dcmitype/StillImage" />
      </cc:Work>
    </rdf:RDF>
  </metadata>
  <defs
     id="defs3722" />
  <sodipodi:namedview
     pagecolor="#ffffff"
     bordercolor="#666666"
     borderopacity="1"
     objecttolerance="10"
     gridtolerance="10"
     guidetolerance="10"
     inkscape:pageopacity="0"
     inkscape:pageshadow="2"
     inkscape:window-width="1920"
     inkscape:window-height="1131"
     id="namedview3720"
     showgrid="false"
     inkscape:zoom="45.9375"
     inkscape:cx="7.9129252"
     inkscape:cy="8"
     inkscape:window-x="0"
     inkscape:window-y="0"
     inkscape:window-maximized="1"
     inkscape:current-layer="svg3718" />
  <path
     d="M 8,1 C 5.797,1 4,2.797 4,5 4,7.203 5.797,9 8,9 10.203,9 12,7.203 12,5 12,2.797 10.203,1 8,1 Z M 8,2.066 A 2.926,2.926 0 0 1 10.934,5 2.926,2.926 0 0 1 8,7.934 2.926,2.926 0 0 1 5.067,5 2.926,2.926 0 0 1 8,2.066 Z"
     style="color:#000000;line-height:normal;font-variant-ligatures:normal;font-variant-position:normal;font-variant-caps:normal;font-variant-numeric:normal;font-variant-alternates:normal;font-feature-settings:normal;text-indent:0;text-align:start;text-decoration:none;text-decoration-line:none;text-decoration-style:solid;text-decoration-color:#000000;text-transform:none;text-orientation:mixed;shape-padding:0;isolation:auto;mix-blend-mode:normal;fill:#474747;marker:none"
     font-weight="400"
     font-family="sans-serif"
     overflow="visible"
     id="path3708" />
  <path
     d="M 4,8 C 1.797,8 0,9.797 0,12 0,14.203 1.797,16 4,16 6.203,16 8,14.203 8,12 8,9.797 6.203,8 4,8 Z M 4,9.066 A 2.926,2.926 0 0 1 6.934,12 2.926,2.926 0 0 1 4,14.934 2.926,2.926 0 0 1 1.067,12 2.926,2.926 0 0 1 4,9.066 Z"
     style="color:#000000;line-height:normal;font-variant-ligatures:normal;font-variant-position:normal;font-variant-caps:normal;font-variant-numeric:normal;font-variant-alternates:normal;font-feature-settings:normal;text-indent:0;text-align:start;text-decoration:none;text-decoration-line:none;text-decoration-style:solid;text-decoration-color:#000000;text-transform:none;text-orientation:mixed;shape-padding:0;isolation:auto;mix-blend-mode:normal;fill:#474747;marker:none"
     font-weight="400"
     font-family="sans-serif"
     overflow="visible"
     id="path3710" />
  <path
     d="M 15.998,12 A 4,4 0 0 1 12,16 4,4 0 0 1 8,12 a 4,4 0 0 1 4,-4 4,4 0 0 1 3.998,4 z"
     style="color:#000000;fill:#474747;marker:none"
     overflow="visible"
     id="path3712" />
  <path
     d="M 7.467,12 A 3.467,3.467 0 0 1 4,15.467 3.467,3.467 0 0 1 0.534,12 3.467,3.467 0 0 1 4,8.533 3.467,3.467 0 0 1 7.467,12 Z"
     style="color:#000000;fill:#474747;marker:none"
     overflow="visible"
     opacity="0.5"
     id="path3714" />
</svg>
