<svg xmlns="http://www.w3.org/2000/svg" width="16" height="16" viewBox="0 0 4.233 4.233"><path style="fill:#2e3436;fill-opacity:1;stroke:none;stroke-width:.529169;stroke-linecap:round;stroke-linejoin:round;stroke-dashoffset:26.4" d="M2.002.27a1.587 1.587 0 0 0-.675.21 1.587 1.587 0 0 0-.793 1.374v1.058h.793V3.97h.265v-.529h.265v.53h.529v-.53h.264v.53h.265V2.911h.794V1.854A1.587 1.587 0 0 0 2.915.479a1.587 1.587 0 0 0-.913-.208Zm-.675 1.584h.265a.264.264 0 1 1 0 .529h-.265a.264.264 0 1 1 0-.53zm1.323 0h.265a.264.264 0 1 1 0 .529H2.65a.264.264 0 1 1 0-.53zm-.529.529.265.53h-.53Z"/></svg>