<svg xmlns="http://www.w3.org/2000/svg" width="16" height="16" viewBox="0 0 4.233 4.233"><path d="M2.907.249c-.289 0-.53.24-.53.53v.528c0 .289.241.53.53.53h.529c.289 0 .53-.241.53-.53V.778c0-.288-.241-.529-.53-.529zM.79.249c-.288 0-.529.24-.529.53v.528c0 .289.24.53.53.53h.528c.289 0 .53-.241.53-.53V.778c0-.288-.241-.529-.53-.529zM.79 2.366c-.288 0-.529.24-.529.529v.529c0 .288.24.53.53.53h.528c.289 0 .53-.242.53-.53v-.53c0-.288-.241-.528-.53-.528zM2.907 2.366c-.289 0-.53.24-.53.529v.529c0 .288.241.53.53.53h.529c.289 0 .53-.242.53-.53v-.53c0-.288-.241-.528-.53-.528z" color="#bebebe" style="fill:#2e3436;stroke-width:.26458"/></svg>