<svg xmlns="http://www.w3.org/2000/svg" width="16" height="16" viewBox="0 0 4.233 4.233"><path style="color:#bebebe;font-style:normal;font-variant:normal;font-weight:400;font-stretch:normal;font-size:medium;line-height:normal;font-family:'Andale Mono';-inkscape-font-specification:'Andale Mono';text-indent:0;text-align:start;text-decoration:none;text-decoration-line:none;letter-spacing:normal;word-spacing:normal;text-transform:none;writing-mode:lr-tb;direction:ltr;text-anchor:start;display:inline;overflow:visible;visibility:visible;fill:#2e3436;fill-opacity:1;fill-rule:nonzero;stroke:none;stroke-width:.471289;marker:none;enable-background:new" d="M1.058 1.058h.273a.275.275 0 0 1 .182.083l.604.604.612-.604c.07-.061.118-.08.181-.083h.265v.265c0 .076-.01.146-.066.198l-.604.604.596.595c.05.05.074.12.074.19v.265H2.91a.268.268 0 0 1-.19-.074l-.603-.604-.604.604a.268.268 0 0 1-.19.074h-.265V2.91c0-.07.025-.14.075-.19l.603-.595-.603-.604a.24.24 0 0 1-.075-.198Z"/></svg>