<svg xmlns="http://www.w3.org/2000/svg" width="16" height="16" viewBox="0 0 4.233 4.233"><path style="color:#000;font-style:normal;font-variant:normal;font-weight:400;font-stretch:normal;font-size:medium;line-height:normal;font-family:sans-serif;font-variant-ligatures:normal;font-variant-position:normal;font-variant-caps:normal;font-variant-numeric:normal;font-variant-alternates:normal;font-feature-settings:normal;text-indent:0;text-align:start;text-decoration:none;text-decoration-line:none;text-decoration-style:solid;text-decoration-color:#000;letter-spacing:normal;word-spacing:normal;text-transform:none;writing-mode:lr-tb;direction:ltr;text-orientation:mixed;dominant-baseline:auto;baseline-shift:baseline;text-anchor:start;white-space:normal;shape-padding:0;clip-rule:nonzero;display:inline;overflow:visible;visibility:visible;isolation:auto;mix-blend-mode:normal;color-interpolation:sRGB;color-interpolation-filters:linearRGB;solid-color:#000;solid-opacity:1;vector-effect:none;fill:#2e3436;fill-opacity:1;fill-rule:evenodd;stroke:none;stroke-width:.264583px;stroke-linecap:round;stroke-linejoin:miter;stroke-miterlimit:4;stroke-dasharray:none;stroke-dashoffset:0;stroke-opacity:1;color-rendering:auto;image-rendering:auto;shape-rendering:auto;text-rendering:auto;enable-background:accumulate" d="M.586 1.193c-.06.064-.118.132-.17.204l.645.645c.008-.104.032-.207.07-.305zm-.331.462a2.117 2.117 0 0 0-.118.256l1.74 1.736c.107.057.382.032.368.032l-.558-.591a1.058 1.058 0 0 1-.537-.538Zm1.339.545a.53.53 0 0 0 .444.445Zm-1.46.129c.208.557.639 1 1.189 1.224a.132.132 0 0 0-.039-.075zm2.366.778c-.097.038-.2.061-.304.07l.46.46c.086-.024.171-.052.254-.086a.132.132 0 0 0-.038-.073z"/><path style="vector-effect:none;fill:#2e3436;fill-opacity:1;stroke:none;stroke-width:.264583;stroke-linecap:round;stroke-linejoin:round;stroke-miterlimit:4;stroke-dasharray:none;stroke-opacity:1" d="M2.117.53c-.405 0-.8.118-1.14.337l.449.45a1.058 1.058 0 0 1 1.749.8c0 .253-.092.498-.258.69l.468.469c.383-.287.658-.694.78-1.157A2.117 2.117 0 0 0 2.116.53Zm0 1.057a.53.53 0 0 0-.316.105l.318.318a.132.132 0 1 1 .104.104l.318.317a.529.529 0 0 0-.424-.844z"/><path style="fill:none;fill-rule:evenodd;stroke:#2e3436;stroke-width:.264583px;stroke-linecap:round;stroke-linejoin:miter;stroke-opacity:1" d="m.397.397 3.44 3.44"/></svg>