<svg xmlns="http://www.w3.org/2000/svg" width="16" height="16" viewBox="0 0 4.233 4.233"><path d="M1.984.265A.264.264 0 0 0 1.72.53v.12a1.517 1.517 0 0 0-.359.15L1.276.713a.263.263 0 0 0-.373 0L.716.9a.263.263 0 0 0 0 .373l.085.085a1.517 1.517 0 0 0-.148.359h-.12a.263.263 0 0 0-.264.263v.264c0 .147.118.264.264.264h.119a1.517 1.517 0 0 0 .15.359l-.086.085a.263.263 0 0 0 0 .373l.187.187c.103.103.27.103.373 0l.085-.085a1.517 1.517 0 0 0 .359.148v.12c0 .147.118.264.264.264h.264a.263.263 0 0 0 .264-.263v-.12a1.517 1.517 0 0 0 .358-.15l.086.086c.103.103.27.103.373 0l.186-.187a.263.263 0 0 0 0-.373l-.085-.085a1.517 1.517 0 0 0 .149-.359h.12a.263.263 0 0 0 .264-.263V1.98a.263.263 0 0 0-.264-.263h-.12a1.517 1.517 0 0 0-.15-.359l.086-.085a.263.263 0 0 0 0-.373L3.33.713a.263.263 0 0 0-.373 0L2.87.798A1.517 1.517 0 0 0 2.51.65V.53a.264.264 0 0 0-.263-.265zm.136 1.052a.794.794 0 0 1 .794.794.794.794 0 0 1-.794.794.794.794 0 0 1-.793-.794.794.794 0 0 1 .793-.794z" fill="#2e3436" style="stroke-width:.26458;paint-order:normal"/></svg>