<svg width="16" height="16" xmlns="http://www.w3.org/2000/svg"><path d="M1.884 8.008c-.339-.236-.548-.578-.627-1.026-.013-.458.095-.857.332-1.196.263-.376.65-.61 1.161-.7.538-.128.995-.061 1.37.202.302.21.485.59.55 1.139.089.511.017.936-.22 1.275-.657.94-1.512 1.043-2.566.307Z" style="font-style:normal;font-variant:normal;font-weight:400;font-stretch:normal;font-size:10.5833px;line-height:125%;font-family:'Amatic SC';-inkscape-font-specification:'Amatic SC';letter-spacing:0;word-spacing:0;opacity:1;fill:#2c2c2c;fill-opacity:1;stroke:none;stroke-width:5.24781px;stroke-linecap:butt;stroke-linejoin:miter;stroke-opacity:1"/><path style="font-style:normal;font-variant:normal;font-weight:400;font-stretch:normal;font-size:10.5833px;line-height:125%;font-family:'Amatic SC';-inkscape-font-specification:'Amatic SC';letter-spacing:0;word-spacing:0;opacity:1;fill:#2c2c2c;fill-opacity:1;stroke:none;stroke-width:5.18558px;stroke-linecap:butt;stroke-linejoin:miter;stroke-opacity:1" d="M7.972 14.96c-.578.059-1.115-.12-1.608-.528-.435-.477-.68-1.006-.736-1.584-.063-.644.14-1.247.605-1.81.459-.629 1.01-.974 1.653-1.036.515-.045 1.057.19 1.627.72.564.466.874.988.929 1.566.148 1.609-.67 2.499-2.47 2.67z"/><path d="M8.716 5.273c-.377-.627-.466-1.331-.27-2.112.306-.752.773-1.316 1.401-1.692.698-.417 1.492-.515 2.384-.291.961.181 1.651.621 2.069 1.318.334.558.354 1.303.062 2.237-.224.891-.649 1.526-1.277 1.901-1.742 1.044-3.199.59-4.368-1.361Z" style="font-style:normal;font-variant:normal;font-weight:400;font-stretch:normal;font-size:10.5833px;line-height:125%;font-family:'Amatic SC';-inkscape-font-specification:'Amatic SC';letter-spacing:0;word-spacing:0;opacity:1;fill:#2c2c2c;fill-opacity:1;stroke:none;stroke-width:5.87708px;stroke-linecap:butt;stroke-linejoin:miter;stroke-opacity:1"/></svg>