<svg xmlns="http://www.w3.org/2000/svg" width="16.014" height="16.014" viewBox="0 0 4.237 4.237"><path d="M.84.12a.265.265 0 0 0-.264.265v3.44a.265.265 0 0 0 .264.264h2.646a.265.265 0 0 0 .265-.265V1.311a.265.265 0 0 0-.078-.187L2.747.198A.265.265 0 0 0 2.56.12zm.265.53h1.346l.77.77v2.14H1.106z" color="#000" fill="#2e3436" fill-rule="evenodd" style="stroke-width:.26458"/><path d="M2.428.385v1.058h1.058z" fill="#2e3436" fill-rule="evenodd" style="stroke-width:.26458"/><path style="fill:#2e3436;stroke-width:.26458" d="M1.37 1.972h1.587v.265H1.37zM1.37 2.501h1.587v.265H1.37zM1.37 3.03h1.587v.265H1.37z"/><path d="M1.767.914a.399.399 0 0 0-.397.397c0 .217.179.396.397.396.217 0 .396-.179.396-.396a.399.399 0 0 0-.396-.397zm0 .264a.13.13 0 0 1 .132.133.13.13 0 0 1-.132.132.13.13 0 0 1-.133-.132.13.13 0 0 1 .133-.133z" color="#000" style="fill:#2e3436;stroke-width:.26458"/></svg>