<?xml version="1.0" encoding="UTF-8" standalone="no"?>
<svg
   xmlns:dc="http://purl.org/dc/elements/1.1/"
   xmlns:cc="http://creativecommons.org/ns#"
   xmlns:rdf="http://www.w3.org/1999/02/22-rdf-syntax-ns#"
   xmlns:svg="http://www.w3.org/2000/svg"
   xmlns="http://www.w3.org/2000/svg"
   xmlns:sodipodi="http://sodipodi.sourceforge.net/DTD/sodipodi-0.dtd"
   xmlns:inkscape="http://www.inkscape.org/namespaces/inkscape"
   width="4.2371mm"
   height="4.2371mm"
   version="1.1"
   viewBox="0 0 4.2371 4.2371"
   id="svg1587"
   sodipodi:docname="flypie-action-file-symbolic.svg"
   inkscape:version="1.0.2 (e86c870879, 2021-01-15)">
  <defs
     id="defs1591" />
  <sodipodi:namedview
     pagecolor="#ffffff"
     bordercolor="#666666"
     borderopacity="1"
     objecttolerance="10"
     gridtolerance="10"
     guidetolerance="10"
     inkscape:pageopacity="0"
     inkscape:pageshadow="2"
     inkscape:window-width="1920"
     inkscape:window-height="1131"
     id="namedview1589"
     showgrid="false"
     inkscape:zoom="45.896661"
     inkscape:cx="8.0071183"
     inkscape:cy="8.0071183"
     inkscape:window-x="0"
     inkscape:window-y="32"
     inkscape:window-maximized="1"
     inkscape:current-layer="svg1587"
     inkscape:document-rotation="0" />
  <metadata
     id="metadata1559">
    <rdf:RDF>
      <cc:Work
         rdf:about="">
        <dc:format>image/svg+xml</dc:format>
        <dc:type
           rdf:resource="http://purl.org/dc/dcmitype/StillImage" />
        <dc:title />
      </cc:Work>
    </rdf:RDF>
  </metadata>
  <path
     d="m 0.84047732,0.11999767 a 0.26460646,0.26460646 0 0 0 -0.26458,0.26458 V 3.8241177 a 0.26460646,0.26460646 0 0 0 0.26458,0.26458 H 3.4862773 a 0.26460646,0.26460646 0 0 0 0.26458,-0.26458 v -2.51351 a 0.26460646,0.26460646 0 0 0 -0.077514,-0.187066 l -0.92603,-0.92603003 a 0.26460646,0.26460646 0 0 0 -0.187066,-0.077514 z m 0.26457998,0.52916 H 2.4506847 L 3.2216973,1.4201703 v 2.1393674 h -2.11664 z"
     color="#000000"
     fill="#2e3436"
     fill-rule="evenodd"
     stroke-linecap="square"
     stroke-linejoin="round"
     id="path1565"
     style="stroke-width:0.26458" />
  <path
     d="M 2.4279573,0.38457767 V 1.4428977 h 1.05832 z"
     enable-background="new"
     fill="#2e3436"
     fill-rule="evenodd"
     id="path1567"
     style="stroke-width:0.26458" />
  <rect
     x="1.3696374"
     y="1.9720576"
     width="1.5874799"
     height="0.26458001"
     stop-color="#000000"
     id="rect1571"
     style="fill:#2e3436;stroke-width:0.26458" />
  <rect
     x="1.3696374"
     y="2.5012176"
     width="1.5874799"
     height="0.26458001"
     stop-color="#000000"
     id="rect1573"
     style="fill:#2e3436;stroke-width:0.26458" />
  <rect
     x="1.3696374"
     y="3.0303776"
     width="1.5874799"
     height="0.26458001"
     stop-color="#000000"
     id="rect1575"
     style="fill:#2e3436;stroke-width:0.26458" />
  <path
     d="m 1.7665073,0.91373767 c -0.2176171,0 -0.39687,0.17925293 -0.39687,0.39687003 0,0.217617 0.1792529,0.39687 0.39687,0.39687 0.217617,0 0.39687,-0.179253 0.39687,-0.39687 0,-0.2176171 -0.179253,-0.39687003 -0.39687,-0.39687003 z m 0,0.26458003 c 0.074627,0 0.13229,0.057663 0.13229,0.13229 0,0.074627 -0.057663,0.13229 -0.13229,0.13229 -0.074627,0 -0.13229,-0.057663 -0.13229,-0.13229 0,-0.074627 0.057663,-0.13229 0.13229,-0.13229 z"
     color="#000000"
     stroke-linecap="round"
     id="path1579"
     style="fill:#2e3436;stroke-width:0.26458" />
</svg>
