<?xml version="1.0" encoding="UTF-8" standalone="no"?>
<svg
   xmlns:dc="http://purl.org/dc/elements/1.1/"
   xmlns:cc="http://creativecommons.org/ns#"
   xmlns:rdf="http://www.w3.org/1999/02/22-rdf-syntax-ns#"
   xmlns:svg="http://www.w3.org/2000/svg"
   xmlns="http://www.w3.org/2000/svg"
   xmlns:sodipodi="http://sodipodi.sourceforge.net/DTD/sodipodi-0.dtd"
   xmlns:inkscape="http://www.inkscape.org/namespaces/inkscape"
   width="4.2333mm"
   height="4.2333mm"
   version="1.1"
   viewBox="0 0 4.2333 4.2333"
   id="svg13141"
   sodipodi:docname="flypie-menu-system-settings-symbolic.svg"
   inkscape:version="1.0.2 (e86c870879, 2021-01-15)">
  <defs
     id="defs13145" />
  <sodipodi:namedview
     pagecolor="#ffffff"
     bordercolor="#666666"
     borderopacity="1"
     objecttolerance="10"
     gridtolerance="10"
     guidetolerance="10"
     inkscape:pageopacity="0"
     inkscape:pageshadow="2"
     inkscape:window-width="1705"
     inkscape:window-height="1048"
     id="namedview13143"
     showgrid="false"
     inkscape:zoom="45.937859"
     inkscape:cx="7.9999374"
     inkscape:cy="7.9999374"
     inkscape:window-x="0"
     inkscape:window-y="32"
     inkscape:window-maximized="0"
     inkscape:current-layer="svg13141" />
  <metadata
     id="metadata13127">
    <rdf:RDF>
      <cc:Work
         rdf:about="">
        <dc:format>image/svg+xml</dc:format>
        <dc:type
           rdf:resource="http://purl.org/dc/dcmitype/StillImage" />
        <dc:title />
      </cc:Work>
    </rdf:RDF>
  </metadata>
  <path
     d="m 1.1905538,0.26442 c -0.51302062,0 -0.92603,0.41300938 -0.92603,0.92603 0,0.5130206 0.41300938,0.92603 0.92603,0.92603 h 1.85206 c 0.5130206,0 0.92603,-0.4130094 0.92603,-0.92603 0,-0.51302062 -0.4130094,-0.92603 -0.92603,-0.92603 z m 1.85206,0.26458 c 0.3663639,0 0.66145,0.29505962 0.66145,0.66145 0,0.3663639 -0.2950861,0.66145 -0.66145,0.66145 -0.3663639,0 -0.66145,-0.2950861 -0.66145,-0.66145 0,-0.36639038 0.2950861,-0.66145 0.66145,-0.66145 z"
     fill="#2e3436"
     id="path13133"
     style="stroke-width:0.26458" />
  <path
     d="m 1.1905538,2.38106 c -0.51302062,0 -0.92603,0.4130094 -0.92603,0.92603 0,0.5130206 0.41300938,0.92603 0.92603,0.92603 h 1.85206 c 0.5130206,0 0.92603,-0.4130094 0.92603,-0.92603 0,-0.5130206 -0.4130094,-0.92603 -0.92603,-0.92603 z m 0,0.26458 c 0.3663639,0 0.66145,0.2950596 0.66145,0.66145 0,0.3663639 -0.2950861,0.66145 -0.66145,0.66145 -0.36636393,0 -0.66145,-0.2950861 -0.66145,-0.66145 0,-0.3663904 0.29508607,-0.66145 0.66145,-0.66145 z"
     fill="#2e3436"
     fill-opacity="0.34728"
     id="path13135"
     style="stroke-width:0.26458" />
</svg>
