<?xml version="1.0" encoding="UTF-8" standalone="no"?>
<svg
   xmlns:dc="http://purl.org/dc/elements/1.1/"
   xmlns:cc="http://creativecommons.org/ns#"
   xmlns:rdf="http://www.w3.org/1999/02/22-rdf-syntax-ns#"
   xmlns:svg="http://www.w3.org/2000/svg"
   xmlns="http://www.w3.org/2000/svg"
   xmlns:sodipodi="http://sodipodi.sourceforge.net/DTD/sodipodi-0.dtd"
   xmlns:inkscape="http://www.inkscape.org/namespaces/inkscape"
   width="4.2333mm"
   height="4.2333mm"
   version="1.1"
   viewBox="0 0 4.2333 4.2333"
   id="svg17081"
   sodipodi:docname="flypie-vegan-symbolic.svg"
   inkscape:version="1.0.2 (e86c870879, 2021-01-15)">
  <defs
     id="defs17085" />
  <sodipodi:namedview
     pagecolor="#ffffff"
     bordercolor="#666666"
     borderopacity="1"
     objecttolerance="10"
     gridtolerance="10"
     guidetolerance="10"
     inkscape:pageopacity="0"
     inkscape:pageshadow="2"
     inkscape:window-width="1461"
     inkscape:window-height="1061"
     id="namedview17083"
     showgrid="false"
     inkscape:zoom="45.937859"
     inkscape:cx="3.809494"
     inkscape:cy="7.9999374"
     inkscape:window-x="0"
     inkscape:window-y="32"
     inkscape:window-maximized="0"
     inkscape:current-layer="svg17081"
     inkscape:document-rotation="0" />
  <metadata
     id="metadata17051">
    <rdf:RDF>
      <cc:Work
         rdf:about="">
        <dc:format>image/svg+xml</dc:format>
        <dc:type
           rdf:resource="http://purl.org/dc/dcmitype/StillImage" />
        <dc:title></dc:title>
      </cc:Work>
    </rdf:RDF>
  </metadata>
  <path
     inkscape:connector-curvature="0"
     id="path4626"
     d="M 0.79952332,2.6496199 V 3.1787865 A 0.52916664,0.52916664 0 0 0 1.32869,3.7079532 H 1.8578566 V 3.1787865 A 0.52916664,0.52916664 0 0 0 1.32869,2.6496199 Z"
     style="fill:#2e3436;fill-opacity:1;stroke:none;stroke-width:0.529167;stroke-linecap:round;stroke-linejoin:round;stroke-miterlimit:4;stroke-dasharray:none;stroke-opacity:1" />
  <path
     inkscape:connector-curvature="0"
     style="fill:#2e3436;fill-opacity:1;stroke:none;stroke-width:0.529167;stroke-linecap:round;stroke-linejoin:round;stroke-miterlimit:4;stroke-dasharray:none;stroke-opacity:1"
     d="M 3.7099398,2.6496199 V 3.1787865 A 0.52916664,0.52916664 0 0 1 3.1807732,3.7079532 H 2.6516066 V 3.1787865 A 0.52916664,0.52916664 0 0 1 3.1807732,2.6496199 Z"
     id="path4634" />
  <path
     inkscape:connector-curvature="0"
     style="fill:#2e3436;fill-opacity:1;stroke:none;stroke-width:0.529167;stroke-linecap:round;stroke-linejoin:round;stroke-miterlimit:4;stroke-dasharray:none;stroke-opacity:1"
     d="m 1.0641066,1.5912866 v 0.396875 a 0.39687498,0.39687498 0 0 0 0.396875,0.396875 h 0.396875 v -0.396875 a 0.39687498,0.39687498 0 0 0 -0.396875,-0.396875 z"
     id="path4636" />
  <path
     id="path4638"
     d="m 3.4453565,1.5912866 v 0.396875 a 0.39687498,0.39687498 0 0 1 -0.396875,0.396875 H 2.6516066 v -0.396875 a 0.39687498,0.39687498 0 0 1 0.3968749,-0.396875 z"
     style="fill:#2e3436;fill-opacity:1;stroke:none;stroke-width:0.529167;stroke-linecap:round;stroke-linejoin:round;stroke-miterlimit:4;stroke-dasharray:none;stroke-opacity:1"
     inkscape:connector-curvature="0" />
  <path
     inkscape:connector-curvature="0"
     style="fill:#2e3436;fill-opacity:1;stroke:none;stroke-width:0.529167;stroke-linecap:round;stroke-linejoin:round;stroke-miterlimit:4;stroke-dasharray:none;stroke-opacity:1"
     d="M 1.5932733,0.00378668 V 0.26837 A 0.26458332,0.26458332 0 0 0 1.8578566,0.53295332 H 2.1224399 V 0.26837 A 0.26458332,0.26458332 0 0 0 1.8578566,0.00378668 Z"
     id="path4665" />
  <path
     id="path4667"
     d="M 2.9161899,0.00378668 V 0.26837 A 0.26458332,0.26458332 0 0 1 2.6516066,0.53295332 H 2.3870232 V 0.26837 A 0.26458332,0.26458332 0 0 1 2.6516066,0.00378668 Z"
     style="fill:#2e3436;fill-opacity:1;stroke:none;stroke-width:0.529167;stroke-linecap:round;stroke-linejoin:round;stroke-miterlimit:4;stroke-dasharray:none;stroke-opacity:1"
     inkscape:connector-curvature="0" />
  <path
     id="path4669"
     d="M 1.32869,0.79753664 V 1.06212 A 0.26458332,0.26458332 0 0 0 1.5932733,1.3267033 H 1.8578566 V 1.06212 A 0.26458332,0.26458332 0 0 0 1.5932733,0.79753664 Z"
     style="fill:#2e3436;fill-opacity:1;stroke:none;stroke-width:0.529167;stroke-linecap:round;stroke-linejoin:round;stroke-miterlimit:4;stroke-dasharray:none;stroke-opacity:1"
     inkscape:connector-curvature="0" />
  <path
     inkscape:connector-curvature="0"
     style="fill:#2e3436;fill-opacity:1;stroke:none;stroke-width:0.529167;stroke-linecap:round;stroke-linejoin:round;stroke-miterlimit:4;stroke-dasharray:none;stroke-opacity:1"
     d="M 3.1807732,0.79753664 V 1.06212 A 0.26458332,0.26458332 0 0 1 2.9161899,1.3267033 H 2.6516066 V 1.06212 A 0.26458332,0.26458332 0 0 1 2.9161899,0.79753664 Z"
     id="path4671" />
  <rect
     ry="0.13229166"
     y="0.53295332"
     x="2.1224399"
     height="3.7041664"
     width="0.26458332"
     id="rect4673"
     style="fill:#2e3436;fill-opacity:1;stroke:none;stroke-width:0.529167;stroke-linecap:round;stroke-linejoin:round;stroke-miterlimit:4;stroke-dasharray:none;stroke-opacity:1"
     rx="0.13229166" />
</svg>
