<svg xmlns="http://www.w3.org/2000/svg" width="16" height="16" viewBox="0 0 4.233 4.233"><path d="M1.979.134a.132.132 0 0 0-.13.135v.405l-.332-.19a.132.132 0 1 0-.131.23l.462.265v.912l-.79-.456.002-.533a.132.132 0 1 0-.264 0l-.002.381-.351-.203a.132.132 0 0 0-.184.05.132.132 0 0 0 .052.18l.35.202-.329.192a.132.132 0 1 0 .133.229l.46-.269.79.457-.79.456-.46-.268a.132.132 0 1 0-.133.228l.33.192-.351.203a.132.132 0 0 0-.05.184.132.132 0 0 0 .182.046l.351-.204.002.382a.132.132 0 1 0 .264 0l-.002-.534.79-.456v.926l-.462.261a.132.132 0 1 0 .13.23l.332-.187v.393a.132.132 0 1 0 .265 0V3.58l.332.188a.132.132 0 1 0 .13-.23l-.462-.262V2.35l.802.463-.005.53a.132.132 0 1 0 .265.003l.004-.38.34.196a.132.132 0 1 0 .132-.23l-.34-.196.328-.194a.132.132 0 0 0-.134-.227l-.458.269-.802-.463.802-.463.458.269a.132.132 0 1 0 .134-.228l-.328-.193.34-.197a.132.132 0 1 0-.132-.229l-.34.196-.004-.38a.132.132 0 1 0-.265.002l.005.53-.802.463V.98l.462-.265a.132.132 0 1 0-.13-.23l-.332.19V.27a.132.132 0 0 0-.134-.135Z" style="color:#000;font-style:normal;font-variant:normal;font-weight:400;font-stretch:normal;font-size:medium;line-height:normal;font-family:sans-serif;font-variant-ligatures:normal;font-variant-position:normal;font-variant-caps:normal;font-variant-numeric:normal;font-variant-alternates:normal;font-feature-settings:normal;text-indent:0;text-align:start;text-decoration:none;text-decoration-line:none;text-decoration-style:solid;text-decoration-color:#000;letter-spacing:normal;word-spacing:normal;text-transform:none;writing-mode:lr-tb;direction:ltr;text-orientation:mixed;dominant-baseline:auto;baseline-shift:baseline;text-anchor:start;white-space:normal;shape-padding:0;clip-rule:nonzero;display:inline;overflow:visible;visibility:visible;isolation:auto;mix-blend-mode:normal;color-interpolation:sRGB;color-interpolation-filters:linearRGB;solid-color:#000;solid-opacity:1;vector-effect:none;fill:#2e3436;fill-opacity:1;fill-rule:nonzero;stroke:none;stroke-width:.264583;stroke-linecap:round;stroke-linejoin:miter;stroke-miterlimit:4;stroke-dasharray:none;stroke-dashoffset:0;stroke-opacity:1;marker:none;color-rendering:auto;image-rendering:auto;shape-rendering:auto;text-rendering:auto;enable-background:accumulate"/></svg>