<svg xmlns="http://www.w3.org/2000/svg" width="16" height="16" viewBox="0 0 4.233 4.233"><path style="font-variation-settings:normal;opacity:1;vector-effect:none;fill:#2e3436;fill-opacity:1;stroke:none;stroke-width:.264582px;stroke-linecap:butt;stroke-linejoin:miter;stroke-miterlimit:4;stroke-dasharray:none;stroke-dashoffset:0;stroke-opacity:1;stop-color:#000;stop-opacity:1" d="M1.642 4.045c-.291-.041-.692-.15-.854-.251-.084-.052-.104-.086-.322-.532-.254-.52-.383-.79-.382-.879 0-.083.097-.2.15-.252a1.04 1.04 0 0 0 .12-.185C.59 1.498 1.17 1.014 1.67.844c.166-.057.223-.065.456-.064.227.001.295.01.453.063.496.163 1.084.655 1.321 1.103.04.077.094.16.12.185.054.054.16.147.16.235 0 .084-.086.265-.326.752-.104.212-.21.526-.352.65-.283.15-.55.221-.837.267a3.435 3.435 0 0 1-1.024.01zm.237-1.352a.718.718 0 0 0 .177-.085l.065-.049.101.063c.148.092.32.123.488.088.155-.033.23-.075.317-.175l.061-.071.098.039c.125.05.283.138.436.004.154-.134-.016-.514-.147-.669-.39-.458-.91-.745-1.348-.745-.437 0-.946.279-1.336.732-.296.343-.347.562-.159.682.075.047.312.045.437-.004l.098-.039.061.071a.45.45 0 0 0 .252.16c.132.04.268.04.4-.002zm.08-.476c-.104-.143-.073-.31.048-.569.06-.127.116-.23.125-.23.009 0 .065.103.124.23.123.264.15.435.043.576-.077.103-.266.097-.34-.007zm-.743-.084c-.088-.146-.08-.321.148-.514l.157-.132.022.136c.04.243.054.379-.044.492-.068.08-.226.11-.283.018Zm1.537-.008c-.11-.11-.076-.334-.03-.523.022-.096.025-.095.182.05.185.17.23.286.169.424-.052.117-.238.133-.321.05z"/></svg>