<svg xmlns="http://www.w3.org/2000/svg" width="16" height="16" viewBox="0 0 4.233 4.233"><path style="font-variation-settings:normal;opacity:1;vector-effect:none;fill:#2e3436;fill-opacity:1;stroke:none;stroke-width:.264582px;stroke-linecap:butt;stroke-linejoin:miter;stroke-miterlimit:4;stroke-dasharray:none;stroke-dashoffset:0;stroke-opacity:1;stop-color:#000;stop-opacity:1" d="M2.125.353C1.488.39.996.69.842 1.286c-.018.07-.017.088-.07.095-.16.022-.254-.009-.423.228-.17.237.013.567.34.775.238.056.395-.063.556-.198.01-.017.022-.03.025-.03.003 0 .017.016.03.037.161.225.388.188.597.157.124-.065.173-.197.226-.296.006-.026.013-.047.016-.047.003 0 .008.016.01.036.027.14.144.224.23.307a.478.478 0 0 0 .424.002.576.576 0 0 0 .173-.158.14.14 0 0 1 .03-.039c.004 0 .015.014.025.03.108.155.272.185.419.215.34-.038.49-.212.51-.512.019-.3-.231-.42-.465-.507-.03-.005-.031-.006-.06-.091C3.19.685 2.763.315 2.126.353Zm-.337.868c.04.148-.204.288-.326.32-.121.031-.036-.394.053-.468.177-.062.209.057.273.148Zm.878-.147c.1.088.215.168.024.288-.191.12-.347-.202-.292-.304.054-.102.168-.071.268.016zm-.384 1.54c.086.553-.118 1.135-.242 1.448.178.05.663.079.76-.026.125-.482.083-.962.083-1.399 0-.014-.002-.015-.026-.002a.652.652 0 0 1-.103.032.767.767 0 0 1-.44-.04Zm-.287 0-.049.02a.768.768 0 0 1-.527 0l-.027-.014.006.035c-.038.424.128.932.085 1.316.196.095.47.149.691.085-.04-.468-.139-.953-.177-1.418Zm-.901-.083a1.05 1.05 0 0 1-.51.008c.03.41.065.725.303 1.247.233.194.525.259.784.238-.346-.497-.487-.968-.577-1.493Zm2.088 0c-.037.122-.31 1.369-.464 1.453.113.175.488-.047.656-.112.166-.43.259-.501.32-1.333a.186.186 0 0 0-.056.012 1.052 1.052 0 0 1-.392-.004.347.347 0 0 0-.064-.016Z"/></svg>