<?xml version="1.0" encoding="UTF-8" standalone="no"?>
<svg
   xmlns:dc="http://purl.org/dc/elements/1.1/"
   xmlns:cc="http://creativecommons.org/ns#"
   xmlns:rdf="http://www.w3.org/1999/02/22-rdf-syntax-ns#"
   xmlns:svg="http://www.w3.org/2000/svg"
   xmlns="http://www.w3.org/2000/svg"
   xmlns:sodipodi="http://sodipodi.sourceforge.net/DTD/sodipodi-0.dtd"
   xmlns:inkscape="http://www.inkscape.org/namespaces/inkscape"
   width="4.2333mm"
   height="4.2333mm"
   version="1.1"
   viewBox="0 0 4.2333 4.2333"
   id="svg17725"
   sodipodi:docname="flypie-multimedia-symbolic.svg"
   inkscape:version="1.0.2 (e86c870879, 2021-01-15)">
  <defs
     id="defs17729" />
  <sodipodi:namedview
     pagecolor="#ffffff"
     bordercolor="#666666"
     borderopacity="1"
     objecttolerance="10"
     gridtolerance="10"
     guidetolerance="10"
     inkscape:pageopacity="0"
     inkscape:pageshadow="2"
     inkscape:window-width="1507"
     inkscape:window-height="1049"
     id="namedview17727"
     showgrid="false"
     inkscape:zoom="45.937859"
     inkscape:cx="7.9999374"
     inkscape:cy="7.9999374"
     inkscape:window-x="0"
     inkscape:window-y="32"
     inkscape:window-maximized="0"
     inkscape:current-layer="svg17725" />
  <metadata
     id="metadata17713">
    <rdf:RDF>
      <cc:Work
         rdf:about="">
        <dc:format>image/svg+xml</dc:format>
        <dc:type
           rdf:resource="http://purl.org/dc/dcmitype/StillImage" />
        <dc:title />
      </cc:Work>
    </rdf:RDF>
  </metadata>
  <path
     d="M 1.32246,0.26314 V 2.2061361 C 1.2027376,2.1501986 1.0658968,2.1151868 0.92559,2.1151868 c -0.5083111,0 -0.92603,0.4177189 -0.92603,0.92603 0,0.5083111 0.4177189,0.92603 0.92603,0.92603 0.5054272,0 0.9213469,-0.4133534 0.92603,-0.9177751 2.65e-5,-0.00286 0,-0.0054 0,-0.00827 v -1.98435 H 3.4391 V 2.2061361 C 3.3193776,2.1501986 3.1825368,2.1151868 3.04223,2.1151868 c -0.5083111,0 -0.92603,0.4177189 -0.92603,0.92603 0,0.5083111 0.4177189,0.92603 0.92603,0.92603 0.5025697,0 0.9167432,-0.4089613 0.92603,-0.9094938 1.058e-4,-0.0057 0,-0.010808 0,-0.016536 V 0.26312677 Z"
     color="#000000"
     enable-background="new"
     fill="#2e3436"
     style="text-indent:0;text-decoration:none;text-decoration-line:none;text-transform:none;stroke-width:0.26458"
     id="path17719" />
</svg>
