<?xml version="1.0" encoding="UTF-8" standalone="no"?>
<svg
   xmlns:dc="http://purl.org/dc/elements/1.1/"
   xmlns:cc="http://creativecommons.org/ns#"
   xmlns:rdf="http://www.w3.org/1999/02/22-rdf-syntax-ns#"
   xmlns:svg="http://www.w3.org/2000/svg"
   xmlns="http://www.w3.org/2000/svg"
   xmlns:sodipodi="http://sodipodi.sourceforge.net/DTD/sodipodi-0.dtd"
   xmlns:inkscape="http://www.inkscape.org/namespaces/inkscape"
   width="16"
   height="16"
   version="1.1"
   id="svg881"
   sodipodi:docname="flypie-edit-grandchildren-symbolic.svg"
   inkscape:version="1.0.2 (e86c870879, 2021-01-15)">
  <metadata
     id="metadata887">
    <rdf:RDF>
      <cc:Work
         rdf:about="">
        <dc:format>image/svg+xml</dc:format>
        <dc:type
           rdf:resource="http://purl.org/dc/dcmitype/StillImage" />
        <dc:title></dc:title>
      </cc:Work>
    </rdf:RDF>
  </metadata>
  <defs
     id="defs885" />
  <sodipodi:namedview
     pagecolor="#ffffff"
     bordercolor="#666666"
     borderopacity="1"
     objecttolerance="10"
     gridtolerance="10"
     guidetolerance="10"
     inkscape:pageopacity="0"
     inkscape:pageshadow="2"
     inkscape:window-width="1920"
     inkscape:window-height="1131"
     id="namedview883"
     showgrid="true"
     inkscape:zoom="32.482718"
     inkscape:cx="6.124062"
     inkscape:cy="6.2922701"
     inkscape:window-x="0"
     inkscape:window-y="0"
     inkscape:window-maximized="1"
     inkscape:current-layer="svg881"
     inkscape:document-rotation="0"
     showguides="false"
     inkscape:guide-bbox="true"
     inkscape:snap-bbox="true"
     inkscape:snap-bbox-midpoints="true"
     inkscape:snap-center="true"
     inkscape:snap-global="false">
    <inkscape:grid
       type="xygrid"
       id="grid900" />
  </sodipodi:namedview>
  <path
     d="M 8.0507328,10.782075 C 7.3897841,10.823547 6.7854046,10.603286 6.2387737,10.121201 5.761234,9.5607554 5.5017482,8.9502311 5.46025,8.2888583 5.4141528,7.5541891 5.6666818,6.8743493 6.2176316,6.2495541 6.7642364,5.5517049 7.4045786,5.1791499 8.1393396,5.133047 8.727434,5.0961467 9.3358506,5.3901813 9.9651531,6.0144138 10.59013,6.5656091 10.923009,7.1716023 10.964501,7.8329014 11.079767,9.6699318 10.10868,10.652949 8.0511748,10.782049 Z"
     style="font-style:normal;font-variant:normal;font-weight:normal;font-stretch:normal;font-size:10.5833px;line-height:125%;font-family:'Amatic SC';-inkscape-font-specification:'Amatic SC';letter-spacing:0px;word-spacing:0px;opacity:0.25;fill:#2c2c2c;fill-opacity:1;stroke:none;stroke-width:8.05286px;stroke-linecap:butt;stroke-linejoin:miter;stroke-opacity:1"
     id="path825"
     inkscape:connector-curvature="0"
     sodipodi:nodetypes="ccscscscc" />
  <path
     sodipodi:nodetypes="ccscscscc"
     inkscape:connector-curvature="0"
     id="path832"
     style="font-style:normal;font-variant:normal;font-weight:normal;font-stretch:normal;font-size:10.5833px;line-height:125%;font-family:'Amatic SC';-inkscape-font-specification:'Amatic SC';letter-spacing:0px;word-spacing:0px;opacity:0.25;fill:#2c2c2c;fill-opacity:1;stroke:none;stroke-width:5.43042px;stroke-linecap:butt;stroke-linejoin:miter;stroke-opacity:1"
     d="M 2.877735,3.9338998 C 2.613439,3.7493109 2.4501778,3.4826479 2.3885218,3.1332226 2.378028,2.7750084 2.4626415,2.4640994 2.6472362,2.1998825 2.8523339,1.9063657 3.1544473,1.7241167 3.5535107,1.6531282 3.9731469,1.5528978 4.3296101,1.6055389 4.6232029,1.8107758 4.8582507,1.9748456 5.0004191,2.2714053 5.0508783,2.6995706 5.1193407,3.0988451 5.065696,3.4301662 4.8798572,3.6944742 4.3671065,4.4284944 3.699436,4.508255 2.8773488,3.9336974 Z" />
  <path
     d="M 9.1110113,2.7647036 C 8.8811296,2.6040718 8.7390499,2.3719432 8.6852887,2.0677213 8.6765351,1.7561891 8.7499661,1.4852559 8.9105919,1.2552782 9.0891831,0.99967022 9.3521557,0.84110861 9.699464,0.77960634 c 0.365328,-0.0872124 0.675582,-0.0413919 0.931138,0.13731932 0.204693,0.14263884 0.328815,0.40050544 0.372362,0.77361064 0.0609,0.3473938 0.01197,0.6360276 -0.14867,0.8660786 C 10.40781,3.1955137 9.826782,3.2649771 9.1111935,2.7649318 Z"
     style="font-style:normal;font-variant:normal;font-weight:normal;font-stretch:normal;font-size:10.5833px;line-height:125%;font-family:'Amatic SC';-inkscape-font-specification:'Amatic SC';letter-spacing:0px;word-spacing:0px;opacity:0.25;fill:#2c2c2c;fill-opacity:1;stroke:none;stroke-width:5.24781px;stroke-linecap:butt;stroke-linejoin:miter;stroke-opacity:1"
     id="path834"
     inkscape:connector-curvature="0"
     sodipodi:nodetypes="ccscscscc" />
  <path
     sodipodi:nodetypes="ccscscscc"
     inkscape:connector-curvature="0"
     id="path836"
     style="font-style:normal;font-variant:normal;font-weight:normal;font-stretch:normal;font-size:10.5833px;line-height:125%;font-family:'Amatic SC';-inkscape-font-specification:'Amatic SC';letter-spacing:0px;word-spacing:0px;opacity:0.25;fill:#2c2c2c;fill-opacity:1;stroke:none;stroke-width:5.18558px;stroke-linecap:butt;stroke-linejoin:miter;stroke-opacity:1"
     d="m 13.461127,7.3131349 c -0.306,0.031183 -0.590099,-0.063497 -0.85138,-0.2793682 C 12.379695,6.781214 12.249738,6.5012761 12.219973,6.1949339 12.186619,5.8542927 12.294001,5.5350035 12.54044,5.236536 c 0.243006,-0.3325252 0.53454,-0.5153478 0.875286,-0.5478993 0.272315,-0.023734 0.559543,0.1008615 0.861122,0.3812008 0.298585,0.2463887 0.462468,0.5229594 0.491614,0.8291532 0.07833,0.8513575 -0.354748,1.3224048 -1.307736,1.413677 z" />
  <path
     d="m 11.371684,13.314173 c -0.179573,-0.299179 -0.222376,-0.635007 -0.128972,-1.00725 0.146376,-0.35875 0.369152,-0.627906 0.66872,-0.807265 0.332718,-0.199069 0.711454,-0.245812 1.13688,-0.138967 0.458686,0.08666 0.787634,0.296415 0.986818,0.628878 0.159509,0.266284 0.168829,0.621723 0.02967,1.067005 -0.106816,0.425185 -0.309491,0.727791 -0.608876,0.907072 -0.831357,0.497966 -1.525943,0.281391 -2.083728,-0.649595 z"
     style="font-style:normal;font-variant:normal;font-weight:normal;font-stretch:normal;font-size:10.5833px;line-height:125%;font-family:'Amatic SC';-inkscape-font-specification:'Amatic SC';letter-spacing:0px;word-spacing:0px;opacity:0.25;fill:#2c2c2c;fill-opacity:1;stroke:none;stroke-width:5.87708px;stroke-linecap:butt;stroke-linejoin:miter;stroke-opacity:1"
     id="path838"
     inkscape:connector-curvature="0"
     sodipodi:nodetypes="ccscscscc" />
  <path
     sodipodi:nodetypes="ccscscscc"
     inkscape:connector-curvature="0"
     id="path840"
     style="font-style:normal;font-variant:normal;font-weight:normal;font-stretch:normal;font-size:10.5833px;line-height:125%;font-family:'Amatic SC';-inkscape-font-specification:'Amatic SC';letter-spacing:0px;word-spacing:0px;opacity:0.25;fill:#2c2c2c;fill-opacity:1;stroke:none;stroke-width:6.30119px;stroke-linecap:butt;stroke-linejoin:miter;stroke-opacity:1"
     d="M 6.4476944,14.582582 C 6.7250122,14.331719 6.8743662,14.000731 6.8945361,13.589863 6.8566014,13.176251 6.7121476,12.830356 6.4612779,12.552906 6.1823925,12.244447 5.808277,12.078546 5.3386544,12.055232 c -0.4976431,-0.05438 -0.90038,0.05778 -1.2086028,0.336616 -0.2467991,0.222864 -0.367506,0.584958 -0.3634264,1.085202 -0.020209,0.469415 0.090185,0.843223 0.3410154,1.12061 0.6969291,0.770627 1.4769529,0.765636 2.3400829,-0.01462 z" />
  <path
     sodipodi:nodetypes="ccscscscc"
     inkscape:connector-curvature="0"
     id="path1950"
     style="font-style:normal;font-variant:normal;font-weight:normal;font-stretch:normal;font-size:10.5833px;line-height:125%;font-family:'Amatic SC';-inkscape-font-specification:'Amatic SC';letter-spacing:0px;word-spacing:0px;opacity:0.25;fill:#2c2c2c;fill-opacity:1;stroke:none;stroke-width:5.18558px;stroke-linecap:butt;stroke-linejoin:miter;stroke-opacity:1"
     d="M 2.5013203,10.124362 C 2.1498672,10.160178 1.8235683,10.051433 1.5234784,9.8034977 1.2592527,9.5134313 1.109994,9.1919118 1.075806,8.840066 1.0374949,8.4488265 1.1608339,8.0821108 1.443875,7.7393092 1.7229772,7.3573915 2.0578136,7.1474124 2.4491733,7.110026 2.7619381,7.0827661 3.0918307,7.2258691 3.4382065,7.5478497 3.7811437,7.8308367 3.9693683,8.1484886 4.0028437,8.500164 4.0928016,9.4779808 3.595402,10.018996 2.5008578,10.123826 Z" />
  <g
     id="g2700"
     transform="matrix(1.2326615,0.09274606,-0.09274606,1.2326615,-1.6182862,-1.8482574)"
     style="stroke-width:0.808965">
    <path
       sodipodi:nodetypes="ccscscscc"
       inkscape:connector-curvature="0"
       id="path2685"
       style="font-style:normal;font-variant:normal;font-weight:normal;font-stretch:normal;font-size:10.5833px;line-height:125%;font-family:'Amatic SC';-inkscape-font-specification:'Amatic SC';letter-spacing:0px;word-spacing:0px;fill:#2c2c2c;fill-opacity:1;stroke:none;stroke-width:4.39303px;stroke-linecap:butt;stroke-linejoin:miter;stroke-opacity:1"
       d="m 8.3794634,1.8555321 c -0.08901,-0.062164 -0.143988,-0.1519678 -0.164752,-0.2696437 -0.0035,-0.1206356 0.02496,-0.2253402 0.08713,-0.3143204 0.06907,-0.098847 0.170813,-0.1602234 0.305206,-0.1841302 0.141321,-0.033754 0.261367,-0.016027 0.36024,0.053091 0.07916,0.055254 0.127034,0.155126 0.144028,0.299319 0.02306,0.1344635 0.005,0.2460423 -0.05759,0.3350532 -0.172679,0.2471956 -0.39753,0.2740566 -0.674384,0.080563 z" />
    <path
       d="m 9.6042612,1.4969197 c -0.07742,-0.054096 -0.125265,-0.1322698 -0.14337,-0.2347225 -0.0029,-0.1049145 0.02178,-0.1961566 0.07587,-0.27360599 0.06014,-0.086081 0.148705,-0.1394797 0.265668,-0.1601918 0.1230306,-0.029371 0.2275148,-0.01394 0.3135788,0.046245 0.06893,0.048036 0.110735,0.13487789 0.1254,0.26052839 0.02051,0.1169917 0.004,0.2141947 -0.05007,0.2916689 -0.150363,0.2151616 -0.3460348,0.2385548 -0.5870238,0.070155 z"
       style="font-style:normal;font-variant:normal;font-weight:normal;font-stretch:normal;font-size:10.5833px;line-height:125%;font-family:'Amatic SC';-inkscape-font-specification:'Amatic SC';letter-spacing:0px;word-spacing:0px;fill:#2c2c2c;fill-opacity:1;stroke:none;stroke-width:4.24531px;stroke-linecap:butt;stroke-linejoin:miter;stroke-opacity:1"
       id="path2687"
       inkscape:connector-curvature="0"
       sodipodi:nodetypes="ccscscscc" />
    <path
       sodipodi:nodetypes="ccscscscc"
       inkscape:connector-curvature="0"
       id="path2689"
       style="font-style:normal;font-variant:normal;font-weight:normal;font-stretch:normal;font-size:10.5833px;line-height:125%;font-family:'Amatic SC';-inkscape-font-specification:'Amatic SC';letter-spacing:0px;word-spacing:0px;fill:#2c2c2c;fill-opacity:1;stroke:none;stroke-width:4.19496px;stroke-linecap:butt;stroke-linejoin:miter;stroke-opacity:1"
       d="m 10.720872,2.6079242 c -0.103052,0.010501 -0.198728,-0.021384 -0.286719,-0.094083 -0.07748,-0.085052 -0.12124,-0.1793266 -0.131264,-0.2824934 -0.01123,-0.1147175 0.02493,-0.2222443 0.107923,-0.3227591 0.08184,-0.1119843 0.180017,-0.1735535 0.29477,-0.1845158 0.09171,-0.00799 0.188437,0.033967 0.29,0.1283768 0.100554,0.082976 0.155745,0.1761168 0.16556,0.2792335 0.02638,0.2867113 -0.119468,0.4453457 -0.440405,0.4760833 z" />
    <path
       d="m 9.8265206,3.5545836 c -0.06048,-0.1007545 -0.07489,-0.2138513 -0.04343,-0.3392115 0.04929,-0.1208159 0.1243185,-0.2114594 0.2252034,-0.2718622 0.11205,-0.06704 0.239596,-0.082782 0.382867,-0.0468 0.154471,0.029184 0.265251,0.099824 0.33233,0.211787 0.05372,0.089677 0.05686,0.2093778 0.01,0.3593352 -0.03597,0.1431894 -0.104228,0.2450977 -0.205051,0.3054738 -0.279976,0.1676998 -0.513891,0.094764 -0.7017354,-0.2187636 z"
       style="font-style:normal;font-variant:normal;font-weight:normal;font-stretch:normal;font-size:10.5833px;line-height:125%;font-family:'Amatic SC';-inkscape-font-specification:'Amatic SC';letter-spacing:0px;word-spacing:0px;fill:#2c2c2c;fill-opacity:1;stroke:none;stroke-width:4.75436px;stroke-linecap:butt;stroke-linejoin:miter;stroke-opacity:1"
       id="path2691"
       inkscape:connector-curvature="0"
       sodipodi:nodetypes="ccscscscc" />
    <path
       sodipodi:nodetypes="ccscscscc"
       inkscape:connector-curvature="0"
       id="path2693"
       style="font-style:normal;font-variant:normal;font-weight:normal;font-stretch:normal;font-size:10.5833px;line-height:125%;font-family:'Amatic SC';-inkscape-font-specification:'Amatic SC';letter-spacing:0px;word-spacing:0px;fill:#2c2c2c;fill-opacity:1;stroke:none;stroke-width:4.19496px;stroke-linecap:butt;stroke-linejoin:miter;stroke-opacity:1"
       d="m 8.4519013,3.468973 c -0.118358,0.012062 -0.228246,-0.02456 -0.329307,-0.1080574 -0.08898,-0.097685 -0.139249,-0.2059635 -0.150762,-0.3244544 -0.0129,-0.1317575 0.02863,-0.2552562 0.123954,-0.3707013 0.09399,-0.1286183 0.206756,-0.1993328 0.338554,-0.2119235 0.10533,-0.00918 0.216427,0.039013 0.333076,0.1474457 0.115491,0.095301 0.178879,0.2022769 0.190153,0.3207104 0.03029,0.3292989 -0.137214,0.5114964 -0.505823,0.5468 z" />
  </g>
  <g
     id="g2712"
     transform="matrix(0.88509302,1.0337556,-1.0337556,0.88509302,7.4900999,-5.8062193)"
     style="stroke-width:0.734809">
    <path
       sodipodi:nodetypes="ccscscscc"
       inkscape:connector-curvature="0"
       id="path2702"
       style="font-style:normal;font-variant:normal;font-weight:normal;font-stretch:normal;font-size:10.5833px;line-height:125%;font-family:'Amatic SC';-inkscape-font-specification:'Amatic SC';letter-spacing:0px;word-spacing:0px;fill:#2c2c2c;fill-opacity:1;stroke:none;stroke-width:3.99032px;stroke-linecap:butt;stroke-linejoin:miter;stroke-opacity:1"
       d="m 8.3794634,1.8555321 c -0.08901,-0.062164 -0.143988,-0.1519678 -0.164752,-0.2696437 -0.0035,-0.1206356 0.02496,-0.2253402 0.08713,-0.3143204 0.06907,-0.098847 0.170813,-0.1602234 0.305206,-0.1841302 0.141321,-0.033754 0.261367,-0.016027 0.36024,0.053091 0.07916,0.055254 0.127034,0.155126 0.144028,0.299319 0.02306,0.1344635 0.005,0.2460423 -0.05759,0.3350532 -0.172679,0.2471956 -0.39753,0.2740566 -0.674384,0.080563 z" />
    <path
       d="m 9.6042612,1.4969197 c -0.07742,-0.054096 -0.125265,-0.1322698 -0.14337,-0.2347225 -0.0029,-0.1049145 0.02178,-0.1961566 0.07587,-0.27360599 0.06014,-0.086081 0.148705,-0.1394797 0.265668,-0.1601918 0.1230306,-0.029371 0.2275148,-0.01394 0.3135788,0.046245 0.06893,0.048036 0.110735,0.13487789 0.1254,0.26052839 0.02051,0.1169917 0.004,0.2141947 -0.05007,0.2916689 -0.150363,0.2151616 -0.3460348,0.2385548 -0.5870238,0.070155 z"
       style="font-style:normal;font-variant:normal;font-weight:normal;font-stretch:normal;font-size:10.5833px;line-height:125%;font-family:'Amatic SC';-inkscape-font-specification:'Amatic SC';letter-spacing:0px;word-spacing:0px;fill:#2c2c2c;fill-opacity:1;stroke:none;stroke-width:3.85614px;stroke-linecap:butt;stroke-linejoin:miter;stroke-opacity:1"
       id="path2704"
       inkscape:connector-curvature="0"
       sodipodi:nodetypes="ccscscscc" />
    <path
       sodipodi:nodetypes="ccscscscc"
       inkscape:connector-curvature="0"
       id="path2706"
       style="font-style:normal;font-variant:normal;font-weight:normal;font-stretch:normal;font-size:10.5833px;line-height:125%;font-family:'Amatic SC';-inkscape-font-specification:'Amatic SC';letter-spacing:0px;word-spacing:0px;fill:#2c2c2c;fill-opacity:1;stroke:none;stroke-width:3.81042px;stroke-linecap:butt;stroke-linejoin:miter;stroke-opacity:1"
       d="m 10.720872,2.6079242 c -0.103052,0.010501 -0.198728,-0.021384 -0.286719,-0.094083 -0.07748,-0.085052 -0.12124,-0.1793266 -0.131264,-0.2824934 -0.01123,-0.1147175 0.02493,-0.2222443 0.107923,-0.3227591 0.08184,-0.1119843 0.180017,-0.1735535 0.29477,-0.1845158 0.09171,-0.00799 0.188437,0.033967 0.29,0.1283768 0.100554,0.082976 0.155745,0.1761168 0.16556,0.2792335 0.02638,0.2867113 -0.119468,0.4453457 -0.440405,0.4760833 z" />
    <path
       d="m 9.8265206,3.5545836 c -0.06048,-0.1007545 -0.07489,-0.2138513 -0.04343,-0.3392115 0.04929,-0.1208159 0.1243185,-0.2114594 0.2252034,-0.2718622 0.11205,-0.06704 0.239596,-0.082782 0.382867,-0.0468 0.154471,0.029184 0.265251,0.099824 0.33233,0.211787 0.05372,0.089677 0.05686,0.2093778 0.01,0.3593352 -0.03597,0.1431894 -0.104228,0.2450977 -0.205051,0.3054738 -0.279976,0.1676998 -0.513891,0.094764 -0.7017354,-0.2187636 z"
       style="font-style:normal;font-variant:normal;font-weight:normal;font-stretch:normal;font-size:10.5833px;line-height:125%;font-family:'Amatic SC';-inkscape-font-specification:'Amatic SC';letter-spacing:0px;word-spacing:0px;fill:#2c2c2c;fill-opacity:1;stroke:none;stroke-width:4.31853px;stroke-linecap:butt;stroke-linejoin:miter;stroke-opacity:1"
       id="path2708"
       inkscape:connector-curvature="0"
       sodipodi:nodetypes="ccscscscc" />
    <path
       sodipodi:nodetypes="ccscscscc"
       inkscape:connector-curvature="0"
       id="path2710"
       style="font-style:normal;font-variant:normal;font-weight:normal;font-stretch:normal;font-size:10.5833px;line-height:125%;font-family:'Amatic SC';-inkscape-font-specification:'Amatic SC';letter-spacing:0px;word-spacing:0px;fill:#2c2c2c;fill-opacity:1;stroke:none;stroke-width:3.81042px;stroke-linecap:butt;stroke-linejoin:miter;stroke-opacity:1"
       d="m 8.4519013,3.468973 c -0.118358,0.012062 -0.228246,-0.02456 -0.329307,-0.1080574 -0.08898,-0.097685 -0.139249,-0.2059635 -0.150762,-0.3244544 -0.0129,-0.1317575 0.02863,-0.2552562 0.123954,-0.3707013 0.09399,-0.1286183 0.206756,-0.1993328 0.338554,-0.2119235 0.10533,-0.00918 0.216427,0.039013 0.333076,0.1474457 0.115491,0.095301 0.178879,0.2022769 0.190153,0.3207104 0.03029,0.3292989 -0.137214,0.5114964 -0.505823,0.5468 z" />
  </g>
  <g
     id="g2724"
     transform="matrix(-0.8972057,1.299736,-1.299736,-0.8972057,24.196946,2.5508828)"
     style="stroke-width:0.633178">
    <path
       sodipodi:nodetypes="ccscscscc"
       inkscape:connector-curvature="0"
       id="path2714"
       style="font-style:normal;font-variant:normal;font-weight:normal;font-stretch:normal;font-size:10.5833px;line-height:125%;font-family:'Amatic SC';-inkscape-font-specification:'Amatic SC';letter-spacing:0px;word-spacing:0px;fill:#2c2c2c;fill-opacity:1;stroke:none;stroke-width:3.43843px;stroke-linecap:butt;stroke-linejoin:miter;stroke-opacity:1"
       d="m 8.3794634,1.8555321 c -0.08901,-0.062164 -0.143988,-0.1519678 -0.164752,-0.2696437 -0.0035,-0.1206356 0.02496,-0.2253402 0.08713,-0.3143204 0.06907,-0.098847 0.170813,-0.1602234 0.305206,-0.1841302 0.141321,-0.033754 0.261367,-0.016027 0.36024,0.053091 0.07916,0.055254 0.127034,0.155126 0.144028,0.299319 0.02306,0.1344635 0.005,0.2460423 -0.05759,0.3350532 -0.172679,0.2471956 -0.39753,0.2740566 -0.674384,0.080563 z" />
    <path
       d="m 9.6042612,1.4969197 c -0.07742,-0.054096 -0.125265,-0.1322698 -0.14337,-0.2347225 -0.0029,-0.1049145 0.02178,-0.1961566 0.07587,-0.27360599 0.06014,-0.086081 0.148705,-0.1394797 0.265668,-0.1601918 0.1230306,-0.029371 0.2275148,-0.01394 0.3135788,0.046245 0.06893,0.048036 0.110735,0.13487789 0.1254,0.26052839 0.02051,0.1169917 0.004,0.2141947 -0.05007,0.2916689 -0.150363,0.2151616 -0.3460348,0.2385548 -0.5870238,0.070155 z"
       style="font-style:normal;font-variant:normal;font-weight:normal;font-stretch:normal;font-size:10.5833px;line-height:125%;font-family:'Amatic SC';-inkscape-font-specification:'Amatic SC';letter-spacing:0px;word-spacing:0px;fill:#2c2c2c;fill-opacity:1;stroke:none;stroke-width:3.32281px;stroke-linecap:butt;stroke-linejoin:miter;stroke-opacity:1"
       id="path2716"
       inkscape:connector-curvature="0"
       sodipodi:nodetypes="ccscscscc" />
    <path
       sodipodi:nodetypes="ccscscscc"
       inkscape:connector-curvature="0"
       id="path2718"
       style="font-style:normal;font-variant:normal;font-weight:normal;font-stretch:normal;font-size:10.5833px;line-height:125%;font-family:'Amatic SC';-inkscape-font-specification:'Amatic SC';letter-spacing:0px;word-spacing:0px;fill:#2c2c2c;fill-opacity:1;stroke:none;stroke-width:3.2834px;stroke-linecap:butt;stroke-linejoin:miter;stroke-opacity:1"
       d="m 10.720872,2.6079242 c -0.103052,0.010501 -0.198728,-0.021384 -0.286719,-0.094083 -0.07748,-0.085052 -0.12124,-0.1793266 -0.131264,-0.2824934 -0.01123,-0.1147175 0.02493,-0.2222443 0.107923,-0.3227591 0.08184,-0.1119843 0.180017,-0.1735535 0.29477,-0.1845158 0.09171,-0.00799 0.188437,0.033967 0.29,0.1283768 0.100554,0.082976 0.155745,0.1761168 0.16556,0.2792335 0.02638,0.2867113 -0.119468,0.4453457 -0.440405,0.4760833 z" />
    <path
       d="m 9.8265206,3.5545836 c -0.06048,-0.1007545 -0.07489,-0.2138513 -0.04343,-0.3392115 0.04929,-0.1208159 0.1243185,-0.2114594 0.2252034,-0.2718622 0.11205,-0.06704 0.239596,-0.082782 0.382867,-0.0468 0.154471,0.029184 0.265251,0.099824 0.33233,0.211787 0.05372,0.089677 0.05686,0.2093778 0.01,0.3593352 -0.03597,0.1431894 -0.104228,0.2450977 -0.205051,0.3054738 -0.279976,0.1676998 -0.513891,0.094764 -0.7017354,-0.2187636 z"
       style="font-style:normal;font-variant:normal;font-weight:normal;font-stretch:normal;font-size:10.5833px;line-height:125%;font-family:'Amatic SC';-inkscape-font-specification:'Amatic SC';letter-spacing:0px;word-spacing:0px;fill:#2c2c2c;fill-opacity:1;stroke:none;stroke-width:3.72124px;stroke-linecap:butt;stroke-linejoin:miter;stroke-opacity:1"
       id="path2720"
       inkscape:connector-curvature="0"
       sodipodi:nodetypes="ccscscscc" />
    <path
       sodipodi:nodetypes="ccscscscc"
       inkscape:connector-curvature="0"
       id="path2722"
       style="font-style:normal;font-variant:normal;font-weight:normal;font-stretch:normal;font-size:10.5833px;line-height:125%;font-family:'Amatic SC';-inkscape-font-specification:'Amatic SC';letter-spacing:0px;word-spacing:0px;fill:#2c2c2c;fill-opacity:1;stroke:none;stroke-width:3.2834px;stroke-linecap:butt;stroke-linejoin:miter;stroke-opacity:1"
       d="m 8.4519013,3.468973 c -0.118358,0.012062 -0.228246,-0.02456 -0.329307,-0.1080574 -0.08898,-0.097685 -0.139249,-0.2059635 -0.150762,-0.3244544 -0.0129,-0.1317575 0.02863,-0.2552562 0.123954,-0.3707013 0.09399,-0.1286183 0.206756,-0.1993328 0.338554,-0.2119235 0.10533,-0.00918 0.216427,0.039013 0.333076,0.1474457 0.115491,0.095301 0.178879,0.2022769 0.190153,0.3207104 0.03029,0.3292989 -0.137214,0.5114964 -0.505823,0.5468 z" />
  </g>
  <g
     id="g2736"
     transform="matrix(-1.4186866,-0.47542627,0.47542627,-1.4186866,17.467235,21.570442)"
     style="stroke-width:0.668346">
    <path
       sodipodi:nodetypes="ccscscscc"
       inkscape:connector-curvature="0"
       id="path2726"
       style="font-style:normal;font-variant:normal;font-weight:normal;font-stretch:normal;font-size:10.5833px;line-height:125%;font-family:'Amatic SC';-inkscape-font-specification:'Amatic SC';letter-spacing:0px;word-spacing:0px;fill:#2c2c2c;fill-opacity:1;stroke:none;stroke-width:3.62941px;stroke-linecap:butt;stroke-linejoin:miter;stroke-opacity:1"
       d="m 8.3794634,1.8555321 c -0.08901,-0.062164 -0.143988,-0.1519678 -0.164752,-0.2696437 -0.0035,-0.1206356 0.02496,-0.2253402 0.08713,-0.3143204 0.06907,-0.098847 0.170813,-0.1602234 0.305206,-0.1841302 0.141321,-0.033754 0.261367,-0.016027 0.36024,0.053091 0.07916,0.055254 0.127034,0.155126 0.144028,0.299319 0.02306,0.1344635 0.005,0.2460423 -0.05759,0.3350532 -0.172679,0.2471956 -0.39753,0.2740566 -0.674384,0.080563 z" />
    <path
       d="m 9.6042612,1.4969197 c -0.07742,-0.054096 -0.125265,-0.1322698 -0.14337,-0.2347225 -0.0029,-0.1049145 0.02178,-0.1961566 0.07587,-0.27360599 0.06014,-0.086081 0.148705,-0.1394797 0.265668,-0.1601918 0.1230306,-0.029371 0.2275148,-0.01394 0.3135788,0.046245 0.06893,0.048036 0.110735,0.13487789 0.1254,0.26052839 0.02051,0.1169917 0.004,0.2141947 -0.05007,0.2916689 -0.150363,0.2151616 -0.3460348,0.2385548 -0.5870238,0.070155 z"
       style="font-style:normal;font-variant:normal;font-weight:normal;font-stretch:normal;font-size:10.5833px;line-height:125%;font-family:'Amatic SC';-inkscape-font-specification:'Amatic SC';letter-spacing:0px;word-spacing:0px;fill:#2c2c2c;fill-opacity:1;stroke:none;stroke-width:3.50736px;stroke-linecap:butt;stroke-linejoin:miter;stroke-opacity:1"
       id="path2728"
       inkscape:connector-curvature="0"
       sodipodi:nodetypes="ccscscscc" />
    <path
       sodipodi:nodetypes="ccscscscc"
       inkscape:connector-curvature="0"
       id="path2730"
       style="font-style:normal;font-variant:normal;font-weight:normal;font-stretch:normal;font-size:10.5833px;line-height:125%;font-family:'Amatic SC';-inkscape-font-specification:'Amatic SC';letter-spacing:0px;word-spacing:0px;fill:#2c2c2c;fill-opacity:1;stroke:none;stroke-width:3.46577px;stroke-linecap:butt;stroke-linejoin:miter;stroke-opacity:1"
       d="m 10.720872,2.6079242 c -0.103052,0.010501 -0.198728,-0.021384 -0.286719,-0.094083 -0.07748,-0.085052 -0.12124,-0.1793266 -0.131264,-0.2824934 -0.01123,-0.1147175 0.02493,-0.2222443 0.107923,-0.3227591 0.08184,-0.1119843 0.180017,-0.1735535 0.29477,-0.1845158 0.09171,-0.00799 0.188437,0.033967 0.29,0.1283768 0.100554,0.082976 0.155745,0.1761168 0.16556,0.2792335 0.02638,0.2867113 -0.119468,0.4453457 -0.440405,0.4760833 z" />
    <path
       d="m 9.8265206,3.5545836 c -0.06048,-0.1007545 -0.07489,-0.2138513 -0.04343,-0.3392115 0.04929,-0.1208159 0.1243185,-0.2114594 0.2252034,-0.2718622 0.11205,-0.06704 0.239596,-0.082782 0.382867,-0.0468 0.154471,0.029184 0.265251,0.099824 0.33233,0.211787 0.05372,0.089677 0.05686,0.2093778 0.01,0.3593352 -0.03597,0.1431894 -0.104228,0.2450977 -0.205051,0.3054738 -0.279976,0.1676998 -0.513891,0.094764 -0.7017354,-0.2187636 z"
       style="font-style:normal;font-variant:normal;font-weight:normal;font-stretch:normal;font-size:10.5833px;line-height:125%;font-family:'Amatic SC';-inkscape-font-specification:'Amatic SC';letter-spacing:0px;word-spacing:0px;fill:#2c2c2c;fill-opacity:1;stroke:none;stroke-width:3.92792px;stroke-linecap:butt;stroke-linejoin:miter;stroke-opacity:1"
       id="path2732"
       inkscape:connector-curvature="0"
       sodipodi:nodetypes="ccscscscc" />
    <path
       sodipodi:nodetypes="ccscscscc"
       inkscape:connector-curvature="0"
       id="path2734"
       style="font-style:normal;font-variant:normal;font-weight:normal;font-stretch:normal;font-size:10.5833px;line-height:125%;font-family:'Amatic SC';-inkscape-font-specification:'Amatic SC';letter-spacing:0px;word-spacing:0px;fill:#2c2c2c;fill-opacity:1;stroke:none;stroke-width:3.46577px;stroke-linecap:butt;stroke-linejoin:miter;stroke-opacity:1"
       d="m 8.4519013,3.468973 c -0.118358,0.012062 -0.228246,-0.02456 -0.329307,-0.1080574 -0.08898,-0.097685 -0.139249,-0.2059635 -0.150762,-0.3244544 -0.0129,-0.1317575 0.02863,-0.2552562 0.123954,-0.3707013 0.09399,-0.1286183 0.206756,-0.1993328 0.338554,-0.2119235 0.10533,-0.00918 0.216427,0.039013 0.333076,0.1474457 0.115491,0.095301 0.178879,0.2022769 0.190153,0.3207104 0.03029,0.3292989 -0.137214,0.5114964 -0.505823,0.5468 z" />
  </g>
  <g
     id="g2748"
     transform="matrix(-0.39860706,-1.3961936,1.3961936,-0.39860706,2.9904478,22.916624)"
     style="stroke-width:0.688715">
    <path
       sodipodi:nodetypes="ccscscscc"
       inkscape:connector-curvature="0"
       id="path2738"
       style="font-style:normal;font-variant:normal;font-weight:normal;font-stretch:normal;font-size:10.5833px;line-height:125%;font-family:'Amatic SC';-inkscape-font-specification:'Amatic SC';letter-spacing:0px;word-spacing:0px;fill:#2c2c2c;fill-opacity:1;stroke:none;stroke-width:3.74002px;stroke-linecap:butt;stroke-linejoin:miter;stroke-opacity:1"
       d="m 8.3794634,1.8555321 c -0.08901,-0.062164 -0.143988,-0.1519678 -0.164752,-0.2696437 -0.0035,-0.1206356 0.02496,-0.2253402 0.08713,-0.3143204 0.06907,-0.098847 0.170813,-0.1602234 0.305206,-0.1841302 0.141321,-0.033754 0.261367,-0.016027 0.36024,0.053091 0.07916,0.055254 0.127034,0.155126 0.144028,0.299319 0.02306,0.1344635 0.005,0.2460423 -0.05759,0.3350532 -0.172679,0.2471956 -0.39753,0.2740566 -0.674384,0.080563 z" />
    <path
       d="m 9.6042612,1.4969197 c -0.07742,-0.054096 -0.125265,-0.1322698 -0.14337,-0.2347225 -0.0029,-0.1049145 0.02178,-0.1961566 0.07587,-0.27360599 0.06014,-0.086081 0.148705,-0.1394797 0.265668,-0.1601918 0.1230306,-0.029371 0.2275148,-0.01394 0.3135788,0.046245 0.06893,0.048036 0.110735,0.13487789 0.1254,0.26052839 0.02051,0.1169917 0.004,0.2141947 -0.05007,0.2916689 -0.150363,0.2151616 -0.3460348,0.2385548 -0.5870238,0.070155 z"
       style="font-style:normal;font-variant:normal;font-weight:normal;font-stretch:normal;font-size:10.5833px;line-height:125%;font-family:'Amatic SC';-inkscape-font-specification:'Amatic SC';letter-spacing:0px;word-spacing:0px;fill:#2c2c2c;fill-opacity:1;stroke:none;stroke-width:3.61425px;stroke-linecap:butt;stroke-linejoin:miter;stroke-opacity:1"
       id="path2740"
       inkscape:connector-curvature="0"
       sodipodi:nodetypes="ccscscscc" />
    <path
       sodipodi:nodetypes="ccscscscc"
       inkscape:connector-curvature="0"
       id="path2742"
       style="font-style:normal;font-variant:normal;font-weight:normal;font-stretch:normal;font-size:10.5833px;line-height:125%;font-family:'Amatic SC';-inkscape-font-specification:'Amatic SC';letter-spacing:0px;word-spacing:0px;fill:#2c2c2c;fill-opacity:1;stroke:none;stroke-width:3.57139px;stroke-linecap:butt;stroke-linejoin:miter;stroke-opacity:1"
       d="m 10.720872,2.6079242 c -0.103052,0.010501 -0.198728,-0.021384 -0.286719,-0.094083 -0.07748,-0.085052 -0.12124,-0.1793266 -0.131264,-0.2824934 -0.01123,-0.1147175 0.02493,-0.2222443 0.107923,-0.3227591 0.08184,-0.1119843 0.180017,-0.1735535 0.29477,-0.1845158 0.09171,-0.00799 0.188437,0.033967 0.29,0.1283768 0.100554,0.082976 0.155745,0.1761168 0.16556,0.2792335 0.02638,0.2867113 -0.119468,0.4453457 -0.440405,0.4760833 z" />
    <path
       d="m 9.8265206,3.5545836 c -0.06048,-0.1007545 -0.07489,-0.2138513 -0.04343,-0.3392115 0.04929,-0.1208159 0.1243185,-0.2114594 0.2252034,-0.2718622 0.11205,-0.06704 0.239596,-0.082782 0.382867,-0.0468 0.154471,0.029184 0.265251,0.099824 0.33233,0.211787 0.05372,0.089677 0.05686,0.2093778 0.01,0.3593352 -0.03597,0.1431894 -0.104228,0.2450977 -0.205051,0.3054738 -0.279976,0.1676998 -0.513891,0.094764 -0.7017354,-0.2187636 z"
       style="font-style:normal;font-variant:normal;font-weight:normal;font-stretch:normal;font-size:10.5833px;line-height:125%;font-family:'Amatic SC';-inkscape-font-specification:'Amatic SC';letter-spacing:0px;word-spacing:0px;fill:#2c2c2c;fill-opacity:1;stroke:none;stroke-width:4.04763px;stroke-linecap:butt;stroke-linejoin:miter;stroke-opacity:1"
       id="path2744"
       inkscape:connector-curvature="0"
       sodipodi:nodetypes="ccscscscc" />
    <path
       sodipodi:nodetypes="ccscscscc"
       inkscape:connector-curvature="0"
       id="path2746"
       style="font-style:normal;font-variant:normal;font-weight:normal;font-stretch:normal;font-size:10.5833px;line-height:125%;font-family:'Amatic SC';-inkscape-font-specification:'Amatic SC';letter-spacing:0px;word-spacing:0px;fill:#2c2c2c;fill-opacity:1;stroke:none;stroke-width:3.57139px;stroke-linecap:butt;stroke-linejoin:miter;stroke-opacity:1"
       d="m 8.4519013,3.468973 c -0.118358,0.012062 -0.228246,-0.02456 -0.329307,-0.1080574 -0.08898,-0.097685 -0.139249,-0.2059635 -0.150762,-0.3244544 -0.0129,-0.1317575 0.02863,-0.2552562 0.123954,-0.3707013 0.09399,-0.1286183 0.206756,-0.1993328 0.338554,-0.2119235 0.10533,-0.00918 0.216427,0.039013 0.333076,0.1474457 0.115491,0.095301 0.178879,0.2022769 0.190153,0.3207104 0.03029,0.3292989 -0.137214,0.5114964 -0.505823,0.5468 z" />
  </g>
  <g
     id="g2760"
     transform="matrix(0.66451729,-1.1876268,1.1876268,0.66451729,-5.5165161,12.773569)"
     style="stroke-width:0.734809">
    <path
       sodipodi:nodetypes="ccscscscc"
       inkscape:connector-curvature="0"
       id="path2750"
       style="font-style:normal;font-variant:normal;font-weight:normal;font-stretch:normal;font-size:10.5833px;line-height:125%;font-family:'Amatic SC';-inkscape-font-specification:'Amatic SC';letter-spacing:0px;word-spacing:0px;fill:#2c2c2c;fill-opacity:1;stroke:none;stroke-width:3.99032px;stroke-linecap:butt;stroke-linejoin:miter;stroke-opacity:1"
       d="m 8.3794634,1.8555321 c -0.08901,-0.062164 -0.143988,-0.1519678 -0.164752,-0.2696437 -0.0035,-0.1206356 0.02496,-0.2253402 0.08713,-0.3143204 0.06907,-0.098847 0.170813,-0.1602234 0.305206,-0.1841302 0.141321,-0.033754 0.261367,-0.016027 0.36024,0.053091 0.07916,0.055254 0.127034,0.155126 0.144028,0.299319 0.02306,0.1344635 0.005,0.2460423 -0.05759,0.3350532 -0.172679,0.2471956 -0.39753,0.2740566 -0.674384,0.080563 z" />
    <path
       d="m 9.6042612,1.4969197 c -0.07742,-0.054096 -0.125265,-0.1322698 -0.14337,-0.2347225 -0.0029,-0.1049145 0.02178,-0.1961566 0.07587,-0.27360599 0.06014,-0.086081 0.148705,-0.1394797 0.265668,-0.1601918 0.1230306,-0.029371 0.2275148,-0.01394 0.3135788,0.046245 0.06893,0.048036 0.110735,0.13487789 0.1254,0.26052839 0.02051,0.1169917 0.004,0.2141947 -0.05007,0.2916689 -0.150363,0.2151616 -0.3460348,0.2385548 -0.5870238,0.070155 z"
       style="font-style:normal;font-variant:normal;font-weight:normal;font-stretch:normal;font-size:10.5833px;line-height:125%;font-family:'Amatic SC';-inkscape-font-specification:'Amatic SC';letter-spacing:0px;word-spacing:0px;fill:#2c2c2c;fill-opacity:1;stroke:none;stroke-width:3.85614px;stroke-linecap:butt;stroke-linejoin:miter;stroke-opacity:1"
       id="path2752"
       inkscape:connector-curvature="0"
       sodipodi:nodetypes="ccscscscc" />
    <path
       sodipodi:nodetypes="ccscscscc"
       inkscape:connector-curvature="0"
       id="path2754"
       style="font-style:normal;font-variant:normal;font-weight:normal;font-stretch:normal;font-size:10.5833px;line-height:125%;font-family:'Amatic SC';-inkscape-font-specification:'Amatic SC';letter-spacing:0px;word-spacing:0px;fill:#2c2c2c;fill-opacity:1;stroke:none;stroke-width:3.81042px;stroke-linecap:butt;stroke-linejoin:miter;stroke-opacity:1"
       d="m 10.720872,2.6079242 c -0.103052,0.010501 -0.198728,-0.021384 -0.286719,-0.094083 -0.07748,-0.085052 -0.12124,-0.1793266 -0.131264,-0.2824934 -0.01123,-0.1147175 0.02493,-0.2222443 0.107923,-0.3227591 0.08184,-0.1119843 0.180017,-0.1735535 0.29477,-0.1845158 0.09171,-0.00799 0.188437,0.033967 0.29,0.1283768 0.100554,0.082976 0.155745,0.1761168 0.16556,0.2792335 0.02638,0.2867113 -0.119468,0.4453457 -0.440405,0.4760833 z" />
    <path
       d="m 9.8265206,3.5545836 c -0.06048,-0.1007545 -0.07489,-0.2138513 -0.04343,-0.3392115 0.04929,-0.1208159 0.1243185,-0.2114594 0.2252034,-0.2718622 0.11205,-0.06704 0.239596,-0.082782 0.382867,-0.0468 0.154471,0.029184 0.265251,0.099824 0.33233,0.211787 0.05372,0.089677 0.05686,0.2093778 0.01,0.3593352 -0.03597,0.1431894 -0.104228,0.2450977 -0.205051,0.3054738 -0.279976,0.1676998 -0.513891,0.094764 -0.7017354,-0.2187636 z"
       style="font-style:normal;font-variant:normal;font-weight:normal;font-stretch:normal;font-size:10.5833px;line-height:125%;font-family:'Amatic SC';-inkscape-font-specification:'Amatic SC';letter-spacing:0px;word-spacing:0px;fill:#2c2c2c;fill-opacity:1;stroke:none;stroke-width:4.31853px;stroke-linecap:butt;stroke-linejoin:miter;stroke-opacity:1"
       id="path2756"
       inkscape:connector-curvature="0"
       sodipodi:nodetypes="ccscscscc" />
    <path
       sodipodi:nodetypes="ccscscscc"
       inkscape:connector-curvature="0"
       id="path2758"
       style="font-style:normal;font-variant:normal;font-weight:normal;font-stretch:normal;font-size:10.5833px;line-height:125%;font-family:'Amatic SC';-inkscape-font-specification:'Amatic SC';letter-spacing:0px;word-spacing:0px;fill:#2c2c2c;fill-opacity:1;stroke:none;stroke-width:3.81042px;stroke-linecap:butt;stroke-linejoin:miter;stroke-opacity:1"
       d="m 8.4519013,3.468973 c -0.118358,0.012062 -0.228246,-0.02456 -0.329307,-0.1080574 -0.08898,-0.097685 -0.139249,-0.2059635 -0.150762,-0.3244544 -0.0129,-0.1317575 0.02863,-0.2552562 0.123954,-0.3707013 0.09399,-0.1286183 0.206756,-0.1993328 0.338554,-0.2119235 0.10533,-0.00918 0.216427,0.039013 0.333076,0.1474457 0.115491,0.095301 0.178879,0.2022769 0.190153,0.3207104 0.03029,0.3292989 -0.137214,0.5114964 -0.505823,0.5468 z" />
  </g>
</svg>
