<svg xmlns="http://www.w3.org/2000/svg" width="16" height="16" viewBox="0 0 4.233 4.233"><path style="font-variation-settings:normal;opacity:1;vector-effect:none;fill:#2e3436;fill-opacity:1;stroke:none;stroke-width:.264582px;stroke-linecap:butt;stroke-linejoin:miter;stroke-miterlimit:4;stroke-dasharray:none;stroke-dashoffset:0;stroke-opacity:1;stop-color:#000;stop-opacity:1" d="M2.19.015C.568.015.006 1.094.013 2.096c.002.28-.026.782.2.816.293.818 1.17 1.329 1.939 1.303.802-.026 1.501-.343 1.936-1.488.127-.057.146-.354.131-.699C4.175 1.016 3.492.015 2.189.015Zm-.183.351c.138 0 .25.116.25.259a.254.254 0 0 1-.25.259.254.254 0 0 1-.249-.259c0-.143.111-.259.25-.259ZM.972.592a.16.16 0 0 1 .157.163.16.16 0 0 1-.157.163.16.16 0 0 1-.157-.163c0-.09.07-.163.157-.163Zm1.967.33h.003a.2.2 0 0 1 .195.203.2.2 0 0 1-.195.203.2.2 0 0 1-.195-.203c0-.11.085-.202.192-.203Zm-.792.366c.33 0 .702.384.7.726-.003.35-.39.738-.726.732-.325-.006-.677-.394-.674-.732.004-.342.37-.726.7-.726Zm1.41.142h.003a.2.2 0 0 1 .195.203.2.2 0 0 1-.195.203.2.2 0 0 1-.195-.203c0-.111.086-.192.192-.203Zm-2.68.156H.88a.2.2 0 0 1 .195.203.2.2 0 0 1-.195.202.2.2 0 0 1-.196-.202.2.2 0 0 1 .193-.203ZM3.501 2.6c.127-.033.204.072.362.155-.226.831-.992 1.298-1.698 1.318-.688.02-1.697-.644-1.72-1.185.107-.214.322-.314.506-.267.235.06.197.521.422.614.22.091.465-.188.696-.139.263.056.404.517.667.464.365-.252.377-.86.765-.96Z"/></svg>