<?xml version="1.0" encoding="UTF-8" standalone="no"?>
<svg
   width="16"
   height="16"
   viewBox="0 0 4.233 4.233"
   version="1.1"
   id="svg6"
   xmlns="http://www.w3.org/2000/svg"
   xmlns:svg="http://www.w3.org/2000/svg">
  <defs
     id="defs10" />
  <path
     d="m 0.58870101,2.3546552 v 0.5689189 c 0,0.1477615 0.0810129,0.2854651 0.21067004,0.35642 l 1.01220375,0.552643 a 0.4019555,0.4019555 0 0 0 0.3887886,0 l 1.0122037,-0.552643 a 0.40725882,0.40725882 0 0 0 0.21067,-0.35642 V 2.3548381 L 2.2003634,3.0228742 a 0.4019555,0.4019555 0 0 1 -0.3887886,0 z M 1.8115748,0.3988254 0.10481836,1.330199 a 0.20390372,0.20390372 0 0 0 0,0.3564201 L 1.8115748,2.6178099 a 0.4019555,0.4019555 0 0 0 0.3887886,0 L 3.8281186,1.7290457 V 2.9255856 A 0.20298936,0.20298936 0 0 0 4.0305593,3.1280263 0.20298936,0.20298936 0 0 0 4.233,2.9255856 V 1.6279168 C 4.233,1.5529388 4.192585,1.48619 4.1278478,1.4496152 L 2.2003634,0.3988254 a 0.41311077,0.41311077 0 0 0 -0.3887886,0 z"
     style="opacity:1;fill:#2e3436;fill-opacity:1;stroke-width:0.52916714;font-variation-settings:normal;vector-effect:none;stroke:none;stroke-linecap:round;stroke-linejoin:round;stroke-miterlimit:4;stroke-dasharray:none;stroke-dashoffset:0;stroke-opacity:1;-inkscape-stroke:none;marker:none;stop-color:#000000;stop-opacity:1"
     id="path3275" />
</svg>
