<svg xmlns="http://www.w3.org/2000/svg" width="16" height="16" viewBox="0 0 4.233 4.233"><path d="M1.842.191a.396.396 0 0 0-.397.397v.397H.651a.264.264 0 0 0-.264.265v.793h.397a.396.396 0 1 1 0 .794H.387v.794c0 .146.118.264.264.264h.794V3.5a.396.396 0 1 1 .794 0v.396h.794a.264.264 0 0 0 .264-.264v-.794h.397a.396.396 0 1 0 0-.794h-.397V1.25a.264.264 0 0 0-.264-.265h-.794V.588a.396.396 0 0 0-.397-.397z" color="#000" fill="#2e3436" style="isolation:auto;mix-blend-mode:normal;stroke-width:.26458"/></svg>