<?xml version="1.0" encoding="UTF-8" standalone="no"?>
<svg
   xmlns:dc="http://purl.org/dc/elements/1.1/"
   xmlns:cc="http://creativecommons.org/ns#"
   xmlns:rdf="http://www.w3.org/1999/02/22-rdf-syntax-ns#"
   xmlns:svg="http://www.w3.org/2000/svg"
   xmlns="http://www.w3.org/2000/svg"
   xmlns:sodipodi="http://sodipodi.sourceforge.net/DTD/sodipodi-0.dtd"
   xmlns:inkscape="http://www.inkscape.org/namespaces/inkscape"
   width="4.2333mm"
   height="4.2333mm"
   version="1.1"
   viewBox="0 0 4.2333 4.2333"
   id="svg14"
   sodipodi:docname="flypie-cherry-symbolic.svg"
   inkscape:version="1.0.2 (e86c870879, 2021-01-15)">
  <defs
     id="defs18" />
  <sodipodi:namedview
     pagecolor="#ffffff"
     bordercolor="#666666"
     borderopacity="1"
     objecttolerance="10"
     gridtolerance="10"
     guidetolerance="10"
     inkscape:pageopacity="0"
     inkscape:pageshadow="2"
     inkscape:window-width="1920"
     inkscape:window-height="1131"
     id="namedview16"
     showgrid="false"
     inkscape:zoom="39.803021"
     inkscape:cx="7.3104684"
     inkscape:cy="8.2557418"
     inkscape:window-x="0"
     inkscape:window-y="32"
     inkscape:window-maximized="1"
     inkscape:current-layer="svg14"
     inkscape:document-rotation="0" />
  <metadata
     id="metadata2">
    <rdf:RDF>
      <cc:Work
         rdf:about="">
        <dc:format>image/svg+xml</dc:format>
        <dc:type
           rdf:resource="http://purl.org/dc/dcmitype/StillImage" />
        <dc:title></dc:title>
      </cc:Work>
    </rdf:RDF>
  </metadata>
  <path
     style="font-variation-settings:normal;opacity:1;vector-effect:none;fill:#2e3436;fill-opacity:1;stroke-width:0.264579;stroke-linecap:butt;stroke-linejoin:miter;stroke-miterlimit:4;stroke-dasharray:none;stroke-dashoffset:0;stroke-opacity:1;stop-color:#000000;stop-opacity:1"
     d="M 1.5827181,4.0459659 C 1.3949831,3.9593205 1.3006914,3.8536899 1.1844687,3.5998263 1.0696431,3.3490139 1.0554126,3.0287874 1.1502144,2.8290075 1.275994,2.5639464 1.5779766,2.4349537 1.8453403,2.5320824 c 0.08099,0.029422 0.081504,0.027367 0.081717,-0.3260136 3.477e-4,-0.5806071 0.1292719,-1.28637412 0.2949054,-1.61439756 0.077555,-0.15359 0.069737,-0.14959727 0.1876497,-0.0958727 0.071656,0.0326495 0.091892,0.0755037 0.1105296,0.23407159 C 2.549603,0.980542 2.7004788,1.3625897 2.8932687,1.7023894 2.9769897,1.8499521 3.0509553,1.970198 3.057637,1.9696032 3.064317,1.9690083 3.12006,1.9313772 3.1815082,1.8859792 3.4103627,1.7169007 3.7523852,1.7975666 3.9433129,2.0656491 4.1798074,2.3977122 4.1107688,3.0162186 3.8078046,3.2796348 3.6605688,3.4076503 3.3826071,3.5144778 3.2534127,3.4926979 3.186472,3.4814117 3.1795456,3.4648713 3.1991674,3.3631348 3.2115392,3.2989903 3.2125701,3.1443832 3.2014602,3.0195636 3.1659493,2.6206018 2.9197522,2.3321124 2.5619846,2.270237 2.4756488,2.2553056 2.4037362,2.2288018 2.402182,2.2113408 2.3966483,2.1491706 2.6311708,2.0075599 2.7584244,1.9962333 L 2.8878189,1.9847161 2.7213259,1.6937706 C 2.5342188,1.366802 2.3628388,0.9581231 2.35897,0.84111632 2.3549533,0.71964606 2.2359975,1.0135151 2.1622604,1.3270688 2.1273627,1.4754651 2.0906796,1.8102993 2.0807423,2.0711449 l -0.018068,0.4742647 0.1947068,-0.015639 c 0.2442842,-0.01962 0.41036,0.079359 0.5297762,0.3157403 0.1392873,0.2757157 0.080699,0.6882301 -0.1347415,0.948693 -0.2417786,0.2923062 -0.731908,0.4076617 -1.0696977,0.251762 z M 0.58656519,1.1803524 C 0.47698786,1.165692 0.3167376,1.1342604 0.23045249,1.1104875 L 0.07357045,1.0672646 0.15911626,0.9879465 C 0.20616759,0.94432171 0.29950316,0.82712586 0.3665295,0.72750974 0.66727796,0.28053661 0.92847967,0.11404563 1.3291517,0.11393066 c 0.1900811,-5.435e-5 0.290702,0.0195286 0.4018907,0.0782208 0.1354226,0.071483 0.3989057,0.32621649 0.3686826,0.35643946 -0.00699,0.006989 -0.08542,-0.0126509 -0.1742963,-0.0436422 C 1.6707709,0.41615127 1.3356099,0.45471075 1.0142144,0.60978164 0.63148281,0.79444679 0.55184747,0.8698079 0.85824324,0.75738166 1.1626816,0.64567341 1.7269925,0.60124034 1.9416303,0.67207716 L 2.0758434,0.7163715 1.793057,0.89532539 C 1.3899942,1.1503928 1.0186174,1.2381286 0.58656519,1.1803524 Z"
     id="path882"
     sodipodi:nodetypes="ssssssssssssssssssscsssscssssscscssssssscscs" />
</svg>
