<svg xmlns="http://www.w3.org/2000/svg" width="16" height="16" viewBox="0 0 4.233 4.233"><path d="M.33.679v2.81h.248c.044.001.087-.01.125-.034L2.445 2.33c.077-.048.117-.147.117-.246s-.04-.197-.117-.246L.703.714A.226.226 0 0 0 .578.679H.555z" color="#000" fill="#2e3436" style="text-indent:0;text-decoration:none;text-decoration-line:none;text-transform:none;stroke-width:.264591"/><path d="M1.962.679v2.81h.25c.043.001.086-.01.124-.034L4.078 2.33c.077-.048.117-.147.117-.246s-.04-.197-.117-.246L2.336.714A.226.226 0 0 0 2.21.679h-.023z" color="#000" fill="#2e3436" style="text-indent:0;text-decoration:none;text-decoration-line:none;text-transform:none;stroke-width:.264591"/></svg>