<svg xmlns="http://www.w3.org/2000/svg" width="16" height="16"><path style="font-style:normal;font-variant:normal;font-weight:400;font-stretch:normal;font-size:10.5833px;line-height:125%;font-family:'Amatic SC';-inkscape-font-specification:'Amatic SC';letter-spacing:0;word-spacing:0;fill:#2c2c2c;fill-opacity:1;stroke:none;stroke-width:0;stroke-linecap:butt;stroke-linejoin:miter;stroke-miterlimit:4;stroke-dasharray:none;stroke-opacity:1" d="M5.417 2.92c-2.132.953-3.639 3.882-4.054 4.854.025 1.075 1.782 3.596 3.63 4.693 1.848 1.097 3.97 1.418 6.357-.006 1.571-.944 2.984-3.845 3.25-4.804.03-.707-1.44-3.329-3.106-4.397-1.666-1.069-3.946-1.294-6.077-.34Zm4.915 2.132c.866.715 1.34 1.518 1.424 2.406.227 2.469-1.028 3.835-3.792 4.1-2.015-.045-3.394-1.377-3.6-3.24-.096-.989.218-1.919.933-2.785 1.527-1.867 3.52-1.862 5.035-.48ZM6.606 6.454c-.464.495-.687 1.043-.666 1.643.142 1.35.938 1.855 2.05 2.094 1.676-.056 2.487-.833 2.444-2.331-.018-.54-.276-1.042-.772-1.507-1.019-1.001-2.252-.842-3.056.1Z"/></svg>