<?xml version="1.0" encoding="UTF-8" standalone="no"?>
<svg
   xmlns:dc="http://purl.org/dc/elements/1.1/"
   xmlns:cc="http://creativecommons.org/ns#"
   xmlns:rdf="http://www.w3.org/1999/02/22-rdf-syntax-ns#"
   xmlns:svg="http://www.w3.org/2000/svg"
   xmlns="http://www.w3.org/2000/svg"
   xmlns:sodipodi="http://sodipodi.sourceforge.net/DTD/sodipodi-0.dtd"
   xmlns:inkscape="http://www.inkscape.org/namespaces/inkscape"
   width="16"
   height="16"
   version="1.1"
   id="svg881"
   sodipodi:docname="flypie-edit-wedges-symbolic.svg"
   inkscape:version="1.0.2 (e86c870879, 2021-01-15)">
  <metadata
     id="metadata887">
    <rdf:RDF>
      <cc:Work
         rdf:about="">
        <dc:format>image/svg+xml</dc:format>
        <dc:type
           rdf:resource="http://purl.org/dc/dcmitype/StillImage" />
        <dc:title></dc:title>
      </cc:Work>
    </rdf:RDF>
  </metadata>
  <defs
     id="defs885" />
  <sodipodi:namedview
     pagecolor="#ffffff"
     bordercolor="#666666"
     borderopacity="1"
     objecttolerance="10"
     gridtolerance="10"
     guidetolerance="10"
     inkscape:pageopacity="0"
     inkscape:pageshadow="2"
     inkscape:window-width="1920"
     inkscape:window-height="1131"
     id="namedview883"
     showgrid="true"
     inkscape:zoom="32.482718"
     inkscape:cx="10.367124"
     inkscape:cy="8.8579974"
     inkscape:window-x="0"
     inkscape:window-y="0"
     inkscape:window-maximized="1"
     inkscape:current-layer="svg881"
     inkscape:document-rotation="0"
     showguides="false"
     inkscape:guide-bbox="true"
     inkscape:snap-bbox="true"
     inkscape:snap-bbox-midpoints="true"
     inkscape:snap-center="true"
     inkscape:snap-global="false">
    <inkscape:grid
       type="xygrid"
       id="grid900" />
  </sodipodi:namedview>
  <path
     d="M 11.250844,7.7136778 C 11.329353,7.3607156 9.8010115,4.8290825 9.3851994,5.2907766 9.8929815,3.3511914 10.549231,2.7502861 11.952307,1.1862348 c 3.21984,1.8527303 3.619191,4.8902499 3.904178,6.5447272 -2.494621,0.4442858 -2.985984,0.097536 -4.605641,-0.017284 z"
     style="font-style:normal;font-variant:normal;font-weight:normal;font-stretch:normal;font-size:10.5833px;line-height:125%;font-family:'Amatic SC';-inkscape-font-specification:'Amatic SC';letter-spacing:0px;word-spacing:0px;opacity:0.25;fill:#2c2c2c;fill-opacity:1;stroke:none;stroke-width:4.25281px;stroke-linecap:butt;stroke-linejoin:miter;stroke-opacity:1"
     id="path3559"
     inkscape:connector-curvature="0"
     inkscape:transform-center-x="-2.2214574"
     inkscape:transform-center-y="-4.1273986"
     sodipodi:nodetypes="ccccc" />
  <path
     d="M 11.467788,8.2519069 Q 11.265745,8.2229289 11.104531,8.0589315 10.968635,7.8979594 10.990948,7.7016924 q 0.03159,-0.2801206 1.651995,-0.3106373 1.648684,-0.055215 2.760353,0.099739 0.202051,0.028977 0.363242,0.1925653 0.160877,0.1648216 0.138918,0.3606467 -0.03159,0.2801206 -1.655147,0.3387383 -1.62027,0.030489 -2.782462,-0.1312521 z"
     style="font-style:normal;font-variant:normal;font-weight:normal;font-stretch:normal;font-size:10.5833px;line-height:125%;font-family:'Amatic SC';-inkscape-font-specification:'Amatic SC';letter-spacing:0px;word-spacing:0px;fill:#2c2c2c;fill-opacity:1;stroke:none;stroke-width:4.25281px;stroke-linecap:butt;stroke-linejoin:miter;stroke-opacity:1"
     id="path823"
     inkscape:connector-curvature="0"
     inkscape:transform-center-x="-5.4258874"
     inkscape:transform-center-y="-0.10316511" />
  <path
     d="m 9.6751205,11.384545 q -0.082095,-0.204856 -0.015686,-0.444475 0.077264,-0.214277 0.2731082,-0.29949 0.2793803,-0.121859 1.1839833,1.378968 0.943019,1.513954 1.398916,2.638678 0.0821,0.204863 0.01606,0.44424 -0.06736,0.239749 -0.262603,0.325055 -0.279379,0.121858 -1.212,-1.366727 -0.9045,-1.500716 -1.3813557,-2.676418 z"
     style="font-style:normal;font-variant:normal;font-weight:normal;font-stretch:normal;font-size:10.5833px;line-height:125%;font-family:'Amatic SC';-inkscape-font-specification:'Amatic SC';letter-spacing:0px;word-spacing:0px;fill:#2c2c2c;fill-opacity:1;stroke:none;stroke-width:4.25281px;stroke-linecap:butt;stroke-linejoin:miter;stroke-opacity:1"
     id="path3579"
     inkscape:connector-curvature="0"
     inkscape:transform-center-x="-3.07328"
     inkscape:transform-center-y="5.0488554" />
  <path
     d="m 5.9907169,10.632268 c 0.093013,-0.118359 0.2216161,-0.198786 0.3858101,-0.241278 0.1529257,-0.02744 0.2879527,0.0022 0.4050808,0.08878 0.1672648,0.123473 -0.1740858,1.240522 -0.7521272,2.286732 -0.5726946,1.073379 -1.1134935,1.936513 -1.6223967,2.589398 -0.093015,0.118365 -0.2214847,0.198861 -0.385409,0.241491 -0.1645962,0.04197 -0.3053825,0.01984 -0.422359,-0.0664 C 3.4320511,15.407519 3.6290469,14.81649 4.1903022,13.757904 4.7683116,12.71179 5.4592128,11.3152 5.9910815,10.632548 Z"
     style="font-style:normal;font-variant:normal;font-weight:normal;font-stretch:normal;font-size:10.5833px;line-height:125%;font-family:'Amatic SC';-inkscape-font-specification:'Amatic SC';letter-spacing:0px;word-spacing:0px;fill:#2c2c2c;fill-opacity:1;stroke:none;stroke-width:4.25282px;stroke-linecap:butt;stroke-linejoin:miter;stroke-opacity:1"
     id="path3581"
     inkscape:connector-curvature="0"
     inkscape:transform-center-x="2.8943583"
     inkscape:transform-center-y="5.2548575"
     sodipodi:nodetypes="cccccccccc" />
  <path
     d="M 4.5349484,7.7373075 Q 4.7369912,7.7662851 4.898205,7.9302825 5.0341015,8.091255 5.0117886,8.287522 4.980198,8.5676426 3.3597933,8.5981598 1.7111094,8.6533741 0.59943972,8.4984204 0.39738975,8.4694433 0.23620039,8.3058514 0.07532311,8.141031 0.09728217,7.9452048 0.12887288,7.6650841 1.7524293,7.606466 3.3726975,7.5759811 4.5348892,7.737722 Z"
     style="font-style:normal;font-variant:normal;font-weight:normal;font-stretch:normal;font-size:10.5833px;line-height:125%;font-family:'Amatic SC';-inkscape-font-specification:'Amatic SC';letter-spacing:0px;word-spacing:0px;fill:#2c2c2c;fill-opacity:1;stroke:none;stroke-width:4.25281px;stroke-linecap:butt;stroke-linejoin:miter;stroke-opacity:1"
     id="path3583"
     inkscape:connector-curvature="0"
     inkscape:transform-center-x="5.4672697"
     inkscape:transform-center-y="0.12191867" />
  <path
     d="m 6.7955509,5.2209958 c 0.050617,0.1263088 0.055453,0.2633347 0.014507,0.4110775 C 6.7624171,5.7641892 6.6782226,5.8565183 6.5574743,5.9090606 6.3852166,5.9841956 5.7548053,5.205886 5.1970516,4.2805171 4.6156117,3.3470539 4.1843449,2.5335854 3.9032511,1.8401115 3.8526311,1.7137985 3.8476796,1.5768453 3.8883967,1.429252 3.9299324,1.28143 4.0108901,1.1812206 4.1312696,1.1286238 4.3035273,1.0534887 4.6771706,1.4748322 5.2521995,2.3926542 5.809892,3.3179544 6.5011518,4.4962499 6.7951678,5.2211553 Z"
     style="font-style:normal;font-variant:normal;font-weight:normal;font-stretch:normal;font-size:10.5833px;line-height:125%;font-family:'Amatic SC';-inkscape-font-specification:'Amatic SC';letter-spacing:0px;word-spacing:0px;fill:#2c2c2c;fill-opacity:1;stroke:none;stroke-width:4.25281px;stroke-linecap:butt;stroke-linejoin:miter;stroke-opacity:1"
     id="path3585"
     inkscape:connector-curvature="0"
     inkscape:transform-center-x="2.805416"
     inkscape:transform-center-y="-4.6430161"
     sodipodi:nodetypes="cccccccccc" />
  <path
     d="M 9.9803226,5.0892639 Q 9.8542058,5.2497493 9.631573,5.3073658 9.4242185,5.3445694 9.2654027,5.2271124 9.0386065,5.0596938 9.8223801,3.6411236 10.598905,2.1857143 11.288934,1.3004569 11.415054,1.1399651 11.637323,1.082167 11.8605,1.025253 12.019111,1.142184 12.245908,1.3096027 11.484894,2.7449528 10.701161,4.1633887 9.9799932,5.0890058 Z"
     style="font-style:normal;font-variant:normal;font-weight:normal;font-stretch:normal;font-size:10.5833px;line-height:125%;font-family:'Amatic SC';-inkscape-font-specification:'Amatic SC';letter-spacing:0px;word-spacing:0px;fill:#2c2c2c;fill-opacity:1;stroke:none;stroke-width:4.25281px;stroke-linecap:butt;stroke-linejoin:miter;stroke-opacity:1"
     id="path3587"
     inkscape:connector-curvature="0"
     inkscape:transform-center-x="-2.6207835"
     inkscape:transform-center-y="-4.7953052" />
</svg>
