<svg xmlns="http://www.w3.org/2000/svg" width="16" height="16" viewBox="0 0 4.233 4.233"><circle cx="1.32" cy="3.44" r=".265" style="fill:#2e3436;stroke-width:.26458"/><circle cx="2.114" cy="3.44" r=".265" style="fill:#2e3436;stroke-width:.26458"/><circle cx="2.907" cy="3.44" r=".265" style="fill:#2e3436;stroke-width:.26458"/><path d="M1.32.52c-.29 0-.53.24-.53.529v1.323c0 .288.24.529.53.529h1.587c.288 0 .529-.24.529-.53V1.05c0-.289-.24-.53-.53-.53zm0 .529h1.587v1.323H1.319zM.526.784c-.289 0-.53.24-.53.53v.793c0 .289.241.53.53.53zM3.7.784c.29 0 .53.24.53.53v.793c0 .289-.24.53-.53.53z" color="#bebebe" style="fill:#2e3436;stroke-width:.26458"/></svg>