<svg xmlns="http://www.w3.org/2000/svg" width="16" height="16" viewBox="0 0 4.233 4.233"><path style="fill:#2e3436;fill-opacity:1;stroke-width:.79375;stroke-linecap:round;stop-color:#000" d="M2.434.263c-1.118.566-.952 1.402-.578 2.123-.328-.434-.525-.93-.529-1.322-.43.264-.794.793-.794 1.322 0 .689.439 1.275 1.051 1.495-.13-.223-.098-.519.186-.798.566-.558.412-.723.412-.723.6.303-.085.83.111 1.026.148.148.465-.368.467-.577.225.254.33.443.33.726a.98.98 0 0 1-.01.139c.665-.478.868-1.432.123-2.166C2.146.467 2.434.263 2.434.263Z"/></svg>