<svg xmlns="http://www.w3.org/2000/svg" width="16" height="16.005" viewBox="0 0 4.233 4.235"><path d="M104.383 151.354a2.105 2.105 0 0 0-2.101 2.102c0 1.157.944 2.1 2.101 2.1a2.105 2.105 0 0 0 2.101-2.1 2.105 2.105 0 0 0-2.101-2.102zm0 .56c.072 0 .142.008.21.017.054.073.107.165.154.287.03.077.057.164.081.257h-.89c.024-.093.05-.18.08-.257.047-.122.1-.214.154-.287.07-.01.14-.016.211-.016zm-.585.115c-.013.03-.029.056-.041.088-.041.108-.076.23-.106.358h-.454c.16-.194.364-.35.601-.446zm1.17 0c.237.097.44.252.6.446h-.453a2.817 2.817 0 0 0-.106-.358c-.013-.032-.028-.058-.041-.088zm-1.957.726h.584a4.54 4.54 0 0 0-.047.56h-.695c.018-.2.071-.39.158-.56zm.868 0h1.008c.029.173.045.363.05.56h-1.109c.006-.197.022-.387.051-.56zm1.292 0h.584c.087.17.14.36.158.56h-.695a4.62 4.62 0 0 0-.047-.56zm-2.318.84h.695c.006.196.02.385.047.56h-.584c-.087-.17-.14-.359-.158-.56zm.975 0h1.11a4.225 4.225 0 0 1-.051.56h-1.008a4.26 4.26 0 0 1-.05-.56zm1.39 0h.695c-.018.201-.071.39-.158.56h-.584a4.54 4.54 0 0 0 .047-.56zm-2.02.841h.453c.03.128.065.25.106.357.012.033.028.059.041.089a1.533 1.533 0 0 1-.6-.446zm.74 0h.89c-.024.093-.05.18-.08.257a1.22 1.22 0 0 1-.155.287 1.615 1.615 0 0 1-.21.016c-.072 0-.141-.007-.21-.016a1.22 1.22 0 0 1-.154-.287 2.357 2.357 0 0 1-.081-.257zm1.177 0h.454c-.16.194-.364.35-.601.446.013-.03.028-.056.04-.089a2.81 2.81 0 0 0 .107-.357z" style="color:#000;font-style:normal;font-variant:normal;font-weight:400;font-stretch:normal;font-size:medium;line-height:normal;font-family:sans-serif;font-variant-ligatures:normal;font-variant-position:normal;font-variant-caps:normal;font-variant-numeric:normal;font-variant-alternates:normal;font-feature-settings:normal;text-indent:0;text-align:start;text-decoration:none;text-decoration-line:none;text-decoration-style:solid;text-decoration-color:#000;letter-spacing:normal;word-spacing:normal;text-transform:none;writing-mode:lr-tb;direction:ltr;text-orientation:mixed;dominant-baseline:auto;baseline-shift:baseline;text-anchor:start;white-space:normal;shape-padding:0;clip-rule:nonzero;display:inline;overflow:visible;visibility:visible;isolation:auto;mix-blend-mode:normal;color-interpolation:sRGB;color-interpolation-filters:linearRGB;solid-color:#000;solid-opacity:1;vector-effect:none;fill:#2e3436;fill-opacity:1;fill-rule:nonzero;stroke:none;stroke-width:.264583px;stroke-linecap:butt;stroke-linejoin:miter;stroke-miterlimit:4;stroke-dasharray:none;stroke-dashoffset:0;stroke-opacity:1;color-rendering:auto;image-rendering:auto;shape-rendering:auto;text-rendering:auto;enable-background:accumulate" transform="translate(-102.277 -151.354)"/></svg>