<?xml version="1.0" encoding="UTF-8" standalone="no"?>
<svg
   xmlns:dc="http://purl.org/dc/elements/1.1/"
   xmlns:cc="http://creativecommons.org/ns#"
   xmlns:rdf="http://www.w3.org/1999/02/22-rdf-syntax-ns#"
   xmlns:svg="http://www.w3.org/2000/svg"
   xmlns="http://www.w3.org/2000/svg"
   xmlns:sodipodi="http://sodipodi.sourceforge.net/DTD/sodipodi-0.dtd"
   xmlns:inkscape="http://www.inkscape.org/namespaces/inkscape"
   width="4.2334mm"
   height="4.2333mm"
   version="1.1"
   viewBox="0 0 4.2334 4.2333"
   id="svg2894"
   sodipodi:docname="flypie-action-shortcut-symbolic.svg"
   inkscape:version="1.0.2 (e86c870879, 2021-01-15)">
  <defs
     id="defs2898" />
  <sodipodi:namedview
     pagecolor="#ffffff"
     bordercolor="#666666"
     borderopacity="1"
     objecttolerance="10"
     gridtolerance="10"
     guidetolerance="10"
     inkscape:pageopacity="0"
     inkscape:pageshadow="2"
     inkscape:window-width="1563"
     inkscape:window-height="905"
     id="namedview2896"
     showgrid="false"
     inkscape:zoom="45.937859"
     inkscape:cx="8.0001257"
     inkscape:cy="7.9999374"
     inkscape:window-x="0"
     inkscape:window-y="32"
     inkscape:window-maximized="0"
     inkscape:current-layer="svg2894" />
  <metadata
     id="metadata2882">
    <rdf:RDF>
      <cc:Work
         rdf:about="">
        <dc:format>image/svg+xml</dc:format>
        <dc:type
           rdf:resource="http://purl.org/dc/dcmitype/StillImage" />
        <dc:title />
      </cc:Work>
    </rdf:RDF>
  </metadata>
  <path
     d="m 0.26876,0.52612 c -0.14657732,0 -0.26458,0.11800268 -0.26458,0.26458 v 2.6458 c 0,0.1465773 0.11800268,0.26458 0.26458,0.26458 h 3.70412 c 0.1465773,0 0.26458,-0.1180027 0.26458,-0.26458 V 0.7907 c 0,-0.14657732 -0.1180027,-0.26458 -0.26458,-0.26458 z m 0.330725,0.52916 h 0.39687 c 0.0366443,0 0.066145,0.029501 0.066145,0.066145 v 0.39687 c 0,0.036644 -0.029501,0.066145 -0.066145,0.066145 H 0.599485 C 0.5628407,1.58444 0.53334,1.554939 0.53334,1.518295 v -0.39687 c 0,-0.036644 0.0295007,-0.066145 0.066145,-0.066145 z m 0.79374,0 h 0.39687 c 0.036644,0 0.066145,0.029501 0.066145,0.066145 v 0.39687 c 0,0.036644 -0.029501,0.066145 -0.066145,0.066145 H 1.393225 C 1.356581,1.58444 1.32708,1.554939 1.32708,1.518295 v -0.39687 c 0,-0.036644 0.029501,-0.066145 0.066145,-0.066145 z m 0.79374,0 h 0.39687 c 0.036644,0 0.066145,0.029501 0.066145,0.066145 v 0.39687 c 0,0.036644 -0.029501,0.066145 -0.066145,0.066145 H 2.186965 C 2.150321,1.58444 2.12082,1.554939 2.12082,1.518295 v -0.39687 c 0,-0.036644 0.029501,-0.066145 0.066145,-0.066145 z m 0.79374,0 h 0.39687 c 0.036644,0 0.066145,0.029501 0.066145,0.066145 v 0.39687 c 0,0.036644 -0.029501,0.066145 -0.066145,0.066145 H 2.980705 C 2.944061,1.58444 2.91456,1.554939 2.91456,1.518295 v -0.39687 c 0,-0.036644 0.029501,-0.066145 0.066145,-0.066145 z m -2.11664,0.79374 h 0.39687 c 0.036644,0 0.066145,0.029501 0.066145,0.066145 v 0.39687 c 0,0.036644 -0.029501,0.066145 -0.066145,0.066145 H 0.864065 C 0.8274207,2.37818 0.79792,2.348679 0.79792,2.312035 v -0.39687 c 0,-0.036644 0.0295007,-0.066145 0.066145,-0.066145 z m 0.79374,0 h 0.39687 c 0.036644,0 0.066145,0.029501 0.066145,0.066145 v 0.39687 c 0,0.036644 -0.029501,0.066145 -0.066145,0.066145 H 1.657805 C 1.621161,2.37818 1.59166,2.348679 1.59166,2.312035 v -0.39687 c 0,-0.036644 0.029501,-0.066145 0.066145,-0.066145 z m 0.79374,0 h 0.39687 c 0.036644,0 0.066145,0.029501 0.066145,0.066145 v 0.39687 c 0,0.036644 -0.029501,0.066145 -0.066145,0.066145 H 2.451545 C 2.4149007,2.37818 2.3854,2.3486793 2.3854,2.312035 v -0.39687 c 0,-0.036644 0.029501,-0.066145 0.066145,-0.066145 z m 0.79374,0 h 0.39687 c 0.036644,0 0.066145,0.029501 0.066145,0.066145 v 0.39687 c 0,0.036644 -0.029501,0.066145 -0.066145,0.066145 H 3.245285 C 3.208641,2.37818 3.17914,2.348679 3.17914,2.312035 v -0.39687 c 0,-0.036644 0.029501,-0.066145 0.066145,-0.066145 z m -2.6458,0.79374 h 0.39687 c 0.0366443,0 0.066145,0.029501 0.066145,0.066145 v 0.39687 c 0,0.036644 -0.029501,0.066145 -0.066145,0.066145 H 0.599485 C 0.5628407,3.17192 0.53334,3.142419 0.53334,3.105775 v -0.39687 c 0,-0.036644 0.0295007,-0.066145 0.066145,-0.066145 z m 0.79374,0 h 1.45519 c 0.036644,0 0.066145,0.029501 0.066145,0.066145 v 0.39687 c 0,0.036644 -0.029501,0.066145 -0.066145,0.066145 H 1.393225 C 1.356581,3.17192 1.32708,3.142419 1.32708,3.105775 v -0.39687 c 0,-0.036644 0.029501,-0.066145 0.066145,-0.066145 z m 1.85206,0 h 0.66145 c 0.036644,0 0.066145,0.029501 0.066145,0.066145 v 0.39687 c 0,0.036644 -0.029501,0.066145 -0.066145,0.066145 H 3.245285 C 3.208641,3.17192 3.17914,3.142419 3.17914,3.105775 v -0.39687 c 0,-0.036644 0.029501,-0.066145 0.066145,-0.066145 z"
     color="#bebebe"
     enable-background="accumulate"
     fill="#2e3436"
     id="path2888"
     style="stroke-width:0.26458" />
</svg>
