<svg xmlns="http://www.w3.org/2000/svg" width="16" height="16" viewBox="0 0 4.233 4.233"><path d="M.79.26a.792.792 0 0 0-.793.794v1.852c0 .44.354.794.793.794h2.646c.44 0 .794-.354.794-.794V1.054A.792.792 0 0 0 3.436.26zm0 .53h2.646c.147 0 .265.117.265.264v1.852a.264.264 0 0 1-.265.264H.79a.264.264 0 0 1-.264-.264V1.054C.526.907.644.789.79.789zM2.113 4.229c.794 0 1.059-.265 1.059-.265H1.055s.265.265 1.058.265z" fill="#2e3436" style="stroke-width:.26458"/><path style="color:#bebebe;display:inline;overflow:visible;visibility:visible;fill:#2e3436;fill-opacity:1;fill-rule:nonzero;stroke:none;stroke-width:.488461;marker:none;enable-background:accumulate" d="M1.58 1.704a.14.14 0 0 0-.042.009c-.103.015-.373.097-.373.554v.702h.562V2.31a.566.566 0 0 0 .28.094v-.138h.14v-.14c-.11 0-.185-.003-.242-.035-.057-.031-.122-.098-.186-.29a.14.14 0 0 0-.138-.098Z"/><path style="color:#bebebe;display:inline;overflow:visible;visibility:visible;fill:#2e3436;fill-opacity:.5;fill-rule:nonzero;stroke:none;stroke-width:.488461;marker:none;enable-background:accumulate" d="M2.709 1.005a.28.28 0 1 0 0 .561.28.28 0 0 0 0-.561z"/><path style="color:#bebebe;display:inline;overflow:visible;visibility:visible;fill:#2e3436;fill-opacity:1;fill-rule:nonzero;stroke:none;stroke-width:.488461;marker:none;enable-background:accumulate" d="M1.586 1.005a.28.28 0 1 0 0 .561.28.28 0 0 0 0-.561z"/><path style="fill:#2e3436;fill-opacity:.5;stroke-width:.79375;stop-color:#000" d="M2.714 1.704a.14.14 0 0 0-.138.098c-.064.192-.13.259-.186.29-.057.032-.133.036-.242.035v.14h-.14v.138c.023.002.046.002.069.002H2.218c.095 0 .201-.01.307-.069a.478.478 0 0 0 .043-.027v.658h.562v-.702c0-.457-.27-.539-.373-.554a.14.14 0 0 0-.043-.009z"/></svg>