<svg xmlns="http://www.w3.org/2000/svg" width="16" height="16" viewBox="0 0 4.233 4.233"><path style="font-variation-settings:normal;opacity:1;vector-effect:none;fill:#2e3436;fill-opacity:1;stroke:none;stroke-width:.264582px;stroke-linecap:butt;stroke-linejoin:miter;stroke-miterlimit:4;stroke-dasharray:none;stroke-dashoffset:0;stroke-opacity:1;stop-color:#000;stop-opacity:1" d="M1.499 4.191c-.115-.02-.363-.174-.552-.34a1.777 1.777 0 0 1-.567-.944 2.254 2.254 0 0 1-.005-.679c.085-.357.273-.62.532-.748.275-.135.48-.237.942-.026l.194.088c.006.003 0-.028-.01-.067-.03-.115-.011-.094-.034-.21a2.619 2.619 0 0 0-.15-.024c-.374-.055-.68-.202-.879-.422A1.257 1.257 0 0 1 .746.414 1.938 1.938 0 0 1 .693.047V-.01l.078.005c.42.03.65.11.87.301.167.147.255.277.341.503.018.048.037.079.04.068a.923.923 0 0 1 .505-.62c.144-.068.344-.124.488-.135.1-.007.108-.006.144.027a.114.114 0 0 1-.078.2c-.094 0-.265.042-.385.096-.447.245-.52.603-.381 1.107.002.003.093-.035.2-.084.473-.216.546-.115.824.021.26.127.446.39.532.748.033.14.03.53-.005.68a1.76 1.76 0 0 1-.528.909c-.186.173-.467.35-.599.376-.114.022-.379-.021-.537-.088l-.08-.034-.078.034c-.095.04-.224.072-.354.087a.482.482 0 0 1-.191 0Z"/></svg>