<svg xmlns="http://www.w3.org/2000/svg" width="16" height="16" viewBox="0 0 4.233 4.233"><path d="M.8 2.65v.529a.53.53 0 0 0 .529.529h.529v-.53a.53.53 0 0 0-.53-.528ZM3.71 2.65v.529a.53.53 0 0 1-.53.529h-.528v-.53a.53.53 0 0 1 .529-.528ZM1.064 1.591v.397a.397.397 0 0 0 .397.397h.397v-.397a.397.397 0 0 0-.397-.397zM3.445 1.591v.397a.397.397 0 0 1-.397.397h-.396v-.397a.397.397 0 0 1 .396-.397zM1.593.004v.264a.265.265 0 0 0 .265.265h.264V.268a.265.265 0 0 0-.264-.264ZM2.916.004v.264a.265.265 0 0 1-.264.265h-.265V.268a.265.265 0 0 1 .265-.264ZM1.329.798v.264a.265.265 0 0 0 .264.265h.265v-.265a.265.265 0 0 0-.265-.264ZM3.18.798v.264a.265.265 0 0 1-.264.265h-.264v-.265a.265.265 0 0 1 .264-.264Z" style="fill:#2e3436;fill-opacity:1;stroke:none;stroke-width:.529167;stroke-linecap:round;stroke-linejoin:round;stroke-miterlimit:4;stroke-dasharray:none;stroke-opacity:1"/><rect ry=".132" y=".533" x="2.122" height="3.704" width=".265" style="fill:#2e3436;fill-opacity:1;stroke:none;stroke-width:.529167;stroke-linecap:round;stroke-linejoin:round;stroke-miterlimit:4;stroke-dasharray:none;stroke-opacity:1" rx=".132"/></svg>