<svg xmlns="http://www.w3.org/2000/svg" width="16" height="16" viewBox="0 0 4.233 4.233"><path d="M1.19.264a.924.924 0 0 0-.925.926c0 .513.413.926.926.926h1.852a.924.924 0 0 0 .926-.926.924.924 0 0 0-.926-.926zM3.044.53a.66.66 0 0 1 .661.661.66.66 0 0 1-.661.662.66.66 0 0 1-.662-.662.66.66 0 0 1 .662-.661z" fill="#2e3436" style="stroke-width:.26458"/><path d="M1.19 2.381a.924.924 0 0 0-.925.926c0 .513.413.926.926.926h1.852a.924.924 0 0 0 .926-.926.924.924 0 0 0-.926-.926zm0 .265a.66.66 0 0 1 .662.661.66.66 0 0 1-.661.662.66.66 0 0 1-.662-.662.66.66 0 0 1 .662-.661z" fill="#2e3436" fill-opacity=".347" style="stroke-width:.26458"/></svg>