<?xml version="1.0" encoding="UTF-8" standalone="no"?>
<svg
   xmlns:dc="http://purl.org/dc/elements/1.1/"
   xmlns:cc="http://creativecommons.org/ns#"
   xmlns:rdf="http://www.w3.org/1999/02/22-rdf-syntax-ns#"
   xmlns:svg="http://www.w3.org/2000/svg"
   xmlns="http://www.w3.org/2000/svg"
   xmlns:sodipodi="http://sodipodi.sourceforge.net/DTD/sodipodi-0.dtd"
   xmlns:inkscape="http://www.inkscape.org/namespaces/inkscape"
   width="4.2333mm"
   height="4.2333mm"
   version="1.1"
   viewBox="0 0 4.2333 4.2333"
   id="svg15730"
   sodipodi:docname="flypie-multimedia-next-symbolic.svg"
   inkscape:version="1.0.2 (e86c870879, 2021-01-15)">
  <defs
     id="defs15734" />
  <sodipodi:namedview
     pagecolor="#ffffff"
     bordercolor="#666666"
     borderopacity="1"
     objecttolerance="10"
     gridtolerance="10"
     guidetolerance="10"
     inkscape:pageopacity="0"
     inkscape:pageshadow="2"
     inkscape:window-width="1277"
     inkscape:window-height="971"
     id="namedview15732"
     showgrid="false"
     inkscape:zoom="45.937859"
     inkscape:cx="7.9999374"
     inkscape:cy="7.9999374"
     inkscape:window-x="0"
     inkscape:window-y="32"
     inkscape:window-maximized="0"
     inkscape:current-layer="svg15730" />
  <metadata
     id="metadata15700">
    <rdf:RDF>
      <cc:Work
         rdf:about="">
        <dc:format>image/svg+xml</dc:format>
        <dc:type
           rdf:resource="http://purl.org/dc/dcmitype/StillImage" />
        <dc:title />
      </cc:Work>
    </rdf:RDF>
  </metadata>
  <path
     d="m 0.32939,0.678793 v 2.8109748 h 0.24891128 c 0.0435372,2.009e-4 0.0865658,-0.010887 0.12445386,-0.035138 l 1.74234336,-1.12437 c 0.077334,-0.048317 0.1166756,-0.1471373 0.1166756,-0.2459453 0,-0.098816 -0.03934,-0.197638 -0.1166756,-0.2459452 L 0.70275514,0.71399948 C 0.66486705,0.68974242 0.62183852,0.6784937 0.57830128,0.6788633 h -0.0233348 z"
     color="#000000"
     fill="#2e3436"
     style="text-indent:0;text-decoration:none;text-decoration-line:none;text-transform:none;stroke-width:0.264591"
     id="path15712" />
  <path
     d="m 1.96239,0.678793 v 2.8109748 h 0.2489113 c 0.043537,2.009e-4 0.086566,-0.010887 0.1244538,-0.035138 l 1.7423434,-1.12437 c 0.077334,-0.048317 0.1166756,-0.1471373 0.1166756,-0.2459453 0,-0.098816 -0.039339,-0.197638 -0.1166756,-0.2459452 L 2.3357551,0.71399948 C 2.297867,0.68974242 2.2548385,0.6784937 2.2113013,0.6788633 h -0.023335 z"
     color="#000000"
     fill="#2e3436"
     style="text-indent:0;text-decoration:none;text-decoration-line:none;text-transform:none;stroke-width:0.264591"
     id="path15722" />
</svg>
