<svg xmlns="http://www.w3.org/2000/svg" width="16" height="16" viewBox="0 0 4.233 4.233"><path d="M1.321.475a.198.198 0 0 0-.15.066c-.067.077-.644.766-.644 1.32 0 .205.07.397.2.54a.766.766 0 0 0 .594.254c.52 0 .794-.4.794-.794 0-.554-.578-1.243-.644-1.32a.197.197 0 0 0-.15-.066ZM2.908 1.533a.198.198 0 0 0-.15.066c-.066.077-.643.767-.643 1.32a.766.766 0 0 0 .794.794c.52 0 .793-.4.793-.794 0-.553-.577-1.243-.643-1.32a.197.197 0 0 0-.15-.066Z" style="fill:#2e3436;fill-opacity:1;stroke:none;stroke-width:.264583"/></svg>