<svg xmlns="http://www.w3.org/2000/svg" width="16" height="16"><path d="M11.25 7.714c.08-.353-1.449-2.885-1.865-2.423.508-1.94 1.164-2.54 2.567-4.105 3.22 1.853 3.62 4.89 3.904 6.545-2.494.444-2.985.097-4.605-.017z" style="font-style:normal;font-variant:normal;font-weight:400;font-stretch:normal;font-size:10.5833px;line-height:125%;font-family:'Amatic SC';-inkscape-font-specification:'Amatic SC';letter-spacing:0;word-spacing:0;opacity:.25;fill:#2c2c2c;fill-opacity:1;stroke:none;stroke-width:4.25281px;stroke-linecap:butt;stroke-linejoin:miter;stroke-opacity:1"/><path d="M11.468 8.252q-.202-.03-.363-.193-.136-.161-.114-.357.032-.28 1.652-.31 1.649-.056 2.76.099.202.029.364.192.16.165.138.361-.031.28-1.655.339-1.62.03-2.782-.132zM9.675 11.385q-.082-.205-.016-.445.078-.214.274-.3.279-.121 1.184 1.38.943 1.514 1.398 2.638.083.205.017.444-.068.24-.263.326-.28.121-1.212-1.367-.905-1.5-1.381-2.677z" style="font-style:normal;font-variant:normal;font-weight:400;font-stretch:normal;font-size:10.5833px;line-height:125%;font-family:'Amatic SC';-inkscape-font-specification:'Amatic SC';letter-spacing:0;word-spacing:0;fill:#2c2c2c;fill-opacity:1;stroke:none;stroke-width:4.25281px;stroke-linecap:butt;stroke-linejoin:miter;stroke-opacity:1"/><path d="M5.99 10.632a.695.695 0 0 1 .387-.241.504.504 0 0 1 .405.089c.167.123-.174 1.24-.753 2.287-.572 1.073-1.113 1.936-1.622 2.589a.696.696 0 0 1-.385.241.479.479 0 0 1-.423-.066c-.167-.123.03-.715.591-1.773.578-1.046 1.27-2.443 1.801-3.125Z" style="font-style:normal;font-variant:normal;font-weight:400;font-stretch:normal;font-size:10.5833px;line-height:125%;font-family:'Amatic SC';-inkscape-font-specification:'Amatic SC';letter-spacing:0;word-spacing:0;fill:#2c2c2c;fill-opacity:1;stroke:none;stroke-width:4.25282px;stroke-linecap:butt;stroke-linejoin:miter;stroke-opacity:1"/><path d="M4.535 7.737q.202.03.363.193.136.161.114.358-.032.28-1.652.31-1.649.055-2.76-.1-.203-.029-.364-.192-.16-.165-.139-.36.032-.28 1.655-.34 1.62-.03 2.783.132ZM6.796 5.221c.05.126.055.263.014.411a.455.455 0 0 1-.253.277c-.172.075-.802-.703-1.36-1.628-.581-.934-1.013-1.747-1.294-2.44a.629.629 0 0 1-.015-.412.433.433 0 0 1 .243-.3c.173-.076.546.346 1.121 1.264.558.925 1.25 2.103 1.543 2.828ZM9.98 5.09q-.126.16-.348.217-.208.038-.367-.08-.226-.167.557-1.586.777-1.455 1.467-2.34.126-.161.348-.219.223-.057.382.06.227.168-.534 1.603Q10.7 4.163 9.98 5.089Z" style="font-style:normal;font-variant:normal;font-weight:400;font-stretch:normal;font-size:10.5833px;line-height:125%;font-family:'Amatic SC';-inkscape-font-specification:'Amatic SC';letter-spacing:0;word-spacing:0;fill:#2c2c2c;fill-opacity:1;stroke:none;stroke-width:4.25281px;stroke-linecap:butt;stroke-linejoin:miter;stroke-opacity:1"/></svg>