<svg xmlns="http://www.w3.org/2000/svg" width="16" height="16" viewBox="0 0 4.233 4.233"><path d="M.272 2.798a.665.665 0 0 0 .192.488.265.265 0 1 0 .374-.375.128.128 0 0 1-.02-.158.13.13 0 0 1 .149-.061c.059.016.097.066.097.127v1.446h.53V2.819a.663.663 0 0 0-1.235-.331.658.658 0 0 0-.087.31Zm.264-1.791a.93.93 0 0 0 .732.857.265.265 0 1 0 .11-.518.393.393 0 0 1-.31-.444.394.394 0 0 1 .421-.34c.21.015.369.185.369.396v3.307h.53V.958a.93.93 0 0 0-.862-.924.93.93 0 0 0-.99.973Zm2.116 3.258h.529V1.619c0-.124.083-.229.204-.257a.263.263 0 0 1 .297.138c.056.11.029.241-.066.32a.265.265 0 1 0 .34.406.792.792 0 1 0-1.304-.607z" style="color:#000;font-style:normal;font-variant:normal;font-weight:400;font-stretch:normal;font-size:medium;line-height:normal;font-family:sans-serif;font-variant-ligatures:normal;font-variant-position:normal;font-variant-caps:normal;font-variant-numeric:normal;font-variant-alternates:normal;font-feature-settings:normal;text-indent:0;text-align:start;text-decoration:none;text-decoration-line:none;text-decoration-style:solid;text-decoration-color:#000;letter-spacing:normal;word-spacing:normal;text-transform:none;writing-mode:lr-tb;direction:ltr;text-orientation:mixed;dominant-baseline:auto;baseline-shift:baseline;text-anchor:start;white-space:normal;shape-padding:0;clip-rule:nonzero;display:inline;overflow:visible;visibility:visible;isolation:auto;mix-blend-mode:normal;color-interpolation:sRGB;color-interpolation-filters:linearRGB;solid-color:#000;solid-opacity:1;vector-effect:none;fill:#2e3436;fill-opacity:1;fill-rule:nonzero;stroke:none;stroke-width:.529167;stroke-linecap:round;stroke-linejoin:round;stroke-miterlimit:4;stroke-dasharray:none;stroke-dashoffset:56;stroke-opacity:1;color-rendering:auto;image-rendering:auto;shape-rendering:auto;text-rendering:auto;enable-background:new"/></svg>