<svg xmlns="http://www.w3.org/2000/svg" width="16" height="16" viewBox="0 0 4.233 4.233"><path d="M2.115 1.066c-.58 0-1.058.477-1.058 1.058 0 .58.477 1.058 1.058 1.058.58 0 1.058-.477 1.058-1.058 0-.58-.477-1.058-1.058-1.058z" color="#bebebe" style="font-variant-ligatures:normal;font-variant-position:normal;font-variant-caps:normal;font-variant-numeric:normal;font-variant-alternates:normal;font-feature-settings:normal;text-indent:0;text-decoration:none;text-decoration-line:none;text-decoration-style:solid;text-decoration-color:#000;text-transform:none;text-orientation:mixed;white-space:normal;shape-padding:0;isolation:auto;mix-blend-mode:normal;fill:#2e3436;stroke-width:.26458"/><rect x="1.85" y=".005" width=".529" height=".794" rx=".132" ry=".132" style="fill:#2e3436;stroke-width:.26458"/><rect x="1.85" y="3.444" width=".529" height=".794" rx=".132" ry=".132" style="fill:#2e3436;stroke-width:.26458"/><rect transform="rotate(-45)" x="-.269" y=".88" width=".529" height=".794" rx=".132" ry=".132" style="fill:#2e3436;stroke-width:.26458"/><rect transform="rotate(-45)" x="-.269" y="4.32" width=".529" height=".794" rx=".132" ry=".132" style="fill:#2e3436;stroke-width:.26458"/><rect transform="rotate(-135)" x="-3.261" y="-2.121" width=".529" height=".794" rx=".132" ry=".132" style="fill:#2e3436;stroke-width:.26458"/><rect transform="rotate(-135)" x="-3.261" y="1.318" width=".529" height=".794" rx=".132" ry=".132" style="fill:#2e3436;stroke-width:.26458"/><rect transform="rotate(90)" x="1.857" y="-4.232" width=".529" height=".794" rx=".132" ry=".132" style="fill:#2e3436;stroke-width:.26458"/><rect transform="rotate(90)" x="1.857" y="-.792" width=".529" height=".794" rx=".132" ry=".132" style="fill:#2e3436;stroke-width:.26458"/></svg>