<?xml version="1.0" encoding="UTF-8" standalone="no"?>
<svg
   xmlns:dc="http://purl.org/dc/elements/1.1/"
   xmlns:cc="http://creativecommons.org/ns#"
   xmlns:rdf="http://www.w3.org/1999/02/22-rdf-syntax-ns#"
   xmlns:svg="http://www.w3.org/2000/svg"
   xmlns="http://www.w3.org/2000/svg"
   xmlns:sodipodi="http://sodipodi.sourceforge.net/DTD/sodipodi-0.dtd"
   xmlns:inkscape="http://www.inkscape.org/namespaces/inkscape"
   width="4.2333mm"
   height="4.2333mm"
   version="1.1"
   viewBox="0 0 4.2333 4.2333"
   id="svg13791"
   sodipodi:docname="flypie-menu-system-suspend-symbolic.svg"
   inkscape:version="1.0.2 (e86c870879, 2021-01-15)">
  <defs
     id="defs13795" />
  <sodipodi:namedview
     pagecolor="#ffffff"
     bordercolor="#666666"
     borderopacity="1"
     objecttolerance="10"
     gridtolerance="10"
     guidetolerance="10"
     inkscape:pageopacity="0"
     inkscape:pageshadow="2"
     inkscape:window-width="1623"
     inkscape:window-height="936"
     id="namedview13793"
     showgrid="false"
     inkscape:zoom="45.937859"
     inkscape:cx="7.9999374"
     inkscape:cy="7.9999374"
     inkscape:window-x="0"
     inkscape:window-y="32"
     inkscape:window-maximized="0"
     inkscape:current-layer="svg13791" />
  <metadata
     id="metadata13769">
    <rdf:RDF>
      <cc:Work
         rdf:about="">
        <dc:format>image/svg+xml</dc:format>
        <dc:type
           rdf:resource="http://purl.org/dc/dcmitype/StillImage" />
        <dc:title />
      </cc:Work>
    </rdf:RDF>
  </metadata>
  <path
     d="m 0.79038,0.25998 c -0.43973196,0 -0.79374,0.35400804 -0.79374,0.79374 v 1.85206 c 0,0.439732 0.35400804,0.79374 0.79374,0.79374 h 2.6458 c 0.439732,0 0.79374,-0.354008 0.79374,-0.79374 V 1.05372 c 0,-0.43973196 -0.354008,-0.79374 -0.79374,-0.79374 z m 0,0.52916 h 2.6458 c 0.1465773,0 0.26458,0.11800268 0.26458,0.26458 v 1.85206 c 0,0.1465773 -0.1180027,0.26458 -0.26458,0.26458 H 0.79038 C 0.64380268,3.17036 0.5258,3.0523573 0.5258,2.90578 V 1.05372 c 0,-0.14657732 0.11800268,-0.26458 0.26458,-0.26458 z"
     fill="#2e3436"
     id="path13775"
     style="stroke-width:0.26458" />
  <path
     d="M 2.11328,4.22868 C 2.90702,4.22868 3.1716,3.9641 3.1716,3.9641 H 1.05496 c 0,0 0.26458,0.26458 1.05832,0.26458 z"
     fill="#2e3436"
     id="path13777"
     style="stroke-width:0.26458" />
  <path
     d="M 1.8345305,2.845888 C 1.7778017,2.8411299 1.7397748,2.7854371 1.7559774,2.7308647 L 1.8324262,2.453819 C 1.7561497,2.434135 1.681816,2.4066602 1.6100894,2.3717593 L 1.4266791,2.6887728 c -0.016501,0.029559 -0.048233,0.047322 -0.08206,0.04594 C 1.2762481,2.7322328 1.2356646,2.6572478 1.2709771,2.598648 L 1.453687,2.2830347 C 1.3929452,2.2440346 1.3340421,2.2020432 1.2783456,2.1567895 L 1.0532079,2.3819272 C 1.0362399,2.3992902 1.0129559,2.4090212 0.9886812,2.4089302 0.9084062,2.4085711 0.86888544,2.3111262 0.9262588,2.2549787 L 1.1454356,2.0358015 C 1.0948976,1.9879801 1.0472684,1.9416078 1.0030578,1.8934237 L 0.87365611,2.0228272 c -0.0169675,0.017362 -0.0402515,0.027094 -0.0645267,0.027003 -0.080275,-3.591e-4 -0.11979576,-0.097804 -0.0624224,-0.1539515 L 0.88382582,1.7587612 C 0.72483968,1.5655834 0.63062441,1.4094826 0.63062441,1.4094826 h 0.3591 c 0,0 0.38315969,0.7182 1.07729999,0.7182 0.6941403,0 1.0773,-0.7182 1.0773,-0.7182 h 0.3591 c 0,0 -0.094208,0.1561026 -0.2532014,0.3492786 l 0.1371187,0.137117 c 0.058406,0.057099 0.016411,0.1561941 -0.065229,0.1539515 -0.023298,-7.182e-4 -0.045431,-0.010324 -0.06172,-0.027003 L 3.130991,1.8934237 C 3.095029,1.9326177 3.05721,1.9700037 3.0170199,2.0091491 l 0.1981334,0.2539016 c 0.048574,0.060478 0.00277,0.1499405 -0.074695,0.1458844 -0.026458,-0.00126 -0.050974,-0.01431 -0.066981,-0.03542 L 2.8848064,2.132236 c -0.046678,0.039275 -0.0947,0.07726 -0.1451841,0.1125689 l 0.1925315,0.3121117 c 0.039302,0.061787 -0.0079,0.1421013 -0.081008,0.137819 -0.029559,-0.00181 -0.056323,-0.018077 -0.07154,-0.043483 L 2.5863746,2.3391404 c -0.065302,0.035856 -0.1328167,0.066541 -0.2023529,0.090477 l 0.102401,0.2956291 c 0.021223,0.057971 -0.021038,0.1195695 -0.082762,0.120636 -0.039264,5.387e-4 -0.07435,-0.024419 -0.086619,-0.06172 L 2.2097325,2.4752106 c -0.046943,0.00745 -0.094567,0.011581 -0.1427278,0.011581 -0.018934,0 -0.037354,-0.00336 -0.056109,-0.00456 l -0.08171,0.2963293 c -0.010109,0.039151 -0.045137,0.066715 -0.085566,0.067331 -0.00303,1.544e-4 -0.00609,1.544e-4 -0.00912,0 z"
     fill="#2e3436"
     id="path13785"
     style="stroke-width:0.264585" />
</svg>
