<svg xmlns="http://www.w3.org/2000/svg" width="16" height="16" viewBox="0 0 4.233 4.233"><path d="M.79.26a.792.792 0 0 0-.793.794v1.852c0 .44.354.794.793.794h2.646c.44 0 .794-.354.794-.794V1.054A.792.792 0 0 0 3.436.26zm0 .53h2.646c.147 0 .265.117.265.264v1.852a.264.264 0 0 1-.265.264H.79a.264.264 0 0 1-.264-.264V1.054C.526.907.644.789.79.789zM2.113 4.229c.794 0 1.059-.265 1.059-.265H1.055s.265.265 1.058.265z" fill="#2e3436" style="stroke-width:.26458"/><path d="M1.835 2.846a.09.09 0 0 1-.079-.115l.076-.277a1.184 1.184 0 0 1-.222-.082l-.183.317a.09.09 0 1 1-.156-.09l.183-.316a1.941 1.941 0 0 1-.176-.126l-.225.225a.09.09 0 1 1-.127-.127l.22-.22a2.857 2.857 0 0 1-.143-.142l-.13.13a.09.09 0 1 1-.126-.127l.137-.137a3.286 3.286 0 0 1-.253-.35H.99s.383.719 1.077.719 1.077-.719 1.077-.719h.36s-.095.157-.254.35l.137.137a.09.09 0 1 1-.127.127l-.129-.13c-.036.04-.074.077-.114.116l.198.254a.09.09 0 1 1-.142.11l-.188-.24c-.047.039-.095.076-.145.112l.192.312a.09.09 0 1 1-.152.094l-.194-.312a1.301 1.301 0 0 1-.202.09l.102.296a.09.09 0 1 1-.169.06l-.107-.31a.91.91 0 0 1-.143.012c-.019 0-.037-.004-.056-.005l-.082.297a.09.09 0 0 1-.095.067z" fill="#2e3436" style="stroke-width:.264585"/></svg>