<svg xmlns="http://www.w3.org/2000/svg" width="64" height="64" viewBox="0 0 16.933 16.933"><filter id="a" height="100%" width="100%" x="0%" y="0%"><feColorMatrix in="SourceGraphic" values="0 0 0 0 1 0 0 0 0 1 0 0 0 0 1 0 0 0 1 0"/></filter><path d="M-130.445 114.04h.265v.265h-.265zM-130.18 113.776h.264v.265h-.264zM-129.916 114.57h.265v.264h-.265zM-130.445 114.57h.265v.264h-.265zM-130.18 114.834h.264v.265h-.264zM-129.651 114.834h.265v.265h-.265zm0 0" fill="#2e3436" fill-rule="evenodd" style="stroke-width:.264583"/><path d="M-98.695 121.449v1.852h1.852v-1.852zM-82.026 116.686h.794v3.175h-.794zM-79.248-15.034c.074 0 .132.06.132.133v.264a.132.132 0 0 1-.132.132.132.132 0 0 1-.132-.132v-.264c0-.074.059-.133.132-.133zM-80.042-15.034c.074 0 .133.06.133.133v.264a.132.132 0 0 1-.133.132.132.132 0 0 1-.132-.132v-.264c0-.074.059-.133.132-.133zM-73.956-15.298a.267.267 0 0 0-.265.264c0 .145.12.265.265.265.144 0 .264-.12.264-.265a.267.267 0 0 0-.264-.264zM-74.762-15.298a.255.255 0 0 0-.253.252v.025c0 .137.115.252.253.252h.024a.255.255 0 0 0 .253-.252v-.025a.255.255 0 0 0-.253-.252zm0 0" fill="#2e3436" style="stroke-width:.264583"/><g style="fill:#4b4b4b;fill-opacity:1;stroke-width:.268263"><path d="M7.825 10.445c-.595.037-1.139-.16-1.631-.595-.43-.504-.664-1.054-.701-1.65-.042-.661.186-1.273.682-1.836.492-.628 1.069-.963 1.73-1.005.53-.033 1.077.232 1.644.794.563.496.862 1.041.9 1.637.103 1.654-.77 2.539-2.623 2.655Z" style="font-style:normal;font-variant:normal;font-weight:400;font-stretch:normal;font-size:10.5833px;line-height:125%;font-family:'Amatic SC';-inkscape-font-specification:'Amatic SC';letter-spacing:0;word-spacing:0;opacity:1;fill:#4b4b4b;fill-opacity:1;stroke:none;stroke-width:2.16029px;stroke-linecap:butt;stroke-linejoin:miter;stroke-opacity:1" transform="translate(.692 .659) scale(.98628)"/><path style="font-style:normal;font-variant:normal;font-weight:400;font-stretch:normal;font-size:10.5833px;line-height:125%;font-family:'Amatic SC';-inkscape-font-specification:'Amatic SC';letter-spacing:0;word-spacing:0;fill:#4b4b4b;fill-opacity:1;stroke:none;stroke-width:1.45678px;stroke-linecap:butt;stroke-linejoin:miter;stroke-opacity:1" d="M2.196 4.37c-.33-.23-.534-.562-.611-.999-.013-.447.092-.835.323-1.164.256-.367.633-.594 1.13-.683.525-.125.97-.06 1.336.197.293.205.47.575.534 1.11.085.498.018.911-.214 1.24-.64.917-1.473 1.016-2.499.3Z" transform="translate(.692 .659) scale(.98628)"/><path d="M8.769 2.602c-.287-.2-.465-.49-.532-.87-.01-.389.081-.727.281-1.014.223-.32.552-.517.985-.594.456-.109.843-.051 1.162.172.255.178.41.5.465.965.076.434.015.794-.186 1.08-.557.798-1.282.885-2.175.26Z" style="font-style:normal;font-variant:normal;font-weight:400;font-stretch:normal;font-size:10.5833px;line-height:125%;font-family:'Amatic SC';-inkscape-font-specification:'Amatic SC';letter-spacing:0;word-spacing:0;fill:#4b4b4b;fill-opacity:1;stroke:none;stroke-width:1.40779px;stroke-linecap:butt;stroke-linejoin:miter;stroke-opacity:1" transform="translate(.692 .659) scale(.98628)"/><path style="font-style:normal;font-variant:normal;font-weight:400;font-stretch:normal;font-size:10.5833px;line-height:125%;font-family:'Amatic SC';-inkscape-font-specification:'Amatic SC';letter-spacing:0;word-spacing:0;fill:#4b4b4b;fill-opacity:1;stroke:none;stroke-width:1.3911px;stroke-linecap:butt;stroke-linejoin:miter;stroke-opacity:1" d="M13.774 7.663c-.382.039-.737-.08-1.063-.349a1.789 1.789 0 0 1-.486-1.047c-.042-.425.092-.823.4-1.196.303-.415.667-.643 1.092-.684.34-.03.698.126 1.075.476.372.308.577.653.613 1.035.098 1.062-.442 1.65-1.632 1.764z" transform="translate(.692 .659) scale(.98628)"/><path d="M11.098 13.25c-.224-.373-.278-.792-.161-1.257.183-.447.46-.783.834-1.007.416-.249.888-.307 1.42-.174.572.109.982.37 1.23.785.2.333.211.776.038 1.332-.134.53-.386.908-.76 1.132-1.038.621-1.904.351-2.6-.81z" style="font-style:normal;font-variant:normal;font-weight:400;font-stretch:normal;font-size:10.5833px;line-height:125%;font-family:'Amatic SC';-inkscape-font-specification:'Amatic SC';letter-spacing:0;word-spacing:0;fill:#4b4b4b;fill-opacity:1;stroke:none;stroke-width:1.57661px;stroke-linecap:butt;stroke-linejoin:miter;stroke-opacity:1" transform="translate(.692 .659) scale(.98628)"/><path style="font-style:normal;font-variant:normal;font-weight:400;font-stretch:normal;font-size:10.5833px;line-height:125%;font-family:'Amatic SC';-inkscape-font-specification:'Amatic SC';letter-spacing:0;word-spacing:0;fill:#4b4b4b;fill-opacity:1;stroke:none;stroke-width:1.69038px;stroke-linecap:butt;stroke-linejoin:miter;stroke-opacity:1" d="M6.417 15.347c.346-.313.533-.726.558-1.239-.048-.516-.228-.948-.54-1.294-.349-.385-.816-.592-1.402-.621-.621-.068-1.124.072-1.508.42-.308.278-.459.73-.454 1.354-.025.586.113 1.053.426 1.399.87.961 1.843.955 2.92-.018z" transform="translate(.692 .659) scale(.98628)"/><path style="font-style:normal;font-variant:normal;font-weight:400;font-stretch:normal;font-size:10.5833px;line-height:125%;font-family:'Amatic SC';-inkscape-font-specification:'Amatic SC';letter-spacing:0;word-spacing:0;fill:#4b4b4b;fill-opacity:1;stroke:none;stroke-width:1.3911px;stroke-linecap:butt;stroke-linejoin:miter;stroke-opacity:1" d="M1.923 10.628c-.438.044-.846-.091-1.22-.4-.33-.363-.516-.764-.559-1.203-.048-.488.106-.946.46-1.374.348-.477.766-.739 1.254-.785.39-.034.802.144 1.234.546.428.353.663.75.705 1.189.112 1.22-.508 1.895-1.874 2.026Z" transform="translate(.692 .659) scale(.98628)"/></g></svg>