<?xml version="1.0" encoding="UTF-8" standalone="no"?>
<svg
   xmlns:dc="http://purl.org/dc/elements/1.1/"
   xmlns:cc="http://creativecommons.org/ns#"
   xmlns:rdf="http://www.w3.org/1999/02/22-rdf-syntax-ns#"
   xmlns:svg="http://www.w3.org/2000/svg"
   xmlns="http://www.w3.org/2000/svg"
   xmlns:sodipodi="http://sodipodi.sourceforge.net/DTD/sodipodi-0.dtd"
   xmlns:inkscape="http://www.inkscape.org/namespaces/inkscape"
   version="1.1"
   id="svg2"
   width="64"
   height="64"
   viewBox="0 0 64 64"
   sodipodi:docname="award3.svg"
   inkscape:version="1.0.1 (3bc2e813f5, 2020-09-07)">
  <metadata
     id="metadata8">
    <rdf:RDF>
      <cc:Work
         rdf:about="">
        <dc:format>image/svg+xml</dc:format>
        <dc:type
           rdf:resource="http://purl.org/dc/dcmitype/StillImage" />
        <dc:title />
        <cc:license
           rdf:resource="http://creativecommons.org/licenses/by/4.0/" />
      </cc:Work>
      <cc:License
         rdf:about="http://creativecommons.org/licenses/by/4.0/">
        <cc:permits
           rdf:resource="http://creativecommons.org/ns#Reproduction" />
        <cc:permits
           rdf:resource="http://creativecommons.org/ns#Distribution" />
        <cc:requires
           rdf:resource="http://creativecommons.org/ns#Notice" />
        <cc:requires
           rdf:resource="http://creativecommons.org/ns#Attribution" />
        <cc:permits
           rdf:resource="http://creativecommons.org/ns#DerivativeWorks" />
      </cc:License>
    </rdf:RDF>
  </metadata>
  <defs
     id="defs6" />
  <sodipodi:namedview
     pagecolor="#686868"
     bordercolor="#000000"
     borderopacity="1"
     objecttolerance="10"
     gridtolerance="10"
     guidetolerance="10"
     inkscape:pageopacity="0"
     inkscape:pageshadow="2"
     inkscape:window-width="1920"
     inkscape:window-height="1136"
     id="namedview4"
     showgrid="true"
     inkscape:pagecheckerboard="false"
     showguides="true"
     inkscape:guide-bbox="true"
     inkscape:snap-object-midpoints="true"
     inkscape:snap-others="true"
     inkscape:object-nodes="false"
     inkscape:snap-nodes="false"
     inkscape:zoom="29.5"
     inkscape:cx="28.706671"
     inkscape:cy="26.766175"
     inkscape:window-x="0"
     inkscape:window-y="27"
     inkscape:window-maximized="1"
     inkscape:current-layer="g10"
     inkscape:document-rotation="0"
     showborder="true"
     borderlayer="true"
     inkscape:showpageshadow="false"
     inkscape:snap-global="false"
     inkscape:snap-center="true">
    <inkscape:grid
       type="xygrid"
       id="grid4526"
       dotted="false"
       empspacing="8"
       snapvisiblegridlinesonly="true" />
    <sodipodi:guide
       position="32,69.288136"
       orientation="1,0"
       id="guide838"
       inkscape:locked="false" />
    <sodipodi:guide
       position="60.338983,96"
       orientation="0,1"
       id="guide842"
       inkscape:locked="false" />
  </sodipodi:namedview>
  <g
     id="g8"
     transform="matrix(1.0948648,0,0,1.0948648,18.903531,19.700807)"
     style="opacity:0.65;fill:#ffffff;fill-opacity:1">
    <g
       id="g10"
       transform="matrix(1.1280006,0,0,1.1280006,-1.6438489,-2.1146984)"
       style="fill:#17152c;fill-opacity:1">
      <path
         id="path8"
         style="fill:#17152c;fill-opacity:1;stroke-width:1.23501"
         d="m 26.984375,19.855469 c -0.679254,0 -1.236328,0.55512 -1.236328,1.234375 v 9.177734 c 0,0.432253 0.222616,0.838246 0.605469,1.060547 l 5.162109,3.099609 -1.222656,2.890625 -2.740235,0.234375 c -0.568103,0.0494 -0.790996,0.729739 -0.371093,1.087891 l 2.08789,1.802734 -0.630859,2.691407 c -0.123501,0.531053 0.456478,0.95202 0.925781,0.667968 l 2.359375,-1.433593 2.359375,1.419921 c 0.469303,0.284052 1.049282,-0.134962 0.925781,-0.666015 l -0.628906,-2.691406 2.085938,-1.804688 c 0.407552,-0.358152 0.198331,-1.036537 -0.357422,-1.085937 l -2.742188,-0.234375 -1.222656,-2.890625 5.162109,-3.09961 c 0.370503,-0.209951 0.59375,-0.604225 0.59375,-1.048828 v -9.177734 c 0,-0.679255 -0.557073,-1.234375 -1.236328,-1.234375 z m 1.161871,1.242187 2.159077,0 v 10.658203 l -2.159077,-1.269531 z m 5.489837,0 2.159077,0 v 9.388672 l -2.159077,1.269531 z"
         transform="matrix(0.80971125,0,0,0.80971125,-13.84909,-14.077234)"
         sodipodi:nodetypes="ssscccccccccccccccccsssscccccccccc" />
      <path
         id="path8-3"
         style="opacity:0.65;fill:#17152c;fill-opacity:1;stroke-width:0.527174"
         d="m 5.3525005,13.444255 c -0.091637,-0.101948 -0.1870295,-0.189037 -0.3534918,0.005 l -0.5219009,1.233886 -1.1696909,0.100045 c -0.2424997,0.02109 -0.3376431,0.311495 -0.1584044,0.464375 l 0.891233,0.769511 -0.2692877,1.148849 c -0.052715,0.226684 0.1948517,0.406378 0.3951775,0.285128 l 1.0071182,-0.611941 1.0071182,0.606105 c 0.2003257,0.12125 0.4478944,-0.05761 0.395177,-0.284294 L 6.3070951,16.01207 7.1974941,15.241725 C 7.371461,15.088844 7.2821533,14.79927 7.0449257,14.778183 L 5.8744011,14.678139 Z"
         sodipodi:nodetypes="cccccccccccccccc" />
      <path
         id="path7770"
         style="opacity:0.65;fill:#17152c;fill-opacity:1;stroke-width:0.527174"
         d="m 18.639359,13.444255 c -0.09164,-0.101948 -0.18703,-0.189037 -0.353492,0.005 l -0.521901,1.233886 -1.169691,0.100045 c -0.242499,0.02109 -0.337643,0.311495 -0.158404,0.464375 l 0.891233,0.769511 -0.269288,1.148849 c -0.05271,0.226684 0.194852,0.406378 0.395178,0.285128 l 1.007118,-0.611941 1.007118,0.606105 c 0.200326,0.12125 0.447894,-0.05761 0.395177,-0.284294 l -0.268454,-1.148849 0.890399,-0.770345 c 0.173967,-0.152881 0.08466,-0.442455 -0.152568,-0.463542 l -1.170525,-0.100044 z"
         sodipodi:nodetypes="cccccccccccccccc" />
    </g>
  </g>
</svg>
