<?xml version="1.0" encoding="UTF-8" standalone="no"?>
<svg
   xmlns:dc="http://purl.org/dc/elements/1.1/"
   xmlns:cc="http://creativecommons.org/ns#"
   xmlns:rdf="http://www.w3.org/1999/02/22-rdf-syntax-ns#"
   xmlns:svg="http://www.w3.org/2000/svg"
   xmlns="http://www.w3.org/2000/svg"
   xmlns:sodipodi="http://sodipodi.sourceforge.net/DTD/sodipodi-0.dtd"
   xmlns:inkscape="http://www.inkscape.org/namespaces/inkscape"
   version="1.1"
   id="svg2"
   width="64"
   height="64"
   viewBox="0 0 64 64"
   sodipodi:docname="timer.svg"
   inkscape:version="1.0.1 (3bc2e813f5, 2020-09-07)">
  <metadata
     id="metadata8">
    <rdf:RDF>
      <cc:Work
         rdf:about="">
        <dc:format>image/svg+xml</dc:format>
        <dc:type
           rdf:resource="http://purl.org/dc/dcmitype/StillImage" />
        <dc:title />
        <cc:license
           rdf:resource="http://creativecommons.org/licenses/by/4.0/" />
      </cc:Work>
      <cc:License
         rdf:about="http://creativecommons.org/licenses/by/4.0/">
        <cc:permits
           rdf:resource="http://creativecommons.org/ns#Reproduction" />
        <cc:permits
           rdf:resource="http://creativecommons.org/ns#Distribution" />
        <cc:requires
           rdf:resource="http://creativecommons.org/ns#Notice" />
        <cc:requires
           rdf:resource="http://creativecommons.org/ns#Attribution" />
        <cc:permits
           rdf:resource="http://creativecommons.org/ns#DerivativeWorks" />
      </cc:License>
    </rdf:RDF>
  </metadata>
  <defs
     id="defs6" />
  <sodipodi:namedview
     pagecolor="#686868"
     bordercolor="#000000"
     borderopacity="1"
     objecttolerance="10"
     gridtolerance="10"
     guidetolerance="10"
     inkscape:pageopacity="0"
     inkscape:pageshadow="2"
     inkscape:window-width="1920"
     inkscape:window-height="1136"
     id="namedview4"
     showgrid="true"
     inkscape:pagecheckerboard="false"
     showguides="true"
     inkscape:guide-bbox="true"
     inkscape:snap-object-midpoints="true"
     inkscape:snap-others="true"
     inkscape:object-nodes="false"
     inkscape:snap-nodes="false"
     inkscape:zoom="7.375"
     inkscape:cx="34.070187"
     inkscape:cy="31.958955"
     inkscape:window-x="0"
     inkscape:window-y="27"
     inkscape:window-maximized="1"
     inkscape:current-layer="svg2"
     inkscape:document-rotation="0"
     showborder="true"
     borderlayer="true"
     inkscape:showpageshadow="false"
     inkscape:snap-global="false"
     inkscape:snap-center="true">
    <inkscape:grid
       type="xygrid"
       id="grid4526"
       dotted="false"
       empspacing="8"
       snapvisiblegridlinesonly="true" />
    <sodipodi:guide
       position="32,69.288136"
       orientation="1,0"
       id="guide838"
       inkscape:locked="false" />
    <sodipodi:guide
       position="60.338983,96"
       orientation="0,1"
       id="guide842"
       inkscape:locked="false" />
  </sodipodi:namedview>
  <rect
     fill="none"
     height="24"
     width="24"
     id="rect2"
     x="67.86441"
     y="45.491524" />
  <path
     d="m 34.335641,20.217569 h -4.375562 c -0.60164,0 -1.093891,0.492251 -1.093891,1.09389 0,0.60164 0.492251,1.09389 1.093891,1.09389 h 4.375562 c 0.60164,0 1.09389,-0.49225 1.09389,-1.09389 0,-0.601639 -0.49225,-1.09389 -1.09389,-1.09389 z m -2.187782,14.220574 c 0.60164,0 1.093892,-0.492251 1.093892,-1.093891 v -4.375561 c 0,-0.601639 -0.492252,-1.09389 -1.093892,-1.09389 -0.601639,0 -1.09389,0.492251 -1.09389,1.09389 v 4.375561 c 0,0.60164 0.492251,1.093891 1.09389,1.093891 z m 7.69005,-7.230615 0.820418,-0.820418 c 0.415678,-0.415678 0.426617,-1.104829 0,-1.531446 l -0.01094,-0.01094 c -0.426617,-0.426617 -1.104829,-0.415678 -1.531447,0 l -0.820417,0.820418 c -1.69553,-1.356424 -3.828616,-2.165903 -6.147665,-2.165903 -5.250673,0 -9.713746,4.331805 -9.845012,9.582479 -0.142206,5.556962 4.309927,10.107546 9.845012,10.107546 5.447575,0 9.845014,-4.408378 9.845014,-9.845013 0,-2.319047 -0.809479,-4.452133 -2.154964,-6.136724 z m -7.69005,13.793957 c -4.233355,0 -7.657232,-3.423877 -7.657232,-7.657233 0,-4.233355 3.423877,-7.657232 7.657232,-7.657232 4.233357,0 7.657233,3.423877 7.657233,7.657232 0,4.233356 -3.423876,7.657233 -7.657233,7.657233 z"
     id="path4"
     style="opacity:0.65;fill:#17152c;fill-opacity:1;stroke-width:1.09389" />
</svg>
