<?xml version="1.0" encoding="UTF-8" standalone="no"?>
<svg
   xmlns:dc="http://purl.org/dc/elements/1.1/"
   xmlns:cc="http://creativecommons.org/ns#"
   xmlns:rdf="http://www.w3.org/1999/02/22-rdf-syntax-ns#"
   xmlns:svg="http://www.w3.org/2000/svg"
   xmlns="http://www.w3.org/2000/svg"
   xmlns:sodipodi="http://sodipodi.sourceforge.net/DTD/sodipodi-0.dtd"
   xmlns:inkscape="http://www.inkscape.org/namespaces/inkscape"
   width="800"
   height="300"
   viewBox="0 0 211.66666 79.375002"
   version="1.1"
   id="svg8"
   inkscape:version="1.0.1 (3bc2e813f5, 2020-09-07)"
   sodipodi:docname="logo.svg"
   inkscape:export-filename="/home/simon/Desktop/logo/frame5.png"
   inkscape:export-xdpi="96"
   inkscape:export-ydpi="96">
  <defs
     id="defs2" />
  <sodipodi:namedview
     id="base"
     pagecolor="#ffffff"
     bordercolor="#666666"
     borderopacity="1.0"
     inkscape:pageopacity="1"
     inkscape:pageshadow="2"
     inkscape:zoom="0.7"
     inkscape:cx="383.58604"
     inkscape:cy="152.25267"
     inkscape:document-units="mm"
     inkscape:current-layer="g945"
     showgrid="true"
     units="px"
     inkscape:window-width="1920"
     inkscape:window-height="1130"
     inkscape:window-x="0"
     inkscape:window-y="0"
     inkscape:window-maximized="1"
     inkscape:snap-global="false"
     inkscape:snap-object-midpoints="true"
     showguides="true"
     inkscape:guide-bbox="true"
     inkscape:document-rotation="0">
    <inkscape:grid
       type="xygrid"
       id="grid957"
       spacingx="105.83333"
       spacingy="39.6875" />
  </sodipodi:namedview>
  <metadata
     id="metadata5">
    <rdf:RDF>
      <cc:Work
         rdf:about="">
        <dc:format>image/svg+xml</dc:format>
        <dc:type
           rdf:resource="http://purl.org/dc/dcmitype/StillImage" />
        <dc:title />
      </cc:Work>
    </rdf:RDF>
  </metadata>
  <g
     inkscape:label="Layer 1"
     inkscape:groupmode="layer"
     id="layer1"
     transform="translate(0,-217.62499)">
    <g
       transform="matrix(1.4214705,0,0,1.4214705,-54.246901,-44.965736)"
       id="g945"
       style="font-style:normal;font-variant:normal;font-weight:normal;font-stretch:normal;font-size:22.00597382px;line-height:125%;font-family:Sarai;-inkscape-font-specification:Sarai;letter-spacing:0px;word-spacing:0px;fill:#7c7c7c;fill-opacity:1;stroke:none;stroke-width:0.55014938px;stroke-linecap:butt;stroke-linejoin:miter;stroke-opacity:1"
       aria-label="Fly-Pie">
      <text
         xml:space="preserve"
         style="font-style:normal;font-variant:normal;font-weight:normal;font-stretch:normal;font-size:7.44534px;line-height:125%;font-family:Sarai;-inkscape-font-specification:Sarai;letter-spacing:0px;word-spacing:0px;fill:#000000;fill-opacity:1;stroke:none;stroke-width:0.186134px;stroke-linecap:butt;stroke-linejoin:miter;stroke-opacity:1"
         x="105.47485"
         y="256.92984"
         id="text965" />
      <g
         id="g4742"
         transform="matrix(1.3903698,0,0,1.3903698,-217.67746,-80.616014)">
        <path
           d="m 268.89831,208.72798 q -0.24901,-0.0466 -0.4388,-0.24155 -0.15855,-0.18979 -0.11845,-0.40803 0.0569,-0.3115 2.07059,-0.23222 2.05035,0.0536 3.42071,0.30497 0.24902,0.0466 0.43881,0.24109 0.18932,0.19585 0.14969,0.41362 -0.0569,0.3115 -2.07628,0.26347 -2.01351,-0.0793 -3.44617,-0.34181 z"
           style="font-style:normal;font-variant:normal;font-weight:normal;font-stretch:normal;font-size:10.5833px;line-height:125%;font-family:'Amatic SC';-inkscape-font-specification:'Amatic SC';letter-spacing:0px;word-spacing:0px;fill:#000000;fill-opacity:1;stroke:none;stroke-width:0.791591px;stroke-linecap:butt;stroke-linejoin:miter;stroke-opacity:1"
           id="path823"
           inkscape:connector-curvature="0" />
        <path
           d="m 277.30199,209.87405 c -0.35953,0 -0.67951,-0.13989 -0.9593,-0.41968 -0.23969,-0.3199 -0.35953,-0.65952 -0.35953,-1.01928 0,-0.39963 0.15994,-0.7594 0.4797,-1.0792 0.31989,-0.35953 0.67951,-0.53962 1.07919,-0.53962 0.3199,0 0.63956,0.18 0.95931,0.53962 0.31989,0.3199 0.47965,0.65956 0.47965,1.01928 0,0.99927 -0.55958,1.49888 -1.67878,1.49888 z"
           style="font-style:normal;font-variant:normal;font-weight:normal;font-stretch:normal;font-size:10.5833px;line-height:125%;font-family:'Amatic SC';-inkscape-font-specification:'Amatic SC';letter-spacing:0px;word-spacing:0px;fill:#000000;fill-opacity:1;stroke:none;stroke-width:1.49891px;stroke-linecap:butt;stroke-linejoin:miter;stroke-opacity:1"
           id="path825"
           inkscape:connector-curvature="0"
           sodipodi:nodetypes="ccscscscc" />
        <path
           sodipodi:nodetypes="ccscscscc"
           inkscape:connector-curvature="0"
           id="path832"
           style="font-style:normal;font-variant:normal;font-weight:normal;font-stretch:normal;font-size:10.5833px;line-height:125%;font-family:'Amatic SC';-inkscape-font-specification:'Amatic SC';letter-spacing:0px;word-spacing:0px;fill:#000000;fill-opacity:1;stroke:none;stroke-width:1.01078px;stroke-linecap:butt;stroke-linejoin:miter;stroke-opacity:1"
           d="m 274.26497,206.2441 c -0.1898,-0.15109 -0.29985,-0.35906 -0.32969,-0.6244 0.009,-0.26953 0.0872,-0.49905 0.23829,-0.68879 0.16787,-0.21078 0.40336,-0.33342 0.70642,-0.36793 0.31989,-0.0555 0.58513,8.4e-4 0.79596,0.16881 0.1688,0.1343 0.2616,0.36373 0.27932,0.68768 0.0326,0.3031 -0.0233,0.54941 -0.17533,0.73916 -0.41969,0.52712 -0.9249,0.55556 -1.51525,0.0853 z" />
        <path
           d="m 278.22176,205.49333 c -0.18327,-0.14596 -0.28959,-0.34694 -0.3185,-0.60341 0.009,-0.26021 0.0844,-0.48227 0.23036,-0.66562 0.16228,-0.20378 0.38984,-0.32223 0.68264,-0.35534 0.30917,-0.0536 0.56546,8e-4 0.76919,0.16321 0.16321,0.12964 0.25321,0.35114 0.27,0.66451 0.0326,0.29284 -0.0233,0.53094 -0.16927,0.71435 -0.4057,0.50935 -0.89379,0.53687 -1.46428,0.0825 z"
           style="font-style:normal;font-variant:normal;font-weight:normal;font-stretch:normal;font-size:10.5833px;line-height:125%;font-family:'Amatic SC';-inkscape-font-specification:'Amatic SC';letter-spacing:0px;word-spacing:0px;fill:#000000;fill-opacity:1;stroke:none;stroke-width:0.976793px;stroke-linecap:butt;stroke-linejoin:miter;stroke-opacity:1"
           id="path834"
           inkscape:connector-curvature="0"
           sodipodi:nodetypes="ccscscscc" />
        <path
           sodipodi:nodetypes="ccscscscc"
           inkscape:connector-curvature="0"
           id="path836"
           style="font-style:normal;font-variant:normal;font-weight:normal;font-stretch:normal;font-size:10.5833px;line-height:125%;font-family:'Amatic SC';-inkscape-font-specification:'Amatic SC';letter-spacing:0px;word-spacing:0px;fill:#000000;fill-opacity:1;stroke:none;stroke-width:0.965208px;stroke-linecap:butt;stroke-linejoin:miter;stroke-opacity:1"
           d="m 281.10849,208.66251 c -0.23129,0.009 -0.4402,-0.0755 -0.62626,-0.24994 -0.16088,-0.20052 -0.24529,-0.41689 -0.25321,-0.64837 -0.009,-0.25741 0.0867,-0.49215 0.28585,-0.7047 0.19818,-0.23829 0.42575,-0.36186 0.6832,-0.37025 0.20564,-0.005 0.41549,0.10212 0.62878,0.32688 0.21264,0.19912 0.32269,0.41456 0.33015,0.6459 0.0187,0.6431 -0.32875,0.97647 -1.04879,1.00011 z" />
        <path
           d="m 279.2871,211.92412 c -0.12077,-0.23316 -0.13709,-0.4874 -0.0494,-0.76257 0.12684,-0.26254 0.30684,-0.45419 0.54028,-0.57478 0.25927,-0.13383 0.54592,-0.15109 0.8604,-0.0508 0.34041,0.0867 0.57758,0.25974 0.71151,0.51882 0.10725,0.20751 0.0975,0.4749 -0.028,0.80277 -0.10026,0.3143 -0.26674,0.53202 -0.50004,0.65256 -0.64785,0.33482 -1.15931,0.13943 -1.53436,-0.58607 z"
           style="font-style:normal;font-variant:normal;font-weight:normal;font-stretch:normal;font-size:10.5833px;line-height:125%;font-family:'Amatic SC';-inkscape-font-specification:'Amatic SC';letter-spacing:0px;word-spacing:0px;fill:#000000;fill-opacity:1;stroke:none;stroke-width:1.09392px;stroke-linecap:butt;stroke-linejoin:miter;stroke-opacity:1"
           id="path838"
           inkscape:connector-curvature="0"
           sodipodi:nodetypes="ccscscscc" />
        <path
           sodipodi:nodetypes="ccscscscc"
           inkscape:connector-curvature="0"
           id="path840"
           style="font-style:normal;font-variant:normal;font-weight:normal;font-stretch:normal;font-size:10.5833px;line-height:125%;font-family:'Amatic SC';-inkscape-font-specification:'Amatic SC';letter-spacing:0px;word-spacing:0px;fill:#000000;fill-opacity:1;stroke:none;stroke-width:1.17286px;stroke-linecap:butt;stroke-linejoin:miter;stroke-opacity:1"
           d="m 276.01356,213.04715 c 0.2201,-0.17534 0.34787,-0.41689 0.38238,-0.72452 -0.009,-0.31243 -0.10119,-0.57902 -0.27653,-0.79922 -0.19492,-0.24481 -0.46808,-0.38704 -0.81969,-0.42668 -0.37119,-0.0643 -0.67895,9.8e-4 -0.92358,0.19586 -0.19586,0.15575 -0.30358,0.42201 -0.32409,0.79791 -0.0373,0.3516 0.028,0.63755 0.20331,0.8577 0.48711,0.61162 1.07318,0.64463 1.7582,0.0993 z" />
        <path
           d="m 203.37503,209.11484 q 0.25321,0.005 0.47126,0.16927 0.18653,0.16275 0.1814,0.38425 -0.005,0.31663 -2.00805,0.55585 -2.03319,0.26999 -3.42603,0.23829 -0.25321,-0.005 -0.47121,-0.16928 -0.21777,-0.16321 -0.21311,-0.38471 0.009,-0.31663 2.00875,-0.58746 2.00083,-0.23923 3.45695,-0.20612 z"
           style="font-style:normal;font-variant:normal;font-weight:normal;font-stretch:normal;font-size:10.5833px;line-height:125%;font-family:'Amatic SC';-inkscape-font-specification:'Amatic SC';letter-spacing:0px;word-spacing:0px;fill:#000000;fill-opacity:1;stroke:none;stroke-width:0.791591px;stroke-linecap:butt;stroke-linejoin:miter;stroke-opacity:1"
           id="path856"
           inkscape:connector-curvature="0" />
        <path
           d="m 198.95048,211.37881 c 0.35067,-0.0807 0.63102,-0.28819 0.8411,-0.62361 0.16227,-0.36512 0.20331,-0.72326 0.12264,-1.07388 -0.0895,-0.38937 -0.32549,-0.70446 -0.7089,-0.94457 -0.39217,-0.27932 -0.78299,-0.37399 -1.17255,-0.28445 -0.3115,0.0713 -0.58313,0.31849 -0.81428,0.74046 -0.24016,0.38331 -0.3199,0.75012 -0.23969,1.10074 0.22337,0.97395 0.88064,1.33577 1.97149,1.08545 z"
           style="font-style:normal;font-variant:normal;font-weight:normal;font-stretch:normal;font-size:10.5833px;line-height:125%;font-family:'Amatic SC';-inkscape-font-specification:'Amatic SC';letter-spacing:0px;word-spacing:0px;fill:#000000;fill-opacity:1;stroke:none;stroke-width:1.49891px;stroke-linecap:butt;stroke-linejoin:miter;stroke-opacity:1"
           id="path858"
           inkscape:connector-curvature="0"
           sodipodi:nodetypes="ccscscscc" />
        <text
           xml:space="preserve"
           style="font-style:normal;font-variant:normal;font-weight:normal;font-stretch:normal;font-size:9.48353px;line-height:125%;font-family:Sarai;-inkscape-font-specification:Sarai;text-align:center;letter-spacing:0px;word-spacing:0px;text-anchor:middle;fill:#000000;fill-opacity:1;stroke:none;stroke-width:0.237088px;stroke-linecap:butt;stroke-linejoin:miter;stroke-opacity:1"
           x="236.81343"
           y="229.14139"
           id="text921"><tspan
             id="tspan923"
             sodipodi:role="line"
             x="236.81343"
             y="229.14139"
             style="font-style:normal;font-variant:normal;font-weight:bold;font-stretch:normal;font-family:'Amatic SC';-inkscape-font-specification:'Amatic SC Bold';text-align:center;text-anchor:middle;stroke-width:0.237088px">do things on-the-fly</tspan></text>
        <text
           id="text929"
           y="220.62682"
           x="235.94934"
           style="font-style:normal;font-variant:normal;font-weight:normal;font-stretch:normal;font-size:35.0295px;line-height:125%;font-family:Sarai;-inkscape-font-specification:Sarai;text-align:center;letter-spacing:0px;word-spacing:0px;text-anchor:middle;fill:#000000;fill-opacity:1;stroke:none;stroke-width:0.875738px;stroke-linecap:butt;stroke-linejoin:miter;stroke-opacity:1"
           xml:space="preserve"><tspan
             style="font-style:normal;font-variant:normal;font-weight:normal;font-stretch:normal;font-family:'Amatic SC';-inkscape-font-specification:'Amatic SC';text-align:center;text-anchor:middle;stroke-width:0.875738px"
             y="220.62682"
             x="235.94934"
             sodipodi:role="line"
             id="tspan927">Fly-Pie</tspan></text>
      </g>
      <g
         id="g4675"
         transform="matrix(1.4656389,0,0,1.4656389,345.6116,-139.4828)">
        <text
           id="text933"
           y="230.01297"
           x="-98.721245"
           style="font-style:normal;font-variant:normal;font-weight:normal;font-stretch:normal;font-size:7.48766px;line-height:125%;font-family:Sarai;-inkscape-font-specification:Sarai;text-align:center;letter-spacing:0px;word-spacing:0px;text-anchor:middle;fill:#000000;fill-opacity:1;stroke:none;stroke-width:0.187192px;stroke-linecap:butt;stroke-linejoin:miter;stroke-opacity:1"
           xml:space="preserve"><tspan
             style="font-style:normal;font-variant:normal;font-weight:bold;font-stretch:normal;font-family:'Amatic SC';-inkscape-font-specification:'Amatic SC Bold';text-align:center;text-anchor:middle;stroke-width:0.187192px"
             y="230.01297"
             x="-98.721245"
             sodipodi:role="line"
             id="tspan931">fly</tspan></text>
        <text
           xml:space="preserve"
           style="font-style:normal;font-variant:normal;font-weight:normal;font-stretch:normal;font-size:7.48766px;line-height:125%;font-family:Sarai;-inkscape-font-specification:Sarai;text-align:center;letter-spacing:0px;word-spacing:0px;text-anchor:middle;fill:#000000;fill-opacity:1;stroke:none;stroke-width:0.187192px;stroke-linecap:butt;stroke-linejoin:miter;stroke-opacity:1"
           x="-98.721245"
           y="235.78642"
           id="text937"><tspan
             id="tspan935"
             sodipodi:role="line"
             x="-98.721245"
             y="235.78642"
             style="font-style:normal;font-variant:normal;font-weight:bold;font-stretch:normal;font-family:'Amatic SC';-inkscape-font-specification:'Amatic SC Bold';text-align:center;text-anchor:middle;stroke-width:0.187192px">pie</tspan></text>
        <path
           inkscape:connector-curvature="0"
           id="path939"
           style="font-style:normal;font-variant:normal;font-weight:normal;font-stretch:normal;font-size:10.5833px;line-height:125%;font-family:'Amatic SC';-inkscape-font-specification:'Amatic SC';letter-spacing:0px;word-spacing:0px;fill:#000000;fill-opacity:1;stroke:none;stroke-width:0.28288px;stroke-linecap:butt;stroke-linejoin:miter;stroke-opacity:1"
           d="m -102.22326,230.3479 q 0.0904,0.005 0.1658,0.0673 0.0642,0.0609 0.0592,0.13984 -0.006,0.11299 -0.72509,0.16922 -0.72991,0.0668 -1.22677,0.0351 -0.0903,-0.005 -0.16578,-0.0673 -0.0754,-0.0615 -0.0705,-0.14047 0.008,-0.11292 0.7258,-0.18049 0.7179,-0.0563 1.23734,-0.0232 z" />
        <path
           sodipodi:nodetypes="ccscscscc"
           inkscape:connector-curvature="0"
           id="path941"
           style="font-style:normal;font-variant:normal;font-weight:normal;font-stretch:normal;font-size:10.5833px;line-height:125%;font-family:'Amatic SC';-inkscape-font-specification:'Amatic SC';letter-spacing:0px;word-spacing:0px;fill:#000000;fill-opacity:1;stroke:none;stroke-width:0.535643px;stroke-linecap:butt;stroke-linejoin:miter;stroke-opacity:1"
           d="m -103.83606,231.0918 c 0.12638,-0.0237 0.2295,-0.0937 0.3094,-0.2104 0.0633,-0.12801 0.0831,-0.25529 0.0594,-0.38166 -0.0263,-0.14032 -0.10596,-0.25627 -0.23936,-0.34759 -0.13596,-0.10544 -0.27413,-0.14495 -0.41452,-0.11865 -0.11227,0.0209 -0.21285,0.10523 -0.30153,0.25253 -0.0914,0.13336 -0.12516,0.26317 -0.10163,0.38954 0.0656,0.351 0.29498,0.48977 0.68812,0.41629 z" />
        <path
           inkscape:connector-curvature="0"
           id="path943"
           style="font-style:normal;font-variant:normal;font-weight:normal;font-stretch:normal;font-size:10.5833px;line-height:125%;font-family:'Amatic SC';-inkscape-font-specification:'Amatic SC';letter-spacing:0px;word-spacing:0px;fill:#000000;fill-opacity:1;stroke:none;stroke-width:0.263816px;stroke-linecap:butt;stroke-linejoin:miter;stroke-opacity:1"
           d="m -95.555979,230.65033 q -0.08299,-0.0154 -0.14624,-0.0805 -0.05284,-0.0633 -0.03947,-0.13598 0.01897,-0.10382 0.690072,-0.0774 0.683326,0.0179 1.14003,0.10163 0.08299,0.0155 0.146245,0.0804 0.06309,0.0652 0.04989,0.13785 -0.01897,0.10381 -0.691968,0.0878 -0.671048,-0.0265 -1.148517,-0.11393 z" />
        <path
           sodipodi:nodetypes="ccscscscc"
           inkscape:connector-curvature="0"
           id="path945"
           style="font-style:normal;font-variant:normal;font-weight:normal;font-stretch:normal;font-size:10.5833px;line-height:125%;font-family:'Amatic SC';-inkscape-font-specification:'Amatic SC';letter-spacing:0px;word-spacing:0px;fill:#000000;fill-opacity:1;stroke:none;stroke-width:0.499545px;stroke-linecap:butt;stroke-linejoin:miter;stroke-opacity:1"
           d="m -92.755258,231.03227 c -0.119821,0 -0.226462,-0.0466 -0.319709,-0.13986 -0.07988,-0.10662 -0.119822,-0.2198 -0.119822,-0.3397 0,-0.13318 0.05331,-0.25309 0.159872,-0.35967 0.10661,-0.11982 0.226462,-0.17983 0.359665,-0.17983 0.106614,0 0.213147,0.06 0.319712,0.17983 0.106611,0.10661 0.159854,0.21982 0.159854,0.3397 0,0.33304 -0.186492,0.49953 -0.559492,0.49953 z" />
        <path
           d="m -93.767415,229.82252 c -0.06326,-0.0504 -0.09993,-0.11967 -0.109877,-0.20811 0.0031,-0.0898 0.02907,-0.1663 0.07941,-0.22955 0.05594,-0.0702 0.134429,-0.11111 0.235431,-0.12262 0.106611,-0.0184 0.195007,2.8e-4 0.265272,0.0563 0.05625,0.0447 0.08719,0.12121 0.09309,0.22918 0.01086,0.10102 -0.0078,0.18311 -0.05844,0.24634 -0.139871,0.17568 -0.308244,0.18515 -0.504992,0.0284 z"
           style="font-style:normal;font-variant:normal;font-weight:normal;font-stretch:normal;font-size:10.5833px;line-height:125%;font-family:'Amatic SC';-inkscape-font-specification:'Amatic SC';letter-spacing:0px;word-spacing:0px;fill:#000000;fill-opacity:1;stroke:none;stroke-width:0.336867px;stroke-linecap:butt;stroke-linejoin:miter;stroke-opacity:1"
           id="path947"
           inkscape:connector-curvature="0"
           sodipodi:nodetypes="ccscscscc" />
        <path
           sodipodi:nodetypes="ccscscscc"
           inkscape:connector-curvature="0"
           id="path949"
           style="font-style:normal;font-variant:normal;font-weight:normal;font-stretch:normal;font-size:10.5833px;line-height:125%;font-family:'Amatic SC';-inkscape-font-specification:'Amatic SC';letter-spacing:0px;word-spacing:0px;fill:#000000;fill-opacity:1;stroke:none;stroke-width:0.325539px;stroke-linecap:butt;stroke-linejoin:miter;stroke-opacity:1"
           d="m -92.448723,229.5723 c -0.06108,-0.0487 -0.09651,-0.11562 -0.106148,-0.2011 0.0031,-0.0867 0.02813,-0.16073 0.07678,-0.22183 0.05409,-0.0679 0.129922,-0.10738 0.227505,-0.11842 0.103038,-0.0179 0.188452,2.6e-4 0.25635,0.0544 0.05439,0.0432 0.08438,0.11702 0.08998,0.22146 0.01086,0.0976 -0.0078,0.17695 -0.05641,0.23808 -0.13521,0.16975 -0.297876,0.17892 -0.488005,0.0275 z" />
        <path
           d="m -91.486654,230.6285 c -0.07708,0.002 -0.146707,-0.0251 -0.208715,-0.0833 -0.05362,-0.0668 -0.08175,-0.13894 -0.08438,-0.21609 -0.0031,-0.0857 0.0289,-0.16402 0.09526,-0.23487 0.06605,-0.0794 0.141891,-0.12058 0.227692,-0.12338 0.06853,-0.002 0.138471,0.0341 0.209555,0.10895 0.07087,0.0663 0.107545,0.13816 0.110031,0.21525 0.0063,0.21433 -0.109564,0.32544 -0.349534,0.33331 z"
           style="font-style:normal;font-variant:normal;font-weight:normal;font-stretch:normal;font-size:10.5833px;line-height:125%;font-family:'Amatic SC';-inkscape-font-specification:'Amatic SC';letter-spacing:0px;word-spacing:0px;fill:#000000;fill-opacity:1;stroke:none;stroke-width:0.321678px;stroke-linecap:butt;stroke-linejoin:miter;stroke-opacity:1"
           id="path951"
           inkscape:connector-curvature="0"
           sodipodi:nodetypes="ccscscscc" />
        <path
           sodipodi:nodetypes="ccscscscc"
           inkscape:connector-curvature="0"
           id="path953"
           style="font-style:normal;font-variant:normal;font-weight:normal;font-stretch:normal;font-size:10.5833px;line-height:125%;font-family:'Amatic SC';-inkscape-font-specification:'Amatic SC';letter-spacing:0px;word-spacing:0px;fill:#000000;fill-opacity:1;stroke:none;stroke-width:0.364574px;stroke-linecap:butt;stroke-linejoin:miter;stroke-opacity:1"
           d="m -92.093675,231.71551 c -0.04025,-0.0777 -0.04569,-0.16243 -0.01646,-0.25414 0.04227,-0.0875 0.102261,-0.15137 0.180061,-0.19155 0.0864,-0.0446 0.181941,-0.0504 0.286748,-0.0169 0.11345,0.0289 0.192492,0.0865 0.237128,0.1729 0.03575,0.0692 0.03249,0.15828 -0.0094,0.26755 -0.03341,0.10475 -0.0889,0.1773 -0.16665,0.21748 -0.215911,0.11159 -0.386367,0.0465 -0.51136,-0.19533 z" />
        <path
           d="m -93.184656,232.08979 c 0.07336,-0.0584 0.115935,-0.13894 0.127437,-0.24147 -0.0031,-0.10412 -0.03373,-0.19296 -0.09216,-0.26635 -0.06496,-0.0816 -0.155999,-0.129 -0.273181,-0.14221 -0.123709,-0.0214 -0.226276,3.4e-4 -0.307806,0.0652 -0.06527,0.0519 -0.101174,0.14064 -0.108009,0.26592 -0.01244,0.11718 0.0094,0.21248 0.06776,0.28585 0.162341,0.20384 0.357662,0.21484 0.585961,0.0331 z"
           style="font-style:normal;font-variant:normal;font-weight:normal;font-stretch:normal;font-size:10.5833px;line-height:125%;font-family:'Amatic SC';-inkscape-font-specification:'Amatic SC';letter-spacing:0px;word-spacing:0px;fill:#000000;fill-opacity:1;stroke:none;stroke-width:0.390882px;stroke-linecap:butt;stroke-linejoin:miter;stroke-opacity:1"
           id="path955"
           inkscape:connector-curvature="0"
           sodipodi:nodetypes="ccscscscc" />
      </g>
      <g
         id="g894"
         transform="translate(25.612253,-12.106016)">
        <g
           aria-label="fly"
           style="font-style:normal;font-variant:normal;font-weight:normal;font-stretch:normal;font-size:7.48766px;line-height:125%;font-family:Sarai;-inkscape-font-specification:Sarai;text-align:center;letter-spacing:0px;word-spacing:0px;text-anchor:middle;fill:#000000;fill-opacity:1;stroke:none;stroke-width:0.254076px;stroke-linecap:butt;stroke-linejoin:miter;stroke-opacity:1"
           id="text933-7"
           transform="matrix(1.0798167,0,0,1.0798167,282.92981,-17.874089)">
          <path
             d="m -101.09483,230.08036 q -0.11231,0 -0.26955,-0.11232 0.0599,-0.62147 0.0973,-1.90935 0.0374,-1.34029 0.0524,-1.60985 v -0.1797 q 0.0299,-0.73379 0.0299,-1.01832 0,-0.10483 0.0824,-0.16473 0.0899,-0.0599 0.20217,-0.0599 0.26207,0 0.56158,0.0449 0.19468,0.0299 0.30699,0.0973 0.119803,0.0674 0.119803,0.16473 0,0.20966 -0.381873,0.20966 -0.14226,-0.0749 -0.38936,-0.0749 h -0.0898 v 0.0898 q 0,0.29202 -0.0299,0.74128 -0.0374,0.41931 -0.0374,0.75625 v 0.20217 h 0.0599 0.0749 q 0.3669,0 0.3669,0.19468 0,0.0973 -0.0824,0.15724 -0.0749,0.0599 -0.18719,0.0599 -0.1797,0 -0.29202,-0.0374 v 2.11901 q 0,0.32946 -0.19468,0.32946 z m 2.845314,0.0524 q -0.269556,-0.0898 -0.666402,-0.0898 -0.119803,0.0749 -0.254581,0.0749 -0.08985,0 -0.15724,-0.0824 -0.0599,-0.0749 -0.0599,-0.16473 0,-0.62896 0.05241,-1.67723 0.04493,-1.11566 0.04493,-1.66975 v -0.0524 q -0.04493,-0.47173 -0.04493,-0.70384 0,-0.71133 0.262068,-0.71133 0.07488,0 0.12729,0.0599 0.0599,0.0524 0.0599,0.12729 0,0.0899 -0.02246,0.28453 -0.02246,0.18719 -0.02246,0.28453 0,0.50168 0.0075,0.90601 0.0075,0.39685 0.0075,0.89852 -0.03744,0.11231 -0.03744,0.31448 v 0.0899 l -0.01498,0.59153 q -0.01497,0.26207 -0.01497,0.59901 0,0.51665 0.247093,0.51665 0.01498,0 0.04493,0 0.03744,-0.007 0.09734,-0.007 0.06739,-0.007 0.172217,-0.007 0.404333,0 0.404333,0.22463 0,0.0749 -0.06739,0.12729 -0.06739,0.0524 -0.164728,0.0674 z"
             style="font-style:normal;font-variant:normal;font-weight:bold;font-stretch:normal;font-family:'Amatic SC';-inkscape-font-specification:'Amatic SC Bold';text-align:center;text-anchor:middle;stroke-width:0.254076px"
             id="path1449"
             inkscape:connector-curvature="0" />
          <path
             d="m -96.781939,230.1178 q -0.12729,0 -0.209655,-0.16473 0.08237,-0.15724 0.08237,-1.2729 0,-0.26207 -0.03744,-0.56907 l -0.02246,-0.21714 q -0.02246,-0.20217 -0.02246,-0.30699 v -0.19468 q -0.07488,-0.18719 -0.277043,-0.69635 -0.194679,-0.50916 -0.314482,-0.8536 -0.142265,-0.39684 -0.142265,-0.53911 v -0.0374 l 0.172216,-0.12729 q 0.12729,0.015 0.269556,0.32946 0.119802,0.27704 0.262068,0.79369 0.149753,0.51665 0.149753,0.5466 0.02995,-0.0824 0.119802,-0.56157 0.08985,-0.47921 0.202167,-0.84611 0.127291,-0.36689 0.262069,-0.36689 0.07488,0 0.12729,0.0449 0.0599,0.0449 0.0599,0.11232 0,0.38187 -0.209654,1.07822 -0.22463,0.75625 -0.22463,1.0932 v 2.25378 q 0,0.50168 -0.247093,0.50168 z"
             style="font-style:normal;font-variant:normal;font-weight:bold;font-stretch:normal;font-family:'Amatic SC';-inkscape-font-specification:'Amatic SC Bold';text-align:center;text-anchor:middle;stroke-width:0.254076px"
             id="path1451"
             inkscape:connector-curvature="0" />
        </g>
        <g
           aria-label="pie"
           style="font-style:normal;font-variant:normal;font-weight:normal;font-stretch:normal;font-size:7.48766px;line-height:125%;font-family:Sarai;-inkscape-font-specification:Sarai;text-align:center;letter-spacing:0px;word-spacing:0px;text-anchor:middle;fill:#000000;fill-opacity:1;stroke:none;stroke-width:0.254076px;stroke-linecap:butt;stroke-linejoin:miter;stroke-opacity:1"
           id="text937-0"
           transform="matrix(1.0798167,0,0,1.0798167,282.92981,-17.874089)">
          <path
             d="m -101.06113,235.83884 q -0.0973,-0.39685 -0.0973,-1.10069 l 0.015,-0.6664 q 0.015,-0.29951 0.015,-0.6664 -0.0449,-0.10483 -0.0449,-0.1872 v -0.0225 q 0.0749,-0.14226 0.0749,-0.64394 l 0.007,-0.34443 q 0.007,-0.16473 0.007,-0.36689 0,-0.44178 -0.0599,-0.69636 0.0225,-0.10482 0.0749,-0.1797 0.0524,-0.0824 0.12729,-0.0824 h 0.32945 q 0.20966,0 0.3669,0.0973 0.15724,0.0899 0.2396,0.26207 0.149757,0.307 0.149757,0.72631 0,0.2995 -0.0075,0.47172 -0.01498,0.21714 -0.07488,0.39684 -0.02246,0.0973 -0.06739,0.16473 -0.0374,0.0599 -0.11231,0.14976 -0.10483,0.12729 -0.34443,0.2396 -0.0973,0.0524 -0.25458,0.0973 v 0.80118 l 0.015,0.47921 0.015,0.23212 q 0.0299,0.41931 0.0299,0.71133 0,0.0899 -0.0749,0.14975 -0.0749,0.0674 -0.17222,0.0674 z m 0.35192,-2.65812 q 0.44178,-0.0674 0.44178,-1.26542 0,-0.21714 -0.0225,-0.33694 -0.0225,-0.0899 -0.0599,-0.14227 -0.0374,-0.0599 -0.11231,-0.0973 -0.0824,-0.0449 -0.17971,-0.0449 0,-0.007 -0.0824,-0.007 v 0.42679 q 0,0.44178 0.007,0.78621 0,0.38936 0.007,0.50916 v 0.15724 z"
             style="font-style:normal;font-variant:normal;font-weight:bold;font-stretch:normal;font-family:'Amatic SC';-inkscape-font-specification:'Amatic SC Bold';text-align:center;text-anchor:middle;stroke-width:0.254076px"
             id="path1454"
             inkscape:connector-curvature="0" />
          <path
             d="m -98.747452,235.77894 q -0.651426,0 -0.651426,-0.22463 0,-0.17971 0.232117,-0.17971 h 0.08236 l 0.07488,0.007 q 0.0599,0 0.08236,-0.0374 0.02246,-0.0374 0.02246,-0.13478 0,-0.12729 -0.01498,-0.39684 -0.02246,-0.17971 -0.05241,-0.64394 -0.06739,-1.14561 -0.06739,-1.72965 0,-0.20966 0.0075,-0.38187 l 0.0075,-0.38187 q 0,-0.2471 -0.02246,-0.41182 -0.119803,0.03 -0.172217,0.03 -0.179703,0 -0.179703,-0.17971 0,-0.0899 0.112314,-0.15724 0.112315,-0.0674 0.284532,-0.0973 0.299506,-0.0599 0.531624,-0.0599 0.08985,0 0.149753,0.0674 0.06739,0.0599 0.06739,0.14226 0,0.0824 -0.05241,0.14227 -0.04493,0.0599 -0.119802,0.0599 -0.04493,0 -0.07488,-0.007 h -0.0599 q -0.07488,0 -0.112315,0.0374 -0.02995,0.0299 -0.02995,0.1198 0,0.72631 0.08985,2.1864 0.01497,0.26956 0.0599,0.79369 0.03744,0.34444 0.03744,0.70384 v 0.28454 q 0.04493,-0.007 0.149753,-0.007 0.314482,0 0.314482,0.26207 v 0.0449 l -0.187192,0.12729 q -0.0075,0 -0.05241,0.007 -0.03744,0 -0.149753,0 -0.239605,0.015 -0.306994,0.015 z"
             style="font-style:normal;font-variant:normal;font-weight:bold;font-stretch:normal;font-family:'Amatic SC';-inkscape-font-specification:'Amatic SC Bold';text-align:center;text-anchor:middle;stroke-width:0.254076px"
             id="path1456"
             inkscape:connector-curvature="0" />
          <path
             d="m -97.085192,235.88376 q -0.09734,0 -0.179704,-0.0674 -0.07488,-0.0674 -0.08237,-0.16473 v -0.19467 -0.14976 q -0.0075,-0.0674 -0.0075,-0.15724 0,-0.15724 -0.02246,-0.47921 l -0.01497,-0.47921 q 0,-0.36689 0.02246,-1.0932 0.02995,-0.65142 0.02995,-1.0932 0,-0.10482 -0.02246,-0.31448 -0.02246,-0.21714 -0.02246,-0.31448 0,-0.53162 0.314482,-0.53162 0.247093,0 0.569062,0.0973 0.329457,0.0973 0.329457,0.23211 0,0.0749 -0.06739,0.14227 -0.0599,0.0599 -0.149753,0.0973 -0.314482,-0.11232 -0.569062,-0.14975 0.0075,0.11231 0.0075,0.32196 0,0.29951 -0.0075,0.53912 -0.02246,0.3594 -0.02246,0.53911 l 0.02246,0.1198 0.119802,-0.007 q 0.0599,-0.007 0.149754,-0.007 0.359407,0 0.359407,0.20965 0,0.0824 -0.06739,0.14227 -0.06739,0.0524 -0.172216,0.0524 -0.134778,0 -0.209654,-0.015 h -0.187192 q 0.01498,0.19468 0.01498,0.56907 0,0.37438 -0.0075,0.67389 -0.02246,0.45674 -0.02246,0.68137 0,0.41931 0.01498,0.41931 l 0.247093,-0.007 q 0.12729,-0.007 0.306994,-0.007 0.284531,0 0.284531,0.1797 0,0.10483 -0.09734,0.15724 -0.08985,0.0599 -0.22463,0.0599 z"
             style="font-style:normal;font-variant:normal;font-weight:bold;font-stretch:normal;font-family:'Amatic SC';-inkscape-font-specification:'Amatic SC Bold';text-align:center;text-anchor:middle;stroke-width:0.254076px"
             id="path1458"
             inkscape:connector-curvature="0" />
        </g>
        <path
           inkscape:connector-curvature="0"
           id="path939-9"
           style="font-style:normal;font-variant:normal;font-weight:normal;font-stretch:normal;font-size:10.5833px;line-height:125%;font-family:'Amatic SC';-inkscape-font-specification:'Amatic SC';letter-spacing:0px;word-spacing:0px;fill:#000000;fill-opacity:1;stroke:none;stroke-width:0.414599px;stroke-linecap:butt;stroke-linejoin:miter;stroke-opacity:1"
           d="m 173.41055,230.87922 q 0.0986,0.009 0.1788,0.0789 0.0682,0.0686 0.0601,0.15464 -0.0103,0.12311 -0.79725,0.16078 -0.79911,0.0488 -1.34055,-0.003 -0.0985,-0.009 -0.17878,-0.0789 -0.0803,-0.0696 -0.0721,-0.15565 0.0147,-0.12296 0.79838,-0.17303 0.78565,-0.0377 1.3517,0.0155 z" />
        <path
           sodipodi:nodetypes="ccscscscc"
           inkscape:connector-curvature="0"
           id="path941-3"
           style="font-style:normal;font-variant:normal;font-weight:normal;font-stretch:normal;font-size:10.5833px;line-height:125%;font-family:'Amatic SC';-inkscape-font-specification:'Amatic SC';letter-spacing:0px;word-spacing:0px;fill:#000000;fill-opacity:1;stroke:none;stroke-width:0.78506px;stroke-linecap:butt;stroke-linejoin:miter;stroke-opacity:1"
           d="m 171.20841,231.6097 c 0.12561,-0.0236 0.22804,-0.0931 0.30744,-0.20905 0.0629,-0.12721 0.0825,-0.25365 0.0591,-0.3792 -0.0261,-0.13938 -0.10538,-0.25464 -0.23783,-0.34536 -0.13499,-0.1048 -0.27236,-0.14408 -0.41185,-0.11799 -0.11153,0.0208 -0.21149,0.1045 -0.2996,0.25092 -0.0909,0.13249 -0.12444,0.26149 -0.10098,0.38705 0.0652,0.34873 0.29306,0.48662 0.6837,0.4136 z" />
        <path
           inkscape:connector-curvature="0"
           id="path943-6"
           style="font-style:normal;font-variant:normal;font-weight:normal;font-stretch:normal;font-size:10.5833px;line-height:125%;font-family:'Amatic SC';-inkscape-font-specification:'Amatic SC';letter-spacing:0px;word-spacing:0px;fill:#000000;fill-opacity:1;stroke:none;stroke-width:0.386659px;stroke-linecap:butt;stroke-linejoin:miter;stroke-opacity:1"
           d="m 178.94035,231.18293 q -0.0831,-0.0117 -0.1483,-0.0742 -0.0549,-0.0607 -0.0444,-0.13337 0.0148,-0.10391 0.68206,-0.10406 0.67911,-0.009 1.13583,0.056 0.083,0.0117 0.14835,0.074 0.0652,0.0623 0.055,0.13499 -0.0147,0.10391 -0.68353,0.11446 -0.66726,2.3e-4 -1.14475,-0.068 z" />
        <path
           sodipodi:nodetypes="ccscscscc"
           inkscape:connector-curvature="0"
           id="path945-0"
           style="font-style:normal;font-variant:normal;font-weight:normal;font-stretch:normal;font-size:10.5833px;line-height:125%;font-family:'Amatic SC';-inkscape-font-specification:'Amatic SC';letter-spacing:0px;word-spacing:0px;fill:#000000;fill-opacity:1;stroke:none;stroke-width:0.732153px;stroke-linecap:butt;stroke-linejoin:miter;stroke-opacity:1"
           d="m 180.74098,231.55056 c -0.11906,0 -0.22501,-0.0463 -0.31766,-0.13894 -0.0794,-0.10597 -0.11905,-0.21838 -0.11905,-0.33752 0,-0.13235 0.053,-0.25148 0.15884,-0.35736 0.10594,-0.11901 0.22501,-0.17867 0.35736,-0.17867 0.10592,0 0.21178,0.0597 0.31766,0.17867 0.10594,0.10582 0.15883,0.21841 0.15883,0.33753 0,0.33089 -0.1853,0.49632 -0.5559,0.49632 z" />
        <path
           d="m 179.73531,230.34856 c -0.0628,-0.0501 -0.0993,-0.11886 -0.10917,-0.20677 0.003,-0.0893 0.0289,-0.16524 0.0789,-0.22807 0.0556,-0.0698 0.13356,-0.11036 0.23392,-0.12194 0.10593,-0.0182 0.19376,2.8e-4 0.26357,0.0558 0.0559,0.0444 0.0866,0.12048 0.0925,0.22772 0.0109,0.10039 -0.008,0.18193 -0.0581,0.24476 -0.13897,0.17454 -0.30627,0.18395 -0.50175,0.0281 z"
           style="font-style:normal;font-variant:normal;font-weight:normal;font-stretch:normal;font-size:10.5833px;line-height:125%;font-family:'Amatic SC';-inkscape-font-specification:'Amatic SC';letter-spacing:0px;word-spacing:0px;fill:#000000;fill-opacity:1;stroke:none;stroke-width:0.493725px;stroke-linecap:butt;stroke-linejoin:miter;stroke-opacity:1"
           id="path947-6"
           inkscape:connector-curvature="0"
           sodipodi:nodetypes="ccscscscc" />
        <path
           sodipodi:nodetypes="ccscscscc"
           inkscape:connector-curvature="0"
           id="path949-2"
           style="font-style:normal;font-variant:normal;font-weight:normal;font-stretch:normal;font-size:10.5833px;line-height:125%;font-family:'Amatic SC';-inkscape-font-specification:'Amatic SC';letter-spacing:0px;word-spacing:0px;fill:#000000;fill-opacity:1;stroke:none;stroke-width:0.477122px;stroke-linecap:butt;stroke-linejoin:miter;stroke-opacity:1"
           d="m 181.04555,230.09994 c -0.0607,-0.0484 -0.0959,-0.1149 -0.10547,-0.19979 0.003,-0.0862 0.028,-0.15971 0.0763,-0.22042 0.0538,-0.0676 0.12909,-0.1067 0.22604,-0.11769 0.10238,-0.0179 0.18725,2.6e-4 0.25471,0.0541 0.054,0.0428 0.0838,0.11623 0.0894,0.22005 0.0109,0.097 -0.008,0.17582 -0.056,0.23656 -0.13434,0.16866 -0.29596,0.17776 -0.48487,0.0273 z" />
        <path
           d="m 182.00144,231.14937 c -0.0766,0.001 -0.14575,-0.0249 -0.20737,-0.0827 -0.0533,-0.0664 -0.0812,-0.13806 -0.0838,-0.2147 -0.003,-0.0852 0.0287,-0.16298 0.0946,-0.23336 0.0656,-0.0788 0.14098,-0.11989 0.22623,-0.12253 0.0681,-0.001 0.13758,0.0339 0.20821,0.10817 0.0704,0.066 0.10686,0.13733 0.10932,0.21386 0.006,0.21296 -0.10886,0.32335 -0.34729,0.33118 z"
           style="font-style:normal;font-variant:normal;font-weight:normal;font-stretch:normal;font-size:10.5833px;line-height:125%;font-family:'Amatic SC';-inkscape-font-specification:'Amatic SC';letter-spacing:0px;word-spacing:0px;fill:#000000;fill-opacity:1;stroke:none;stroke-width:0.471464px;stroke-linecap:butt;stroke-linejoin:miter;stroke-opacity:1"
           id="path951-6"
           inkscape:connector-curvature="0"
           sodipodi:nodetypes="ccscscscc" />
        <path
           sodipodi:nodetypes="ccscscscc"
           inkscape:connector-curvature="0"
           id="path953-1"
           style="font-style:normal;font-variant:normal;font-weight:normal;font-stretch:normal;font-size:10.5833px;line-height:125%;font-family:'Amatic SC';-inkscape-font-specification:'Amatic SC';letter-spacing:0px;word-spacing:0px;fill:#000000;fill-opacity:1;stroke:none;stroke-width:0.534334px;stroke-linecap:butt;stroke-linejoin:miter;stroke-opacity:1"
           d="m 181.39832,232.2294 c -0.04,-0.0772 -0.0454,-0.16138 -0.0164,-0.25249 0.042,-0.0869 0.10159,-0.1504 0.1789,-0.19032 0.0859,-0.0444 0.18078,-0.0501 0.28491,-0.0169 0.11272,0.0287 0.19126,0.086 0.23561,0.1718 0.0355,0.0687 0.0323,0.15727 -0.009,0.26583 -0.0332,0.10406 -0.0883,0.17617 -0.16558,0.21609 -0.21453,0.11095 -0.38389,0.0462 -0.50808,-0.19408 z" />
        <path
           d="m 180.31433,232.60129 c 0.0729,-0.058 0.11519,-0.13806 0.12664,-0.23991 -0.003,-0.10347 -0.0335,-0.19173 -0.0916,-0.26465 -0.0645,-0.0811 -0.155,-0.12824 -0.27143,-0.14129 -0.12291,-0.0213 -0.22483,3.6e-4 -0.30584,0.0648 -0.0649,0.0516 -0.10051,0.13968 -0.10731,0.2642 -0.0123,0.11637 0.009,0.21113 0.0673,0.28403 0.1613,0.20252 0.35537,0.21345 0.5822,0.0328 z"
           style="font-style:normal;font-variant:normal;font-weight:normal;font-stretch:normal;font-size:10.5833px;line-height:125%;font-family:'Amatic SC';-inkscape-font-specification:'Amatic SC';letter-spacing:0px;word-spacing:0px;fill:#000000;fill-opacity:1;stroke:none;stroke-width:0.572892px;stroke-linecap:butt;stroke-linejoin:miter;stroke-opacity:1"
           id="path955-8"
           inkscape:connector-curvature="0"
           sodipodi:nodetypes="ccscscscc" />
      </g>
    </g>
  </g>
</svg>
