<?xml version="1.0" encoding="UTF-8" standalone="no"?>
<!-- Created with Inkscape (http://www.inkscape.org/) -->

<svg
   xmlns:dc="http://purl.org/dc/elements/1.1/"
   xmlns:cc="http://creativecommons.org/ns#"
   xmlns:rdf="http://www.w3.org/1999/02/22-rdf-syntax-ns#"
   xmlns:svg="http://www.w3.org/2000/svg"
   xmlns="http://www.w3.org/2000/svg"
   xmlns:sodipodi="http://sodipodi.sourceforge.net/DTD/sodipodi-0.dtd"
   xmlns:inkscape="http://www.inkscape.org/namespaces/inkscape"
   width="800"
   height="300"
   viewBox="0 0 211.66666 79.375002"
   version="1.1"
   id="svg8"
   inkscape:version="0.92.5 (2060ec1f9f, 2020-04-08)"
   sodipodi:docname="logo.svg"
   inkscape:export-filename="/home/simon/Desktop/logo/frame4.png"
   inkscape:export-xdpi="96"
   inkscape:export-ydpi="96">
  <defs
     id="defs2">
    <filter
       inkscape:collect="always"
       style="color-interpolation-filters:sRGB"
       id="filter5004"
       x="-0.017843127"
       width="1.0356863"
       y="-0.042879638"
       height="1.0857593">
      <feGaussianBlur
         inkscape:collect="always"
         stdDeviation="0.6334985"
         id="feGaussianBlur5006" />
    </filter>
  </defs>
  <sodipodi:namedview
     id="base"
     pagecolor="#ffffff"
     bordercolor="#666666"
     borderopacity="1.0"
     inkscape:pageopacity="1"
     inkscape:pageshadow="2"
     inkscape:zoom="0.7"
     inkscape:cx="124.81741"
     inkscape:cy="-54.852991"
     inkscape:document-units="mm"
     inkscape:current-layer="g945"
     showgrid="true"
     units="px"
     inkscape:window-width="1920"
     inkscape:window-height="1010"
     inkscape:window-x="0"
     inkscape:window-y="0"
     inkscape:window-maximized="1"
     inkscape:snap-global="false"
     inkscape:snap-object-midpoints="true"
     showguides="false">
    <inkscape:grid
       type="xygrid"
       id="grid957"
       spacingx="211.66667"
       spacingy="79.375" />
  </sodipodi:namedview>
  <metadata
     id="metadata5">
    <rdf:RDF>
      <cc:Work
         rdf:about="">
        <dc:format>image/svg+xml</dc:format>
        <dc:type
           rdf:resource="http://purl.org/dc/dcmitype/StillImage" />
        <dc:title></dc:title>
      </cc:Work>
    </rdf:RDF>
  </metadata>
  <g
     inkscape:label="Layer 1"
     inkscape:groupmode="layer"
     id="layer1"
     transform="translate(0,-217.62499)">
    <g
       transform="matrix(1.4214705,0,0,1.4214705,-54.246901,-44.965736)"
       id="g945"
       style="font-style:normal;font-variant:normal;font-weight:normal;font-stretch:normal;font-size:22.00597382px;line-height:125%;font-family:Sarai;-inkscape-font-specification:Sarai;letter-spacing:0px;word-spacing:0px;fill:#7c7c7c;fill-opacity:1;stroke:none;stroke-width:0.55014938px;stroke-linecap:butt;stroke-linejoin:miter;stroke-opacity:1"
       aria-label="Fly-Pie">
      <text
         xml:space="preserve"
         style="font-style:normal;font-variant:normal;font-weight:normal;font-stretch:normal;font-size:7.44534159px;line-height:125%;font-family:Sarai;-inkscape-font-specification:Sarai;letter-spacing:0px;word-spacing:0px;fill:#000000;fill-opacity:1;stroke:none;stroke-width:0.18613353px;stroke-linecap:butt;stroke-linejoin:miter;stroke-opacity:1"
         x="105.47485"
         y="256.92984"
         id="text965"><tspan
           sodipodi:role="line"
           id="tspan963"
           x="105.47485"
           y="263.53314"
           style="stroke-width:0.18613353px" /></text>
      <g
         id="g4712"
         transform="matrix(1.4287616,0,0,1.4287616,22.244701,-95.878529)">
        <text
           id="text844"
           y="206.77574"
           x="-38.099415"
           style="font-style:normal;font-variant:normal;font-weight:normal;font-stretch:normal;font-size:4.9226017px;line-height:125%;font-family:Sarai;-inkscape-font-specification:Sarai;letter-spacing:0px;word-spacing:0px;fill:#000000;fill-opacity:1;stroke:none;stroke-width:0.12306504px;stroke-linecap:butt;stroke-linejoin:miter;stroke-opacity:1"
           xml:space="preserve"><tspan
             style="font-style:normal;font-variant:normal;font-weight:normal;font-stretch:normal;font-size:5.74303532px;font-family:Birmingham;-inkscape-font-specification:Birmingham;text-align:center;text-anchor:middle;stroke-width:0.12306504px"
             y="206.77574"
             x="-36.752674"
             id="tspan842"
             sodipodi:role="line"><tspan
   id="tspan860"
   style="font-size:6.00557423px;text-align:center;text-anchor:middle;stroke-width:0.12306504px">Fly-Pie can make you rich.</tspan> </tspan><tspan
             id="tspan849"
             style="font-style:normal;font-variant:normal;font-weight:normal;font-stretch:normal;font-family:Birmingham;-inkscape-font-specification:Birmingham;text-align:center;text-anchor:middle;stroke-width:0.12306504px"
             y="213.23056"
             x="-38.099415"
             sodipodi:role="line">time is Money and with Fly-Pie</tspan><tspan
             id="tspan863"
             style="font-style:normal;font-variant:normal;font-weight:normal;font-stretch:normal;font-family:Birmingham;-inkscape-font-specification:Birmingham;text-align:center;text-anchor:middle;stroke-width:0.12306504px"
             y="219.68536"
             x="-38.099415"
             sodipodi:role="line">you can save time - everytime.</tspan></text>
        <text
           xml:space="preserve"
           style="font-style:normal;font-variant:normal;font-weight:normal;font-stretch:normal;font-size:3.39515662px;line-height:125%;font-family:Sarai;-inkscape-font-specification:Sarai;letter-spacing:0px;word-spacing:0px;fill:#808080;fill-opacity:1;stroke:none;stroke-width:0.08487891px;stroke-linecap:butt;stroke-linejoin:miter;stroke-opacity:1"
           x="-57.023239"
           y="227.66148"
           id="text856"><tspan
             sodipodi:role="line"
             x="-57.023239"
             y="227.66148"
             style="font-style:normal;font-variant:normal;font-weight:normal;font-stretch:normal;font-family:Birmingham;-inkscape-font-specification:Birmingham;fill:#808080;fill-opacity:1;stroke-width:0.08487891px"
             id="tspan854">- The Great Gatspie</tspan></text>
      </g>
      <g
         id="g4727"
         transform="matrix(1.6097082,0,0,1.6097082,26.194225,-248.47062)">
        <text
           xml:space="preserve"
           style="font-style:normal;font-variant:normal;font-weight:normal;font-stretch:normal;font-size:6.41627455px;line-height:125%;font-family:Sarai;-inkscape-font-specification:Sarai;letter-spacing:0px;word-spacing:0px;fill:#000000;fill-opacity:1;stroke:none;stroke-width:0.16040686px;stroke-linecap:butt;stroke-linejoin:miter;stroke-opacity:1"
           x="-38.043362"
           y="314.24774"
           id="text872"><tspan
             id="tspan876"
             sodipodi:role="line"
             x="-37.465439"
             y="314.24774"
             style="font-style:normal;font-variant:normal;font-weight:normal;font-stretch:normal;font-size:5.89720297px;line-height:0px;font-family:Ruthie;-inkscape-font-specification:Ruthie;text-align:center;text-anchor:middle;stroke-width:0.16040686px">There is a pleasure in things that </tspan><tspan
             id="tspan880"
             sodipodi:role="line"
             x="-38.043362"
             y="322.2681"
             style="font-style:normal;font-variant:normal;font-weight:normal;font-stretch:normal;font-size:7.9416976px;line-height:0px;font-family:Ruthie;-inkscape-font-specification:Ruthie;text-align:center;text-anchor:middle;stroke-width:0.16040686px">are both beautiful and useful.</tspan><tspan
             id="tspan883"
             sodipodi:role="line"
             x="-38.043362"
             y="330.28842"
             style="font-style:normal;font-variant:normal;font-weight:normal;font-stretch:normal;font-size:7.58211851px;line-height:0px;font-family:Ruthie;-inkscape-font-specification:Ruthie;text-align:center;text-anchor:middle;stroke-width:0.16040686px">Fly-Pie is such a thing.</tspan></text>
        <text
           id="text887"
           y="337.49237"
           x="-48.641857"
           style="font-style:normal;font-variant:normal;font-weight:normal;font-stretch:normal;font-size:4.73761272px;line-height:125%;font-family:Sarai;-inkscape-font-specification:Sarai;letter-spacing:0px;word-spacing:0px;fill:#808080;fill-opacity:1;stroke:none;stroke-width:0.11844032px;stroke-linecap:butt;stroke-linejoin:miter;stroke-opacity:1"
           xml:space="preserve"><tspan
             id="tspan885"
             style="font-style:normal;font-variant:normal;font-weight:normal;font-stretch:normal;font-family:Ruthie;-inkscape-font-specification:Ruthie;fill:#808080;fill-opacity:1;stroke-width:0.11844032px"
             y="337.49237"
             x="-48.641857"
             sodipodi:role="line">- Lord Pieron</tspan></text>
      </g>
      <g
         id="g4719"
         transform="matrix(1.3203598,0,0,1.3203598,24.508062,-34.160432)">
        <text
           xml:space="preserve"
           style="font-style:normal;font-variant:normal;font-weight:normal;font-stretch:normal;font-size:4.9226017px;line-height:125%;font-family:Sarai;-inkscape-font-specification:Sarai;letter-spacing:0px;word-spacing:0px;fill:#000000;fill-opacity:1;stroke:none;stroke-width:0.12306504px;stroke-linecap:butt;stroke-linejoin:miter;stroke-opacity:1"
           x="-37.991734"
           y="268.26984"
           id="text881"><tspan
             id="tspan889"
             sodipodi:role="line"
             x="-37.991734"
             y="268.26984"
             style="font-style:normal;font-variant:normal;font-weight:normal;font-stretch:normal;font-size:5.45991707px;font-family:Achilles;-inkscape-font-specification:Achilles;text-align:center;text-anchor:middle;stroke-width:0.12306504px">There is geometry in fly-pie's gestures,</tspan><tspan
             id="tspan893"
             sodipodi:role="line"
             x="-37.991734"
             y="274.85489"
             style="font-style:normal;font-variant:normal;font-weight:normal;font-stretch:normal;font-size:5.45991707px;font-family:Achilles;-inkscape-font-specification:Achilles;text-align:center;text-anchor:middle;stroke-width:0.12306504px">there is music in the spacing of its items.</tspan></text>
        <text
           id="text886"
           y="283.45868"
           x="-51.356129"
           style="font-style:normal;font-variant:normal;font-weight:normal;font-stretch:normal;font-size:4.65173435px;line-height:125%;font-family:Sarai;-inkscape-font-specification:Sarai;letter-spacing:0px;word-spacing:0px;fill:#808080;fill-opacity:1;stroke:none;stroke-width:0.11629335px;stroke-linecap:butt;stroke-linejoin:miter;stroke-opacity:1"
           xml:space="preserve"><tspan
             id="tspan884"
             style="font-style:normal;font-variant:normal;font-weight:normal;font-stretch:normal;font-family:Achilles;-inkscape-font-specification:Achilles;fill:#808080;fill-opacity:1;stroke-width:0.11629335px"
             y="283.45868"
             x="-51.356129"
             sodipodi:role="line">- piethagoras</tspan></text>
      </g>
      <g
         id="g4742"
         transform="translate(-125.60771,1.5906635)">
        <path
           d="m 268.89831,208.72798 q -0.24901,-0.0466 -0.4388,-0.24155 -0.15855,-0.18979 -0.11845,-0.40803 0.0569,-0.3115 2.07059,-0.23222 2.05035,0.0536 3.42071,0.30497 0.24902,0.0466 0.43881,0.24109 0.18932,0.19585 0.14969,0.41362 -0.0569,0.3115 -2.07628,0.26347 -2.01351,-0.0793 -3.44617,-0.34181 z"
           style="font-style:normal;font-variant:normal;font-weight:normal;font-stretch:normal;font-size:10.58333302px;line-height:125%;font-family:'Amatic SC';-inkscape-font-specification:'Amatic SC';letter-spacing:0px;word-spacing:0px;fill:#000000;fill-opacity:1;stroke:none;stroke-width:0.79159081px;stroke-linecap:butt;stroke-linejoin:miter;stroke-opacity:1"
           id="path823"
           inkscape:connector-curvature="0" />
        <path
           d="m 277.30199,209.87405 c -0.35953,0 -0.67951,-0.13989 -0.9593,-0.41968 -0.23969,-0.3199 -0.35953,-0.65952 -0.35953,-1.01928 0,-0.39963 0.15994,-0.7594 0.4797,-1.0792 0.31989,-0.35953 0.67951,-0.53962 1.07919,-0.53962 0.3199,0 0.63956,0.18 0.95931,0.53962 0.31989,0.3199 0.47965,0.65956 0.47965,1.01928 0,0.99927 -0.55958,1.49888 -1.67878,1.49888 z"
           style="font-style:normal;font-variant:normal;font-weight:normal;font-stretch:normal;font-size:10.58333302px;line-height:125%;font-family:'Amatic SC';-inkscape-font-specification:'Amatic SC';letter-spacing:0px;word-spacing:0px;fill:#000000;fill-opacity:1;stroke:none;stroke-width:1.49890733px;stroke-linecap:butt;stroke-linejoin:miter;stroke-opacity:1"
           id="path825"
           inkscape:connector-curvature="0"
           sodipodi:nodetypes="ccscscscc" />
        <path
           sodipodi:nodetypes="ccscscscc"
           inkscape:connector-curvature="0"
           id="path832"
           style="font-style:normal;font-variant:normal;font-weight:normal;font-stretch:normal;font-size:10.58333302px;line-height:125%;font-family:'Amatic SC';-inkscape-font-specification:'Amatic SC';letter-spacing:0px;word-spacing:0px;fill:#000000;fill-opacity:1;stroke:none;stroke-width:1.01078224px;stroke-linecap:butt;stroke-linejoin:miter;stroke-opacity:1"
           d="m 274.26497,206.2441 c -0.1898,-0.15109 -0.29985,-0.35906 -0.32969,-0.6244 0.009,-0.26953 0.0872,-0.49905 0.23829,-0.68879 0.16787,-0.21078 0.40336,-0.33342 0.70642,-0.36793 0.31989,-0.0555 0.58513,8.4e-4 0.79596,0.16881 0.1688,0.1343 0.2616,0.36373 0.27932,0.68768 0.0326,0.3031 -0.0233,0.54941 -0.17533,0.73916 -0.41969,0.52712 -0.9249,0.55556 -1.51525,0.0853 z" />
        <path
           d="m 278.22176,205.49333 c -0.18327,-0.14596 -0.28959,-0.34694 -0.3185,-0.60341 0.009,-0.26021 0.0844,-0.48227 0.23036,-0.66562 0.16228,-0.20378 0.38984,-0.32223 0.68264,-0.35534 0.30917,-0.0536 0.56546,8e-4 0.76919,0.16321 0.16321,0.12964 0.25321,0.35114 0.27,0.66451 0.0326,0.29284 -0.0233,0.53094 -0.16927,0.71435 -0.4057,0.50935 -0.89379,0.53687 -1.46428,0.0825 z"
           style="font-style:normal;font-variant:normal;font-weight:normal;font-stretch:normal;font-size:10.58333302px;line-height:125%;font-family:'Amatic SC';-inkscape-font-specification:'Amatic SC';letter-spacing:0px;word-spacing:0px;fill:#000000;fill-opacity:1;stroke:none;stroke-width:0.97679293px;stroke-linecap:butt;stroke-linejoin:miter;stroke-opacity:1"
           id="path834"
           inkscape:connector-curvature="0"
           sodipodi:nodetypes="ccscscscc" />
        <path
           sodipodi:nodetypes="ccscscscc"
           inkscape:connector-curvature="0"
           id="path836"
           style="font-style:normal;font-variant:normal;font-weight:normal;font-stretch:normal;font-size:10.58333302px;line-height:125%;font-family:'Amatic SC';-inkscape-font-specification:'Amatic SC';letter-spacing:0px;word-spacing:0px;fill:#000000;fill-opacity:1;stroke:none;stroke-width:0.96520799px;stroke-linecap:butt;stroke-linejoin:miter;stroke-opacity:1"
           d="m 281.10849,208.66251 c -0.23129,0.009 -0.4402,-0.0755 -0.62626,-0.24994 -0.16088,-0.20052 -0.24529,-0.41689 -0.25321,-0.64837 -0.009,-0.25741 0.0867,-0.49215 0.28585,-0.7047 0.19818,-0.23829 0.42575,-0.36186 0.6832,-0.37025 0.20564,-0.005 0.41549,0.10212 0.62878,0.32688 0.21264,0.19912 0.32269,0.41456 0.33015,0.6459 0.0187,0.6431 -0.32875,0.97647 -1.04879,1.00011 z" />
        <path
           d="m 279.2871,211.92412 c -0.12077,-0.23316 -0.13709,-0.4874 -0.0494,-0.76257 0.12684,-0.26254 0.30684,-0.45419 0.54028,-0.57478 0.25927,-0.13383 0.54592,-0.15109 0.8604,-0.0508 0.34041,0.0867 0.57758,0.25974 0.71151,0.51882 0.10725,0.20751 0.0975,0.4749 -0.028,0.80277 -0.10026,0.3143 -0.26674,0.53202 -0.50004,0.65256 -0.64785,0.33482 -1.15931,0.13943 -1.53436,-0.58607 z"
           style="font-style:normal;font-variant:normal;font-weight:normal;font-stretch:normal;font-size:10.58333302px;line-height:125%;font-family:'Amatic SC';-inkscape-font-specification:'Amatic SC';letter-spacing:0px;word-spacing:0px;fill:#000000;fill-opacity:1;stroke:none;stroke-width:1.09391999px;stroke-linecap:butt;stroke-linejoin:miter;stroke-opacity:1"
           id="path838"
           inkscape:connector-curvature="0"
           sodipodi:nodetypes="ccscscscc" />
        <path
           sodipodi:nodetypes="ccscscscc"
           inkscape:connector-curvature="0"
           id="path840"
           style="font-style:normal;font-variant:normal;font-weight:normal;font-stretch:normal;font-size:10.58333302px;line-height:125%;font-family:'Amatic SC';-inkscape-font-specification:'Amatic SC';letter-spacing:0px;word-spacing:0px;fill:#000000;fill-opacity:1;stroke:none;stroke-width:1.17285728px;stroke-linecap:butt;stroke-linejoin:miter;stroke-opacity:1"
           d="m 276.01356,213.04715 c 0.2201,-0.17534 0.34787,-0.41689 0.38238,-0.72452 -0.009,-0.31243 -0.10119,-0.57902 -0.27653,-0.79922 -0.19492,-0.24481 -0.46808,-0.38704 -0.81969,-0.42668 -0.37119,-0.0643 -0.67895,9.8e-4 -0.92358,0.19586 -0.19586,0.15575 -0.30358,0.42201 -0.32409,0.79791 -0.0373,0.3516 0.028,0.63755 0.20331,0.8577 0.48711,0.61162 1.07318,0.64463 1.7582,0.0993 z" />
        <path
           d="m 203.37503,209.11484 q 0.25321,0.005 0.47126,0.16927 0.18653,0.16275 0.1814,0.38425 -0.005,0.31663 -2.00805,0.55585 -2.03319,0.26999 -3.42603,0.23829 -0.25321,-0.005 -0.47121,-0.16928 -0.21777,-0.16321 -0.21311,-0.38471 0.009,-0.31663 2.00875,-0.58746 2.00083,-0.23923 3.45695,-0.20612 z"
           style="font-style:normal;font-variant:normal;font-weight:normal;font-stretch:normal;font-size:10.58333302px;line-height:125%;font-family:'Amatic SC';-inkscape-font-specification:'Amatic SC';letter-spacing:0px;word-spacing:0px;fill:#000000;fill-opacity:1;stroke:none;stroke-width:0.79159081px;stroke-linecap:butt;stroke-linejoin:miter;stroke-opacity:1"
           id="path856"
           inkscape:connector-curvature="0" />
        <path
           d="m 198.95048,211.37881 c 0.35067,-0.0807 0.63102,-0.28819 0.8411,-0.62361 0.16227,-0.36512 0.20331,-0.72326 0.12264,-1.07388 -0.0895,-0.38937 -0.32549,-0.70446 -0.7089,-0.94457 -0.39217,-0.27932 -0.78299,-0.37399 -1.17255,-0.28445 -0.3115,0.0713 -0.58313,0.31849 -0.81428,0.74046 -0.24016,0.38331 -0.3199,0.75012 -0.23969,1.10074 0.22337,0.97395 0.88064,1.33577 1.97149,1.08545 z"
           style="font-style:normal;font-variant:normal;font-weight:normal;font-stretch:normal;font-size:10.58333302px;line-height:125%;font-family:'Amatic SC';-inkscape-font-specification:'Amatic SC';letter-spacing:0px;word-spacing:0px;fill:#000000;fill-opacity:1;stroke:none;stroke-width:1.49890733px;stroke-linecap:butt;stroke-linejoin:miter;stroke-opacity:1"
           id="path858"
           inkscape:connector-curvature="0"
           sodipodi:nodetypes="ccscscscc" />
        <text
           xml:space="preserve"
           style="font-style:normal;font-variant:normal;font-weight:normal;font-stretch:normal;font-size:9.48352528px;line-height:125%;font-family:Sarai;-inkscape-font-specification:Sarai;text-align:center;letter-spacing:0px;word-spacing:0px;text-anchor:middle;fill:#000000;fill-opacity:1;stroke:none;stroke-width:0.23708813px;stroke-linecap:butt;stroke-linejoin:miter;stroke-opacity:1"
           x="236.81343"
           y="229.14139"
           id="text921"><tspan
             id="tspan923"
             sodipodi:role="line"
             x="236.81343"
             y="229.14139"
             style="font-style:normal;font-variant:normal;font-weight:bold;font-stretch:normal;font-family:'Amatic SC';-inkscape-font-specification:'Amatic SC Bold';text-align:center;text-anchor:middle;stroke-width:0.23708813px">do things on-the-fly</tspan></text>
        <text
           id="text929"
           y="220.62682"
           x="235.94934"
           style="font-style:normal;font-variant:normal;font-weight:normal;font-stretch:normal;font-size:35.0295105px;line-height:125%;font-family:Sarai;-inkscape-font-specification:Sarai;text-align:center;letter-spacing:0px;word-spacing:0px;text-anchor:middle;fill:#000000;fill-opacity:1;stroke:none;stroke-width:0.87573773px;stroke-linecap:butt;stroke-linejoin:miter;stroke-opacity:1"
           xml:space="preserve"><tspan
             style="font-style:normal;font-variant:normal;font-weight:normal;font-stretch:normal;font-family:'Amatic SC';-inkscape-font-specification:'Amatic SC';text-align:center;text-anchor:middle;stroke-width:0.87573773px"
             y="220.62682"
             x="235.94934"
             sodipodi:role="line"
             id="tspan927">Fly-Pie</tspan></text>
      </g>
      <g
         id="g4675"
         transform="matrix(1.4656389,0,0,1.4656389,463.14566,-111.33179)">
        <text
           id="text933"
           y="230.01297"
           x="-98.721245"
           style="font-style:normal;font-variant:normal;font-weight:normal;font-stretch:normal;font-size:7.48766136px;line-height:125%;font-family:Sarai;-inkscape-font-specification:Sarai;text-align:center;letter-spacing:0px;word-spacing:0px;text-anchor:middle;fill:#000000;fill-opacity:1;stroke:none;stroke-width:0.18719153px;stroke-linecap:butt;stroke-linejoin:miter;stroke-opacity:1"
           xml:space="preserve"><tspan
             style="font-style:normal;font-variant:normal;font-weight:bold;font-stretch:normal;font-family:'Amatic SC';-inkscape-font-specification:'Amatic SC Bold';text-align:center;text-anchor:middle;stroke-width:0.18719153px"
             y="230.01297"
             x="-98.721245"
             sodipodi:role="line"
             id="tspan931">fly</tspan></text>
        <text
           xml:space="preserve"
           style="font-style:normal;font-variant:normal;font-weight:normal;font-stretch:normal;font-size:7.48766136px;line-height:125%;font-family:Sarai;-inkscape-font-specification:Sarai;text-align:center;letter-spacing:0px;word-spacing:0px;text-anchor:middle;fill:#000000;fill-opacity:1;stroke:none;stroke-width:0.18719153px;stroke-linecap:butt;stroke-linejoin:miter;stroke-opacity:1"
           x="-98.721245"
           y="235.78642"
           id="text937"><tspan
             id="tspan935"
             sodipodi:role="line"
             x="-98.721245"
             y="235.78642"
             style="font-style:normal;font-variant:normal;font-weight:bold;font-stretch:normal;font-family:'Amatic SC';-inkscape-font-specification:'Amatic SC Bold';text-align:center;text-anchor:middle;stroke-width:0.18719153px">pie</tspan></text>
        <path
           inkscape:connector-curvature="0"
           id="path939"
           style="font-style:normal;font-variant:normal;font-weight:normal;font-stretch:normal;font-size:10.58333302px;line-height:125%;font-family:'Amatic SC';-inkscape-font-specification:'Amatic SC';letter-spacing:0px;word-spacing:0px;fill:#000000;fill-opacity:1;stroke:none;stroke-width:0.28287962px;stroke-linecap:butt;stroke-linejoin:miter;stroke-opacity:1"
           d="m -102.22326,230.3479 q 0.0904,0.005 0.1658,0.0673 0.0642,0.0609 0.0592,0.13984 -0.006,0.11299 -0.72509,0.16922 -0.72991,0.0668 -1.22677,0.0351 -0.0903,-0.005 -0.16578,-0.0673 -0.0754,-0.0615 -0.0705,-0.14047 0.008,-0.11292 0.7258,-0.18049 0.7179,-0.0563 1.23734,-0.0232 z" />
        <path
           sodipodi:nodetypes="ccscscscc"
           inkscape:connector-curvature="0"
           id="path941"
           style="font-style:normal;font-variant:normal;font-weight:normal;font-stretch:normal;font-size:10.58333302px;line-height:125%;font-family:'Amatic SC';-inkscape-font-specification:'Amatic SC';letter-spacing:0px;word-spacing:0px;fill:#000000;fill-opacity:1;stroke:none;stroke-width:0.53564334px;stroke-linecap:butt;stroke-linejoin:miter;stroke-opacity:1"
           d="m -103.83606,231.0918 c 0.12638,-0.0237 0.2295,-0.0937 0.3094,-0.2104 0.0633,-0.12801 0.0831,-0.25529 0.0594,-0.38166 -0.0263,-0.14032 -0.10596,-0.25627 -0.23936,-0.34759 -0.13596,-0.10544 -0.27413,-0.14495 -0.41452,-0.11865 -0.11227,0.0209 -0.21285,0.10523 -0.30153,0.25253 -0.0914,0.13336 -0.12516,0.26317 -0.10163,0.38954 0.0656,0.351 0.29498,0.48977 0.68812,0.41629 z" />
        <path
           inkscape:connector-curvature="0"
           id="path943"
           style="font-style:normal;font-variant:normal;font-weight:normal;font-stretch:normal;font-size:10.58333302px;line-height:125%;font-family:'Amatic SC';-inkscape-font-specification:'Amatic SC';letter-spacing:0px;word-spacing:0px;fill:#000000;fill-opacity:1;stroke:none;stroke-width:0.26381594px;stroke-linecap:butt;stroke-linejoin:miter;stroke-opacity:1"
           d="m -95.555979,230.65033 q -0.08299,-0.0154 -0.14624,-0.0805 -0.05284,-0.0633 -0.03947,-0.13598 0.01897,-0.10382 0.690072,-0.0774 0.683326,0.0179 1.14003,0.10163 0.08299,0.0155 0.146245,0.0804 0.06309,0.0652 0.04989,0.13785 -0.01897,0.10381 -0.691968,0.0878 -0.671048,-0.0265 -1.148517,-0.11393 z" />
        <path
           sodipodi:nodetypes="ccscscscc"
           inkscape:connector-curvature="0"
           id="path945"
           style="font-style:normal;font-variant:normal;font-weight:normal;font-stretch:normal;font-size:10.58333302px;line-height:125%;font-family:'Amatic SC';-inkscape-font-specification:'Amatic SC';letter-spacing:0px;word-spacing:0px;fill:#000000;fill-opacity:1;stroke:none;stroke-width:0.49954548px;stroke-linecap:butt;stroke-linejoin:miter;stroke-opacity:1"
           d="m -92.755258,231.03227 c -0.119821,0 -0.226462,-0.0466 -0.319709,-0.13986 -0.07988,-0.10662 -0.119822,-0.2198 -0.119822,-0.3397 0,-0.13318 0.05331,-0.25309 0.159872,-0.35967 0.10661,-0.11982 0.226462,-0.17983 0.359665,-0.17983 0.106614,0 0.213147,0.06 0.319712,0.17983 0.106611,0.10661 0.159854,0.21982 0.159854,0.3397 0,0.33304 -0.186492,0.49953 -0.559492,0.49953 z" />
        <path
           d="m -93.767415,229.82252 c -0.06326,-0.0504 -0.09993,-0.11967 -0.109877,-0.20811 0.0031,-0.0898 0.02907,-0.1663 0.07941,-0.22955 0.05594,-0.0702 0.134429,-0.11111 0.235431,-0.12262 0.106611,-0.0184 0.195007,2.8e-4 0.265272,0.0563 0.05625,0.0447 0.08719,0.12121 0.09309,0.22918 0.01086,0.10102 -0.0078,0.18311 -0.05844,0.24634 -0.139871,0.17568 -0.308244,0.18515 -0.504992,0.0284 z"
           style="font-style:normal;font-variant:normal;font-weight:normal;font-stretch:normal;font-size:10.58333302px;line-height:125%;font-family:'Amatic SC';-inkscape-font-specification:'Amatic SC';letter-spacing:0px;word-spacing:0px;fill:#000000;fill-opacity:1;stroke:none;stroke-width:0.33686653px;stroke-linecap:butt;stroke-linejoin:miter;stroke-opacity:1"
           id="path947"
           inkscape:connector-curvature="0"
           sodipodi:nodetypes="ccscscscc" />
        <path
           sodipodi:nodetypes="ccscscscc"
           inkscape:connector-curvature="0"
           id="path949"
           style="font-style:normal;font-variant:normal;font-weight:normal;font-stretch:normal;font-size:10.58333302px;line-height:125%;font-family:'Amatic SC';-inkscape-font-specification:'Amatic SC';letter-spacing:0px;word-spacing:0px;fill:#000000;fill-opacity:1;stroke:none;stroke-width:0.32553884px;stroke-linecap:butt;stroke-linejoin:miter;stroke-opacity:1"
           d="m -92.448723,229.5723 c -0.06108,-0.0487 -0.09651,-0.11562 -0.106148,-0.2011 0.0031,-0.0867 0.02813,-0.16073 0.07678,-0.22183 0.05409,-0.0679 0.129922,-0.10738 0.227505,-0.11842 0.103038,-0.0179 0.188452,2.6e-4 0.25635,0.0544 0.05439,0.0432 0.08438,0.11702 0.08998,0.22146 0.01086,0.0976 -0.0078,0.17695 -0.05641,0.23808 -0.13521,0.16975 -0.297876,0.17892 -0.488005,0.0275 z" />
        <path
           d="m -91.486654,230.6285 c -0.07708,0.002 -0.146707,-0.0251 -0.208715,-0.0833 -0.05362,-0.0668 -0.08175,-0.13894 -0.08438,-0.21609 -0.0031,-0.0857 0.0289,-0.16402 0.09526,-0.23487 0.06605,-0.0794 0.141891,-0.12058 0.227692,-0.12338 0.06853,-0.002 0.138471,0.0341 0.209555,0.10895 0.07087,0.0663 0.107545,0.13816 0.110031,0.21525 0.0063,0.21433 -0.109564,0.32544 -0.349534,0.33331 z"
           style="font-style:normal;font-variant:normal;font-weight:normal;font-stretch:normal;font-size:10.58333302px;line-height:125%;font-family:'Amatic SC';-inkscape-font-specification:'Amatic SC';letter-spacing:0px;word-spacing:0px;fill:#000000;fill-opacity:1;stroke:none;stroke-width:0.32167786px;stroke-linecap:butt;stroke-linejoin:miter;stroke-opacity:1"
           id="path951"
           inkscape:connector-curvature="0"
           sodipodi:nodetypes="ccscscscc" />
        <path
           sodipodi:nodetypes="ccscscscc"
           inkscape:connector-curvature="0"
           id="path953"
           style="font-style:normal;font-variant:normal;font-weight:normal;font-stretch:normal;font-size:10.58333302px;line-height:125%;font-family:'Amatic SC';-inkscape-font-specification:'Amatic SC';letter-spacing:0px;word-spacing:0px;fill:#000000;fill-opacity:1;stroke:none;stroke-width:0.36457407px;stroke-linecap:butt;stroke-linejoin:miter;stroke-opacity:1"
           d="m -92.093675,231.71551 c -0.04025,-0.0777 -0.04569,-0.16243 -0.01646,-0.25414 0.04227,-0.0875 0.102261,-0.15137 0.180061,-0.19155 0.0864,-0.0446 0.181941,-0.0504 0.286748,-0.0169 0.11345,0.0289 0.192492,0.0865 0.237128,0.1729 0.03575,0.0692 0.03249,0.15828 -0.0094,0.26755 -0.03341,0.10475 -0.0889,0.1773 -0.16665,0.21748 -0.215911,0.11159 -0.386367,0.0465 -0.51136,-0.19533 z" />
        <path
           d="m -93.184656,232.08979 c 0.07336,-0.0584 0.115935,-0.13894 0.127437,-0.24147 -0.0031,-0.10412 -0.03373,-0.19296 -0.09216,-0.26635 -0.06496,-0.0816 -0.155999,-0.129 -0.273181,-0.14221 -0.123709,-0.0214 -0.226276,3.4e-4 -0.307806,0.0652 -0.06527,0.0519 -0.101174,0.14064 -0.108009,0.26592 -0.01244,0.11718 0.0094,0.21248 0.06776,0.28585 0.162341,0.20384 0.357662,0.21484 0.585961,0.0331 z"
           style="font-style:normal;font-variant:normal;font-weight:normal;font-stretch:normal;font-size:10.58333302px;line-height:125%;font-family:'Amatic SC';-inkscape-font-specification:'Amatic SC';letter-spacing:0px;word-spacing:0px;fill:#000000;fill-opacity:1;stroke:none;stroke-width:0.39088178px;stroke-linecap:butt;stroke-linejoin:miter;stroke-opacity:1"
           id="path955"
           inkscape:connector-curvature="0"
           sodipodi:nodetypes="ccscscscc" />
      </g>
      <g
         transform="translate(-124.81,59.026155)"
         id="g4810"
         style="opacity:0.17099998;filter:url(#filter5004)">
        <path
           inkscape:connector-curvature="0"
           id="path4784"
           style="font-style:normal;font-variant:normal;font-weight:normal;font-stretch:normal;font-size:10.58333302px;line-height:125%;font-family:'Amatic SC';-inkscape-font-specification:'Amatic SC';letter-spacing:0px;word-spacing:0px;fill:#000000;fill-opacity:1;stroke:none;stroke-width:0.79159081px;stroke-linecap:butt;stroke-linejoin:miter;stroke-opacity:1"
           d="m 268.89831,208.72798 q -0.24901,-0.0466 -0.4388,-0.24155 -0.15855,-0.18979 -0.11845,-0.40803 0.0569,-0.3115 2.07059,-0.23222 2.05035,0.0536 3.42071,0.30497 0.24902,0.0466 0.43881,0.24109 0.18932,0.19585 0.14969,0.41362 -0.0569,0.3115 -2.07628,0.26347 -2.01351,-0.0793 -3.44617,-0.34181 z" />
        <path
           sodipodi:nodetypes="ccscscscc"
           inkscape:connector-curvature="0"
           id="path4786"
           style="font-style:normal;font-variant:normal;font-weight:normal;font-stretch:normal;font-size:10.58333302px;line-height:125%;font-family:'Amatic SC';-inkscape-font-specification:'Amatic SC';letter-spacing:0px;word-spacing:0px;fill:#000000;fill-opacity:1;stroke:none;stroke-width:1.49890733px;stroke-linecap:butt;stroke-linejoin:miter;stroke-opacity:1"
           d="m 277.30199,209.87405 c -0.35953,0 -0.67951,-0.13989 -0.9593,-0.41968 -0.23969,-0.3199 -0.35953,-0.65952 -0.35953,-1.01928 0,-0.39963 0.15994,-0.7594 0.4797,-1.0792 0.31989,-0.35953 0.67951,-0.53962 1.07919,-0.53962 0.3199,0 0.63956,0.18 0.95931,0.53962 0.31989,0.3199 0.47965,0.65956 0.47965,1.01928 0,0.99927 -0.55958,1.49888 -1.67878,1.49888 z" />
        <path
           d="m 274.26497,206.2441 c -0.1898,-0.15109 -0.29985,-0.35906 -0.32969,-0.6244 0.009,-0.26953 0.0872,-0.49905 0.23829,-0.68879 0.16787,-0.21078 0.40336,-0.33342 0.70642,-0.36793 0.31989,-0.0555 0.58513,8.4e-4 0.79596,0.16881 0.1688,0.1343 0.2616,0.36373 0.27932,0.68768 0.0326,0.3031 -0.0233,0.54941 -0.17533,0.73916 -0.41969,0.52712 -0.9249,0.55556 -1.51525,0.0853 z"
           style="font-style:normal;font-variant:normal;font-weight:normal;font-stretch:normal;font-size:10.58333302px;line-height:125%;font-family:'Amatic SC';-inkscape-font-specification:'Amatic SC';letter-spacing:0px;word-spacing:0px;fill:#000000;fill-opacity:1;stroke:none;stroke-width:1.01078224px;stroke-linecap:butt;stroke-linejoin:miter;stroke-opacity:1"
           id="path4788"
           inkscape:connector-curvature="0"
           sodipodi:nodetypes="ccscscscc" />
        <path
           sodipodi:nodetypes="ccscscscc"
           inkscape:connector-curvature="0"
           id="path4790"
           style="font-style:normal;font-variant:normal;font-weight:normal;font-stretch:normal;font-size:10.58333302px;line-height:125%;font-family:'Amatic SC';-inkscape-font-specification:'Amatic SC';letter-spacing:0px;word-spacing:0px;fill:#000000;fill-opacity:1;stroke:none;stroke-width:0.97679293px;stroke-linecap:butt;stroke-linejoin:miter;stroke-opacity:1"
           d="m 278.22176,205.49333 c -0.18327,-0.14596 -0.28959,-0.34694 -0.3185,-0.60341 0.009,-0.26021 0.0844,-0.48227 0.23036,-0.66562 0.16228,-0.20378 0.38984,-0.32223 0.68264,-0.35534 0.30917,-0.0536 0.56546,8e-4 0.76919,0.16321 0.16321,0.12964 0.25321,0.35114 0.27,0.66451 0.0326,0.29284 -0.0233,0.53094 -0.16927,0.71435 -0.4057,0.50935 -0.89379,0.53687 -1.46428,0.0825 z" />
        <path
           d="m 281.10849,208.66251 c -0.23129,0.009 -0.4402,-0.0755 -0.62626,-0.24994 -0.16088,-0.20052 -0.24529,-0.41689 -0.25321,-0.64837 -0.009,-0.25741 0.0867,-0.49215 0.28585,-0.7047 0.19818,-0.23829 0.42575,-0.36186 0.6832,-0.37025 0.20564,-0.005 0.41549,0.10212 0.62878,0.32688 0.21264,0.19912 0.32269,0.41456 0.33015,0.6459 0.0187,0.6431 -0.32875,0.97647 -1.04879,1.00011 z"
           style="font-style:normal;font-variant:normal;font-weight:normal;font-stretch:normal;font-size:10.58333302px;line-height:125%;font-family:'Amatic SC';-inkscape-font-specification:'Amatic SC';letter-spacing:0px;word-spacing:0px;fill:#000000;fill-opacity:1;stroke:none;stroke-width:0.96520799px;stroke-linecap:butt;stroke-linejoin:miter;stroke-opacity:1"
           id="path4792"
           inkscape:connector-curvature="0"
           sodipodi:nodetypes="ccscscscc" />
        <path
           sodipodi:nodetypes="ccscscscc"
           inkscape:connector-curvature="0"
           id="path4794"
           style="font-style:normal;font-variant:normal;font-weight:normal;font-stretch:normal;font-size:10.58333302px;line-height:125%;font-family:'Amatic SC';-inkscape-font-specification:'Amatic SC';letter-spacing:0px;word-spacing:0px;fill:#000000;fill-opacity:1;stroke:none;stroke-width:1.09391999px;stroke-linecap:butt;stroke-linejoin:miter;stroke-opacity:1"
           d="m 279.2871,211.92412 c -0.12077,-0.23316 -0.13709,-0.4874 -0.0494,-0.76257 0.12684,-0.26254 0.30684,-0.45419 0.54028,-0.57478 0.25927,-0.13383 0.54592,-0.15109 0.8604,-0.0508 0.34041,0.0867 0.57758,0.25974 0.71151,0.51882 0.10725,0.20751 0.0975,0.4749 -0.028,0.80277 -0.10026,0.3143 -0.26674,0.53202 -0.50004,0.65256 -0.64785,0.33482 -1.15931,0.13943 -1.53436,-0.58607 z" />
        <path
           d="m 276.01356,213.04715 c 0.2201,-0.17534 0.34787,-0.41689 0.38238,-0.72452 -0.009,-0.31243 -0.10119,-0.57902 -0.27653,-0.79922 -0.19492,-0.24481 -0.46808,-0.38704 -0.81969,-0.42668 -0.37119,-0.0643 -0.67895,9.8e-4 -0.92358,0.19586 -0.19586,0.15575 -0.30358,0.42201 -0.32409,0.79791 -0.0373,0.3516 0.028,0.63755 0.20331,0.8577 0.48711,0.61162 1.07318,0.64463 1.7582,0.0993 z"
           style="font-style:normal;font-variant:normal;font-weight:normal;font-stretch:normal;font-size:10.58333302px;line-height:125%;font-family:'Amatic SC';-inkscape-font-specification:'Amatic SC';letter-spacing:0px;word-spacing:0px;fill:#000000;fill-opacity:1;stroke:none;stroke-width:1.17285728px;stroke-linecap:butt;stroke-linejoin:miter;stroke-opacity:1"
           id="path4796"
           inkscape:connector-curvature="0"
           sodipodi:nodetypes="ccscscscc" />
        <path
           inkscape:connector-curvature="0"
           id="path4798"
           style="font-style:normal;font-variant:normal;font-weight:normal;font-stretch:normal;font-size:10.58333302px;line-height:125%;font-family:'Amatic SC';-inkscape-font-specification:'Amatic SC';letter-spacing:0px;word-spacing:0px;fill:#000000;fill-opacity:1;stroke:none;stroke-width:0.79159081px;stroke-linecap:butt;stroke-linejoin:miter;stroke-opacity:1"
           d="m 203.37503,209.11484 q 0.25321,0.005 0.47126,0.16927 0.18653,0.16275 0.1814,0.38425 -0.005,0.31663 -2.00805,0.55585 -2.03319,0.26999 -3.42603,0.23829 -0.25321,-0.005 -0.47121,-0.16928 -0.21777,-0.16321 -0.21311,-0.38471 0.009,-0.31663 2.00875,-0.58746 2.00083,-0.23923 3.45695,-0.20612 z" />
        <path
           sodipodi:nodetypes="ccscscscc"
           inkscape:connector-curvature="0"
           id="path4800"
           style="font-style:normal;font-variant:normal;font-weight:normal;font-stretch:normal;font-size:10.58333302px;line-height:125%;font-family:'Amatic SC';-inkscape-font-specification:'Amatic SC';letter-spacing:0px;word-spacing:0px;fill:#000000;fill-opacity:1;stroke:none;stroke-width:1.49890733px;stroke-linecap:butt;stroke-linejoin:miter;stroke-opacity:1"
           d="m 198.95048,211.37881 c 0.35067,-0.0807 0.63102,-0.28819 0.8411,-0.62361 0.16227,-0.36512 0.20331,-0.72326 0.12264,-1.07388 -0.0895,-0.38937 -0.32549,-0.70446 -0.7089,-0.94457 -0.39217,-0.27932 -0.78299,-0.37399 -1.17255,-0.28445 -0.3115,0.0713 -0.58313,0.31849 -0.81428,0.74046 -0.24016,0.38331 -0.3199,0.75012 -0.23969,1.10074 0.22337,0.97395 0.88064,1.33577 1.97149,1.08545 z" />
        <text
           id="text4804"
           y="229.14139"
           x="236.81343"
           style="font-style:normal;font-variant:normal;font-weight:normal;font-stretch:normal;font-size:9.48352528px;line-height:125%;font-family:Sarai;-inkscape-font-specification:Sarai;text-align:center;letter-spacing:0px;word-spacing:0px;text-anchor:middle;fill:#000000;fill-opacity:1;stroke:none;stroke-width:0.23708813px;stroke-linecap:butt;stroke-linejoin:miter;stroke-opacity:1"
           xml:space="preserve"><tspan
             style="font-style:normal;font-variant:normal;font-weight:bold;font-stretch:normal;font-family:'Amatic SC';-inkscape-font-specification:'Amatic SC Bold';text-align:center;text-anchor:middle;stroke-width:0.23708813px"
             y="229.14139"
             x="236.81343"
             sodipodi:role="line"
             id="tspan4802">do things on-the-fly</tspan></text>
        <text
           xml:space="preserve"
           style="font-style:normal;font-variant:normal;font-weight:normal;font-stretch:normal;font-size:35.0295105px;line-height:125%;font-family:Sarai;-inkscape-font-specification:Sarai;text-align:center;letter-spacing:0px;word-spacing:0px;text-anchor:middle;fill:#000000;fill-opacity:1;stroke:none;stroke-width:0.87573773px;stroke-linecap:butt;stroke-linejoin:miter;stroke-opacity:1"
           x="235.94934"
           y="220.62682"
           id="text4808"><tspan
             id="tspan4806"
             sodipodi:role="line"
             x="235.94934"
             y="220.62682"
             style="font-style:normal;font-variant:normal;font-weight:normal;font-stretch:normal;font-family:'Amatic SC';-inkscape-font-specification:'Amatic SC';text-align:center;text-anchor:middle;stroke-width:0.87573773px">Fly-Pie</tspan></text>
      </g>
    </g>
  </g>
</svg>
