<svg xmlns="http://www.w3.org/2000/svg" width="480" height="200" viewBox="0 0 127 52.917"><g style="font-style:normal;font-variant:normal;font-weight:400;font-stretch:normal;font-size:22.006px;line-height:125%;font-family:Sarai;-inkscape-font-specification:Sarai;letter-spacing:0;word-spacing:0;fill:#7c7c7c;fill-opacity:1;stroke:none;stroke-width:.550149px;stroke-linecap:butt;stroke-linejoin:miter;stroke-opacity:1" aria-label="Fly-Pie"><g style="fill:#2c2c2c;fill-opacity:1"><path d="M268.898 208.728q-.249-.047-.438-.242-.159-.19-.119-.408.057-.311 2.07-.232 2.051.054 3.421.305.25.047.44.241.188.196.149.414-.057.311-2.076.263-2.014-.079-3.447-.341z" style="font-style:normal;font-variant:normal;font-weight:400;font-stretch:normal;font-size:10.5833px;line-height:125%;font-family:'Amatic SC';-inkscape-font-specification:'Amatic SC';letter-spacing:0;word-spacing:0;fill:#2c2c2c;fill-opacity:1;stroke:none;stroke-width:.791591px;stroke-linecap:butt;stroke-linejoin:miter;stroke-opacity:1" transform="translate(-276.674 -273.913) scale(1.42147)"/><path d="M277.302 209.874c-.36 0-.68-.14-.96-.42a1.67 1.67 0 0 1-.359-1.019c0-.4.16-.76.48-1.08.32-.359.68-.539 1.079-.539.32 0 .64.18.96.54.32.32.479.66.479 1.02 0 .998-.56 1.498-1.679 1.498z" style="font-style:normal;font-variant:normal;font-weight:400;font-stretch:normal;font-size:10.5833px;line-height:125%;font-family:'Amatic SC';-inkscape-font-specification:'Amatic SC';letter-spacing:0;word-spacing:0;fill:#2c2c2c;fill-opacity:1;stroke:none;stroke-width:1.49891px;stroke-linecap:butt;stroke-linejoin:miter;stroke-opacity:1" transform="translate(-276.674 -273.913) scale(1.42147)"/><path style="font-style:normal;font-variant:normal;font-weight:400;font-stretch:normal;font-size:10.5833px;line-height:125%;font-family:'Amatic SC';-inkscape-font-specification:'Amatic SC';letter-spacing:0;word-spacing:0;fill:#2c2c2c;fill-opacity:1;stroke:none;stroke-width:1.01078px;stroke-linecap:butt;stroke-linejoin:miter;stroke-opacity:1" d="M274.265 206.244a.89.89 0 0 1-.33-.624c.01-.27.087-.5.239-.69.167-.21.403-.333.706-.367.32-.056.585 0 .796.169.169.134.262.364.28.687.032.304-.024.55-.176.74-.42.527-.925.555-1.515.085z" transform="translate(-276.674 -273.913) scale(1.42147)"/><path d="M278.222 205.493a.86.86 0 0 1-.319-.603c.01-.26.085-.482.23-.666.163-.203.39-.322.683-.355.31-.054.566 0 .77.163.163.13.253.351.27.665.032.293-.024.53-.17.714-.406.51-.894.537-1.464.083z" style="font-style:normal;font-variant:normal;font-weight:400;font-stretch:normal;font-size:10.5833px;line-height:125%;font-family:'Amatic SC';-inkscape-font-specification:'Amatic SC';letter-spacing:0;word-spacing:0;fill:#2c2c2c;fill-opacity:1;stroke:none;stroke-width:.976793px;stroke-linecap:butt;stroke-linejoin:miter;stroke-opacity:1" transform="translate(-276.674 -273.913) scale(1.42147)"/><path style="font-style:normal;font-variant:normal;font-weight:400;font-stretch:normal;font-size:10.5833px;line-height:125%;font-family:'Amatic SC';-inkscape-font-specification:'Amatic SC';letter-spacing:0;word-spacing:0;fill:#2c2c2c;fill-opacity:1;stroke:none;stroke-width:.965208px;stroke-linecap:butt;stroke-linejoin:miter;stroke-opacity:1" d="M281.108 208.663a.844.844 0 0 1-.626-.25c-.16-.201-.245-.417-.253-.649-.009-.257.087-.492.286-.705.198-.238.426-.361.683-.37.206-.005.416.102.629.327.212.2.323.415.33.646.019.643-.329.976-1.049 1z" transform="translate(-276.674 -273.913) scale(1.42147)"/><path d="M279.287 211.924a.963.963 0 0 1-.05-.762c.128-.263.308-.455.541-.575.26-.134.546-.151.86-.051.34.087.578.26.712.519.107.207.097.475-.028.803-.1.314-.267.532-.5.652-.648.335-1.16.14-1.535-.586z" style="font-style:normal;font-variant:normal;font-weight:400;font-stretch:normal;font-size:10.5833px;line-height:125%;font-family:'Amatic SC';-inkscape-font-specification:'Amatic SC';letter-spacing:0;word-spacing:0;fill:#2c2c2c;fill-opacity:1;stroke:none;stroke-width:1.09392px;stroke-linecap:butt;stroke-linejoin:miter;stroke-opacity:1" transform="translate(-276.674 -273.913) scale(1.42147)"/><path style="font-style:normal;font-variant:normal;font-weight:400;font-stretch:normal;font-size:10.5833px;line-height:125%;font-family:'Amatic SC';-inkscape-font-specification:'Amatic SC';letter-spacing:0;word-spacing:0;fill:#2c2c2c;fill-opacity:1;stroke:none;stroke-width:1.17286px;stroke-linecap:butt;stroke-linejoin:miter;stroke-opacity:1" d="M276.014 213.047c.22-.175.347-.417.382-.724a1.307 1.307 0 0 0-.277-.8c-.195-.244-.468-.387-.82-.426-.37-.065-.678 0-.923.196-.196.155-.303.422-.324.797-.037.352.028.638.203.858.487.612 1.074.645 1.759.1z" transform="translate(-276.674 -273.913) scale(1.42147)"/><path d="M203.375 209.115q.253.005.471.17.187.162.182.383-.005.317-2.008.556-2.034.27-3.426.239-.254-.005-.472-.17-.217-.163-.213-.384.01-.317 2.009-.588 2-.24 3.457-.206z" style="font-style:normal;font-variant:normal;font-weight:400;font-stretch:normal;font-size:10.5833px;line-height:125%;font-family:'Amatic SC';-inkscape-font-specification:'Amatic SC';letter-spacing:0;word-spacing:0;fill:#2c2c2c;fill-opacity:1;stroke:none;stroke-width:.791591px;stroke-linecap:butt;stroke-linejoin:miter;stroke-opacity:1" transform="translate(-276.674 -273.913) scale(1.42147)"/><path d="M198.95 211.379c.351-.08.632-.288.842-.624.162-.365.203-.723.122-1.074-.09-.39-.325-.704-.709-.944-.392-.28-.783-.374-1.172-.285-.312.072-.583.319-.815.74-.24.384-.32.75-.24 1.101.224.974.881 1.336 1.972 1.086z" style="font-style:normal;font-variant:normal;font-weight:400;font-stretch:normal;font-size:10.5833px;line-height:125%;font-family:'Amatic SC';-inkscape-font-specification:'Amatic SC';letter-spacing:0;word-spacing:0;fill:#2c2c2c;fill-opacity:1;stroke:none;stroke-width:1.49891px;stroke-linecap:butt;stroke-linejoin:miter;stroke-opacity:1" transform="translate(-276.674 -273.913) scale(1.42147)"/><g aria-label="do things on-the-fly" style="font-style:normal;font-variant:normal;font-weight:400;font-stretch:normal;font-size:9.48353px;line-height:125%;font-family:Sarai;-inkscape-font-specification:Sarai;text-align:center;letter-spacing:0;word-spacing:0;text-anchor:middle;fill:#2c2c2c;fill-opacity:1;stroke:none;stroke-width:.237088px;stroke-linecap:butt;stroke-linejoin:miter;stroke-opacity:1"><path d="M208.206 229.198q-.246 0-.246-1.242l.019-1.498q.009-.664.009-1.49 0-.303-.057-.938-.047-.693-.047-.844 0-.124.104-.218.104-.095.228-.095.331 0 .635.152.313.142.55.407.503.579.664 1.271.085.351.085.692 0 .124-.009.228l-.009.256v.522q0 .607-.038.958-.057.474-.218.844-.19.398-.55.71-.17.143-.436.285zm.418-.483q.19 0 .35-.095.162-.104.276-.275.094-.152.17-.38.086-.237.124-.455.085-.427.104-.872.009-.114.009-.332 0-2.864-1.11-2.987-.066.426-.066.986 0 .597.076 2.086.066 1.318.066 2.096zM212.294 229.322q-.247 0-.455-.162-.209-.151-.342-.417-.275-.578-.341-1.261-.086-.645-.086-1.243 0-.113.01-.19v-.17q0-.047-.01-.047v-.171l.01-.664q.008-.303.075-.967.048-.455.218-.882.067-.19.171-.285.104-.104.237-.104.38 0 .683.142.304.133.512.38.19.237.323.588.132.341.19.73.056.398.056.844v.076q0 .294.01.53l.008.541q0 2.732-1.27 2.732zm-.038-.399q.17 0 .313-.132.142-.143.218-.38.18-.484.218-1.043.048-.484.048-.835 0-.426-.067-1.119-.057-.73-.057-1.09v-.171q-.019-.36-.246-.626-.218-.265-.54-.265-.323 0-.428.37-.094.293-.094.758 0 .18.009.304v.256l-.02.436q-.018.2-.018.436 0 .512.028 1.015.038.711.19 1.384.151.702.445.702zM216.865 228.99l-.01-.37q-.008-.161-.008-.36l.009-.323q-.028-.104-.142-2.077-.114-1.972-.133-2.532-.55-.019-.702-.114-.104-.076-.104-.17 0-.076.095-.133.104-.067.208-.067.266 0 .645.038.36.048.645.048h.152q.294 0 .294.227 0 .114-.095.19-.095.066-.218.066-.086 0-.247-.028l-.19-.038-.008.047-.01.048q0 .844.162 2.693.152 1.736.152 2.693 0 .114-.105.2-.095.085-.218.085zM220.43 229.141q-.322 0-.322-1.564l.01-.541.008-.436v-.123q.01-.076.01-.18 0-.02-.03-.048-.028-.028-.028-.047v-.01q-.047.02-.17.02-.124 0-.304-.038l-.303-.048v1.09q0 .247.028.779.029.521.029.777 0 .142-.076.247-.076.104-.2.104-.18 0-.256-.35-.075-.361-.075-.94l.019-.768q.009-.322.009-.683V226.088q0-.151-.01-.199v-.047l.029-.55q0-.36-.028-1.072-.029-.711-.029-1.072 0-.113.076-.199.076-.085.19-.085.303 0 .303.569l-.019 1.176q-.019.531-.019 1.185.142.048.512.048h.351q.02-.057.02-.114 0-.455-.058-1.347-.066-.834-.066-1.356 0-.104.076-.17.085-.076.199-.076.066 0 .19.047l.085.038q0 1.347.095 3.594l.085 2.4q0 .132-.104.208-.095.076-.228.076zM222.375 229.132q-.825 0-.825-.285 0-.227.294-.227h.104l.095.009q.076 0 .104-.048.029-.047.029-.17 0-.162-.02-.503-.028-.228-.066-.816-.085-1.45-.085-2.19 0-.266.009-.484l.009-.484q0-.312-.029-.521-.151.038-.218.038-.227 0-.227-.228 0-.114.142-.199t.36-.123q.38-.076.674-.076.113 0 .19.085.085.076.085.18 0 .105-.067.18-.057.077-.151.077-.057 0-.095-.01h-.076q-.095 0-.142.048-.038.038-.038.152 0 .92.113 2.769.02.341.076 1.005.048.436.048.892v.36q.057-.01.19-.01.398 0 .398.333v.057l-.237.16q-.01 0-.067.01h-.19q-.303.019-.388.019zM226.633 229.17q-.114 0-.17-.057-.058-.066-.086-.218l-.057-.18v-.048q0-.313-.654-2.134-.645-1.82-1.015-2.693v4.77l.038.067q.009.019.038.066.028.048.028.095 0 .123-.085.209-.086.085-.209.085-.304 0-.304-.579l-.009-1.621q-.009-.73-.009-1.631 0-.304.029-.882.028-.598.028-.882 0-.446.342-.702v.057q.057-.02.076-.02.218 0 .55.76.265.606.474 1.28.218.673.569 1.915l.095.342q.218.768.332 1.1.19-2.039.19-4.818v-.123q-.01-.057-.01-.123 0-.285.228-.285.133 0 .199.105.076.104.076.265v.711q-.02 1.46-.114 3.168-.095 1.707-.228 1.925-.275.076-.34.076zM229.82 229.217q-.266 0-.484-.095-.218-.104-.37-.265-.123-.133-.228-.389-.104-.256-.151-.493-.048-.18-.076-.522-.029-.341-.038-.588v-.929q0-.55.019-.9.019-.428.123-.902.085-.427.294-.75.2-.322.56-.445.17-.066.398-.066.408 0 .408.237 0 .114-.095.19-.086.066-.209.066-.057 0-.104-.009-.038-.009-.095-.009-.161 0-.284.17-.124.171-.21.475-.15.588-.208 1.28-.038.645-.038.958 0 .322.029.882.038.522.161.91.066.228.152.37.095.133.237.228.161.104.332.104.455 0 .455-1.517v-.436q-.066-.029-.218-.029h-.19q-.332 0-.332-.218 0-.133.086-.2.094-.075.237-.075v.009h.132q.854 0 .854.294 0 .085-.047.341-.057.228-.057.342 0 .161.028.502l.02.503q0 .455-.323.72-.313.257-.768.257zM232.038 229.274q-.17-.028-.294-.123-.113-.095-.132-.247l.104-.16q.057 0 .18.037.142.028.218.028.171 0 .304-.151.142-.152.208-.399.124-.455.124-.815 0-.626-.399-1.318l-.104-.18q-.18-.314-.303-.56-.124-.247-.209-.531-.114-.37-.114-.74 0-.417.19-.872.095-.219.265-.351.18-.143.399-.143.17 0 .313.114.151.105.151.256 0 .086-.066.133-.066.047-.161.047-.105 0-.2-.056-.208.009-.331.37-.105.331-.105.55 0 .274.086.559.085.275.218.503l.209.379.331.626q.133.265.21.616.085.351.085.712 0 .578-.266 1.1-.133.265-.38.426-.236.162-.53.162zM237.055 229.322q-.246 0-.455-.162-.209-.151-.341-.417-.275-.578-.342-1.261-.085-.645-.085-1.243 0-.113.009-.19v-.17q0-.047-.01-.047v-.171l.01-.664q.009-.303.076-.967.047-.455.218-.882.066-.19.17-.285.105-.104.238-.104.379 0 .682.142.304.133.513.38.19.237.322.588.133.341.19.73.057.398.057.844v.076q0 .294.009.53l.009.541q0 2.732-1.271 2.732zm-.038-.399q.171 0 .313-.132.143-.143.218-.38.18-.484.219-1.043.047-.484.047-.835 0-.426-.066-1.119-.057-.73-.057-1.09v-.171q-.02-.36-.247-.626-.218-.265-.54-.265-.323 0-.427.37-.095.293-.095.758 0 .18.009.304v.256l-.019.436q-.02.2-.02.436 0 .512.03 1.015.037.711.19 1.384.15.702.445.702zM241.949 229.17q-.114 0-.171-.057-.057-.066-.085-.218l-.057-.18v-.048q0-.313-.655-2.134-.645-1.82-1.014-2.693v4.77l.038.067q.009.019.037.066.029.048.029.095 0 .123-.086.209-.085.085-.208.085-.304 0-.304-.579l-.009-1.621q-.009-.73-.009-1.631 0-.304.029-.882.028-.598.028-.882 0-.446.342-.702v.057q.057-.02.076-.02.218 0 .55.76.265.606.474 1.28.218.673.569 1.915l.095.342q.218.768.332 1.1.19-2.039.19-4.818v-.123q-.01-.057-.01-.123 0-.285.228-.285.133 0 .199.105.076.104.076.265v.711q-.02 1.46-.114 3.168-.095 1.707-.228 1.925-.275.076-.341.076zM244.395 226.107q-.123 0-.218-.076-.094-.086-.094-.2 0-.113.227-.199.323-.123 1.12-.17.303-.02.388-.02.123 0 .218.086.095.076.095.19t-.228.199q-.322.123-1.119.17-.303.02-.389.02zM248.009 228.99l-.01-.37q-.008-.161-.008-.36l.009-.323q-.029-.104-.143-2.077-.113-1.972-.132-2.532-.55-.019-.702-.114-.104-.076-.104-.17 0-.076.094-.133.105-.067.209-.067.266 0 .645.038.36.048.645.048h.152q.294 0 .294.227 0 .114-.095.19-.095.066-.218.066-.086 0-.247-.028l-.19-.038-.009.047-.009.048q0 .844.162 2.693.151 1.736.151 2.693 0 .114-.104.2-.095.085-.218.085zM251.574 229.141q-.322 0-.322-1.564l.009-.541.009-.436v-.123q.009-.076.009-.18 0-.02-.028-.048-.029-.028-.029-.047v-.01q-.047.02-.17.02-.124 0-.304-.038l-.303-.048v1.09q0 .247.028.779.028.521.028.777 0 .142-.076.247-.075.104-.199.104-.18 0-.256-.35-.076-.361-.076-.94l.02-.768q.008-.322.008-.683V226.088q0-.151-.009-.199v-.047l.029-.55q0-.36-.029-1.072-.028-.711-.028-1.072 0-.113.076-.199.076-.085.19-.085.303 0 .303.569l-.02 1.176q-.018.531-.018 1.185.142.048.512.048h.35q.02-.057.02-.114 0-.455-.057-1.347-.066-.834-.066-1.356 0-.104.075-.17.086-.076.2-.076.066 0 .19.047l.085.038q0 1.347.094 3.594l.086 2.4q0 .132-.104.208-.095.076-.228.076zM253.48 229.265q-.123 0-.227-.086-.095-.085-.104-.208v-.437q-.01-.085-.01-.199 0-.199-.028-.607l-.019-.607q0-.464.029-1.384.038-.825.038-1.385 0-.133-.029-.398-.028-.275-.028-.398 0-.674.398-.674.313 0 .72.123.418.124.418.294 0 .095-.085.18-.076.077-.19.124-.398-.142-.72-.19.008.143.008.408 0 .38-.009.683-.028.455-.028.683l.028.151.152-.009q.076-.009.19-.009.455 0 .455.266 0 .104-.086.18-.085.067-.218.067-.17 0-.265-.02h-.237q.019.247.019.721t-.01.854q-.028.578-.028.863 0 .53.02.53l.312-.008q.162-.01.39-.01.36 0 .36.228 0 .133-.124.2-.114.076-.284.076zM256.23 226.107q-.122 0-.217-.076-.095-.086-.095-.2 0-.113.228-.199.322-.123 1.119-.17.303-.02.388-.02.124 0 .219.086.094.076.094.19t-.227.199q-.323.123-1.12.17-.303.02-.388.02zM259.512 229.227q-.142 0-.341-.143.076-.787.123-2.418.047-1.697.066-2.039v-.227q.038-.93.038-1.29 0-.133.105-.209.113-.076.256-.076.332 0 .711.057.247.038.389.124.152.085.152.208 0 .266-.484.266-.18-.095-.493-.095h-.114v.114q0 .37-.038.939-.047.53-.047.957v.256H260.005q.465 0 .465.247 0 .123-.104.2-.095.075-.237.075-.228 0-.37-.047v2.684q0 .417-.247.417zm3.604.066q-.342-.114-.844-.114-.152.095-.323.095-.113 0-.199-.104-.076-.095-.076-.209 0-.796.067-2.124.057-1.413.057-2.115v-.066q-.057-.598-.057-.892 0-.9.332-.9.094 0 .16.075.077.067.077.161 0 .114-.029.36-.028.238-.028.361 0 .636.009 1.148.009.502.009 1.138-.047.142-.047.398v.114l-.02.749q-.018.332-.018.759 0 .654.312.654h.057q.048-.009.124-.009.085-.009.218-.009.512 0 .512.285 0 .094-.086.16-.085.067-.208.086zM264.975 229.274q-.162 0-.266-.208.104-.2.104-1.613 0-.332-.047-.72l-.028-.275q-.029-.257-.029-.39v-.246l-.35-.882q-.247-.645-.399-1.08-.18-.504-.18-.684v-.047l.218-.161q.161.019.341.417.152.35.332 1.005.19.655.19.692.038-.104.152-.71.113-.608.256-1.072.16-.465.332-.465.094 0 .16.057.077.057.077.142 0 .484-.266 1.366-.284.957-.284 1.384v2.855q0 .635-.313.635z" style="font-style:normal;font-variant:normal;font-weight:700;font-stretch:normal;font-family:'Amatic SC';-inkscape-font-specification:'Amatic SC Bold';text-align:center;text-anchor:middle;fill:#2c2c2c;fill-opacity:1;stroke-width:.237088px" transform="translate(-276.674 -273.913) scale(1.42147)"/></g><g aria-label="Fly-Pie" style="font-style:normal;font-variant:normal;font-weight:400;font-stretch:normal;font-size:35.0295px;line-height:125%;font-family:Sarai;-inkscape-font-specification:Sarai;text-align:center;letter-spacing:0;word-spacing:0;text-anchor:middle;fill:#2c2c2c;fill-opacity:1;stroke:none;stroke-width:.875738px;stroke-linecap:butt;stroke-linejoin:miter;stroke-opacity:1"><path d="M208.189 220.697q-.56 0-.56-.91v-2.593l-.106-2.137q-.315-5.745-.315-8.442 0-1.471-.386-9.178-.07-1.681-.105-2.137-.035-.49-.035-.525v-.245q0-.245.35-.315.21-.07 1.227-.07h1.751q.28 0 .42.245.14.21.14.56 0 .35-.63.35l-.806-.035h-.91q-.28 0-.35.106-.07.105-.07.56 0 .7.244 5.114.246 4.414.246 5.15.42 0 1.19-.21.806-.21 1.192-.21.21 0 .35.244.175.246.175.456 0 .385-.56.525-.56.105-1.612.175-.735.106-.735.42 0 1.577.35 5.886.315 3.923.315 5.92l-.105.175q.105.245.105.455 0 .666-.77.666zM216.42 221.082q-.49 0-.595-.805.07-.21.07-1.156 0-3.223.105-9.564.105-6.305.105-9.107l.07-1.261.105-1.051q0-.245.246-.245.175 0 .49.105l.105.035q0 .77-.035 1.4V204.619q.035 1.682.035 3.819-.035.175-.035.77l-.035.736q-.035.7-.035 1.436 0 .806.035 1.471l.035 1.506-.105.28.035-.034q0 .105-.035.14v.14q0 .28.105.49l-.105 3.363v.21q0 .596.035.701 0 .175.175.175l1.822.07q.805 0 1.086.035h.49q.175 0 .35.21.176.176.176.386 0 .42-.561.455-.595-.035-2.907-.035l.07.035q-.35 0-.666.035-.28.07-.63.07zM226.824 221.152q-.105 0-.28-.14-.175-.14-.21-.245.315-.84.315-6.13 0-1.016-.105-2.908l-.175-2.487-.21-.455.105-.42q-.21-.49-.63-1.647-.421-1.156-.842-2.347-1.26-3.328-1.646-4.799-.21-.7-.315-1.296l.49-.385q.35.07 1.016 2.242.526 1.54.946 3.047l.42 1.331q.63 2.172.911 2.242l.14-.63-.07-.176q.28-.35.7-2.487.456-2.452.876-4.133.456-1.962.911-1.962.175 0 .315.105t.14.246q0 .525-1.05 4.133-.526 1.716-.876 3.223-.42 1.786-.42 3.187.175.35.175.596 0 .175-.105.49-.105.316-.105.526 0 .175.14 1.576.14.946.14 1.611 0 1.542.035 2.768v2.942q0 2.382-.736 2.382zM233.27 208.997q-.28 0-.526-.175-.21-.175-.21-.42 0-.35 2.207-.666 2.242-.35 3.783-.35.28 0 .525.175.246.175.246.42 0 .35-2.207.7-2.207.316-3.818.316zM243.743 220.837q-.42 0-.42-1.226 0-1.752-.035-3.118l-.07-3.152v-2.838q-.035-1.26-.035-2.837 0-4.694-.175-8.687l-.035-1.261q-.105-2.067-.105-3.363l.105-.14q.035-.07.14-.176.035-.105.175-.14.07-.035.245-.035 1.226 0 2.207.56 1.016.561 1.646 1.542 1.227 1.927 1.227 4.379 0 1.576-.526 3.222-.49 1.647-1.506 2.978-1.051 1.436-2.347 1.681l.07 3.889.07 1.891q.14 3.363.14 5.745 0 .56-.175.84-.14.246-.596.246zm.49-13.907q.316-.035.631-.28.07-.035.246-.28l.245-.245q2.277-2.277 2.277-5.71 0-1.962-.771-3.643-.42-.876-1.226-1.366-.806-.526-1.892-.526 0 1.997.21 5.99.21 3.994.21 5.99zM254.743 220.627q-.806 0-.946-.35-.175 0-.28.035h-.28q-.771 0-.981-.35 0-.246.28-.421l.175-.175h1.016l.14-.14.07-.316.035-.42q0-2.137-.105-3.818l-.07-1.296-.07-2.557q0-1.367.105-4.099l.07-4.063q0-2.663-.175-4.064-.316-.105-1.051-.105l-.385.035q-.21.035-.456.035-.665 0-.665-.595 0-.14.315-.28t.525-.14q1.331 0 2.663.14.805.034 1.61.315.631.21.631.595 0 .07-.105.28l-.805.07q-.246-.21-1.016-.21l-.175.105q.105.316.105 1.857 0 2.312-.035 4.168l-.07 4.169q0 1.576.14 3.818.105 2.557.105 3.853v.456q-.035.245-.035.63 0 .806.105.981l-.035.07q0 .35.77.35.316 0 .526-.034h.525q1.016 0 1.016.49 0 .315-.21.525-.21.176-.56.176-.316 0-.56-.07-.281-.035-.596-.035-.21 0-.63.175-.421.21-.631.21zM261.819 221.082q-.631 0-.701-.735v-.456q.035-.175.035-.42l-.14-.14q.28-.736.28-1.436 0-.806-.105-2.312l-.07-2.312q0-1.752.105-5.255.14-3.117.14-5.29l-.07-2.101q-.07-.946-.07-2.102 0-.525.245-.735.245-.246.77-.246.351 0 .561.21.07.036 1.016.14.876.106 1.506.316.666.21.666.525 0 .35-.666.701-1.996-.666-2.837-.666l-.175.21q.035.316.035 1.507 0 1.506-.07 2.697-.035 1.226-.035 2.732 0 .981.49.981l.56-.035q.28-.035.596-.035 1.366 0 1.366.63 0 .386-.175.666-.175.246-.525.246-.526 0-.806-.28l-1.12-.176h-.176l-.175.175v.105q.07.596.07 2.768 0 1.366-.035 2.487l-.035 2.487q0 1.366.105 2.802.035.806.35 1.086.316.245 1.156.245l.63-.035q.316-.035.701-.035 1.016 0 1.016.456 0 .63-1.541.63z" style="font-style:normal;font-variant:normal;font-weight:400;font-stretch:normal;font-family:'Amatic SC';-inkscape-font-specification:'Amatic SC';text-align:center;text-anchor:middle;fill:#2c2c2c;fill-opacity:1;stroke-width:.875738px" transform="translate(-276.674 -273.913) scale(1.42147)"/></g></g><text y="230.013" x="-98.721" style="font-style:normal;font-variant:normal;font-weight:400;font-stretch:normal;font-size:7.48766px;line-height:125%;font-family:Sarai;-inkscape-font-specification:Sarai;text-align:center;letter-spacing:0;word-spacing:0;text-anchor:middle;fill:#000;fill-opacity:1;stroke:none;stroke-width:.187192px;stroke-linecap:butt;stroke-linejoin:miter;stroke-opacity:1" xml:space="preserve" transform="translate(604.101 -447.304) scale(2.08336)"><tspan style="font-style:normal;font-variant:normal;font-weight:700;font-stretch:normal;font-family:'Amatic SC';-inkscape-font-specification:'Amatic SC Bold';text-align:center;text-anchor:middle;stroke-width:.187192px" y="230.013" x="-98.721">fly</tspan></text><text xml:space="preserve" style="font-style:normal;font-variant:normal;font-weight:400;font-stretch:normal;font-size:7.48766px;line-height:125%;font-family:Sarai;-inkscape-font-specification:Sarai;text-align:center;letter-spacing:0;word-spacing:0;text-anchor:middle;fill:#000;fill-opacity:1;stroke:none;stroke-width:.187192px;stroke-linecap:butt;stroke-linejoin:miter;stroke-opacity:1" x="-98.721" y="235.786" transform="translate(604.101 -447.304) scale(2.08336)"><tspan x="-98.721" y="235.786" style="font-style:normal;font-variant:normal;font-weight:700;font-stretch:normal;font-family:'Amatic SC';-inkscape-font-specification:'Amatic SC Bold';text-align:center;text-anchor:middle;stroke-width:.187192px">pie</tspan></text><path style="font-style:normal;font-variant:normal;font-weight:400;font-stretch:normal;font-size:10.5833px;line-height:125%;font-family:'Amatic SC';-inkscape-font-specification:'Amatic SC';letter-spacing:0;word-spacing:0;fill:#000;fill-opacity:1;stroke:none;stroke-width:.28288px;stroke-linecap:butt;stroke-linejoin:miter;stroke-opacity:1" d="M-102.223 230.348q.09.005.166.067.064.061.059.14-.006.113-.725.17-.73.066-1.227.034-.09-.005-.166-.067-.075-.061-.07-.14.008-.113.725-.18.718-.057 1.238-.024z" transform="translate(604.101 -447.304) scale(2.08336)"/><path style="font-style:normal;font-variant:normal;font-weight:400;font-stretch:normal;font-size:10.5833px;line-height:125%;font-family:'Amatic SC';-inkscape-font-specification:'Amatic SC';letter-spacing:0;word-spacing:0;fill:#000;fill-opacity:1;stroke:none;stroke-width:.535643px;stroke-linecap:butt;stroke-linejoin:miter;stroke-opacity:1" d="M-103.836 231.092a.472.472 0 0 0 .31-.21.596.596 0 0 0 .059-.382.533.533 0 0 0-.24-.348.507.507 0 0 0-.414-.118c-.112.02-.213.105-.302.252a.512.512 0 0 0-.101.39c.065.35.295.49.688.416z" transform="translate(604.101 -447.304) scale(2.08336)"/><path style="font-style:normal;font-variant:normal;font-weight:400;font-stretch:normal;font-size:10.5833px;line-height:125%;font-family:'Amatic SC';-inkscape-font-specification:'Amatic SC';letter-spacing:0;word-spacing:0;fill:#000;fill-opacity:1;stroke:none;stroke-width:.263816px;stroke-linecap:butt;stroke-linejoin:miter;stroke-opacity:1" d="M-95.556 230.65q-.083-.015-.146-.08-.053-.063-.04-.136.02-.104.69-.078.684.018 1.14.102.083.016.147.08.063.066.05.138-.02.104-.692.088-.671-.026-1.149-.114z" transform="translate(604.101 -447.304) scale(2.08336)"/><path style="font-style:normal;font-variant:normal;font-weight:400;font-stretch:normal;font-size:10.5833px;line-height:125%;font-family:'Amatic SC';-inkscape-font-specification:'Amatic SC';letter-spacing:0;word-spacing:0;fill:#000;fill-opacity:1;stroke:none;stroke-width:.499545px;stroke-linecap:butt;stroke-linejoin:miter;stroke-opacity:1" d="M-92.755 231.032a.44.44 0 0 1-.32-.14.557.557 0 0 1-.12-.34c0-.132.054-.252.16-.359a.474.474 0 0 1 .36-.18c.106 0 .213.06.32.18.106.107.16.22.16.34 0 .333-.187.5-.56.5z" transform="translate(604.101 -447.304) scale(2.08336)"/><path d="M-93.767 229.823a.296.296 0 0 1-.11-.209.378.378 0 0 1 .08-.23.336.336 0 0 1 .235-.122.32.32 0 0 1 .265.057c.056.044.087.12.093.229a.323.323 0 0 1-.059.246c-.14.176-.308.185-.505.028z" style="font-style:normal;font-variant:normal;font-weight:400;font-stretch:normal;font-size:10.5833px;line-height:125%;font-family:'Amatic SC';-inkscape-font-specification:'Amatic SC';letter-spacing:0;word-spacing:0;fill:#000;fill-opacity:1;stroke:none;stroke-width:.336867px;stroke-linecap:butt;stroke-linejoin:miter;stroke-opacity:1" transform="translate(604.101 -447.304) scale(2.08336)"/><path style="font-style:normal;font-variant:normal;font-weight:400;font-stretch:normal;font-size:10.5833px;line-height:125%;font-family:'Amatic SC';-inkscape-font-specification:'Amatic SC';letter-spacing:0;word-spacing:0;fill:#000;fill-opacity:1;stroke:none;stroke-width:.325539px;stroke-linecap:butt;stroke-linejoin:miter;stroke-opacity:1" d="M-92.449 229.572a.287.287 0 0 1-.106-.2.367.367 0 0 1 .077-.223.324.324 0 0 1 .227-.118.308.308 0 0 1 .257.054c.054.044.084.117.09.222a.312.312 0 0 1-.057.238c-.135.17-.298.179-.488.027z" transform="translate(604.101 -447.304) scale(2.08336)"/><path d="M-91.487 230.629a.285.285 0 0 1-.208-.084.36.36 0 0 1-.085-.216.319.319 0 0 1 .096-.235.305.305 0 0 1 .227-.123c.069-.002.139.034.21.109.07.066.107.138.11.215.006.214-.11.325-.35.333z" style="font-style:normal;font-variant:normal;font-weight:400;font-stretch:normal;font-size:10.5833px;line-height:125%;font-family:'Amatic SC';-inkscape-font-specification:'Amatic SC';letter-spacing:0;word-spacing:0;fill:#000;fill-opacity:1;stroke:none;stroke-width:.321678px;stroke-linecap:butt;stroke-linejoin:miter;stroke-opacity:1" transform="translate(604.101 -447.304) scale(2.08336)"/><path style="font-style:normal;font-variant:normal;font-weight:400;font-stretch:normal;font-size:10.5833px;line-height:125%;font-family:'Amatic SC';-inkscape-font-specification:'Amatic SC';letter-spacing:0;word-spacing:0;fill:#000;fill-opacity:1;stroke:none;stroke-width:.364574px;stroke-linecap:butt;stroke-linejoin:miter;stroke-opacity:1" d="M-92.094 231.716a.32.32 0 0 1-.016-.255.406.406 0 0 1 .18-.191.362.362 0 0 1 .287-.017.345.345 0 0 1 .237.173c.036.069.032.158-.01.267a.349.349 0 0 1-.166.218c-.216.111-.387.046-.512-.195z" transform="translate(604.101 -447.304) scale(2.08336)"/><path d="M-93.185 232.09a.344.344 0 0 0 .128-.242.436.436 0 0 0-.092-.266.388.388 0 0 0-.274-.142.37.37 0 0 0-.307.065c-.066.052-.102.14-.108.266a.377.377 0 0 0 .067.286c.163.204.358.215.586.033z" style="font-style:normal;font-variant:normal;font-weight:400;font-stretch:normal;font-size:10.5833px;line-height:125%;font-family:'Amatic SC';-inkscape-font-specification:'Amatic SC';letter-spacing:0;word-spacing:0;fill:#000;fill-opacity:1;stroke:none;stroke-width:.390882px;stroke-linecap:butt;stroke-linejoin:miter;stroke-opacity:1" transform="translate(604.101 -447.304) scale(2.08336)"/></g></svg>