<?xml version="1.0" encoding="UTF-8" standalone="no"?>
<svg
   xmlns:dc="http://purl.org/dc/elements/1.1/"
   xmlns:cc="http://creativecommons.org/ns#"
   xmlns:rdf="http://www.w3.org/1999/02/22-rdf-syntax-ns#"
   xmlns:svg="http://www.w3.org/2000/svg"
   xmlns="http://www.w3.org/2000/svg"
   xmlns:sodipodi="http://sodipodi.sourceforge.net/DTD/sodipodi-0.dtd"
   xmlns:inkscape="http://www.inkscape.org/namespaces/inkscape"
   width="64"
   height="64"
   viewBox="0 0 16.933333 16.933334"
   version="1.1"
   id="svg880"
   inkscape:version="1.0.2 (e86c870879, 2021-01-15)"
   sodipodi:docname="symbolic-icon-decor.svg">
  <defs
     id="defs874">
    <inkscape:path-effect
       effect="powerclip"
       id="path-effect1141"
       is_visible="true"
       lpeversion="1"
       inverse="true"
       flatten="false"
       hide_clip="false"
       message="Use fill-rule evenodd on &lt;b&gt;fill and stroke&lt;/b&gt; dialog if no flatten result after convert clip to paths." />
    <linearGradient
       id="linearGradient3764"
       x1="1"
       x2="47"
       gradientUnits="userSpaceOnUse"
       gradientTransform="matrix(0,-0.34522241,0.34522241,0,0.23554867,16.726687)">
      <stop
         style="stop-color:#7fa935;stop-opacity:1"
         id="stop2" />
      <stop
         offset="1"
         style="stop-color:#89b83a;stop-opacity:1"
         id="stop4" />
    </linearGradient>
    <filter
       inkscape:collect="always"
       style="color-interpolation-filters:sRGB"
       id="filter894"
       x="-0.027000004"
       width="1.054"
       y="-0.026999996"
       height="1.054">
      <feGaussianBlur
         inkscape:collect="always"
         stdDeviation="0.17898051"
         id="feGaussianBlur896" />
    </filter>
    <clipPath
       clipPathUnits="userSpaceOnUse"
       id="clipPath1137">
      <path
         d="m 8.465158,0.51045446 c 4.39341,0 7.95469,3.56138724 7.95469,7.95492974 0,4.3935418 -3.56128,7.9549288 -7.95469,7.9549288 -4.3934089,0 -7.95468925,-3.561387 -7.95468925,-7.9549288 0,-4.3935425 3.56128035,-7.95492974 7.95468925,-7.95492974 z"
         style="display:none;fill:#7c983b;fill-opacity:1;stroke-width:0.264583"
         id="path1139" />
      <path
         id="lpe_path-effect1141"
         style="fill:#7c983b;fill-opacity:1;stroke-width:0.264583"
         class="powerclip"
         d="M -4.7731067,-4.7748894 H 21.995376 V 21.993597 H -4.7731067 Z M 8.465158,0.51045446 c -4.3934089,0 -7.95468925,3.56138724 -7.95468925,7.95492974 0,4.3935418 3.56128035,7.9549288 7.95468925,7.9549288 4.39341,0 7.95469,-3.561387 7.95469,-7.9549288 0,-4.3935425 -3.56128,-7.95492974 -7.95469,-7.95492974 z" />
    </clipPath>
  </defs>
  <sodipodi:namedview
     id="base"
     pagecolor="#ffffff"
     bordercolor="#666666"
     borderopacity="1.0"
     inkscape:pageopacity="0.0"
     inkscape:pageshadow="2"
     inkscape:zoom="8.9964054"
     inkscape:cx="34.008716"
     inkscape:cy="36.096271"
     inkscape:document-units="mm"
     inkscape:current-layer="layer1"
     inkscape:document-rotation="0"
     showgrid="true"
     units="px"
     inkscape:snap-global="true"
     inkscape:snap-page="true"
     inkscape:window-width="1920"
     inkscape:window-height="1131"
     inkscape:window-x="0"
     inkscape:window-y="32"
     inkscape:window-maximized="1"
     inkscape:snap-object-midpoints="true"
     inkscape:snap-bbox="true"
     inkscape:bbox-nodes="false"
     showguides="true"
     inkscape:guide-bbox="true"
     inkscape:snap-bbox-midpoints="true"
     inkscape:object-nodes="false">
    <inkscape:grid
       type="xygrid"
       id="grid865"
       spacingx="0.52916667"
       spacingy="0.52916667" />
    <sodipodi:guide
       position="16.933333,8.4666669"
       orientation="0,-1"
       id="guide867" />
    <sodipodi:guide
       position="8.4666666,13.758334"
       orientation="1,0"
       id="guide869" />
  </sodipodi:namedview>
  <metadata
     id="metadata877">
    <rdf:RDF>
      <cc:Work
         rdf:about="">
        <dc:format>image/svg+xml</dc:format>
        <dc:type
           rdf:resource="http://purl.org/dc/dcmitype/StillImage" />
        <dc:title></dc:title>
      </cc:Work>
    </rdf:RDF>
  </metadata>
  <g
     inkscape:label="Layer 1"
     inkscape:groupmode="layer"
     id="layer1">
    <path
       d="m 8.6111358,0.65466372 c 4.3934072,0 7.9546872,3.56127918 7.9546872,7.95468828 0,4.393412 -3.56128,7.954691 -7.9546872,7.954691 -4.3934089,0 -7.95468929,-3.561279 -7.95468929,-7.954691 0,-4.3934091 3.56128039,-7.95468828 7.95468929,-7.95468828 z"
       style="opacity:0.35;fill:#000000;fill-opacity:1;stroke-width:0.264583;filter:url(#filter894)"
       id="path844"
       clip-path="url(#clipPath1137)"
       inkscape:path-effect="#path-effect1141"
       inkscape:original-d="m 8.6111358,0.65466372 c 4.3934072,0 7.9546872,3.56127918 7.9546872,7.95468828 0,4.393412 -3.56128,7.954691 -7.9546872,7.954691 -4.3934089,0 -7.95468929,-3.561279 -7.95468929,-7.954691 0,-4.3934091 3.56128039,-7.95468828 7.95468929,-7.95468828 z" />
    <path
       id="path41"
       style="opacity:0.2;stroke-width:0.264583"
       d="m 14.009231,2.7693088 c 2.067459,2.22145 2.647853,5.6655045 1.439316,8.4466922 -1.147835,2.792258 -4.000774,4.774681 -7.0220858,4.852613 -2.0592908,0.08951 -4.1383892,-0.664745 -5.6575528,-2.058643 1.9993713,2.103024 5.195536,2.935756 7.9677896,2.081184 2.957906,-0.846702 5.265421,-3.55419 5.618895,-6.6126417 C 16.684802,7.0312675 15.79036,4.4788331 14.009231,2.7693088 Z" />
    <filter
       id="a"
       height="100%"
       width="100%"
       x="0%"
       y="0%">
      <feColorMatrix
         in="SourceGraphic"
         type="matrix"
         values="0 0 0 0 1 0 0 0 0 1 0 0 0 0 1 0 0 0 1 0"
         id="feColorMatrix1003" />
    </filter>
    <mask
       id="b">
      <g
         filter="url(#a)"
         id="g1008">
        <path
           d="m 0 0 h 16 v 16 h -16 z"
           fill-opacity="0.3"
           id="path1006" />
      </g>
    </mask>
    <clipPath
       id="c">
      <path
         d="m 0 0 h 1024 v 800 h -1024 z"
         id="path1011" />
    </clipPath>
    <mask
       id="d">
      <g
         filter="url(#a)"
         id="g1016">
        <path
           d="m 0 0 h 16 v 16 h -16 z"
           fill-opacity="0.05"
           id="path1014" />
      </g>
    </mask>
    <clipPath
       id="e">
      <path
         d="m 0 0 h 1024 v 800 h -1024 z"
         id="path1019" />
    </clipPath>
    <mask
       id="f">
      <g
         filter="url(#a)"
         id="g1024">
        <path
           d="m 0 0 h 16 v 16 h -16 z"
           fill-opacity="0.05"
           id="path1022" />
      </g>
    </mask>
    <clipPath
       id="g">
      <path
         d="m 0 0 h 1024 v 800 h -1024 z"
         id="path1027" />
    </clipPath>
    <mask
       id="h">
      <g
         filter="url(#a)"
         id="g1032">
        <path
           d="m 0 0 h 16 v 16 h -16 z"
           fill-opacity="0.05"
           id="path1030" />
      </g>
    </mask>
    <clipPath
       id="i">
      <path
         d="m 0 0 h 1024 v 800 h -1024 z"
         id="path1035" />
    </clipPath>
    <mask
       id="j">
      <g
         filter="url(#a)"
         id="g1040">
        <path
           d="m 0 0 h 16 v 16 h -16 z"
           fill-opacity="0.05"
           id="path1038" />
      </g>
    </mask>
    <clipPath
       id="k">
      <path
         d="m 0 0 h 1024 v 800 h -1024 z"
         id="path1043" />
    </clipPath>
    <mask
       id="l">
      <g
         filter="url(#a)"
         id="g1048">
        <path
           d="m 0 0 h 16 v 16 h -16 z"
           fill-opacity="0.05"
           id="path1046" />
      </g>
    </mask>
    <clipPath
       id="m">
      <path
         d="m 0 0 h 1024 v 800 h -1024 z"
         id="path1051" />
    </clipPath>
    <mask
       id="n">
      <g
         filter="url(#a)"
         id="g1056">
        <path
           d="m 0 0 h 16 v 16 h -16 z"
           fill-opacity="0.05"
           id="path1054" />
      </g>
    </mask>
    <clipPath
       id="o">
      <path
         d="m 0 0 h 1024 v 800 h -1024 z"
         id="path1059" />
    </clipPath>
    <mask
       id="p">
      <g
         filter="url(#a)"
         id="g1064">
        <path
           d="m 0 0 h 16 v 16 h -16 z"
           fill-opacity="0.3"
           id="path1062" />
      </g>
    </mask>
    <clipPath
       id="q">
      <path
         d="m 0 0 h 1024 v 800 h -1024 z"
         id="path1067" />
    </clipPath>
    <mask
       id="r">
      <g
         filter="url(#a)"
         id="g1072">
        <path
           d="m 0 0 h 16 v 16 h -16 z"
           fill-opacity="0.5"
           id="path1070" />
      </g>
    </mask>
    <clipPath
       id="s">
      <path
         d="m 0 0 h 1024 v 800 h -1024 z"
         id="path1075" />
    </clipPath>
    <mask
       id="t">
      <g
         filter="url(#a)"
         id="g1080">
        <path
           d="m 0 0 h 16 v 16 h -16 z"
           fill-opacity="0.4"
           id="path1078" />
      </g>
    </mask>
    <clipPath
       id="u">
      <path
         d="m 0 0 h 1024 v 800 h -1024 z"
         id="path1083" />
    </clipPath>
    <mask
       id="v">
      <g
         filter="url(#a)"
         id="g1088">
        <path
           d="m 0 0 h 16 v 16 h -16 z"
           fill-opacity="0.4"
           id="path1086" />
      </g>
    </mask>
    <clipPath
       id="w">
      <path
         d="m 0 0 h 1024 v 800 h -1024 z"
         id="path1091" />
    </clipPath>
    <mask
       id="x">
      <g
         filter="url(#a)"
         id="g1096">
        <path
           d="m 0 0 h 16 v 16 h -16 z"
           fill-opacity="0.5"
           id="path1094" />
      </g>
    </mask>
    <clipPath
       id="y">
      <path
         d="m 0 0 h 1024 v 800 h -1024 z"
         id="path1099" />
    </clipPath>
    <mask
       id="z">
      <g
         filter="url(#a)"
         id="g1104">
        <path
           d="m 0 0 h 16 v 16 h -16 z"
           fill-opacity="0.5"
           id="path1102" />
      </g>
    </mask>
    <clipPath
       id="A">
      <path
         d="m 0 0 h 1024 v 800 h -1024 z"
         id="path1107" />
    </clipPath>
    <filter
       id="a-6"
       height="100%"
       width="100%"
       x="0%"
       y="0%">
      <feColorMatrix
         in="SourceGraphic"
         type="matrix"
         values="0 0 0 0 1 0 0 0 0 1 0 0 0 0 1 0 0 0 1 0"
         id="feColorMatrix3689" />
    </filter>
    <mask
       id="b-3">
      <g
         filter="url(#a)"
         id="g3694"
         style="filter:url(#a-6)">
        <path
           d="m 0 0 h 16 v 16 h -16 z"
           fill-opacity="0.3"
           id="path3692" />
      </g>
    </mask>
    <clipPath
       id="c-2">
      <path
         d="m 0 0 h 1024 v 800 h -1024 z"
         id="path3697" />
    </clipPath>
    <mask
       id="d-0">
      <g
         filter="url(#a)"
         id="g3702"
         style="filter:url(#a-6)">
        <path
           d="m 0 0 h 16 v 16 h -16 z"
           fill-opacity="0.05"
           id="path3700" />
      </g>
    </mask>
    <clipPath
       id="e-6">
      <path
         d="m 0 0 h 1024 v 800 h -1024 z"
         id="path3705" />
    </clipPath>
    <mask
       id="f-1">
      <g
         filter="url(#a)"
         id="g3710"
         style="filter:url(#a-6)">
        <path
           d="m 0 0 h 16 v 16 h -16 z"
           fill-opacity="0.05"
           id="path3708" />
      </g>
    </mask>
    <clipPath
       id="g-5">
      <path
         d="m 0 0 h 1024 v 800 h -1024 z"
         id="path3713" />
    </clipPath>
    <mask
       id="h-5">
      <g
         filter="url(#a)"
         id="g3718"
         style="filter:url(#a-6)">
        <path
           d="m 0 0 h 16 v 16 h -16 z"
           fill-opacity="0.05"
           id="path3716" />
      </g>
    </mask>
    <clipPath
       id="i-4">
      <path
         d="m 0 0 h 1024 v 800 h -1024 z"
         id="path3721" />
    </clipPath>
    <mask
       id="j-7">
      <g
         filter="url(#a)"
         id="g3726"
         style="filter:url(#a-6)">
        <path
           d="m 0 0 h 16 v 16 h -16 z"
           fill-opacity="0.05"
           id="path3724" />
      </g>
    </mask>
    <clipPath
       id="k-6">
      <path
         d="m 0 0 h 1024 v 800 h -1024 z"
         id="path3729" />
    </clipPath>
    <mask
       id="l-5">
      <g
         filter="url(#a)"
         id="g3734"
         style="filter:url(#a-6)">
        <path
           d="m 0 0 h 16 v 16 h -16 z"
           fill-opacity="0.05"
           id="path3732" />
      </g>
    </mask>
    <clipPath
       id="m-6">
      <path
         d="m 0 0 h 1024 v 800 h -1024 z"
         id="path3737" />
    </clipPath>
    <mask
       id="n-9">
      <g
         filter="url(#a)"
         id="g3742"
         style="filter:url(#a-6)">
        <path
           d="m 0 0 h 16 v 16 h -16 z"
           fill-opacity="0.05"
           id="path3740" />
      </g>
    </mask>
    <clipPath
       id="o-3">
      <path
         d="m 0 0 h 1024 v 800 h -1024 z"
         id="path3745" />
    </clipPath>
    <mask
       id="p-7">
      <g
         filter="url(#a)"
         id="g3750"
         style="filter:url(#a-6)">
        <path
           d="m 0 0 h 16 v 16 h -16 z"
           fill-opacity="0.3"
           id="path3748" />
      </g>
    </mask>
    <clipPath
       id="q-4">
      <path
         d="m 0 0 h 1024 v 800 h -1024 z"
         id="path3753" />
    </clipPath>
    <mask
       id="r-5">
      <g
         filter="url(#a)"
         id="g3758"
         style="filter:url(#a-6)">
        <path
           d="m 0 0 h 16 v 16 h -16 z"
           fill-opacity="0.5"
           id="path3756" />
      </g>
    </mask>
    <clipPath
       id="s-2">
      <path
         d="m 0 0 h 1024 v 800 h -1024 z"
         id="path3761" />
    </clipPath>
    <mask
       id="t-5">
      <g
         filter="url(#a)"
         id="g3766"
         style="filter:url(#a-6)">
        <path
           d="m 0 0 h 16 v 16 h -16 z"
           fill-opacity="0.4"
           id="path3764" />
      </g>
    </mask>
    <clipPath
       id="u-4">
      <path
         d="m 0 0 h 1024 v 800 h -1024 z"
         id="path3769" />
    </clipPath>
    <mask
       id="v-7">
      <g
         filter="url(#a)"
         id="g3774"
         style="filter:url(#a-6)">
        <path
           d="m 0 0 h 16 v 16 h -16 z"
           fill-opacity="0.4"
           id="path3772" />
      </g>
    </mask>
    <clipPath
       id="w-4">
      <path
         d="m 0 0 h 1024 v 800 h -1024 z"
         id="path3777" />
    </clipPath>
    <mask
       id="x-4">
      <g
         filter="url(#a)"
         id="g3782"
         style="filter:url(#a-6)">
        <path
           d="m 0 0 h 16 v 16 h -16 z"
           fill-opacity="0.5"
           id="path3780" />
      </g>
    </mask>
    <clipPath
       id="y-3">
      <path
         d="m 0 0 h 1024 v 800 h -1024 z"
         id="path3785" />
    </clipPath>
    <mask
       id="z-0">
      <g
         filter="url(#a)"
         id="g3790"
         style="filter:url(#a-6)">
        <path
           d="m 0 0 h 16 v 16 h -16 z"
           fill-opacity="0.5"
           id="path3788" />
      </g>
    </mask>
    <clipPath
       id="A-7">
      <path
         d="m 0 0 h 1024 v 800 h -1024 z"
         id="path3793" />
    </clipPath>
    <filter
       id="a-8"
       height="100%"
       width="100%"
       x="0%"
       y="0%">
      <feColorMatrix
         in="SourceGraphic"
         type="matrix"
         values="0 0 0 0 1 0 0 0 0 1 0 0 0 0 1 0 0 0 1 0"
         id="feColorMatrix4018" />
    </filter>
    <mask
       id="b-6">
      <g
         filter="url(#a)"
         id="g4023"
         style="filter:url(#a-8)">
        <path
           d="m 0 0 h 16 v 16 h -16 z"
           fill-opacity="0.3"
           id="path4021" />
      </g>
    </mask>
    <clipPath
       id="c-8">
      <path
         d="m 0 0 h 1024 v 800 h -1024 z"
         id="path4026" />
    </clipPath>
    <mask
       id="d-8">
      <g
         filter="url(#a)"
         id="g4031"
         style="filter:url(#a-8)">
        <path
           d="m 0 0 h 16 v 16 h -16 z"
           fill-opacity="0.05"
           id="path4029" />
      </g>
    </mask>
    <clipPath
       id="e-4">
      <path
         d="m 0 0 h 1024 v 800 h -1024 z"
         id="path4034" />
    </clipPath>
    <mask
       id="f-3">
      <g
         filter="url(#a)"
         id="g4039"
         style="filter:url(#a-8)">
        <path
           d="m 0 0 h 16 v 16 h -16 z"
           fill-opacity="0.05"
           id="path4037" />
      </g>
    </mask>
    <clipPath
       id="g-1">
      <path
         d="m 0 0 h 1024 v 800 h -1024 z"
         id="path4042" />
    </clipPath>
    <mask
       id="h-4">
      <g
         filter="url(#a)"
         id="g4047"
         style="filter:url(#a-8)">
        <path
           d="m 0 0 h 16 v 16 h -16 z"
           fill-opacity="0.05"
           id="path4045" />
      </g>
    </mask>
    <clipPath
       id="i-9">
      <path
         d="m 0 0 h 1024 v 800 h -1024 z"
         id="path4050" />
    </clipPath>
    <mask
       id="j-2">
      <g
         filter="url(#a)"
         id="g4055"
         style="filter:url(#a-8)">
        <path
           d="m 0 0 h 16 v 16 h -16 z"
           fill-opacity="0.05"
           id="path4053" />
      </g>
    </mask>
    <clipPath
       id="k-0">
      <path
         d="m 0 0 h 1024 v 800 h -1024 z"
         id="path4058" />
    </clipPath>
    <mask
       id="l-6">
      <g
         filter="url(#a)"
         id="g4063"
         style="filter:url(#a-8)">
        <path
           d="m 0 0 h 16 v 16 h -16 z"
           fill-opacity="0.05"
           id="path4061" />
      </g>
    </mask>
    <clipPath
       id="m-8">
      <path
         d="m 0 0 h 1024 v 800 h -1024 z"
         id="path4066" />
    </clipPath>
    <mask
       id="n-92">
      <g
         filter="url(#a)"
         id="g4071"
         style="filter:url(#a-8)">
        <path
           d="m 0 0 h 16 v 16 h -16 z"
           fill-opacity="0.05"
           id="path4069" />
      </g>
    </mask>
    <clipPath
       id="o-6">
      <path
         d="m 0 0 h 1024 v 800 h -1024 z"
         id="path4074" />
    </clipPath>
    <mask
       id="p-6">
      <g
         filter="url(#a)"
         id="g4079"
         style="filter:url(#a-8)">
        <path
           d="m 0 0 h 16 v 16 h -16 z"
           fill-opacity="0.3"
           id="path4077" />
      </g>
    </mask>
    <clipPath
       id="q-49">
      <path
         d="m 0 0 h 1024 v 800 h -1024 z"
         id="path4082" />
    </clipPath>
    <mask
       id="r-50">
      <g
         filter="url(#a)"
         id="g4087"
         style="filter:url(#a-8)">
        <path
           d="m 0 0 h 16 v 16 h -16 z"
           fill-opacity="0.5"
           id="path4085" />
      </g>
    </mask>
    <clipPath
       id="s-4">
      <path
         d="m 0 0 h 1024 v 800 h -1024 z"
         id="path4090" />
    </clipPath>
    <mask
       id="t-8">
      <g
         filter="url(#a)"
         id="g4095"
         style="filter:url(#a-8)">
        <path
           d="m 0 0 h 16 v 16 h -16 z"
           fill-opacity="0.4"
           id="path4093" />
      </g>
    </mask>
    <clipPath
       id="u-7">
      <path
         d="m 0 0 h 1024 v 800 h -1024 z"
         id="path4098" />
    </clipPath>
    <mask
       id="v-1">
      <g
         filter="url(#a)"
         id="g4103"
         style="filter:url(#a-8)">
        <path
           d="m 0 0 h 16 v 16 h -16 z"
           fill-opacity="0.4"
           id="path4101" />
      </g>
    </mask>
    <clipPath
       id="w-7">
      <path
         d="m 0 0 h 1024 v 800 h -1024 z"
         id="path4106" />
    </clipPath>
    <mask
       id="x-2">
      <g
         filter="url(#a)"
         id="g4111"
         style="filter:url(#a-8)">
        <path
           d="m 0 0 h 16 v 16 h -16 z"
           fill-opacity="0.5"
           id="path4109" />
      </g>
    </mask>
    <clipPath
       id="y-7">
      <path
         d="m 0 0 h 1024 v 800 h -1024 z"
         id="path4114" />
    </clipPath>
    <mask
       id="z-2">
      <g
         filter="url(#a)"
         id="g4119"
         style="filter:url(#a-8)">
        <path
           d="m 0 0 h 16 v 16 h -16 z"
           fill-opacity="0.5"
           id="path4117" />
      </g>
    </mask>
    <clipPath
       id="A-2">
      <path
         d="m 0 0 h 1024 v 800 h -1024 z"
         id="path4122" />
    </clipPath>
    <filter
       id="a-61"
       height="100%"
       width="100%"
       x="0%"
       y="0%">
      <feColorMatrix
         in="SourceGraphic"
         type="matrix"
         values="0 0 0 0 1 0 0 0 0 1 0 0 0 0 1 0 0 0 1 0"
         id="feColorMatrix4316" />
    </filter>
    <mask
       id="b-0">
      <g
         filter="url(#a)"
         id="g4321"
         style="filter:url(#a-61)">
        <path
           d="m 0 0 h 16 v 16 h -16 z"
           fill-opacity="0.3"
           id="path4319" />
      </g>
    </mask>
    <clipPath
       id="c-6">
      <path
         d="m 0 0 h 1024 v 800 h -1024 z"
         id="path4324" />
    </clipPath>
    <mask
       id="d-1">
      <g
         filter="url(#a)"
         id="g4329"
         style="filter:url(#a-61)">
        <path
           d="m 0 0 h 16 v 16 h -16 z"
           fill-opacity="0.05"
           id="path4327" />
      </g>
    </mask>
    <clipPath
       id="e-5">
      <path
         d="m 0 0 h 1024 v 800 h -1024 z"
         id="path4332" />
    </clipPath>
    <mask
       id="f-9">
      <g
         filter="url(#a)"
         id="g4337"
         style="filter:url(#a-61)">
        <path
           d="m 0 0 h 16 v 16 h -16 z"
           fill-opacity="0.05"
           id="path4335" />
      </g>
    </mask>
    <clipPath
       id="g-4">
      <path
         d="m 0 0 h 1024 v 800 h -1024 z"
         id="path4340" />
    </clipPath>
    <mask
       id="h-9">
      <g
         filter="url(#a)"
         id="g4345"
         style="filter:url(#a-61)">
        <path
           d="m 0 0 h 16 v 16 h -16 z"
           fill-opacity="0.05"
           id="path4343" />
      </g>
    </mask>
    <clipPath
       id="i-0">
      <path
         d="m 0 0 h 1024 v 800 h -1024 z"
         id="path4348" />
    </clipPath>
    <mask
       id="j-9">
      <g
         filter="url(#a)"
         id="g4353"
         style="filter:url(#a-61)">
        <path
           d="m 0 0 h 16 v 16 h -16 z"
           fill-opacity="0.05"
           id="path4351" />
      </g>
    </mask>
    <clipPath
       id="k-1">
      <path
         d="m 0 0 h 1024 v 800 h -1024 z"
         id="path4356" />
    </clipPath>
    <mask
       id="l-7">
      <g
         filter="url(#a)"
         id="g4361"
         style="filter:url(#a-61)">
        <path
           d="m 0 0 h 16 v 16 h -16 z"
           fill-opacity="0.05"
           id="path4359" />
      </g>
    </mask>
    <clipPath
       id="m-7">
      <path
         d="m 0 0 h 1024 v 800 h -1024 z"
         id="path4364" />
    </clipPath>
    <mask
       id="n-1">
      <g
         filter="url(#a)"
         id="g4369"
         style="filter:url(#a-61)">
        <path
           d="m 0 0 h 16 v 16 h -16 z"
           fill-opacity="0.05"
           id="path4367" />
      </g>
    </mask>
    <clipPath
       id="o-1">
      <path
         d="m 0 0 h 1024 v 800 h -1024 z"
         id="path4372" />
    </clipPath>
    <mask
       id="p-5">
      <g
         filter="url(#a)"
         id="g4377"
         style="filter:url(#a-61)">
        <path
           d="m 0 0 h 16 v 16 h -16 z"
           fill-opacity="0.3"
           id="path4375" />
      </g>
    </mask>
    <clipPath
       id="q-9">
      <path
         d="m 0 0 h 1024 v 800 h -1024 z"
         id="path4380" />
    </clipPath>
    <mask
       id="r-7">
      <g
         filter="url(#a)"
         id="g4385"
         style="filter:url(#a-61)">
        <path
           d="m 0 0 h 16 v 16 h -16 z"
           fill-opacity="0.5"
           id="path4383" />
      </g>
    </mask>
    <clipPath
       id="s-7">
      <path
         d="m 0 0 h 1024 v 800 h -1024 z"
         id="path4388" />
    </clipPath>
    <mask
       id="t-6">
      <g
         filter="url(#a)"
         id="g4393"
         style="filter:url(#a-61)">
        <path
           d="m 0 0 h 16 v 16 h -16 z"
           fill-opacity="0.4"
           id="path4391" />
      </g>
    </mask>
    <clipPath
       id="u-73">
      <path
         d="m 0 0 h 1024 v 800 h -1024 z"
         id="path4396" />
    </clipPath>
    <mask
       id="v-6">
      <g
         filter="url(#a)"
         id="g4401"
         style="filter:url(#a-61)">
        <path
           d="m 0 0 h 16 v 16 h -16 z"
           fill-opacity="0.4"
           id="path4399" />
      </g>
    </mask>
    <clipPath
       id="w-5">
      <path
         d="m 0 0 h 1024 v 800 h -1024 z"
         id="path4404" />
    </clipPath>
    <mask
       id="x-6">
      <g
         filter="url(#a)"
         id="g4409"
         style="filter:url(#a-61)">
        <path
           d="m 0 0 h 16 v 16 h -16 z"
           fill-opacity="0.5"
           id="path4407" />
      </g>
    </mask>
    <clipPath
       id="y-39">
      <path
         d="m 0 0 h 1024 v 800 h -1024 z"
         id="path4412" />
    </clipPath>
    <mask
       id="z-4">
      <g
         filter="url(#a)"
         id="g4417"
         style="filter:url(#a-61)">
        <path
           d="m 0 0 h 16 v 16 h -16 z"
           fill-opacity="0.5"
           id="path4415" />
      </g>
    </mask>
    <clipPath
       id="A-8">
      <path
         d="m 0 0 h 1024 v 800 h -1024 z"
         id="path4420" />
    </clipPath>
  </g>
</svg>
