<svg xmlns="http://www.w3.org/2000/svg" width="64" height="64" viewBox="0 0 16.933 16.933"><defs><clipPath clipPathUnits="userSpaceOnUse" id="b"><path style="fill:#7c983b;fill-opacity:1;stroke-width:.264583" class="powerclip" d="M-4.773-4.775h26.768v26.769H-4.773ZM8.465.51A7.955 7.955 0 0 0 .51 8.465a7.955 7.955 0 1 0 15.91 0A7.955 7.955 0 0 0 8.465.51z"/></clipPath><filter style="color-interpolation-filters:sRGB" id="a" x="-.027" width="1.054" y="-.027" height="1.054"><feGaussianBlur stdDeviation=".179"/></filter></defs><path d="M8.611.655a7.954 7.954 0 1 1 0 15.909 7.954 7.954 0 1 1 0-15.91z" style="opacity:.35;fill:#000;fill-opacity:1;stroke-width:.264583;filter:url(#a)" clip-path="url(#b)"/><path style="opacity:.2;stroke-width:.264583" d="M14.01 2.77c2.067 2.22 2.647 5.665 1.439 8.446-1.148 2.792-4.001 4.775-7.023 4.853A7.95 7.95 0 0 1 2.77 14.01c2 2.103 5.195 2.936 7.968 2.081 2.958-.847 5.265-3.554 5.619-6.612.329-2.448-.566-5-2.347-6.71Z"/><filter id="c" height="100%" width="100%" x="0%" y="0%"><feColorMatrix in="SourceGraphic" values="0 0 0 0 1 0 0 0 0 1 0 0 0 0 1 0 0 0 1 0"/></filter><filter id="d" height="100%" width="100%" x="0%" y="0%"><feColorMatrix in="SourceGraphic" values="0 0 0 0 1 0 0 0 0 1 0 0 0 0 1 0 0 0 1 0"/></filter><filter id="e" height="100%" width="100%" x="0%" y="0%"><feColorMatrix in="SourceGraphic" values="0 0 0 0 1 0 0 0 0 1 0 0 0 0 1 0 0 0 1 0"/></filter><filter id="f" height="100%" width="100%" x="0%" y="0%"><feColorMatrix in="SourceGraphic" values="0 0 0 0 1 0 0 0 0 1 0 0 0 0 1 0 0 0 1 0"/></filter></svg>